<?xml version="1.0" standalone="no"?>
<!DOCTYPE svg PUBLIC "-//W3C//DTD SVG 20010904//EN"
 "http://www.w3.org/TR/2001/REC-SVG-20010904/DTD/svg10.dtd">
<svg version="1.0" xmlns="http://www.w3.org/2000/svg"
 width="512.000000pt" height="512.000000pt" viewBox="0 0 512.000000 512.000000"
 preserveAspectRatio="xMidYMid meet">
<metadata>
Created by potrace 1.16, written by Peter Selinger 2001-2019
</metadata>
<g transform="translate(0.000000,512.000000) scale(0.100000,-0.100000)"
fill="#000000" stroke="none">
<path d="M936 5105 c-149 -41 -300 -165 -365 -298 -57 -119 -50 -179 23 -192
50 -10 72 8 110 89 70 152 197 244 359 259 l47 5 0 -671 0 -670 -62 7 c-124
13 -257 99 -322 210 -47 80 -56 141 -56 367 0 194 -1 208 -21 233 -27 35 -86
36 -117 3 -21 -22 -22 -31 -22 -248 0 -253 7 -298 66 -416 35 -71 111 -160
169 -200 16 -12 28 -23 25 -25 -3 -2 -54 -27 -114 -57 -344 -170 -584 -496
-646 -874 -6 -36 -10 -281 -10 -575 0 -476 1 -521 20 -613 47 -230 141 -413
299 -581 76 -82 193 -175 265 -213 28 -15 55 -46 101 -115 164 -248 401 -421
681 -497 91 -25 114 -27 294 -27 170 -1 206 2 279 22 122 32 237 81 337 143
89 55 262 210 305 274 l24 35 636 0 637 0 4 -127 c3 -90 10 -140 21 -167 29
-66 83 -122 149 -155 51 -26 73 -31 133 -31 103 0 159 22 226 89 81 82 89 111
89 347 0 170 2 193 17 198 28 11 146 93 186 129 31 29 37 41 37 75 0 32 -6 45
-26 61 -15 12 -36 21 -48 21 -12 0 -62 -30 -111 -66 -112 -82 -243 -146 -371
-181 l-99 -27 -687 -4 c-379 -1 -688 -1 -688 2 0 2 13 38 30 79 51 128 71 229
77 384 6 167 -6 268 -49 403 -128 401 -458 698 -871 786 -39 8 -124 17 -187
21 -563 26 -1066 -364 -1186 -920 -24 -110 -29 -294 -11 -412 9 -55 14 -101
13 -103 -2 -1 -36 33 -77 75 -90 95 -159 196 -205 303 -84 192 -98 339 -91
900 4 345 8 407 25 486 43 196 143 377 286 520 135 134 283 220 474 272 l97
27 1520 0 1520 0 88 -22 c49 -13 121 -37 161 -53 l74 -31 -31 -117 c-36 -143
-39 -218 -8 -287 44 -99 123 -155 230 -163 91 -6 159 16 218 73 l45 43 20 -46
c88 -203 93 -247 93 -812 -1 -455 -2 -491 -21 -580 -25 -113 -60 -203 -120
-309 -24 -44 -44 -88 -44 -99 0 -12 11 -33 24 -48 33 -39 91 -38 123 3 39 48
121 224 148 316 42 150 45 191 45 723 0 563 -3 606 -61 770 -27 79 -68 163
-125 261 l-19 32 88 353 c92 371 100 428 72 508 -34 96 -128 168 -233 177 -70
6 -122 -7 -185 -47 -79 -50 -99 -93 -163 -356 -49 -199 -60 -234 -73 -228 -47
21 -209 74 -228 74 -27 0 -27 2 -9 38 38 74 28 183 -25 268 l-30 46 20 22 c71
75 76 235 11 325 l-30 41 29 45 c78 124 57 277 -51 369 -73 63 -96 66 -523 66
-432 0 -451 -3 -527 -70 -50 -43 -82 -101 -93 -167 l-7 -43 -129 0 -129 0 0
38 c0 20 -7 65 -15 100 -48 202 -214 374 -415 427 -77 21 -1259 20 -1334 0z
m1321 -165 c121 -49 209 -134 255 -247 22 -56 23 -71 26 -367 2 -192 -1 -327
-8 -358 -27 -129 -114 -237 -239 -297 l-76 -36 -472 -3 -473 -3 0 671 0 672
463 -4 462 -4 62 -24z m1734 -303 c48 -32 67 -89 46 -139 -19 -44 -52 -68
-107 -75 -47 -7 -80 -41 -80 -83 0 -42 29 -69 83 -79 75 -14 127 -78 113 -137
-10 -39 -69 -94 -100 -94 -34 0 -82 -24 -90 -45 -22 -59 11 -108 82 -120 49
-8 97 -50 107 -94 9 -41 -17 -97 -57 -121 -32 -19 -49 -20 -403 -20 -354 0
-371 1 -403 20 -46 28 -68 82 -53 131 14 48 50 76 107 85 65 9 100 62 78 119
-8 20 -56 45 -88 45 -36 0 -94 54 -102 95 -10 57 48 135 103 135 31 0 79 25
87 45 21 56 -13 109 -74 118 -55 7 -88 31 -107 75 -21 50 -2 107 46 139 34 23
35 23 406 23 371 0 372 0 406 -23z m-963 -277 c11 -18 9 -25 -13 -54 -14 -18
-30 -47 -36 -64 l-11 -32 -134 0 -134 0 0 85 0 85 158 0 c147 0 158 -1 170
-20z m-43 -330 c4 -11 17 -33 31 -49 l24 -29 -34 -56 c-48 -79 -58 -185 -24
-248 8 -17 -5 -18 -221 -18 l-230 0 54 75 c64 90 94 163 108 268 l11 77 137 0
c129 0 138 -1 144 -20z m1881 -46 c39 -19 64 -59 64 -103 0 -41 -196 -833
-215 -871 -30 -57 -104 -76 -162 -40 -38 23 -55 52 -55 94 0 46 202 857 220
885 17 25 64 50 95 51 11 0 34 -7 53 -16z m-3070 -1835 c334 -46 637 -272 776
-576 15 -34 40 -102 55 -150 24 -80 26 -104 27 -258 1 -148 -2 -181 -22 -255
-95 -346 -360 -617 -699 -715 -159 -46 -372 -48 -528 -5 -419 116 -717 483
-742 911 -35 624 516 1134 1133 1048z m2544 -1741 c0 -125 -3 -147 -20 -176
-62 -101 -213 -95 -261 12 -14 31 -19 65 -19 144 l0 102 29 0 c35 0 147 23
211 44 25 8 48 14 53 15 4 1 7 -63 7 -141z"/>
<path d="M1474 4793 c-54 -11 -77 -92 -38 -134 16 -18 34 -19 394 -19 367 0
377 1 395 20 26 29 25 85 -3 113 -22 22 -25 22 -375 23 -193 1 -362 0 -373 -3z"/>
<path d="M1452 4364 c-13 -9 -27 -27 -32 -40 -11 -29 5 -81 30 -94 11 -6 163
-10 380 -10 217 0 369 4 380 10 25 13 41 65 30 94 -21 56 -24 56 -410 56 -310
0 -358 -2 -378 -16z"/>
<path d="M1453 3948 c-46 -22 -49 -101 -5 -134 21 -17 732 -20 762 -4 42 23
44 105 2 136 -22 17 -724 19 -759 2z"/>
<path d="M1562 1830 c-199 -31 -393 -162 -490 -331 -176 -309 -83 -710 211
-906 110 -73 208 -104 347 -110 140 -6 217 10 340 69 119 57 239 177 297 298
96 198 98 413 4 605 -112 229 -320 366 -576 380 -44 2 -104 0 -133 -5z m260
-181 c370 -122 477 -586 199 -859 -103 -101 -219 -150 -356 -150 -319 0 -568
288 -515 598 35 208 209 389 416 431 68 14 182 5 256 -20z"/>
<path d="M3348 2951 c-154 -51 -273 -175 -313 -326 -21 -83 -22 -793 -1 -872
32 -119 113 -228 217 -290 150 -90 353 -83 505 15 112 73 185 193 205 339 7
52 9 208 7 425 -5 393 -11 425 -92 535 -53 73 -104 114 -193 155 -61 29 -79
33 -173 35 -81 2 -118 -1 -162 -16z m290 -176 c65 -35 106 -81 141 -155 l26
-55 0 -380 0 -380 -27 -57 c-115 -246 -443 -250 -569 -8 l-24 45 0 400 0 400
27 51 c33 62 114 137 171 158 28 11 68 15 122 13 66 -3 90 -8 133 -32z"/>
<path d="M4135 2251 c-88 -40 -145 -118 -145 -198 0 -33 6 -46 26 -62 51 -40
100 -20 133 53 32 74 99 89 153 36 55 -56 37 -96 -168 -374 -137 -186 -148
-213 -99 -261 24 -25 25 -25 230 -25 205 0 206 0 230 25 30 29 32 74 6 106
-18 22 -28 24 -135 29 l-116 5 86 120 c119 165 149 230 149 320 -1 108 -48
180 -145 224 -58 26 -150 27 -205 2z"/>
</g>
</svg>
