<?xml version="1.0" standalone="no"?>
<!DOCTYPE svg PUBLIC "-//W3C//DTD SVG 20010904//EN"
 "http://www.w3.org/TR/2001/REC-SVG-20010904/DTD/svg10.dtd">
<svg version="1.0" xmlns="http://www.w3.org/2000/svg"
 width="512.000000pt" height="512.000000pt" viewBox="0 0 512.000000 512.000000"
 preserveAspectRatio="xMidYMid meet">
<metadata>
Created by potrace 1.16, written by Peter Selinger 2001-2019
</metadata>
<g transform="translate(0.000000,512.000000) scale(0.100000,-0.100000)"
fill="#000000" stroke="none">
<path d="M3751 5098 c-29 -19 -73 -102 -344 -645 l-310 -623 -1096 0 c-1057 0
-1097 -1 -1125 -19 -47 -31 -66 -69 -66 -132 l0 -57 800 -1160 800 -1160 0
-501 0 -501 -512 0 c-486 0 -515 -1 -542 -19 -46 -31 -66 -69 -66 -131 0 -62
20 -100 66 -131 28 -18 70 -19 1204 -19 1134 0 1176 1 1204 19 46 31 66 69 66
131 0 62 -20 100 -66 131 -27 18 -56 19 -541 19 l-513 0 0 501 0 501 773 1121
c426 617 786 1140 800 1162 21 31 27 52 27 95 0 62 -20 100 -66 131 -27 18
-54 19 -411 19 -211 0 -383 2 -383 5 0 3 122 248 270 545 251 502 270 544 270
592 0 59 -20 99 -66 129 -41 27 -128 25 -173 -3z m-938 -1840 l-138 -273 -54
-14 c-70 -19 -141 -5 -222 44 -211 129 -449 123 -661 -16 -45 -30 -82 -48 -87
-43 -14 16 -391 564 -391 569 0 3 380 5 845 5 l845 0 -137 -272z m1047 267 c0
-5 -377 -554 -391 -569 -5 -5 -41 13 -87 43 -80 52 -155 84 -227 96 -22 4 -46
8 -53 11 -8 2 22 73 93 214 l105 210 280 0 c154 0 280 -2 280 -5z m-1672 -753
c146 -76 179 -91 234 -102 35 -6 69 -14 76 -16 8 -2 -3 -35 -38 -104 -41 -82
-50 -109 -50 -152 0 -93 56 -148 150 -148 93 0 99 8 240 282 l125 243 54 14
c43 12 64 12 108 3 60 -12 195 -90 191 -109 -4 -15 -711 -1042 -718 -1042 -7
0 -714 1028 -718 1043 -3 14 119 90 168 105 48 14 134 6 178 -17z"/>
</g>
</svg>
