<?xml version="1.0" standalone="no"?>
<!DOCTYPE svg PUBLIC "-//W3C//DTD SVG 20010904//EN"
 "http://www.w3.org/TR/2001/REC-SVG-20010904/DTD/svg10.dtd">
<svg version="1.0" xmlns="http://www.w3.org/2000/svg"
 width="512.000000pt" height="512.000000pt" viewBox="0 0 512.000000 512.000000"
 preserveAspectRatio="xMidYMid meet">
<metadata>
Created by potrace 1.16, written by Peter Selinger 2001-2019
</metadata>
<g transform="translate(0.000000,512.000000) scale(0.100000,-0.100000)"
fill="#000000" stroke="none">
<path d="M2426 4500 c-27 -5 -71 -16 -97 -24 -75 -25 -2195 -1040 -2235 -1071
-61 -46 -94 -109 -94 -177 0 -112 57 -178 228 -262 l112 -56 0 -464 0 -464
-29 -11 c-42 -18 -106 -86 -132 -139 -26 -56 -31 -159 -9 -212 24 -60 71 -121
114 -149 l42 -26 -128 -405 c-70 -223 -128 -411 -128 -417 0 -10 81 -13 370
-13 290 0 370 3 370 13 -1 6 -58 194 -129 417 l-128 405 42 26 c84 53 127 136
127 244 0 53 -6 83 -23 120 -26 56 -84 116 -129 135 l-30 12 0 414 0 413 153
-74 152 -74 3 -630 2 -629 68 -78 c199 -231 501 -441 807 -562 405 -160 906
-197 1345 -97 343 77 686 253 945 483 93 83 189 184 228 242 16 22 17 80 17
645 l1 620 347 170 c388 189 437 218 478 276 60 87 39 219 -47 293 -48 40
-2081 1038 -2202 1080 -72 25 -99 29 -222 32 -77 1 -162 -1 -189 -6z m351
-216 c91 -33 2135 -1038 2140 -1051 3 -8 -2 -22 -12 -33 -18 -20 -738 -380
-760 -380 -7 0 -24 -9 -37 -20 -40 -31 -1300 -637 -1365 -656 -77 -23 -247
-23 -325 0 -51 15 -1592 747 -1610 764 -4 4 398 55 893 113 891 104 900 106
926 131 20 20 26 36 26 69 0 58 -35 89 -101 89 -25 0 -506 -54 -1067 -120
l-1021 -121 -128 62 c-70 33 -130 68 -133 76 -3 8 1 21 8 28 12 12 1717 837
2054 993 66 31 143 62 170 69 74 19 276 11 342 -13z m-1106 -2008 c329 -157
623 -294 655 -305 79 -26 232 -43 318 -36 164 15 109 -9 1154 501 l272 133 0
-544 0 -545 -67 -71 c-227 -242 -546 -435 -873 -528 -514 -146 -1065 -92
-1518 150 -187 99 -410 269 -514 392 l-48 55 0 547 c0 434 3 546 13 542 6 -3
280 -134 608 -291z"/>
</g>
</svg>
