<?xml version="1.0" standalone="no"?>
<!DOCTYPE svg PUBLIC "-//W3C//DTD SVG 20010904//EN"
 "http://www.w3.org/TR/2001/REC-SVG-20010904/DTD/svg10.dtd">
<svg version="1.0" xmlns="http://www.w3.org/2000/svg"
 width="512.000000pt" height="512.000000pt" viewBox="0 0 512.000000 512.000000"
 preserveAspectRatio="xMidYMid meet">
<metadata>
Created by potrace 1.16, written by Peter Selinger 2001-2019
</metadata>
<g transform="translate(0.000000,512.000000) scale(0.100000,-0.100000)"
fill="#000000" stroke="none">
<path d="M88 4890 c-20 -11 -47 -34 -60 -52 l-23 -33 -3 -386 c-3 -373 -2
-386 17 -403 26 -23 86 -23 112 0 18 16 19 34 19 363 0 190 4 352 8 359 7 10
163 12 748 10 l739 -3 3 -2022 2 -2023 -744 0 c-669 0 -744 2 -750 16 -3 9 -6
703 -6 1544 l0 1529 -26 20 c-34 27 -64 27 -98 0 l-26 -20 0 -1568 0 -1568 23
-33 c38 -57 70 -74 147 -78 l70 -4 0 -93 c0 -104 9 -137 48 -179 56 -60 -57
-56 1765 -56 l1674 0 21 23 c27 29 28 77 3 108 l-19 24 -1664 5 -1663 5 -3 82
-3 83 658 4 c362 2 668 4 681 4 29 0 1615 0 1645 0 12 0 318 -2 680 -4 l657
-4 0 -73 c0 -39 -4 -77 -8 -84 -6 -9 -100 -13 -371 -15 l-363 -3 -19 -24 c-25
-30 -24 -72 2 -105 l20 -26 382 0 c377 0 383 1 421 23 73 42 95 94 96 228 l0
77 70 4 c77 4 109 21 148 78 l22 33 -2 2076 -3 2076 -23 33 c-13 18 -41 41
-63 52 -38 20 -55 20 -826 16 -434 -2 -804 -4 -823 -4 -46 1 -1594 1 -1640 0
-19 0 -390 1 -825 3 -768 4 -791 4 -827 -15z m3217 -2165 l0 -2020 -745 0
-745 0 -3 2010 c-1 1106 0 2016 3 2023 3 10 158 12 747 10 l743 -3 0 -2020z
m1659 2009 c8 -20 8 -3998 0 -4018 -6 -14 -81 -16 -750 -16 l-744 0 0 2018 c0
1110 3 2022 7 2025 3 4 338 7 744 7 663 0 737 -2 743 -16z"/>
<path d="M2111 3336 c-48 -17 -108 -71 -134 -119 -19 -37 -22 -60 -25 -199 -4
-157 -4 -157 22 -183 33 -33 84 -34 114 -2 20 22 22 33 22 161 l0 138 29 29
c38 37 82 39 116 4 l25 -24 0 -416 0 -416 -25 -24 c-36 -37 -86 -34 -119 6
-25 30 -26 35 -26 165 0 130 -1 136 -25 159 -29 30 -74 32 -106 6 -23 -19 -24
-23 -24 -183 0 -148 2 -167 22 -204 52 -97 128 -139 242 -132 58 3 78 9 113
34 23 16 56 49 73 73 l30 43 3 455 3 455 -24 53 c-51 109 -188 164 -306 121z"/>
<path d="M2210 1737 c-49 -25 -60 -88 -23 -129 15 -17 46 -18 373 -18 347 0
357 1 375 20 26 29 25 85 -3 113 -22 22 -26 22 -360 25 -258 2 -343 -1 -362
-11z"/>
<path d="M2185 1420 c-11 -12 -19 -36 -19 -55 0 -19 8 -43 19 -55 18 -19 28
-20 375 -20 347 0 357 1 375 20 11 12 19 36 19 55 0 19 -8 43 -19 55 -18 19
-28 20 -375 20 -347 0 -357 -1 -375 -20z"/>
<path d="M2189 1121 c-31 -25 -32 -83 -1 -114 22 -22 24 -22 372 -22 348 0
350 0 372 22 31 31 30 89 -1 114 -22 18 -46 19 -371 19 -325 0 -349 -1 -371
-19z"/>
<path d="M3742 3325 c-56 -29 -92 -68 -117 -128 -23 -54 -23 -890 0 -944 26
-63 65 -104 122 -130 116 -53 253 -14 318 91 l30 49 3 440 c3 491 2 503 -64
571 -50 52 -89 69 -169 73 -61 4 -77 1 -123 -22z m172 -166 l26 -31 0 -399 c0
-420 -3 -446 -45 -463 -35 -13 -76 -6 -100 19 l-25 24 0 414 0 414 26 27 c38
37 84 36 118 -5z"/>
<path d="M3893 1740 c-52 -21 -65 -89 -26 -132 15 -17 46 -18 368 -18 330 0
354 1 376 19 31 25 32 83 1 114 -22 22 -26 22 -360 24 -185 1 -347 -2 -359 -7z"/>
<path d="M3861 1414 c-12 -15 -21 -37 -21 -49 0 -12 9 -34 21 -49 l20 -26 358
0 c348 0 358 1 376 20 11 12 19 36 19 55 0 19 -8 43 -19 55 -18 19 -28 20
-376 20 l-358 0 -20 -26z"/>
<path d="M3867 1122 c-30 -33 -32 -75 -4 -108 l25 -29 351 0 c349 0 351 0 373
22 31 31 30 89 -1 114 -22 18 -46 19 -376 19 -327 0 -353 -1 -368 -18z"/>
<path d="M435 3326 c-54 -25 -100 -71 -122 -123 -10 -26 -13 -127 -13 -480 0
-504 -1 -495 75 -562 53 -46 94 -61 165 -61 100 0 175 45 223 135 22 39 22 48
22 490 0 445 0 450 -22 491 -63 119 -207 167 -328 110z m162 -160 l28 -24 0
-415 0 -415 -24 -26 c-26 -28 -67 -34 -103 -15 -45 24 -48 55 -48 446 0 222 4
383 10 405 19 68 85 89 137 44z"/>
<path d="M563 1743 c-51 -10 -71 -95 -33 -133 19 -19 33 -20 374 -20 l355 0
20 26 c37 47 22 103 -33 124 -26 10 -633 13 -683 3z"/>
<path d="M530 1420 c-12 -12 -20 -33 -20 -55 0 -22 8 -43 20 -55 19 -19 33
-20 374 -20 l355 0 20 26 c27 34 27 64 0 98 l-20 26 -355 0 c-341 0 -355 -1
-374 -20z"/>
<path d="M530 1120 c-26 -26 -26 -80 -1 -111 l19 -24 324 -3 c177 -2 338 0
356 3 66 12 92 77 51 129 l-20 26 -355 0 c-341 0 -355 -1 -374 -20z"/>
</g>
</svg>
