<?xml version="1.0" standalone="no"?>
<!DOCTYPE svg PUBLIC "-//W3C//DTD SVG 20010904//EN"
 "http://www.w3.org/TR/2001/REC-SVG-20010904/DTD/svg10.dtd">
<svg version="1.0" xmlns="http://www.w3.org/2000/svg"
 width="512.000000pt" height="512.000000pt" viewBox="0 0 512.000000 512.000000"
 preserveAspectRatio="xMidYMid meet">
<metadata>
Created by potrace 1.16, written by Peter Selinger 2001-2019
</metadata>
<g transform="translate(0.000000,512.000000) scale(0.100000,-0.100000)"
fill="#000000" stroke="none">
<path d="M3050 4600 c-200 -25 -424 -109 -597 -223 -190 -124 -384 -341 -483
-536 -81 -162 -135 -366 -147 -556 -6 -101 -5 -106 17 -130 50 -53 130 -17
130 57 0 58 37 159 77 212 136 178 392 196 548 39 61 -60 92 -124 109 -224 15
-89 29 -109 77 -109 48 0 69 28 79 102 16 132 91 242 203 298 33 16 66 30 74
30 11 0 13 -168 13 -985 l0 -985 -1304 0 -1303 0 -27 -21 c-26 -20 -26 -20
-26 -169 0 -199 -4 -193 163 -200 l124 -5 -130 -268 -130 -267 -81 0 c-102 0
-126 -14 -126 -71 0 -26 7 -46 20 -59 20 -20 33 -20 2230 -20 2197 0 2210 0
2230 20 13 13 20 33 20 59 0 57 -24 71 -125 71 l-81 0 -157 322 -157 323 0
122 c0 156 -5 163 -122 163 -43 0 -78 2 -78 4 0 2 122 214 270 472 149 257
270 478 270 490 0 42 -13 54 -135 124 -122 70 -150 79 -184 60 -10 -5 -166
-266 -347 -580 l-329 -570 -167 0 -168 0 0 985 c0 781 3 985 13 985 28 0 119
-51 162 -91 62 -57 103 -141 115 -232 10 -79 30 -107 79 -107 47 0 62 20 77
105 25 143 97 245 213 303 49 24 68 27 151 27 88 0 101 -3 162 -33 115 -56
191 -165 204 -291 9 -77 32 -111 78 -111 21 0 40 8 54 23 27 29 29 101 6 254
-45 309 -176 567 -398 789 -204 204 -434 328 -706 384 -121 25 -343 34 -460
20z m-40 -166 c0 -3 -14 -26 -31 -51 -113 -164 -217 -480 -245 -743 -4 -36 -9
-68 -11 -73 -2 -4 -25 11 -50 33 -149 131 -389 158 -573 65 l-49 -25 10 29
c42 119 159 298 272 412 107 109 195 172 342 244 135 67 335 132 335 109z
m336 -136 c102 -152 183 -395 219 -652 7 -53 11 -53 -61 -4 -22 15 -76 39
-120 54 -71 23 -90 26 -179 21 -113 -5 -183 -27 -267 -83 -28 -19 -52 -33 -54
-31 -3 2 5 55 15 118 48 277 148 519 275 665 l49 56 39 -39 c22 -21 59 -68 84
-105z m186 121 c292 -74 551 -254 721 -500 57 -83 100 -161 126 -227 l21 -52
-50 25 c-188 95 -429 65 -580 -72 -44 -39 -44 -39 -55 62 -27 249 -124 542
-234 713 -23 34 -41 65 -41 67 0 7 6 6 92 -16z m884 -1870 c32 -20 33 -21 19
-47 -8 -15 -160 -279 -338 -587 l-323 -560 -47 -3 c-26 -2 -47 0 -47 4 0 9
694 1213 699 1214 2 0 19 -9 37 -21z m-894 -1154 l-27 -45 -1427 0 -1428 0 0
45 0 45 1455 0 1455 0 -28 -45z m-372 -465 l0 -270 -1230 0 c-676 0 -1230 2
-1230 4 0 2 58 123 130 270 l129 266 1101 0 1100 0 0 -270z m1151 4 c71 -147
129 -268 129 -270 0 -2 -254 -4 -565 -4 l-565 0 0 270 0 270 436 0 435 0 130
-266z"/>
</g>
</svg>
