<?xml version="1.0" standalone="no"?>
<!DOCTYPE svg PUBLIC "-//W3C//DTD SVG 20010904//EN"
 "http://www.w3.org/TR/2001/REC-SVG-20010904/DTD/svg10.dtd">
<svg version="1.0" xmlns="http://www.w3.org/2000/svg"
 width="512.000000pt" height="512.000000pt" viewBox="0 0 512.000000 512.000000"
 preserveAspectRatio="xMidYMid meet">
<metadata>
Created by potrace 1.16, written by Peter Selinger 2001-2019
</metadata>
<g transform="translate(0.000000,512.000000) scale(0.100000,-0.100000)"
fill="#000000" stroke="none">
<path d="M1372 5100 c-245 -65 -449 -270 -512 -516 -16 -62 -20 -111 -20 -251
l0 -173 -380 0 c-367 0 -381 -1 -400 -20 -20 -20 -20 -33 -20 -1900 0 -1867 0
-1880 20 -1900 20 -20 33 -20 1543 -20 l1523 0 119 -40 c112 -38 126 -40 235
-40 109 0 123 2 235 40 l119 40 373 0 c412 0 416 1 482 63 66 63 71 85 71 345
l0 232 76 0 75 0 -3 -252 c-3 -251 -3 -253 -30 -311 -34 -72 -121 -160 -191
-192 -77 -36 -164 -45 -440 -45 -234 0 -248 -1 -267 -20 -27 -27 -27 -93 0
-120 19 -19 33 -20 328 -20 253 0 318 3 363 16 145 43 277 148 342 272 71 135
67 73 67 1124 0 935 0 948 -20 968 -22 22 -78 27 -110 10 -35 -19 -40 -73 -40
-477 l0 -393 -75 0 -75 0 0 190 c0 211 -6 239 -63 298 -18 19 -50 43 -72 55
-38 21 -56 22 -307 25 l-268 4 0 986 c0 651 -4 1000 -10 1024 -6 21 -19 42
-30 48 -12 6 -184 10 -468 10 l-449 0 -6 173 c-8 203 -26 288 -89 410 -59 114
-181 236 -295 295 -211 109 -465 112 -672 8 l-71 -36 -71 36 c-39 19 -105 44
-147 55 -101 26 -269 25 -370 -1z m323 -164 c28 -7 67 -20 88 -29 l38 -16 -39
-53 c-55 -74 -100 -167 -123 -256 -15 -60 -19 -110 -19 -249 l0 -173 -316 0
-316 0 4 183 c3 158 7 190 26 242 62 166 210 304 379 350 64 17 215 18 278 1z
m850 -14 c129 -47 250 -156 311 -278 42 -86 54 -150 61 -321 l6 -163 -315 0
-315 0 -6 173 c-9 245 -44 365 -149 505 l-39 53 38 16 c82 35 128 42 238 39
83 -2 125 -8 170 -24z m-531 -209 c79 -116 106 -230 106 -450 l0 -103 -156 0
-156 0 4 183 c3 158 7 190 26 242 22 59 107 195 122 195 4 0 29 -30 54 -67z
m-1174 -1013 c0 -287 1 -301 20 -320 22 -22 78 -27 110 -10 33 18 40 76 40
358 l0 272 555 0 555 0 0 -300 c0 -287 1 -301 20 -320 22 -22 78 -27 110 -10
33 18 40 76 40 358 l0 272 315 0 315 0 0 -954 0 -954 -272 -4 c-257 -3 -275
-4 -313 -25 -22 -12 -54 -36 -72 -55 -58 -60 -66 -93 -71 -300 l-4 -188 -130
0 c-71 0 -138 -5 -148 -10 -31 -17 -40 -75 -40 -270 0 -195 9 -253 40 -270 10
-5 77 -10 149 -10 l131 0 1 -192 c0 -106 4 -214 8 -241 l8 -47 -999 0 -998 0
0 1760 0 1760 315 0 315 0 0 -300z m2560 -655 l0 -955 -155 0 -155 0 0 955 0
955 155 0 155 0 0 -955z m480 0 l0 -955 -155 0 -155 0 0 955 0 955 155 0 155
0 0 -955z m691 -1154 c18 -22 19 -48 19 -688 0 -414 -4 -671 -10 -683 -19 -35
-63 -40 -395 -40 l-323 0 -6 24 c-3 13 -9 31 -12 40 -6 14 25 16 315 16 308 0
322 1 341 20 20 20 20 33 20 620 0 587 0 600 -20 620 -20 20 -33 20 -1016 20
-652 0 -1002 -3 -1014 -10 -11 -6 -24 -27 -30 -48 -14 -51 -14 -1113 0 -1164
6 -21 19 -42 30 -48 11 -6 141 -10 335 -10 286 0 317 -2 311 -16 -3 -9 -9 -27
-12 -40 l-6 -24 -324 0 c-372 0 -385 2 -404 67 -8 27 -10 228 -8 679 3 687 1
664 53 685 11 4 496 7 1078 6 l1059 -2 19 -24z m-221 -691 l0 -480 -283 0
-282 0 -74 221 c-40 122 -82 230 -92 240 -17 17 -35 19 -139 19 -104 0 -122
-2 -139 -19 -10 -10 -52 -118 -92 -240 l-74 -221 -287 0 -288 0 0 480 0 480
875 0 875 0 0 -480z m-2160 40 l0 -120 -75 0 -75 0 0 120 0 120 75 0 75 0 0
-120z m2720 0 l0 -120 -75 0 -75 0 0 120 0 120 75 0 75 0 0 -120z m-1321 -482
c52 -156 96 -288 98 -293 5 -15 -155 -65 -207 -65 -52 0 -212 50 -207 65 2 5
46 137 98 293 68 205 98 282 109 282 11 0 41 -77 109 -282z"/>
</g>
</svg>
