<?xml version="1.0" standalone="no"?>
<!DOCTYPE svg PUBLIC "-//W3C//DTD SVG 20010904//EN"
 "http://www.w3.org/TR/2001/REC-SVG-20010904/DTD/svg10.dtd">
<svg version="1.0" xmlns="http://www.w3.org/2000/svg"
 width="512.000000pt" height="512.000000pt" viewBox="0 0 512.000000 512.000000"
 preserveAspectRatio="xMidYMid meet">
<metadata>
Created by potrace 1.16, written by Peter Selinger 2001-2019
</metadata>
<g transform="translate(0.000000,512.000000) scale(0.100000,-0.100000)"
fill="#000000" stroke="none">
<path d="M1260 5113 c-69 -8 -208 -43 -296 -74 -205 -72 -379 -183 -539 -344
-201 -200 -326 -424 -398 -715 -21 -85 -21 -88 -24 -1988 l-3 -1902 39 -43 40
-42 363 -3 c350 -2 364 -2 396 18 19 12 41 38 52 63 19 41 20 89 20 1842 0
1568 2 1808 15 1864 35 146 143 286 274 355 219 115 463 77 636 -98 72 -72 98
-116 185 -318 l33 -77 -48 -53 c-103 -114 -167 -233 -207 -382 -17 -64 -22
-109 -22 -216 0 -144 14 -217 69 -351 l24 -60 -42 -52 c-64 -78 -90 -146 -95
-247 -5 -95 9 -148 75 -287 69 -147 197 -243 349 -262 140 -17 124 -23 1043
385 943 420 950 423 1007 470 121 98 181 288 143 454 -18 82 -103 245 -154
295 -69 70 -160 109 -263 113 l-83 4 -29 64 c-86 190 -240 344 -432 433 -133
62 -202 76 -363 76 l-141 0 -38 90 c-67 155 -136 287 -200 379 -68 100 -207
246 -304 320 -193 147 -436 249 -679 285 -68 10 -326 13 -403 4z m472 -336
c196 -52 363 -145 508 -283 134 -128 187 -206 285 -422 l62 -136 -130 -58
c-71 -32 -132 -57 -134 -55 -1 2 -28 59 -58 126 -67 149 -123 237 -202 317
-379 384 -1022 324 -1319 -122 -31 -47 -70 -119 -86 -161 -61 -156 -58 -66
-58 -1949 l0 -1724 -145 0 -145 0 2 1773 3 1772 28 100 c90 321 312 593 602
738 76 38 220 86 305 102 121 23 360 14 482 -18z m1417 -1062 c89 -21 191 -78
259 -144 59 -57 125 -155 136 -201 6 -24 -8 -32 -693 -336 l-700 -311 -20 51
c-47 122 -58 204 -41 308 27 165 118 304 255 393 68 43 474 223 544 240 75 18
182 18 260 0z m810 -582 c30 -21 91 -151 91 -195 0 -39 -29 -90 -63 -113 -14
-8 -408 -186 -878 -395 -648 -289 -862 -380 -892 -380 -62 0 -94 26 -138 114
-45 90 -48 124 -16 161 27 32 1796 823 1842 824 17 1 41 -6 54 -16z"/>
<path d="M4105 2166 c-69 -30 -106 -110 -85 -183 11 -44 126 -175 173 -199 43
-23 119 -21 159 4 47 30 68 70 68 135 0 62 -20 96 -111 184 -76 73 -134 90
-204 59z"/>
<path d="M3370 1841 c-52 -28 -73 -62 -77 -128 -3 -53 1 -67 44 -153 55 -110
83 -132 164 -132 88 0 149 62 149 152 0 52 -61 198 -98 233 -52 50 -122 60
-182 28z"/>
<path d="M4790 1558 c-69 -36 -98 -117 -69 -195 14 -38 146 -172 186 -189 103
-44 213 27 213 138 0 64 -14 89 -102 175 -101 99 -145 113 -228 71z"/>
<path d="M2655 1526 c-41 -18 -83 -69 -90 -109 -3 -18 -2 -78 3 -133 7 -80 14
-108 31 -133 30 -42 76 -64 134 -65 53 0 88 21 126 75 22 32 23 40 18 147 -6
133 -23 175 -83 209 -44 25 -94 29 -139 9z"/>
<path d="M4070 1242 c-51 -25 -80 -74 -80 -136 0 -45 7 -64 53 -141 28 -48 64
-97 79 -108 39 -29 123 -34 168 -9 48 25 83 93 77 149 -5 45 -80 183 -119 220
-48 45 -119 55 -178 25z"/>
<path d="M3344 921 c-79 -48 -97 -108 -64 -219 48 -168 79 -202 183 -202 53 0
61 3 99 38 37 35 42 45 45 93 5 60 -33 205 -65 249 -42 57 -139 77 -198 41z"/>
<path d="M2622 604 c-18 -9 -43 -31 -55 -48 -20 -28 -22 -42 -21 -157 1 -150
13 -180 84 -217 76 -39 151 -20 204 52 19 25 21 40 18 148 -3 135 -15 175 -65
210 -40 29 -121 34 -165 12z"/>
</g>
</svg>
