<?xml version="1.0" encoding="UTF-8"?><svg id="Layer_1" xmlns="http://www.w3.org/2000/svg" viewBox="0 0 120.33 149.7"><path d="M67.34,64.83c.66,.14,.96,.44,.9,.92,.31,.04,.58-.04,.78-.18,.59-.4,.54-1.09,.03-1.55-.28-.26-.67-.4-1.01-.31-.4,.1-.64,.45-.7,1.12h0Zm.48,1.47c-.03,.17,.08,.41,.33,.7,.3,.34,.46,.57,.49,.7l-.49,.48c-.54-.37-.93-.68-1.17-.92-3.79,3.49-16.72,16.23-17.82,17.64,.37,.4,.84,.67,1.4,.81,.07,.02,.3,.07,.7,.15,.28,.06,.51,.11,.69,.18,.15,0,.21-.1,.19-.3-.02-.23,.02-.4,.18-.47,.33-.14,.72-.07,1.15,.14,.28,.14,.66,.4,1.15,.79-.28,.39-.63,.75-1.08,1.04-.48,.32-.9,.45-1.24,.41-.14-.12-.21-.26-.18-.43,.04-.27,.05-.42,.05-.42-1.27,.16-2.88-.16-4.82-.94-.03,0-.07,.01-.14,.02-.07,0-.12,.01-.15,.02-.1,.03-.2,.11-.28,.22,.07-.52-.09-1.43-.49-2.73-.35-1.16-.41-2.06-.16-2.73-.1-.08-.26-.09-.5-.06-.2,.03-.37-.05-.49-.22,.07-.37,.24-.78,.53-1.21,.3-.45,.66-.79,1.04-1.02,.59,.68,.94,1.4,1.03,2.18-.25,.28-.53,.37-.85,.27,.07,.82,.13,1.35,.19,1.59,.16,.63,.49,1.1,.98,1.43,.95-.81,2.17-1.95,3.66-3.44,2-2,13.71-13.5,14.15-13.91-.06-.15-.21-.37-.45-.67-.25-.3-.39-.52-.45-.66l.49-.48c.15,.06,.37,.21,.66,.45,.29,.24,.52,.4,.66,.46-.16-.39-.26-.9,.03-1.44,.6-1.14,1.91-1.22,2.71-.51,.95,.85,.74,1.96-.05,2.65-.41,.36-.96,.43-1.65,.22h0Z" style="fill:#edede0; fill-rule:evenodd;"/><path d="M50.45,64.83c-.66,.14-.96,.44-.9,.92-.31,.04-.58-.04-.78-.18-.59-.4-.54-1.09-.03-1.55,.28-.26,.67-.4,1.01-.31,.4,.1,.64,.45,.7,1.12h0Zm-.48,1.47c.03,.17-.08,.41-.33,.7-.3,.34-.46,.57-.49,.7l.49,.48c.54-.37,.93-.68,1.17-.92,3.79,3.49,16.72,16.23,17.82,17.64-.37,.4-.84,.67-1.4,.81-.07,.02-.3,.07-.7,.15-.28,.06-.51,.11-.69,.18-.15,0-.21-.1-.19-.3,.02-.23-.02-.4-.18-.47-.33-.14-.72-.07-1.15,.14-.28,.14-.66,.4-1.15,.79,.28,.39,.63,.75,1.08,1.04,.48,.32,.9,.45,1.24,.41,.14-.12,.21-.26,.18-.43-.04-.27-.05-.42-.05-.42,1.27,.16,2.88-.16,4.82-.94,.03,0,.07,.01,.14,.02,.07,0,.12,.01,.15,.02,.1,.03,.2,.11,.28,.22-.07-.52,.09-1.43,.49-2.73,.35-1.16,.41-2.06,.16-2.73,.1-.08,.26-.09,.5-.06,.2,.03,.37-.05,.49-.22-.07-.37-.24-.78-.53-1.21-.3-.45-.66-.79-1.04-1.02-.59,.68-.94,1.4-1.03,2.18,.25,.28,.53,.37,.85,.27-.07,.82-.13,1.35-.19,1.59-.16,.63-.49,1.1-.98,1.43-.95-.81-2.17-1.95-3.66-3.44-2-2-13.71-13.5-14.15-13.91,.06-.15,.21-.37,.45-.67,.25-.3,.39-.52,.45-.66l-.49-.48c-.15,.06-.37,.21-.66,.45-.29,.24-.52,.4-.66,.46,.16-.39,.26-.9-.03-1.44-.6-1.14-1.91-1.22-2.71-.51-.95,.85-.74,1.96,.05,2.65,.41,.36,.96,.43,1.65,.22h0Z" style="fill:#edede0; fill-rule:evenodd;"/><path d="M58.89,39.77c2.88,0,5.49,1.17,7.38,3.06,1.89,1.89,3.06,4.5,3.06,7.38s-1.17,5.49-3.06,7.38c-1.89,1.89-4.5,3.06-7.38,3.06s-5.49-1.17-7.38-3.06c-1.89-1.89-3.06-4.5-3.06-7.38s1.17-5.49,3.06-7.38c1.89-1.89,4.5-3.06,7.38-3.06h0Zm7.12,3.32c-1.82-1.82-4.34-2.95-7.12-2.95s-5.3,1.13-7.12,2.95c-1.82,1.82-2.95,4.34-2.95,7.12s1.13,5.3,2.95,7.12c1.82,1.82,4.34,2.95,7.12,2.95s5.3-1.13,7.12-2.95c1.82-1.82,2.95-4.34,2.95-7.12s-1.13-5.3-2.95-7.12h0Z" style="fill:#edede0;"/><path d="M22.94,58.06c.59-.4,1.04-.4,1.35,0,.26-.2,.39-.46,.44-.72,.13-.74-.42-1.21-1.14-1.17-.4,.02-.79,.21-.98,.53-.22,.38-.14,.82,.33,1.36h0Zm1.45,.72c.11,.15,.36,.24,.77,.27,.47,.03,.77,.08,.89,.15v.73c-.68,.14-1.2,.2-1.56,.2-.17,5.42-.14,24.52,.1,26.4,.58,.02,1.12-.14,1.64-.45,.06-.04,.27-.17,.63-.41,.25-.17,.46-.3,.64-.38,.11-.11,.07-.23-.09-.36-.19-.15-.29-.31-.22-.48,.14-.35,.48-.6,.95-.76,.31-.11,.79-.21,1.44-.28,.09,.5,.1,1.03-.01,1.58-.12,.59-.32,1.01-.61,1.24-.2,.02-.35-.04-.46-.18-.18-.23-.27-.35-.27-.35-.82,1.07-2.25,2.05-4.26,2.92-.02,.03-.05,.07-.09,.12-.05,.06-.08,.1-.09,.13-.05,.1-.06,.23-.04,.37-.34-.43-1.14-.99-2.41-1.65-1.13-.59-1.85-1.21-2.16-1.89-.13,.02-.27,.13-.41,.33-.13,.17-.31,.24-.53,.2-.23-.33-.41-.75-.52-1.29-.11-.56-.11-1.08,0-1.53,.95,.05,1.75,.33,2.4,.84,.03,.4-.11,.68-.42,.84,.67,.55,1.11,.9,1.34,1.03,.59,.34,1.19,.44,1.79,.32,.09-1.31,.13-3.07,.11-5.29-.03-2.98-.03-20.25-.01-20.89-.15-.06-.44-.11-.84-.15-.4-.04-.68-.09-.83-.15v-.73c.15-.07,.43-.12,.83-.17,.4-.04,.68-.09,.84-.15-.41-.16-.86-.47-1.06-1.09-.42-1.29,.49-2.34,1.61-2.41,1.34-.09,2.02,.89,1.96,1.99-.03,.57-.39,1.04-1.06,1.4h0Z" style="fill:#edede0; fill-rule:evenodd;"/><path d="M93.4,58.06c.59-.4,1.04-.4,1.35,0,.26-.2,.39-.46,.44-.72,.13-.74-.42-1.21-1.14-1.17-.4,.02-.79,.21-.98,.53-.22,.38-.14,.82,.33,1.36h0Zm1.45,.72c.11,.15,.36,.24,.77,.27,.47,.03,.77,.08,.89,.15v.73c-.68,.14-1.2,.2-1.56,.2-.17,5.42-.14,24.52,.1,26.4,.58,.02,1.12-.14,1.64-.45,.06-.04,.27-.17,.63-.41,.25-.17,.46-.3,.64-.38,.11-.11,.07-.23-.09-.36-.19-.15-.29-.31-.22-.48,.14-.35,.48-.6,.95-.76,.31-.11,.79-.21,1.44-.28,.09,.5,.1,1.03-.01,1.58-.12,.59-.32,1.01-.61,1.24-.2,.02-.35-.04-.46-.18-.18-.23-.27-.35-.27-.35-.82,1.07-2.25,2.05-4.26,2.92-.02,.03-.05,.07-.09,.12-.05,.06-.08,.1-.09,.13-.05,.1-.06,.23-.04,.37-.34-.43-1.14-.99-2.41-1.65-1.13-.59-1.86-1.21-2.16-1.89-.13,.02-.27,.13-.41,.33-.13,.17-.31,.24-.53,.2-.23-.33-.41-.75-.52-1.29-.11-.56-.11-1.08,0-1.53,.95,.05,1.75,.33,2.4,.84,.03,.4-.11,.68-.42,.84,.67,.55,1.11,.9,1.34,1.03,.59,.34,1.19,.44,1.79,.32,.09-1.31,.13-3.07,.11-5.29-.03-2.98-.03-20.25-.01-20.89-.15-.06-.44-.11-.84-.15-.4-.04-.68-.09-.83-.15v-.73c.15-.07,.43-.12,.83-.17,.4-.04,.68-.09,.84-.15-.41-.16-.86-.47-1.06-1.09-.42-1.29,.49-2.34,1.61-2.41,1.34-.09,2.02,.89,1.96,1.99-.03,.57-.39,1.04-1.06,1.4h0Z" style="fill:#edede0; fill-rule:evenodd;"/><path d="M58.89,38.08c3.35,0,6.38,1.36,8.58,3.55,2.2,2.2,3.55,5.23,3.55,8.58s-1.36,6.38-3.55,8.58c-2.2,2.2-5.23,3.55-8.58,3.55s-6.38-1.36-8.58-3.55c-2.2-2.2-3.55-5.23-3.55-8.58s1.36-6.38,3.55-8.58c2.2-2.2,5.23-3.55,8.58-3.55h0Zm8.05,4.08c-2.06-2.06-4.91-3.33-8.05-3.33s-5.99,1.27-8.05,3.33c-2.06,2.06-3.33,4.91-3.33,8.05s1.27,5.99,3.33,8.05c2.06,2.06,4.91,3.33,8.05,3.33s5.99-1.27,8.05-3.33c2.06-2.06,3.33-4.91,3.33-8.05s-1.27-5.99-3.33-8.05h0Z" style="fill:#edede0;"/><path d="M53.83,16.02h10.12c11.07,0,21.14,4.53,28.44,11.83,7.3,7.3,11.83,17.37,11.83,28.44v33.5c0,11.07-4.53,21.14-11.83,28.44-7.3,7.3-17.37,11.83-28.44,11.83h-10.12c-11.07,0-21.14-4.53-28.44-11.83-7.3-7.3-11.83-17.37-11.83-28.44V56.29c0-11.07,4.53-21.14,11.83-28.44,7.3-7.3,17.37-11.83,28.44-11.83h0Zm10.12,.37h-10.12c-10.97,0-20.94,4.49-28.18,11.72-7.23,7.23-11.72,17.2-11.72,28.18v33.5c0,10.97,4.49,20.94,11.72,28.18,7.23,7.23,17.2,11.72,28.18,11.72h10.12c10.97,0,20.94-4.49,28.18-11.72,7.23-7.23,11.72-17.2,11.72-28.18V56.29c0-10.97-4.49-20.94-11.72-28.18-7.23-7.23-17.2-11.72-28.18-11.72h0Z" style="fill:#edede0;"/><path d="M53.83,17.65h10.12c10.63,0,20.28,4.35,27.29,11.35,7,7,11.35,16.66,11.35,27.29v33.5c0,10.63-4.35,20.28-11.35,27.29-7,7-16.66,11.35-27.29,11.35h-10.12c-10.63,0-20.28-4.35-27.29-11.35-7-7-11.35-16.66-11.35-27.29V56.29c0-10.63,4.35-20.28,11.35-27.29,7-7,16.66-11.35,27.29-11.35h0Zm10.12,1h-10.12c-10.35,0-19.76,4.23-26.58,11.06-6.82,6.82-11.06,16.23-11.06,26.58v33.5c0,10.35,4.23,19.76,11.06,26.58,6.82,6.82,16.23,11.06,26.58,11.06h10.12c10.35,0,19.76-4.23,26.58-11.06,6.82-6.82,11.06-16.23,11.06-26.58V56.29c0-10.35-4.23-19.76-11.06-26.58-6.82-6.82-16.23-11.06-26.58-11.06h0Z" style="fill:#edede0;"/><path d="M54.31,33.82h9.16c6.35,0,12.11,2.6,16.3,6.78,4.18,4.18,6.78,9.95,6.78,16.3v32.28c0,6.35-2.6,12.11-6.78,16.3-4.18,4.18-9.95,6.78-16.3,6.78h-9.16c-6.35,0-12.11-2.6-16.3-6.78-4.18-4.18-6.78-9.95-6.78-16.3V56.9c0-6.35,2.6-12.11,6.78-16.3,4.18-4.18,9.95-6.78,16.3-6.78h0Zm9.16,1h-9.16c-6.07,0-11.59,2.48-15.59,6.49-4,4-6.49,9.52-6.49,15.59v32.28c0,6.07,2.48,11.59,6.49,15.59,4,4,9.52,6.49,15.59,6.49h9.16c6.07,0,11.59-2.48,15.59-6.49,4-4,6.49-9.52,6.49-15.59V56.9c0-6.07-2.48-11.59-6.49-15.59-4-4-9.52-6.49-15.59-6.49h0Z" style="fill:#edede0;"/><path d="M86.16,63.96s.03-.05,.04-.07c.02-.04,.07-.11,.1-.17l-.05-.22,.05-.27c.21-1.05,.71-2.09,1.84-2.38,.8-.2,1.56,.09,2.25,.47l.04,.02,.04,.03c2.09,1.38,4.26,2.67,6.64,3.5,2.09,.72,4.27,1.06,6.45,1.29,.27,.01,1.02-.35,1.28-.48,.85-.44,1.66-.97,2.44-1.51,1.26-.87,2.47-1.81,3.66-2.77l.27-.21,.34-.05c.8-.11,1.2-.42,1.74-1l.08-.09,.1-.07c.88-.63,1.93-.71,2.81-.02l.19,.15,.12,.21c.08,.14,.26,.19,.41,.23l2,.47-1.34,1.55c-.98,1.13-2.13,2.1-3.33,2.99-1.25,.92-2.56,1.76-3.87,2.58l-.05,.03-.05,.02c-3.35,1.7-6.93,2.15-10.63,2.26-.86,.62-1.89,.56-2.84,.08-1.57-.19-3.09-.05-4.64,.19l-.28,.04-.27-.08c-.6-.19-1.27-.27-1.96-.3,1.27,2.97,6.6,6.86,9.08,8.63h.02s.02,.03,.02,.03c1.6,1.24,3.13,2.56,4.73,3.79l.09,.07,.07,.08c.77,.85,1.26,1.89,1.59,2.98,.15,.22,.35,.44,.53,.62,.32,.33,.67,.63,1.01,.93l.3,.27,.09,.39c.16,.72,.08,1.47-.47,2.02-.7,.7-1.72,.64-2.61,.52l-.59-.08-.3-.52c-2.78-4.74-9.59-10.87-15.13-11.82l-.4-.07-.28-.29c-.9-.94-3.94-1.23-5.2-1.29-1.04-.05-2.08-.04-3.12,.05-.73,.06-1.53,.15-2.24,.36l-.11,.03h-.11c-.81,.1-1.63,.15-2.44,.19-.59,.02-1.18,.04-1.77,.1-1.25,.13-2.29,.53-3.4,1.09-1.12,.57-2.36,1.05-3.64,1h-.05s-.05,0-.05,0c-1.07-.12-1.99-.16-3.01,.26-1.85,.75-3.88,.9-5.76,.23-1.02,.24-2.02,.24-3.05,.07-2.45,1.31-4.79,1.04-7.02-.37-.18,.81-.46,1.59-.96,2.25-.5,.66-1.14,1.13-1.84,1.54-.23,.4-.51,.77-.86,1.08-.54,.47-1.16,.72-1.82,.79-.02,.06-.04,.12-.06,.18-.29,.73-.99,1.08-1.71,1.25l-.5,.12-.44-.28c-.89-.56-1.77-1.15-2.66-1.71l-.7-.44,.14-.82c.03-.17,.08-.33,.15-.48-.75-.45-1.46-.95-2.13-1.52-.44,.54-.91,1.17-1.19,1.73l.09,.07,.12,.26c.35,.77,.38,1.58,.02,2.35l-.04,.09-.06,.08c-.17,.25-.35,.51-.52,.76l.05,.28-.19,.37c-.16,.3-.31,.6-.47,.91l-.17,.33-.32,.18c-.58,.33-1.23,.39-1.85,.16-.8-.21-1.58-.54-2.23-1.07l-.18-.15-.12-.2c-.27-.47-.34-.97-.28-1.47l-.73,.15,1.28-1.75c.02-.18,.07-.36,.13-.53l.06-.17,.11-.15c.28-.38,.56-.77,.84-1.15h-.16s-.41-.55-.41-.55c-.37-.51-.74-1-1.21-1.42l-.02-.02-.02-.02c-1.01-.97-1.88-2.05-2.75-3.15l-.04-.05-.04-.06c-.99-1.58-2.16-3.05-3.32-4.52-1.49,.07-2.99,0-4.45-.31-.15,.12-.31,.25-.46,.37l-.06,.05-.07,.04c-.9,.54-1.87,.56-2.77,0-1.34-.79-1.92-1.97-2.05-3.48l-.07-.8,.7-.39c.11-.06,.23-.12,.34-.19,.06-.16,.14-.3,.22-.44-.36-.64-.86-1.16-1.44-1.62l-.07-.06-.06-.07c-.71-.78-1.15-1.66-1.15-2.73v-.53s.38-.37,.38-.37c.33-.32,.66-.59,1.04-.81-.03-.11-.04-.22-.06-.34-.09-1.01,.44-1.94,1.13-2.63l.19-.19,.25-.1s.01,0,.02,0c.15-.27,.35-.51,.59-.73,1.24-1.37,2.86-1.85,4.59-2.32l.2-.05h.21c.74,.06,1.44,.25,2,.73,.61,.22,1.11,.59,1.49,1.1,.5,.1,1,.22,1.47,.39,.09-.33,.2-.65,.35-.96-.15-1.09,.3-2.04,1.38-2.52l.12-.05,.13-.03c.79-.17,1.57-.06,2.24,.42,.03,.02,.07,.05,.1,.08,.34-.09,.7-.1,1.05-.01,.01,0,.02,0,.04,0,.55-.68,1.29-1.14,2.16-1.43l.24-.08,.25,.02c1.44,.13,2.89,.29,4.33,.43,.1-.08,.22-.15,.34-.21l.29-.13,.32,.02c.87,.06,1.74,.13,2.61,.19l.27,.02,.24,.13c.25,.14,.48,.32,.66,.53,6.23,.75,12.49,1.31,18.72,2.07l.52,.06,.32,.41c1.09,1.42,1.36,3.51,1.27,5.26-.08,1.6-.52,3.73-1.57,5.08,.32-.01,.65,.02,.97,.1,.33-.05,.64-.18,.92-.35h.01s.01-.02,.01-.02c.71-.41,1.5-.56,2.3-.34,.68,.19,1.23,.61,1.71,1.11,1.24,.16,2.5-.08,3.71-.36,1.78-1.02,3.67-1.78,5.68-2.19,1.88-.39,3.83-.47,5.74-.28,1.33,.04,2.66,.06,3.99-.03,1.05-.07,2.09-.2,3.13-.42h0Z" style="fill:#1a2e52; fill-rule:evenodd;"/><path d="M56.9,66.61v.04s-.02-.02-.02-.02c0,0,0,0,0,0l-.12,.1-.16-.02c-2.33-.26-4.66-.52-6.98-.79,.15,.15,.32,.27,.54,.36,.98,.11,1.66,.53,2.2,1.33,.67,.47,1.69,.59,2.5,.66,.7-.36,1.47-.49,2.25-.44,.56-.26,1.16-.27,1.76-.11,.52-.04,1-.22,1.45-.49h0s0,0,0,0c.5-.29,1.05-.41,1.62-.25,.61,.17,1.1,.62,1.51,1.08,1.51,.27,2.99-.01,4.47-.36,1.73-1.01,3.57-1.75,5.53-2.16,1.81-.38,3.66-.45,5.5-.26,1.37,.04,2.74,.06,4.11-.03,1.23-.08,2.43-.25,3.63-.52,.08-.13,.16-.26,.24-.39,.08-.13,.16-.27,.2-.42,.04-.13,.04-.24,0-.37l-.02-.08,.02-.08c.14-.68,.43-1.51,1.19-1.69,.55-.14,1.14,.12,1.61,.38h.01s.01,.01,.01,.01c2.16,1.43,4.38,2.74,6.84,3.59,2.16,.75,4.39,1.1,6.66,1.33,.49,.05,1.34-.35,1.77-.57,.88-.45,1.73-1.01,2.54-1.57,1.28-.89,2.5-1.84,3.71-2.81l.08-.06h.1c1.01-.16,1.58-.56,2.26-1.28l.02-.02,.03-.02c.56-.4,1.18-.49,1.74-.05l.05,.04,.03,.06c.21,.38,.57,.56,.98,.65l.57,.13-.38,.44c-.93,1.08-2.04,2.01-3.19,2.86-1.23,.91-2.52,1.73-3.81,2.54h-.01s-.01,.02-.01,.02c-3.32,1.69-6.89,2.09-10.56,2.18-.66,.62-1.47,.53-2.24,.1-1.72-.23-3.34-.09-5.05,.17h-.08s-.08-.01-.08-.01c-1.55-.48-3.44-.35-5.05-.27-.51,.03-1.01,.05-1.52,.07-2.48,.3-4.91,.91-7.17,1.95,2.21,.3,4.45,.25,6.66,0,.53-.27,.81-.65,.97-1.23l.03-.1,.08-.07c.33-.28,.7-.53,1.13-.59,.61-.1,1.15,.19,1.59,.6l.07,.06,.03,.09c1.08,3.28,6.75,7.41,9.53,9.41h0s0,0,0,0c1.6,1.23,3.13,2.56,4.73,3.79l.02,.02,.02,.02c.71,.78,1.14,1.75,1.43,2.75,.19,.32,.46,.62,.72,.88,.34,.34,.7,.66,1.06,.97l.09,.08,.02,.11c.09,.42,.09,.88-.23,1.2-.45,.45-1.3,.35-1.87,.27l-.17-.02-.09-.15c-2.92-4.97-9.93-11.24-15.74-12.24l-.11-.02-.08-.08c-1.13-1.17-4.26-1.49-5.8-1.56-1.07-.05-2.16-.04-3.23,.05-.78,.06-1.67,.17-2.42,.4h-.03s-.03,.01-.03,.01c-.79,.09-1.58,.14-2.38,.17-.61,.02-1.22,.04-1.83,.1-1.36,.14-2.49,.56-3.71,1.18-.98,.5-2.09,.95-3.21,.91h-.01s-.01,0-.01,0c-1.22-.14-2.27-.16-3.44,.32-1.73,.71-3.63,.82-5.38,.13-1.1,.3-2.15,.29-3.25,.06-2.56,1.5-4.88,1.01-7.15-.71-.13,0-.27,.02-.4,.03-.14,1.03-.36,2.13-.99,2.96-.47,.62-1.13,1.06-1.8,1.43-.2,.39-.44,.76-.78,1.05-.61,.53-1.34,.66-2.08,.57l-.06,.15c.08,.19,.09,.39,.02,.59-.17,.43-.68,.61-1.09,.71l-.14,.03-.13-.08c-.89-.56-1.77-1.15-2.66-1.71l-.2-.13,.04-.23c.06-.38,.35-.71,.7-.85-.01,0-.02,0-.03,0h-.04s-.03-.03-.03-.03c-1.03-.56-1.98-1.18-2.88-1.94-.23-.19-.45-.39-.67-.6-.76,.92-1.85,2.2-2.15,3.28,.12,.1,.24,.2,.36,.3l.06,.05,.03,.07c.24,.53,.28,1.08,.03,1.61v.03s-.03,.02-.03,.02c-.22,.32-.44,.64-.66,.96l-.02,.02-.02,.02s-.04,.04-.05,.05c.03,.07,.05,.14,.07,.22l.02,.12-.05,.11c-.16,.3-.31,.6-.47,.91l-.05,.09-.09,.05c-.37,.21-.75,.24-1.14,.08-.7-.18-1.38-.46-1.95-.91l-.05-.04-.03-.06c-.24-.42-.22-.84-.09-1.29v-.05s.04-.04,.04-.04c.09-.15,.18-.29,.27-.44l.05-.07,.08-.04s.03-.01,.04-.02c-.01-.09-.02-.18-.03-.27l-.08,.02,.08-.11c0-.19,.04-.37,.1-.55l.02-.05,.03-.04c.29-.4,.59-.81,.88-1.21l.04-.05,.05-.04c.17-.11,.29-.24,.49-.32,.07-.03,.15-.05,.22-.06,.18-.46,.38-.9,.6-1.33l.02-.2c.05-.49,0-.86-.22-1.27-.7-.13-1.11-.55-1.14-1.26-.43-.43-.74-.91-.94-1.48-.28-.48-.64-.94-1-1.37-1.08-.47-1.96-1.17-2.77-1.99,.92,1.44,1.85,2.59,3.44,3.59l.11,.07,.04,.13c.17,.55,.46,1.05,.78,1.52,.4,.39,.81,.77,1.21,1.16l.13,.12-.02,.18c-.1,.82-.56,1.16-1.34,1.22l-.2,.02-.12-.16c-.42-.58-.81-1.09-1.35-1.56h0s0,0,0,0c-1-.95-1.82-1.98-2.67-3.06v-.02s-.02-.02-.02-.02c-1.09-1.74-2.39-3.35-3.65-4.96-1.7,.11-3.42,.04-5.08-.36-.27,.21-.53,.42-.8,.63h-.02s-.02,.03-.02,.03c-.62,.38-1.24,.38-1.85,0-1.1-.64-1.52-1.58-1.62-2.8l-.02-.23,.2-.11c.22-.12,.43-.24,.65-.36,.11-.48,.35-.86,.82-1.08l.04-.02h.04c.06-.02,.13-.04,.19-.05,0-.09,0-.18,.02-.27-.13,.06-.27,.11-.42,.16l-.27,.08-.14-.25c-.42-.77-1-1.38-1.68-1.93l-.02-.02-.02-.02c-.56-.61-.91-1.29-.92-2.13v-.15s.11-.1,.11-.1c.5-.48,.99-.82,1.59-1.02-.19-.24-.31-.52-.34-.85-.07-.74,.38-1.43,.88-1.93l.05-.05,.07-.03c.12-.05,.24-.08,.37-.09,.06-.33,.27-.59,.55-.85,1.11-1.24,2.64-1.67,4.19-2.1l.06-.02h.06c.6,.04,1.17,.19,1.6,.62,.63,.19,1.1,.56,1.42,1.12,.89,.16,1.9,.38,2.66,.9,.09-.75,.26-1.47,.62-2.14-.2-.79,0-1.48,.81-1.84l.03-.02h.04c.55-.12,1.08-.07,1.54,.27,.16,.12,.3,.26,.43,.42,.29-.21,.66-.3,1.03-.21,.23,.06,.41,.17,.56,.32,.4-.85,1.13-1.43,2.13-1.76l.07-.02h.07c1.59,.15,3.18,.33,4.77,.48,.07-.14,.18-.25,.34-.33l.08-.04h.09c.87,.07,1.74,.13,2.61,.2h.08s.07,.04,.07,.04c.26,.14,.45,.34,.59,.59,6.36,.77,12.75,1.34,19.11,2.12l.15,.02,.09,.12c.95,1.24,1.16,3.16,1.08,4.67-.08,1.54-.56,3.9-1.76,4.99h0Zm-10.97-1.22c-.49-.06-.99-.1-1.48-.14,.37,.23,.71,.49,1.02,.79l.46-.65h0Zm-.17,.81c.32-.18,.57-.44,.79-.73-.17-.02-.34-.05-.5-.07l-.29,.8h0Zm-14.7,13.19c.14-.14,.29-.27,.45-.39,.02-.04,.03-.09,.04-.12,0,0-.01,0-.02-.01-.29-.23-.55-.45-.78-.69,.11,.26,.17,.56,.18,.87,.05,.12,.09,.23,.12,.34h0Zm-.86-1.91c-.03-.05-.07-.11-.1-.17-.13-.08-.27-.15-.41-.22,.1,.08,.21,.17,.31,.26,.07,.04,.14,.08,.2,.13h0Zm-4.57,.26c-.16-.11-.31-.23-.45-.36,.15,.16,.3,.32,.46,.47,0,0,0,0,0,0,0-.04,0-.08-.02-.11h0Zm.6-17.4c.14,.04,.29,.09,.43,.12-.04-.12-.08-.24-.12-.34-.1,.08-.2,.15-.31,.21h0Zm-.93-3.11s0-.03,0-.05c-.02,0-.04,.02-.06,.02,.02,0,.04,.01,.07,.02h0Zm-9.16,13c.05,.01,.1,.02,.13,.03,.34,.06,.69,.1,1.04,.12,.37,.02,.75,.03,1.12,.03,.1,0,.2,0,.29,0-.01-.04-.02-.07-.03-.11-.16-.36-.45-.87-.9-.79-.5,.34-1.07,.57-1.65,.74h0Z" style="fill:#edede0; fill-rule:evenodd;"/><path d="M9.36,63.28c.52-.5,1.1-.94,2.08-1.08-1.13-.77-.82-1.85,.05-2.73,.22-.08,.42-.1,.6,0-.11-.48,.15-.76,.44-1.02,1.05-1.19,2.54-1.6,4.04-2,.57,.04,1.08,.17,1.43,.58,.72,.19,1.13,.6,1.37,1.13,1.27,.23,2.51,.5,3.19,1.32,.06-1,.21-1.97,.71-2.83-.23-.73-.07-1.27,.58-1.57,.97-.2,1.45,.27,1.84,.88,.6-.76,1.65-.48,1.68,.65,.18-1.18,.84-2.05,2.2-2.5,1.63,.15,3.42,.35,5.05,.5,.03-.16,.09-.31,.25-.38,.87,.06,1.74,.13,2.61,.19,.27,.15,.43,.36,.52,.6,6.43,.79,12.88,1.36,19.3,2.14,1.75,2.28,1.09,7.66-.65,9.2-2.6-.29-5.2-.59-7.8-.88,.29,.46,.61,.91,1.24,1.15,1.07,.11,1.62,.62,2.03,1.24,.71,.53,1.75,.68,2.83,.77,.68-.37,1.43-.51,2.25-.44,.49-.26,1.04-.29,1.65-.11,.6-.03,1.15-.23,1.68-.55,1.18-.68,2.05,0,2.77,.85,1.62,.32,3.17,.03,4.79-.35,3.41-2,6.98-2.8,10.88-2.4,2.82,.09,5.24,.06,7.99-.59,.29-.55,.71-.95,.56-1.57,.37-1.82,1.32-1.6,2.28-1.07,4.99,3.3,8,4.4,13.66,4.98,1.77,.18,6.76-3.81,8.28-5.04,1.25-.18,1.89-.76,2.47-1.37,.48-.34,.92-.37,1.32-.05,.21,.37,.56,.67,1.21,.82-1.74,2.01-4.29,3.69-6.92,5.33-3.34,1.7-6.92,2.06-10.55,2.14-.48,.53-1.13,.61-1.98,.11-1.88-.26-3.56-.09-5.22,.16-1.97-.61-4.4-.28-6.7-.22-3.31,.4-6.01,1.27-8.29,2.47,2.6,.5,5.24,.47,7.91,.16,.75-.36,1.05-.9,1.21-1.48,.66-.57,1.37-.82,2.25,0,1.11,3.39,6.85,7.57,9.66,9.59,1.59,1.23,3.14,2.57,4.73,3.79,.75,.82,1.13,1.83,1.37,2.65,.37,.66,1.12,1.32,1.87,1.98,.26,1.18-.64,1.19-1.7,1.04-2.98-5.07-10.08-11.4-15.98-12.41-1.92-1.99-9.22-2-11.81-1.21-3.59,.4-4.71-.2-8.03,1.49-.9,.46-1.98,.91-3.03,.87-1.2-.13-2.34-.19-3.61,.34-1.81,.73-3.64,.75-5.22,.08-1.14,.33-2.2,.31-3.34,.06-2.65,1.61-4.91,.91-6.98-.7-.27,.02-.55,.04-.82,.05-.34,2.64-.84,3.42-2.75,4.48-.55,1.18-1.51,2.03-3.68,1.24-.05,.13-.11,.26-.16,.38,.27,.15,.55,.29,.82,.44,.31,.54-.24,.8-.78,.93-.88-.55-1.78-1.16-2.66-1.71,.04-.27,.27-.51,.53-.6,.11-.02,.22-.04,.33-.05,.11-.35-.11-.51-.44-.6-1.67-.91-2.67-1.69-3.75-2.75-.85,1.06-2.26,2.6-2.51,3.93,.17,.15,.35,.29,.52,.44,.2,.44,.23,.88,.03,1.32-.22,.32-.44,.64-.66,.96-.11,.11-.23,.18-.36,.22,.16,.07,.25,.19,.27,.36-.16,.3-.31,.6-.47,.91-.31,.18-.59,.17-.85,.05-.72-.18-1.34-.45-1.84-.85-.19-.34-.16-.68-.05-1.02,.09-.15,.18-.29,.27-.44,.11-.06,.22-.04,.33,.03-.17-.41-.18-.8-.05-1.15,.29-.4,.59-.81,.88-1.21,.26-.17,.42-.39,.75-.31,.57-1.48,1.26-2.88,2.54-3.84,.11-.28,.17-.45-.05-.63-.68-.55-1.05-.92-1.4-1.54-1.31-.76-2.24-1.01-3.12-1.31,.43,.34,.78,.69,.95,1.06,.7,.13,1.2,.45,1.61,.84,.6,.31,.79,.85,.8,1.5,.15,.29,.18,.54,.25,.83-.37,.36-.58,.76-.84,1.24,.07-.67-.05-1.14-.35-1.63-.82-.09-1.03-.52-1-1.08-.51-.47-.8-.97-.97-1.48-.28-.5-.68-1.01-1.1-1.51-.95-.4-1.94-1.03-3.36-2.62-.17,.05-.35,.09-.52,.14,1.19,1.97,2.15,3.42,4.15,4.67,.18,.59,.49,1.13,.85,1.65,.41,.39,.82,.79,1.24,1.18-.09,.74-.53,.87-1.02,.91-.39-.54-.79-1.08-1.4-1.62-1.06-1.01-1.84-2.01-2.64-3.02-1.13-1.79-2.47-3.46-3.79-5.14-1.86,.13-3.65,.05-5.33-.38-.31,.25-.62,.49-.93,.74-.58,.35-1.05,.27-1.48,0-1.07-.62-1.37-1.54-1.46-2.53,.27-.15,.53-.29,.8-.44,.06-.42,.23-.79,.66-.99,.16-.04,.33-.07,.49-.11-.04-.23-.04-.46,.03-.69,.14-.09,.27-.18,.41-.27-.18-.17-.22-.36-.18-.56-.27,.4-.65,.66-1.14,.8-.45-.82-1.07-1.47-1.77-2.03-.48-.52-.82-1.12-.82-1.9h0Zm20.26,14.74l-.6,.51,.46,.57,.63-.62-.49-.46h0Zm-6.23-2.44c.15-.11,.29-.22,.44-.33,.58,.84,1.21,1.66,2.11,2.28,.16,.69-.05,.84-.51,.62-.82-.78-1.48-1.64-2.05-2.57h0Zm23.77-10.37c-1.54-.25-3.02-.34-4.49-.41,1.23,.45,2.23,1.06,2.91,1.88,.72-.27,1.19-.83,1.58-1.47h0Zm-20.62-5.6c-.15,.19-.33,.34-.54,.44-.41,.08-.86,.08-1.3,.08,.76,.35,1.57,.63,2.46,.81-.11-.33-.27-1.24-.62-1.33h0Zm-.92-2.76c-.07-.02-.14-.05-.21-.07-.64,.12-.98,.57-1.25,1.1,.13,.02,.27,.05,.4,.07,.06-.17,.18-.29,.36-.38,.1-.05,.2-.04,.3,.03,.02,.14,.1,.28,.26,.43h.41c-.19-.39-.27-.78-.27-1.17h0Zm-7.98,12.31c-.59,.42-1.32,.66-2.09,.87-.89,.81,3.65,.8,3.6,.66-.02-.15-.1-.36-.12-.51-.25-.58-.69-1.2-1.39-1.02h0Z" style="fill:#1a2e52; fill-rule:evenodd;"/><path d="M14.64,64.98c-.51-.51-.77-1.18-.99-1.84-.14,.1-.28,.2-.43,.3-.13,.85-.17,1.72,.07,2.68,.04,.29,.18,.62,.34,.8-.2,.16-.36,.24-.49,.41,0,.36,.17,.61,.37,.78,.82,.35,1.43,.97,1.98,1.51,.76-.09,1.47-.43,2.16-.85,.36-.06,.7-.03,1.02,.16,0-.3-.02-.6-.03-.91-.8-1.24-1.33-2.61-1.69-4.06-.21-.83-.47-1.59-1.11-1.91-1.33-.13-.94,1.95-.49,2.73,.04,.31-.41,.32-.7,.19h0Z" style="fill:#edede0; fill-rule:evenodd;"/><path d="M12.11,64.08c.15-.9-.1-1.42-.87-1.44-.64,.08-1.05,.38-1.4,.76,.13,.68,.49,1.23,.99,1.69,.43-.33,.85-.67,1.28-1h0Z" style="fill:#edede0; fill-rule:evenodd;"/><path d="M11.27,65.52c.35-.27,.69-.53,1.04-.8,.38,.4,.55,.93,.64,1.51-.26,.19-.52,.38-.78,.57-.2-.52-.5-.95-.9-1.28h0Z" style="fill:#edede0; fill-rule:evenodd;"/><path d="M11.87,62.3c.28-.17,.58-.14,.89,.04,1.34-.97,2.74-2.03,4.08-3-.1,.25-.1,.49-.11,.76-1.17,.87-3.91,2.44-4.17,3.89-.11-.86-.3-1.05-.69-1.69h0Z" style="fill:#edede0; fill-rule:evenodd;"/><path d="M11.16,69.57c.13-.07,.26-.14,.38-.21,.26,1.04,1.12,1.83,2.24,2.25-.15,.15-.35,.25-.63,.25-1.28-.36-1.74-1.37-1.99-2.29h0Z" style="fill:#edede0; fill-rule:evenodd;"/><path d="M12.34,68.52c.08-.18,.24-.28,.52-.27,.32,.97,1.07,1.57,2.16,1.88,.01,.26-.18,.39-.55,.41-1.02-.32-1.73-1-2.13-2.02h0Z" style="fill:#edede0; fill-rule:evenodd;"/><path d="M11.9,69.33c.06-.14,.19-.21,.41-.2,.08,.24,.19,.46,.33,.64l-.3,.35c-.18-.23-.33-.49-.45-.79h0Zm1.28,.95c.24,.16,.52,.29,.83,.39,0,.2-.14,.3-.43,.31-.26-.09-.49-.2-.69-.35l.29-.36h0Z" style="fill:#edede0; fill-rule:evenodd;"/><path d="M14.72,70.91c.05-.12,.21-.23,.36-.26,1.62,.46,3.22,.43,4.55,.34,.1,.11,.2,.24,.3,.35-1.68,.12-3.56,.06-5.2-.43h0Z" style="fill:#edede0; fill-rule:evenodd;"/><path d="M19.1,68.49c-.02-.35-.05-.41-.07-.76-.84-1.58-2.2-6.44-1.27-8.14,.45-.81,1.46-.74,2.27-.62,.95,.15,1.83,.57,2.65,1.26,.06-.21,.05-.42-.05-.63-1.06-.89-3.77-1.92-5.16-.84-.62,.49-.63,1.47-.61,2.43,.17,3.01,.86,4.79,2.24,7.29h0Z" style="fill:#edede0; fill-rule:evenodd;"/><path d="M23.82,61.16c-.5-.09-.87-.14-1.18,0-.11-.16-.11-.34,0-.54h.29c0-.51-.02-1.03-.03-1.54,.08-.78,.2-1.54,.54-2.18,.49-.92,1.2-.59,.71,.06-.41,.54-.57,1.22-.6,1.97h.63c.21,.28,.2,.54,.04,.78-.24,.02-.49,.04-.73,.05,0,.29,0,.58,.01,.87,.1,0,.19,0,.29,.01,.19,.17,.13,.35,.03,.52h0Z" style="fill:#edede0; fill-rule:evenodd;"/><path d="M26.3,57.39c0,.1,0,.19-.02,.29-.23,.87-.95,1.11-1.68,1.25,.13,.23,.11,.46,.03,.69,1.73-.35,2.12-1.11,2.26-1.98,.1-1.12-.62-1-.58-.25h0Z" style="fill:#edede0; fill-rule:evenodd;"/><path d="M26.53,59.04c.15-.13,.27-.25,.34-.43,2.53,0,6.29,1.93,8.06,4.31,.99,1.34,1.31,2.55,.46,4.08-.28,.12-.52,.12-.69-.05,1.11-1.58,.39-2.93-.71-4.19-1.88-2.13-4.99-3.8-7.47-3.72h0Z" style="fill:#edede0; fill-rule:evenodd;"/><path d="M30.56,54.71c-.26-.03-.52-.05-.78-.08-1.87,.57-1.94,2.53-2.2,3.65,.62,.01,.75,.14,1.07,.22,.18-1.41,.7-2.9,1.91-3.79h0Z" style="fill:#edede0; fill-rule:evenodd;"/><path d="M28.94,58.5c.34-1.54,.77-2.99,1.96-3.61,1.03,.08,2.06,.16,3.09,.23-.79,1.24-.57,3.88-.52,5.33-.87-1.76-.99-2.65-.89-4.46-1.44-.35-2.33-.42-2.84,1.99,.83,.36,1.42,.92,1.88,1.61-.86-.51-1.75-.9-2.68-1.08h0Z" style="fill:#edede0; fill-rule:evenodd;"/><path d="M37.15,62.76c-.38-2.38-.57-4.77,.74-7.22,6.25,.79,12.37,1.55,18.62,2.33-.29,.66-.55,1.53-.7,2.62-5.8-.71-11.57-1.44-17.37-2.16-1.54,.9-1.33,2.7-1.29,4.42h0Z" style="fill:#edede0; fill-rule:evenodd;"/><path d="M20.18,70.14c-.96-.67-.84-1.38-.41-2.09-.11-1.47,.26-2.64,1.54-3.24,2-1.06,6.08-1.44,7.31,.52-1.31,0-2.31,.06-3.3,.52,.97-.2,2.21,.14,3.54,0h0c1.82-.14,3.44,.33,4.97,1.06,.74,.35,1.52,.46,2.35,.36,.64-.08,1.33-.22,1.6,.66,.47-.15,.93-.06,1.4,.08,3.28,.67,6.58,3.02,10.3,4.81,.76-.22,1.64-.21,2.55-.14,.8,.28,1.57,.6,2.22,1.18,.81,.37,1.25,.32,2.06,.38,.37,.17,.43,.41,.29,.68-.94,.02-1.54,.1-2.04,0-.01,0-.02,0-.03,0-.16,.06-.31,.12-.07,.36,.01,0,.02,0,.03,0,.6,.12,1.42,.14,2.4-.04,.41,.13,.47,.4,.1,.75-.87,.1-1.94,.09-2.79-.11-.2-.01-.31,.05-.22,.29,.27,.2,.57,.19,1.54,.28,.48,.04,.91,.03,1.29-.02,.92-.13,.73,.77,.07,.81-.35,.02-.68,.03-1.11-.03-.65,.04-1.95-.43-1.56-.05,.25,.22,.54,.27,1.51,.42,.49,.07,.88,.01,1.48-.02,.99,1.3-3.8,.06-4.08-.01,0,.25-.17,.32-.44,.27-.7-.07-1.12-.5-1.59-.88-.73-.39-1.31-.8-1.68-1.26-1.91-.94-3.84-1.7-5.82-2.2-2.3-.26-6.02-.88-7.83-1.84-.4-.11-.79-.22-1.26-.11-1.06,.5-5.34,.3-6.68-.18-.51-.08-.94-.12-1.26-.1-.9,.05-.92,.94-.08,1.06,.65,.1,1.47-.17,.37-.34,.59-.54,2.25,.02,3.67,.21,.02,.99,.03,1.98,.12,2.98-3.17,1.17-5.87-1.03-7.69-3.16-1.24,0-2.56-.47-2.77-1.84h0Z" style="fill:#edede0; fill-rule:evenodd;"/><path d="M63.63,68.83c.58,2.29,.43,4.54-.16,6.76,2.57-.94,4.85-2.5,7.58-2.83,.6-.41,1.26-.78,2.09-1.04,1.4,.09,2.74,.01,3.84-.63,4.87-2.49,9.35-2.61,14.69-2.22,.19-.12,.5-.16,.8-.03,.12-.98-.31-1.91-2.17-2.75-.45-.62-1.52-.82-2.86-.85-1.48,.64-3.28,1.03-5.58,1.02-4.71-.33-9.03-.43-13.87,2.44-1.79,.43-2.19,.73-4.37,.14h0Z" style="fill:#edede0; fill-rule:evenodd;"/><path d="M62.91,77.63c0-.56,.05-1.09,.3-1.54,2.97-.75,5.24-2.69,7.96-2.99,.57-.4,1.2-.75,1.95-.96,1.18,.12,2.34,.05,3.49-.19,2.78,.75,5.57,.82,8.35,.25,1.63,.77,3.82,2.36,3.3,4.39-2.8-1.56-6.25-1.95-10.16-1.49-.64,.07-1.29,.17-1.95,.29-.61-.03-1.25-.04-1.9-.01-2.08,.09-4.28,.52-6.01,1.47-2.35,1.1-3.53,.65-5.33,.8h0Z" style="fill:#edede0; fill-rule:evenodd;"/><path d="M19.21,66.88c-.5-1.2-.45-2.75,.47-3.71,2.09-2.19,6.96-2.58,9.23-.82,.91,.91,1.3,1.81,1.48,2.72-.29-.04-.59-.07-.88-.11-1.51-2.43-3.13-3.08-5.82-2.36,.25,.31,.36,.62,.36,.93-2.14-1.9-4.81,.97-4.83,3.35h0Z" style="fill:#edede0; fill-rule:evenodd;"/><path d="M35.97,66.79c.48-.53,1.06-.98,1.38-1.47,.44,.48,.58,.94,.47,1.39,.76,.54,3.55,.06,4.35-.26-.1,.45-.39,.83-.78,1.17,.97,.13,1.72-.01,2.14-.54,.02,.32-.04,.62-.19,.89-.47,.86,.22,1.36,.84,.49,.26-.37,.52-.73,.78-1.1-.29,.79-.22,1.47-.29,2.37-1.23-.78-5.24-2.68-6.64-2.34-1.03-1.03-1.32-.63-2.06-.61h0Z" style="fill:#edede0; fill-rule:evenodd;"/><path d="M33.29,72.22h-.58c.28,1.33,.67,2.51,1.57,3.73,.09-.15,.17-.3,.26-.45-.83-1.23-1.2-2.26-1.26-3.28h0Z" style="fill:#edede0; fill-rule:evenodd;"/><path d="M34.16,72.2h-.44c.22,1.02,.39,1.76,1.09,2.69,.07-.12,.13-.23,.2-.35-.64-.95-.8-1.56-.85-2.35h0Z" style="fill:#edede0; fill-rule:evenodd;"/><path d="M34.89,77.18c.09-.17,.17-.35,.26-.52,.32,.48,.6,.98,.82,1.5,.95,2.21,1.64,5.72,5.63,3.49,1.35-.76,2.28-2.61,2.71-4.37,.27-.01,.35,.38,.25,.59-.59,1.95-1.3,3.52-2.84,4.3-4,2.01-5-1.04-6.05-3.56-.21-.5-.46-.98-.77-1.42h0Z" style="fill:#edede0; fill-rule:evenodd;"/><path d="M35.56,76.15c.08-.17,.15-.35,.23-.52,.28,.48,.52,.98,.72,1.5,.83,2.21,1.44,5.72,4.94,3.49,1.19-.76,2-2.61,2.38-4.37,.24-.01,.31,.38,.22,.59-.51,1.95-1.14,3.52-2.5,4.3-3.51,2.01-4.38-1.04-5.31-3.56-.18-.5-.4-.98-.68-1.42h0Z" style="fill:#edede0; fill-rule:evenodd;"/><path d="M36.64,83.7c.05-.09,.16-.19,.32-.21,.7,.44,1.41,.88,2.11,1.32,.24,.07,.45,.08,.61-.01-.11,.27-.36,.43-.69,.34-.79-.47-1.57-.96-2.36-1.44h0Z" style="fill:#edede0; fill-rule:evenodd;"/><path d="M27.95,84.59c.1-.13,.23-.29,.36-.46,1.1,.03,1.79,.6,2.17,1.58l-.2,.38c-.19-1.2-1.17-1.75-2.33-1.51h0Zm.62-.78c.04-.05,.08-.11,.12-.16,.16-.2,.37-.27,.63-.22l.19,.11c.2-1.51,2.2-3.95,3.3-5.11,.2-.2,.36-.38,.49-.52,1.19-1.33,1.72-2.59,2.35-4.66,.09-.3,.34-.92,.41-1.16,.17,.05,.35,.11,.52,.16-.11,.35-.34,.92-.41,1.16-.65,2.14-1.19,3.45-2.46,4.87-.12,.13-.29,.32-.5,.53-1.06,1.12-3.05,3.71-3.2,5.03l.6,.36c.23,.2,.28,.48,.25,.8l-.18,.35c-.37-.92-1.01-1.5-2.11-1.54h0Z" style="fill:#edede0; fill-rule:evenodd;"/><path d="M29.93,86.14c-.16,.27-.72,.22-1.25-.1-.53-.32-.82-.8-.66-1.06,.16-.27,.72-.22,1.25,.1,.53,.32,.82,.8,.66,1.06h0Z" style="fill:#edede0; fill-rule:evenodd;"/><path d="M29.56,87.66c-.18,.19-.81,.09-1.4-.22-.59-.31-.92-.71-.74-.9,.18-.19,.81-.09,1.4,.22,.59,.31,.92,.71,.74,.9h0Z" style="fill:#edede0; fill-rule:evenodd;"/><path d="M38.77,59.12c-.76,.44-1.26,1.13-.63,2.09,5.69,.67,11.73,1.28,17.43,1.95,0-.7,.07-1.49,.14-2.16-5.65-.62-11.29-1.25-16.94-1.87h0Z" style="fill:#edede0; fill-rule:evenodd;"/><path d="M57.21,58.02c.22,.02,.39,.47,.48,1.21-.05-.05-.1-.07-.15-.07-.44,0-.93,1.74-1.1,3.89-.08,1.04-.07,1.98,0,2.67-1.07-1.02-.36-7.8,.77-7.7h0Z" style="fill:#edede0; fill-rule:evenodd;"/><path d="M48.4,66.14c-1.8,.19-1.74,.21-2.88,1.68-.24,.63-.34,1.35-.22,2.2,.57-.59,1.21-1.16,2.44-1.54,1.79-.51,1.89-.06,.83,1.02-.4,.41-.67,.89-.86,1.39,.83-.51,1.78-.95,2.7-1.44,1.32-.71,3.36-.96,.87,.6-.65,.41-.93,.97-1.29,1.96,.64-.63,1.16-1.34,2.86-1.29,.83,.91,1.21,1.71,1.46,2.47,.23-.7,.38-1.41,.03-2.11,1.21-.56,2.45-.99,3.74-1.04,1.19,.2,1.73,1.4,.99,1.98-.46-.08-.75-.02-.97,.09-1.31,.7-1.69,1.41,.37,.79,2.13-.64,2.67,1.04,3.18,2.63,.21-1.51-.25-3.08-.99-4.67,1.25,.94,1.27,1.39,1.89,2.75,.27-1.47,.25-3.53-.84-4.68-.49-.51-3.03-1.34-1.61,.34,.25,.3,.39,.6,.47,.91-.69-.79-1.56-1.42-2.83-1.7-1.63,.38-2.24,1.13-3.02,1.81-.1-.52-.02-.97,.47-1.26-1.01,.17-1.67,.49-2.17,.88-.02-.38,.05-.72,.33-.96-1.55-1.4-2.2-.87-3.38,.22-.05-.75-.03-1.46,.22-2.06-.92-.11-1.59,.02-2.14,.27-.01-.44,.08-.86,.36-1.24h0Z" style="fill:#edede0; fill-rule:evenodd;"/><path d="M45.58,77.58c.07-.25,.09-.51-.01-.76,2.92-.05,1.44,1.79,5.11,1.63-.85-.32-1.31-.81-1.76-1.32,.67,.44,1.44,.81,2.44,1.02-.34-.18-.55-.43-.71-.7,.67,.42,1.43,.74,2.27,.99-2.17,1.22-4.37,.85-6.21-.8-.33-.14-.71-.14-1.13-.05h0Z" style="fill:#edede0; fill-rule:evenodd;"/><path d="M57.45,78.43c.11-.34,.33-.59,.84-.63,1.35,.44,1.35-.44,2.53-.78-.17,.26-.07,.5,.21,.73,.35-.59,.77-1.16,1.63-1.57-.23,.5-.37,1.01-.34,1.55-1.89,.7-2.63,1.29-4.86,.7h0Z" style="fill:#edede0; fill-rule:evenodd;"/><path d="M95.99,66.25c1.15,.67,2.26,1.35,2.86,2.28,.36,.16,.6,0,.63-.6,1.79,.39,4.51,.49,6.04,.05-3.53-.29-6.18-.57-9.53-1.73h0Z" style="fill:#edede0; fill-rule:evenodd;"/><path d="M105.11,67.39c1.83-1.05,3.59-2.13,5.16-3.32-.84,1.06-1.95,1.99-3.41,2.72-.12,.2-.14,.38,.55,.36,3.01-1.23,5.45-3.03,7.8-4.92,.57-.28,.8-.23,.85,0-2.53,2.06-5.06,4.12-8.38,5.33-1.18,.22-2.13,.24-2.58-.16h0Z" style="fill:#edede0; fill-rule:evenodd;"/><path d="M93.78,77.93c-.23-.32-.15-.44,.27-.33,2.3,1.69,4.47,3.43,6.59,5.19,1.1,.91,2.14,1.85,2.8,2.91-.85-.5-1.63-1.08-2.58-1.51,1.92,1.77,2.32,2.25,4.34,4.53-.11,.35-.35,.39-.71,.19-3.28-4.17-6.47-8.02-10.71-10.99h0Z" style="fill:#edede0; fill-rule:evenodd;"/><path d="M67.13,72.71s3.03-.84,2.23-1.16c-1.13-.45,.09-1.66,1.22-1.06,1.12,.59,2.06-.47,1.56-.47-.43,0-.47,.03-.84-.05-.05-.68,1.52-1.21,2.39-1.21,2.68,0,.78,.88,1.89,1.4,.83,.39,1.23-1.02,2.95-.99,1.03,.02,.99-.08-.06,.61-.41,.27-2.3,1.29-2.74,1.28-.8-.02-1.59-.11-2.36,.02-.8,.13-1.26,.05-2,.72-.35,.31-1.12,.89-1.56,.65-.55-.3-2.01,.89-2.6,1.18-.32,.16-1.69,.94-2.21,.65,0-.54,1.48-1.22,2.14-1.57h0Z" style="fill:#1a2e52; fill-rule:evenodd;"/><path d="M83.11,68.15l-.16,.08c.97-.54,1.51-.99,2.64-1.32,.43-.13,3.17-1.21,2.08,.14-.1,.12-.55,.9-.1,.9,.01,0,4.39-.16,3.13,.44-.24,.11-4.82-.03-5.86,.21-.2,.05-1.97,.23-1.97,0,0-.18,.02-.44,.25-.47h0Z" style="fill:#1a2e52; fill-rule:evenodd;"/><path d="M65.89,77.09c.3-.27,0-.52,1.06-.62,.25-.02,1.37-.92,1.07-.1-.16,.43-2.43,.99-2.14,.72h0Z" style="fill:#1a2e52; fill-rule:evenodd;"/><path d="M71.59,75.15c-1.34,.63-1.52,.28-1.03-1.08,.08-.22,.43-.6,.68-.57,.14,1.13,1.99,.05,2.73-.2,.35-.12,3.45-.11,3.34,.2-.25,.71-4.34,.6-3.92,.96,.31,.27,2.88-.09,1.45,.63-.21,.1-2.86-.13-3.25,.05h0Z" style="fill:#1a2e52; fill-rule:evenodd;"/><path d="M81.11,73.45c.25,0,3.48-.03,3.59,.05,0,.48-.43,.36,.3,.71,.1,.05,.23,.38,.78,.62,.36,.16,.18,.4-.81-.03-1.27-.56-3.71-.41-5.08-.22-2.56,.37,1.02-1.13,1.22-1.13h0Z" style="fill:#1a2e52; fill-rule:evenodd;"/><path d="M23.91,65.24s-2.72,2.31-3.46,3.97c-.24,.53-.39-.4-.39-.65,0-1.82,2.34-3.41,3.86-3.32h0Z" style="fill:#1a2e52; fill-rule:evenodd;"/><path d="M27.81,67.84c1.12-.43,1.34,1.83,3.45,.56,1.43-.86,2.02-.08,2.81-.05,.63,.03,.86,.12,1.72,.04,.53-.05,3.09,.74,3.23,1.44,.17,.89-3.6-1.36-4.32-.02-.42,.79,2,.57,1.38,1.24-.19,.2-2.61-1.02-3.33-.99-.17,0-1.77-.11-1.4,.16,.06,.04-.46,2.31-1.38,.53-.11-.2-4.87-1.86-2.16-2.91h0Z" style="fill:#1a2e52; fill-rule:evenodd;"/><path d="M43.2,72.24c1.11,.42,2.18,.95,3.33,1.22,.01,0,3.94,1.45,2.47,1.45-.45,0-2.01-.84-2.57-1.05-.58-.21-1.04-.4-1.65-.56-.88-.24-1.23-.53-2.17-.48-.55,.03-.92-1.16,.6-.58h0Z" style="fill:#1a2e52; fill-rule:evenodd;"/><path d="M27.08,74.63c-.19-.06-.76-.42-.88-.57-.32-.39-.39-.85-.43-1.33-.01-.13-.29,.1-.53-.16-.15-.16-.48,.1-1.01-.29-.14-.11,.25,.9,.98,1.43,.5,.37,.9,.9,1.57,1.11,.31,.1,.63-.09,.3-.19h0Z" style="fill:#1a2e52; fill-rule:evenodd;"/><path d="M27.25,72.68c.6,.22,.88-.92,1.79-.19,.31,.25,1.27,.19,1.24,.23-.05,.05-.11,1.26-.02,1.49,.18,.46-.49,.58-.85,.68-.26,.08-2.15,.22-1.02-.21,.57-.22,.93-.7,.75-1.31-.16-.55-1.21-.31-1.7-.43-.1-.03-.43-.35-.19-.26h0Z" style="fill:#1a2e52; fill-rule:evenodd;"/><path d="M23.42,56.26c.09-1.51,1.54-1.1,2.15-.19-.05,.14-.1,.28-.15,.42-.67-.86-1.51-1.2-2-.23h0Z" style="fill:#edede0; fill-rule:evenodd;"/><path d="M34.44,55.41c.13-.24,.25-.48,.5-.6,.72,.05,1.43,.09,2.15,.14,.29,.08,.33,.28,.25,.55-1.4,2.07-1.13,4.8-.85,7.16-.44-.27-.75-.59-1.01-.92-.49-4.71,2.16-6.33-1.05-6.34h0Z" style="fill:#edede0; fill-rule:evenodd;"/><path d="M16.1,62.72c.22,.29,.84,2.19,.03,1.85-.21-.09-.27-.44-.27-.65,0-.29,.44-.17,.23-.49-.06-.09-.36,.18-.27-.4,.06-.38-.42,.03-.48-.11-.3-.69,.4-.68,.77-.19h0Z" style="fill:#1a2e52; fill-rule:evenodd;"/><path d="M16.51,69.43c1.05-1.42,.73-1.95,.82-3.09,.17-.05,1.05,2.11-.06,2.98-.23,.18-.83,.2-.76,.11h0Z" style="fill:#1a2e52; fill-rule:evenodd;"/><path d="M29.75,85.91c-.12,.2-.54,.17-.93-.07-.39-.24-.61-.59-.49-.79s.54-.17,.93,.07c.39,.24,.61,.59,.49,.79h0Z" style="fill:#1a2e52; fill-rule:evenodd;"/><path d="M29.28,87.4c-.12,.13-.55,.06-.95-.15-.4-.21-.63-.49-.5-.61,.12-.13,.55-.06,.95,.15,.4,.21,.63,.49,.5,.61h0Z" style="fill:#1a2e52; fill-rule:evenodd;"/><path d="M30.79,49.95c-.2,.58-.51,1.02-.94,1.33-.28,.19-.52,.31-.75,.36-.69,.13-1.31,.13-1.84,0-.12-.03-.24-.08-.36-.14-.16-.08-.23-.2-.18-.37,.12-.53,.22-.88,.28-1.05,.05-.16,.12-.26,.2-.3,.08-.04,.21-.05,.39-.03,.04,0,.11,.01,.22,.03,.1,0,.17,.02,.22,.02,.08,.01,.17,0,.25,0,.52-.07,.81-.3,.88-.72,.03-.2-.02-.39-.13-.59-.12-.21-.28-.35-.49-.43-.44-.18-.87-.19-1.3-.03-.1,.03-.45,.18-1.06,.44-1.14,.48-1.73,.72-1.78,.74-1.09,.4-2.12,.36-3.09-.12-.56-.28-.98-.68-1.25-1.19-.27-.48-.36-.99-.27-1.52,.17-1.22,.75-2.03,1.73-2.42,.55-.22,1.15-.24,1.82-.05,.18,.05,.26,.16,.24,.32-.04,.47-.12,.89-.26,1.25-.07,.18-.2,.27-.4,.27-.04,0-.11,0-.22,0-.1,0-.17,0-.22,0-.47,.01-.74,.2-.82,.57-.08,.37,.07,.66,.47,.89,.54,.31,1.16,.35,1.86,.12,.33-.12,.64-.25,.92-.42,.45-.26,.98-.5,1.58-.71,1.17-.4,2.28-.3,3.32,.31,.46,.26,.81,.64,1.05,1.13,.26,.5,.33,.99,.22,1.45,0,.03-.1,.31-.28,.84h0Zm-2.9-8.13c-1.57-1.13-2.42-1.74-2.56-1.83-.42-.28-.73-.68-.93-1.2-.2-.55-.23-1.09-.08-1.64,.06-.21,.14-.38,.24-.52,.27-.39,.47-.66,.6-.83,.09-.12,.2-.22,.32-.31,.35-.25,.94-.4,1.78-.47,.38-.03,.78,.11,1.2,.4,.44,.3,.75,.52,.94,.67,.15,.12,.24,.22,.25,.32,.01,.09-.04,.22-.15,.39-.19,.28-.39,.56-.61,.83-.14,.17-.32,.2-.52,.08,0,0-.21-.14-.64-.43-.25-.17-.52-.24-.79-.2-.25,.03-.44,.14-.58,.32-.13,.18-.17,.4-.12,.65,.05,.24,.17,.44,.35,.6,.1,.09,.24,.2,.4,.32,1.51,1.09,2.8,2.01,3.86,2.78,.19,.13,.37,.25,.55,.34,.18,.1,.37,.15,.55,.16,.28,0,.5-.08,.66-.28,.16-.19,.21-.43,.15-.7-.06-.27-.21-.5-.46-.68-.05-.04-.17-.12-.36-.26-.15-.11-.26-.2-.35-.28-.14-.12-.22-.22-.24-.3-.02-.09,.02-.21,.12-.35,.19-.29,.4-.59,.64-.88,.14-.18,.31-.21,.51-.08,.77,.5,1.26,.87,1.5,1.1,.8,.84,.99,1.79,.58,2.85-.48,1.24-1.43,1.86-2.85,1.88-.4,0-.81-.15-1.24-.48l-2.71-1.95h0Zm10.14-11.48c1.4,1.94,2.16,3,2.28,3.15,.57,.76,.7,1.66,.4,2.71-.03,.12-.08,.21-.13,.29-.41,.59-.9,1-1.45,1.25-.62,.27-1.27,.31-1.96,.09-.22-.07-.42-.18-.61-.34-.44-.36-.76-.69-.98-.99-.44-.61-1.17-1.62-2.2-3.05-.94-1.3-1.67-2.32-2.19-3.05-.22-.32-.33-.54-.31-.65,.02-.12,.19-.29,.5-.52,.24-.18,.44-.31,.58-.39,.19-.11,.36-.08,.5,.09,.08,.09,.21,.26,.39,.51l4.06,5.63c.14,.19,.26,.36,.38,.51,.13,.16,.28,.27,.46,.34,.35,.12,.63,.07,.84-.13,.26-.26,.34-.55,.23-.87-.1-.3-.26-.59-.47-.89l-4.17-5.79c-.23-.32-.34-.54-.32-.64,.02-.11,.19-.27,.52-.51,.22-.16,.44-.3,.63-.43,.15-.09,.29-.06,.41,.07,.1,.12,.22,.27,.35,.45,.25,.35,1.01,1.4,2.27,3.15h0Zm7.16-4.83c-.15-.28-.24-.43-.25-.45-.23-.36-.56-.5-.99-.42-.21,.04-.35,.1-.43,.2-.08,.11-.11,.26-.08,.46,.05,.4,.17,.86,.37,1.37,.21,.55,.57,.65,1.07,.31,.18-.13,.29-.28,.33-.46,.08-.33,.07-.67-.02-1.02h0Zm-.23,5.19c.17,.61,.27,.94,.29,.98,.1,.27,.29,.38,.57,.31,.49-.12,.77-.38,.86-.78,.15-.66,.01-1.27-.4-1.83-.15-.21-.36-.35-.63-.42-.32-.08-.58-.03-.76,.13-.19,.17-.25,.41-.19,.73,.01,.04,.09,.33,.25,.87h.02Zm-2.66-1.66c-.8-2.82-1.25-4.4-1.34-4.72-.11-.39-.14-.64-.08-.73,.05-.09,.27-.19,.66-.31,.08-.02,.41-.11,1-.28,.4-.11,.73-.21,.99-.29,.71-.24,1.38-.21,2.01,.08,.63,.3,1.12,.83,1.45,1.6,.41,.94,.46,1.8,.15,2.57-.07,.18-.09,.31-.06,.41,.03,.1,.13,.2,.29,.3,.63,.41,1.05,1.01,1.24,1.81,.05,.21,.14,.5,.25,.87,.19,.61,.14,1.23-.14,1.85-.3,.67-.8,1.14-1.51,1.4-.4,.15-1.35,.43-2.85,.84-.18,.04-.31,.04-.4-.01-.08-.05-.16-.18-.23-.37-.03-.07-.08-.23-.15-.49l-1.29-4.53h0Zm12.21-1.15c0,.13,.16,.19,.48,.19,.29,0,.44-.05,.47-.17,.01-.03,0-.13-.01-.28-.02-.15-.06-.36-.11-.65-.06-.35-.09-.54-.09-.56-.01-.08-.04-.16-.09-.24-.06-.1-.13-.13-.21-.11-.07,.02-.12,.05-.15,.11-.13,.31-.22,.82-.28,1.51,0,.09,0,.16,0,.22h0Zm.56-6.89c.48,0,.74,0,.78,0,.18,.01,.3,.05,.36,.1,.06,.06,.12,.17,.16,.35,.02,.08,.04,.19,.06,.32,.15,.95,.42,2.58,.79,4.89,.34,2.08,.6,3.71,.79,4.89,.08,.48,.06,.78-.06,.89-.09,.07-.34,.11-.76,.1-.4,0-.64-.01-.71-.02-.16-.01-.27-.05-.33-.11-.06-.06-.11-.16-.13-.32-.02-.13-.04-.32-.08-.58-.03-.26-.05-.45-.08-.58-.01-.08-.04-.27-.11-.57-.06-.26-.23-.4-.51-.41-.08,0-.12,0-.13,0-.43,0-.7,.02-.81,.09-.15,.09-.24,.35-.29,.78-.01,.12-.09,.57-.24,1.34-.05,.23-.19,.35-.41,.35-.51,.01-.94,.01-1.29,0-.23-.01-.34-.14-.33-.39,0-.07,.03-.21,.07-.45,.37-2.13,.62-3.53,.74-4.21,.66-3.72,1-5.65,1.03-5.8,.04-.28,.12-.46,.22-.54,.1-.07,.28-.11,.55-.11h.71s0,.01,0,.01h0Zm11.72,5.94c-.24,1.6-.38,2.55-.43,2.87-.03,.19-.04,.36-.04,.51,0,.16,.07,.28,.22,.37,.29,.16,.59,.17,.92,.05,.33-.13,.52-.36,.57-.67,0-.04,.02-.11,.03-.19,.01-.09,.02-.15,.03-.19,.34-2.21,.59-3.87,.75-4.98,.03-.22,.05-.36,.06-.45,.02-.53-.23-.85-.74-.96-.3-.07-.52-.06-.64,0-.13,.08-.22,.26-.26,.56,0,.06-.02,.13-.03,.22-.02,.12-.03,.19-.03,.22l-.39,2.61h0Zm-1.92-.26c.37-2.48,.61-4.07,.72-4.78,.04-.25,.07-.44,.11-.57,.05-.19,.18-.29,.38-.29,.1,0,.22,.02,.38,.04,1.59,.23,2.36,.35,2.3,.34,.58,.08,1.04,.35,1.39,.83,.34,.46,.54,.82,.6,1.06,.11,.41,.13,.79,.07,1.15-.1,.67-.25,1.66-.45,2.97-.2,1.33-.35,2.32-.45,2.97-.09,.58-.31,1.06-.66,1.45-.62,.69-1.41,1-2.37,.92-.11,0-.9-.12-2.36-.34-.02,0-.04,0-.06,0-.16-.04-.27-.1-.32-.16-.05-.07-.08-.18-.06-.33,0-.1,.03-.29,.07-.57,.1-.69,.34-2.25,.7-4.66h0Zm10.69,2.53c-1.04,2.72-1.63,4.24-1.76,4.58-.15,.38-.27,.6-.37,.64-.1,.04-.34-.01-.71-.15-.29-.11-.51-.2-.66-.28-.2-.1-.27-.26-.21-.48,.03-.11,.08-.28,.16-.49,1.56-4.05,2.72-7.08,3.5-9.11,.14-.38,.27-.58,.37-.62,.1-.04,.34,.01,.72,.16,.3,.11,.52,.2,.65,.27,.2,.1,.27,.26,.21,.48-.03,.11-.1,.29-.19,.54l-1.72,4.47h0Zm2.68,8.06c-.45-.33-.7-.5-.74-.54-.18-.14-.22-.31-.14-.52,.07-.16,.12-.3,.17-.42,.33-.69,.78-1.62,1.35-2.8,.64-1.35,1.1-2.28,1.35-2.8,.21-.45,.49-1.04,.84-1.76,.45-.95,.73-1.53,.84-1.76,.03-.07,.06-.13,.09-.17,.12-.2,.23-.31,.33-.34,.11-.03,.25,.02,.44,.15,.3,.2,.58,.4,.84,.6,.12,.1,.2,.2,.22,.29,.02,.09,0,.2-.07,.34-.18,.37-.38,.8-.62,1.28-.17,.33-.51,1-1.03,2.02-.42,.85-.76,1.52-1.02,2.03-.06,.12-.13,.3-.2,.55-.02,.06,0,.12,.05,.17,.07,.06,.15,.05,.23-.02,.23-.2,.4-.36,.53-.49,.43-.42,1.02-1.02,1.79-1.79,.83-.84,1.43-1.44,1.78-1.79,.12-.12,.31-.3,.56-.53,.18-.16,.35-.18,.53-.06,.41,.28,.77,.53,1.06,.75,.19,.15,.21,.32,.04,.52-.17,.2-.39,.43-.67,.7-1.73,1.67-3.97,3.83-6.72,6.48-.13,.12-.29,.27-.48,.43-.17,.15-.35,.17-.54,.05-.05-.04-.31-.22-.79-.57h0Zm8.9,.31c2.39-1.72,3.72-2.68,3.99-2.87,.33-.24,.55-.35,.66-.33,.11,.01,.28,.18,.51,.51,.76,1.04,1.45,2,2.07,2.88,.22,.3,.31,.5,.3,.61-.01,.11-.17,.26-.46,.47-.23,.17-.42,.3-.59,.39-.17,.1-.32,.07-.46-.08-.07-.07-.17-.21-.32-.4-.66-.91-.98-1.35-.94-1.31-.17-.21-.32-.34-.46-.36-.14-.02-.32,.04-.53,.18-.46,.31-.9,.63-1.31,.95-.18,.14-.28,.27-.3,.4-.02,.13,.03,.3,.15,.49,.07,.11,.18,.27,.33,.47,.16,.22,.27,.38,.34,.48,.1,.16,.15,.29,.14,.38-.02,.09-.11,.2-.26,.32-.27,.21-.55,.41-.85,.59-.19,.13-.36,.1-.51-.08-.16-.2-.37-.49-.66-.88-.18-.25-.33-.39-.44-.43-.15-.05-.38,.02-.68,.22-.33,.21-.7,.48-1.1,.79-.21,.16-.32,.31-.34,.45-.03,.14,.04,.32,.19,.54-.02-.03,.29,.4,.93,1.31,.14,.2,.23,.35,.29,.44,.1,.18,.08,.34-.06,.46-.32,.28-.65,.52-1,.72-.17,.1-.33,.07-.47-.08-.09-.09-.19-.21-.29-.35-.31-.43-1-1.39-2.08-2.89-.07-.1-.12-.17-.14-.21-.1-.17-.14-.3-.13-.4,.01-.1,.09-.21,.23-.33,.07-.05,.22-.17,.47-.35l3.78-2.72h0Zm7.6,9.18c-.71,.2-1.1,.32-1.18,.34-.26,.09-.38,.26-.37,.53,0,.31,.12,.57,.34,.78,.22,.2,.48,.29,.8,.27,.1,0,.16-.01,.19-.02,.83-.23,1.31-.37,1.43-.41,.25-.09,.42-.21,.51-.36,.09-.14,.13-.35,.12-.63,0-.11-.02-.2-.03-.26-.07-.46-.32-.64-.76-.55-.05,0-.4,.11-1.06,.3h0Zm-2.56-1.3c2.77-.79,4.34-1.24,4.73-1.34,.4-.11,.64-.15,.73-.09,.09,.05,.2,.27,.31,.65,.03,.11,.11,.39,.23,.84,.1,.34,.18,.62,.24,.83,.12,.39,.19,.86,.2,1.41,0,.46-.12,.87-.37,1.25-.26,.38-.61,.64-1.04,.79-.41,.13-1.34,.4-2.79,.8-.38,.1-.8,.05-1.27-.14-.33-.14-.68-.1-1.03,.11-.47,.28-1.47,.87-3,1.77-.2,.12-.37,.21-.51,.27-.08,.03-.15,.04-.22,.01-.08-.03-.13-.08-.16-.15-.18-.42-.32-.9-.41-1.42-.03-.18,.04-.33,.21-.45,.12-.08,.29-.18,.5-.3,.22-.13,.61-.35,1.18-.66,.5-.28,.9-.51,1.19-.67,.14-.08,.25-.15,.32-.21,.2-.16,.25-.36,.16-.58-.1-.22-.28-.32-.53-.28-.13,.01-.32,.06-.57,.12-.28,.08-.65,.18-1.12,.32-.56,.16-.93,.26-1.12,.32-.23,.07-.4,.11-.5,.13-.23,.04-.38-.05-.45-.26-.12-.37-.23-.74-.32-1.12-.05-.22,.04-.37,.26-.46,.11-.04,.29-.1,.55-.17l4.6-1.31h0Z" style="fill:#edede0;"/><polygon points="40.32 87.85 40.68 88.97 41.86 88.97 40.9 89.66 41.27 90.77 40.32 90.08 39.37 90.77 39.73 89.66 38.78 88.97 39.96 88.97 40.32 87.85 40.32 87.85" style="fill:#edede0; fill-rule:evenodd;"/><polygon points="80.01 87.85 80.37 88.97 81.54 88.97 80.59 89.66 80.96 90.77 80.01 90.08 79.06 90.77 79.42 89.66 78.47 88.97 79.65 88.97 80.01 87.85 80.01 87.85" style="fill:#edede0; fill-rule:evenodd;"/><path d="M72.49,58.96c0,.17,0,.26,0,.28,0,.06,.03,.1,.09,.12,.07,.02,.13,0,.19-.03,.06-.04,.09-.09,.11-.16,0-.02,0-.04,0-.04,0-.2,0-.31,0-.34,0-.06-.02-.11-.05-.14-.03-.03-.07-.05-.13-.07-.03,0-.05,0-.06-.01-.11-.01-.16,.03-.17,.13,0,.01,0,.1,0,.25h0Zm-.45,.48v-1.13c0-.09,0-.15,.03-.17,.02-.02,.07-.03,.16-.03,.03,0,.09,0,.2,0,.08,0,.15,0,.2,0,.09,0,.2,.01,.32,.04,.1,.03,.19,.08,.25,.16,.07,.08,.1,.17,.11,.28,0,.1,0,.32,0,.67,0,.09-.04,.18-.11,.27-.05,.06-.06,.14-.04,.24,.03,.12,.1,.38,.2,.77,.01,.05,.02,.1,.03,.13,0,.02,0,.04-.01,.05-.01,.02-.03,.02-.04,.03-.1,.01-.22,.01-.34,0-.04,0-.07-.03-.08-.08,0-.03-.02-.07-.03-.13-.01-.06-.04-.16-.07-.3-.03-.13-.06-.23-.07-.3,0-.04-.02-.06-.03-.08-.02-.05-.06-.08-.12-.07-.06,0-.09,.04-.1,.1,0,.03,0,.07,0,.13v.53c0,.06,0,.09,0,.12,0,.05-.04,.08-.09,.08-.09,0-.18,0-.27,0-.05,0-.08-.03-.08-.09,0-.03,0-.07,0-.13v-1.1h0Zm1.64,0v-1.13c0-.09,0-.15,.03-.17,.02-.02,.07-.03,.16-.03,.3,0,.57,0,.82,0,.08,0,.14,0,.15,.03,.02,.02,.03,.07,.03,.15,0,.07,0,.12,0,.16,0,.05-.03,.07-.08,.08-.02,0-.06,0-.12,0-.26,0-.38,0-.37,0-.06,0-.11,.01-.13,.04-.02,.02-.04,.06-.04,.12,0,.13,0,.25,0,.37,0,.05,.01,.09,.03,.11,.02,.02,.06,.03,.11,.04,.03,0,.07,0,.13,0,.06,0,.11,0,.13,0,.04,0,.07,.01,.09,.03,.02,.02,.02,.05,.03,.09,0,.08,0,.16,0,.24,0,.05-.03,.08-.08,.08-.06,0-.14,0-.25,0-.07,0-.12,0-.14,.02-.03,.02-.05,.07-.05,.16,0,.09,0,.19,0,.31,0,.06,.02,.1,.04,.12,.02,.02,.07,.04,.13,.04,0,0,.11,0,.37,0,.06,0,.1,0,.12,0,.05,0,.07,.03,.08,.07,0,.1,0,.19,0,.28,0,.05-.03,.07-.08,.08-.03,0-.06,0-.1,0h-.82s-.05,0-.06,0c-.04,0-.07-.01-.09-.03-.02-.02-.03-.04-.03-.09,0-.02,0-.06,0-.13v-1.07h0Zm1.9,0v.52c0,.08,.01,.15,.03,.22,.03,.09,.09,.14,.17,.15,.08,0,.14-.04,.19-.12,0-.01,0-.02,.01-.03,.03-.15,.03-.29,0-.43,0-.05-.04-.07-.1-.08-.06,0-.09-.05-.09-.11,0-.13,0-.21,0-.24,0-.06,.04-.09,.09-.09,.04,0,.12,0,.25,0,.1,0,.17,0,.21,0,.03,0,.05,.01,.07,.02,.01,.01,.02,.04,.03,.07,0,.02,0,.05,0,.1v.74c0,.2-.08,.37-.23,.49-.15,.12-.33,.17-.53,.13-.23-.04-.39-.18-.49-.41-.02-.05-.03-.11-.03-.2,0-.14,0-.39,0-.75v-.71c0-.15,.04-.27,.12-.37,.13-.16,.28-.24,.45-.24,.02,0,.04,0,.07,0h.07c.18,0,.33,.08,.44,.23,.09,.12,.14,.25,.13,.38,0,.03,0,.07,0,.12,0,.06,0,.09,0,.12,0,.06-.03,.09-.09,.1-.09,0-.18,0-.27,0-.05,0-.08-.03-.08-.09,0,.01,0-.05,0-.18,0-.07-.02-.12-.06-.16-.05-.06-.1-.08-.17-.07-.07,0-.11,.05-.14,.12-.03,.06-.04,.14-.04,.23v.55h0Zm1.36,.94c.08,0,.12,0,.12,0,.02,0,.03,0,.04,.02,.01,.01,.02,.02,.02,.04,0,.08,0,.17,0,.25,0,.02,0,.03-.02,.04-.01,.01-.02,.02-.04,.02-.09,.01-.18,0-.25,0-.01,0-.03,0-.04-.02-.01-.01-.02-.02-.02-.04-.01-.08-.01-.16,0-.25,0-.02,0-.03,.02-.04,.01,0,.02-.01,.04-.02,0,0,.05,0,.13,0h0Zm1.77-1.57c0-.06,0-.1,0-.12,0-.05-.02-.08-.03-.1-.02-.02-.05-.03-.1-.04-.02,0-.05,0-.09,0-.04,0-.07,0-.09,0-.04,0-.06-.01-.08-.02-.01-.01-.02-.04-.03-.07,0-.08,0-.17,0-.25,0-.03,.01-.05,.02-.07,.01-.01,.04-.02,.07-.02,.02,0,.05,0,.09,0,.5,0,.8,0,.91,0,.09,0,.14,0,.16,.03,.02,.02,.03,.07,.03,.16,0,.08,0,.13,0,.16,0,.03-.01,.06-.02,.07-.01,.01-.04,.02-.07,.02-.02,0-.05,0-.08,0s-.06,0-.08,0c-.06,0-.1,.02-.12,.04-.02,.02-.03,.06-.04,.12v.97c0,.35,0,.63,0,.84,0,.07,0,.12,0,.15,0,.05-.03,.07-.08,.08-.1,0-.19,0-.28,0-.05,0-.08-.03-.08-.09,0-.02,0-.06,0-.12v-1.74h0Zm1.18,.63v-1.11c0-.06,0-.1,0-.13,0-.05,.03-.07,.08-.07,.13,0,.28,0,.46,0,.04,0,.07,.02,.08,.07,.02,.07,.04,.16,.06,.26,.02,.09,.05,.25,.1,.5,.04,.21,.07,.37,.1,.49,0,.02,.01,.05,.03,.1,0,.02,.02,.03,.04,.04,.02,0,.04-.01,.05-.04,0,0,0-.02,0-.03,.02-.1,.05-.26,.09-.49,.04-.21,.07-.37,.09-.49,0-.04,.02-.09,.03-.16,.02-.08,.03-.14,.03-.16,.01-.06,.05-.09,.1-.09,.17,0,.31,0,.43,0,.05,0,.08,.03,.08,.09,0,.02,0,.06,0,.12v2.21c0,.05,0,.1,0,.13,0,.05-.03,.08-.07,.08-.1,.01-.19,.01-.3,0-.04,0-.06-.03-.06-.07,0-.03,0-.07,0-.12,0-.06,0-.14,0-.25v-.25c0-.09-.01-.16-.04-.22,0,0-.01-.01-.02-.01-.01,0-.02,0-.02,.01-.02,.02-.03,.06-.04,.11,0,.05-.02,.11-.04,.2-.02,.09-.03,.16-.04,.19-.03,.13-.05,.22-.06,.29-.01,.04-.02,.07-.04,.09-.02,.02-.05,.02-.09,.03-.06,0-.11,0-.16,0-.04,0-.06,0-.08-.02-.01-.01-.03-.04-.04-.07-.01-.05-.03-.12-.05-.2-.02-.1-.04-.17-.05-.19-.04-.18-.07-.31-.1-.4,0-.02-.02-.06-.04-.1,0-.02-.02-.02-.04-.02-.01,0-.02,.01-.02,.02-.01,.02-.02,.07-.02,.13v.32c0,.14,0,.24,0,.32,0,.05,0,.1,0,.13,0,.05-.03,.07-.08,.08-.09,.01-.19,.01-.28,0-.04,0-.07-.03-.07-.08,0-.03,0-.07,0-.13v-1.1h0Z" style="fill:#edede0;"/><g id="Discover_Scuba"><path d="M34.45,108.11l1.6,1.23c1.05,.81,1.11,1.79,.29,2.87l-2.61,3.41c-.83,1.08-1.79,1.27-2.84,.46l-1.6-1.23,5.17-6.74Zm-2.85,6.99c.33,.26,.67,.24,1.04-.25l2.69-3.5c.37-.48,.3-.81-.03-1.06l-.53-.41-3.69,4.81,.53,.41Z" style="fill:#edede0;"/><path d="M38.38,111.05l1.1,.74-4.75,7.04-1.1-.74,4.75-7.04Z" style="fill:#edede0;"/><path d="M36.96,117.92l.23-.43,1.11,.58-.27,.51c-.28,.54-.15,.85,.22,1.05,.37,.2,.71,.13,1-.43,.33-.62,.31-1.14-.1-2.22-.52-1.38-.51-2.17-.06-3.02,.62-1.18,1.59-1.55,2.73-.95,1.14,.6,1.34,1.58,.7,2.79l-.17,.31-1.11-.58,.2-.39c.28-.54,.18-.85-.19-1.05-.37-.2-.69-.1-.97,.41-.29,.55-.25,1.07,.15,2.15,.52,1.39,.51,2.15,.02,3.08-.65,1.22-1.63,1.58-2.78,.98-1.15-.61-1.36-1.6-.72-2.8Z" style="fill:#edede0;"/><path d="M41.78,120.37l1.41-4.34c.4-1.25,1.28-1.78,2.5-1.39,1.21,.39,1.61,1.34,1.21,2.59l-.28,.85-1.19-.39,.3-.94c.17-.53,0-.83-.39-.96-.38-.12-.7,.02-.87,.55l-1.46,4.52c-.17,.53,.01,.82,.39,.94,.38,.12,.7,0,.87-.54l.4-1.24,1.19,.39-.37,1.14c-.4,1.25-1.28,1.78-2.5,1.39-1.21-.39-1.61-1.34-1.21-2.59Z" style="fill:#edede0;"/><path d="M46.88,121.84l.72-4.41c.22-1.34,1.05-1.99,2.33-1.78,1.28,.21,1.85,1.09,1.63,2.43l-.72,4.41c-.22,1.34-1.05,1.99-2.33,1.78s-1.85-1.09-1.63-2.43Zm2.64,.52l.75-4.58c.1-.6-.12-.87-.54-.94s-.71,.12-.81,.71l-.75,4.58c-.1,.6,.12,.87,.54,.94s.71-.12,.81-.71Z" style="fill:#edede0;"/><path d="M52.31,116.14l1.33,.07,.51,6.63h.02s1.22-6.53,1.22-6.53l1.21,.07-1.73,8.41-1.75-.1-.81-8.55Z" style="fill:#edede0;"/><path d="M57.23,116.35l3.61-.05,.02,1.21-2.29,.04,.03,2.24,1.82-.03,.02,1.21-1.82,.03,.04,2.61,2.28-.04,.02,1.21-3.61,.05-.13-8.49Z" style="fill:#edede0;"/><path d="M61.64,116.27l1.96-.15c1.37-.11,2,.49,2.11,1.8l.04,.52c.07,.87-.16,1.45-.73,1.74v.02c.68,.15,.94,.77,1.02,1.72l.12,1.49c.03,.41,.07,.71,.22,1.02l-1.34,.1c-.09-.21-.15-.34-.2-1.03l-.12-1.55c-.06-.79-.31-1.02-.91-.98l-.46,.04,.28,3.63-1.32,.1-.66-8.47Zm2.08,3.49c.49-.04,.77-.28,.72-.96l-.05-.65c-.05-.61-.27-.86-.74-.82l-.6,.05,.19,2.42,.48-.04Z" style="fill:#edede0;"/><path d="M69.55,121.94l-.1-.47,1.22-.27,.12,.57c.13,.59,.44,.75,.85,.66,.41-.09,.62-.36,.49-.98-.15-.69-.51-1.07-1.51-1.63-1.29-.72-1.79-1.32-2-2.27-.29-1.3,.21-2.21,1.47-2.49s2.04,.34,2.34,1.67l.08,.34-1.22,.27-.09-.43c-.13-.59-.41-.77-.83-.68-.41,.09-.6,.37-.47,.94,.13,.6,.5,.98,1.51,1.54,1.29,.72,1.78,1.31,2,2.34,.3,1.35-.22,2.26-1.48,2.54-1.27,.28-2.07-.34-2.36-1.67Z" style="fill:#edede0;"/><path d="M74.71,120.77l-1.59-4.27c-.46-1.23-.1-2.19,1.09-2.64s2.1,.04,2.55,1.27l.31,.84-1.17,.44-.34-.92c-.2-.52-.52-.65-.9-.51-.37,.14-.54,.45-.34,.97l1.66,4.44c.19,.52,.52,.63,.89,.5,.37-.14,.54-.44,.35-.96l-.45-1.22,1.17-.44,.42,1.12c.46,1.23,.1,2.19-1.09,2.64-1.19,.45-2.1-.04-2.55-1.27Z" style="fill:#edede0;"/><path d="M79.76,118.68l-3.34-5.56,1.13-.68,3.39,5.64c.31,.52,.64,.58,1,.36,.36-.22,.46-.53,.15-1.05l-3.39-5.64,1.09-.66,3.34,5.56c.7,1.17,.52,2.18-.59,2.85-1.11,.67-2.09,.35-2.79-.82Z" style="fill:#edede0;"/><path d="M80.22,110.77l1.48-1.34c1.02-.92,1.89-.84,2.76,.14l.23,.25c.59,.65,.76,1.23,.48,1.8l.02,.02c.69-.3,1.32-.01,1.92,.65l.49,.54c.88,.97,.84,1.95-.14,2.84l-1.54,1.39-5.69-6.3Zm3.68,1.33c.37-.33,.44-.69-.01-1.2l-.32-.35c-.41-.45-.74-.51-1.08-.2l-.47,.43,1.5,1.67,.38-.35Zm2.74,2.67c.33-.3,.37-.61-.05-1.08l-.5-.55c-.53-.58-.88-.6-1.33-.19l-.44,.39,1.75,1.94,.56-.51Z" style="fill:#edede0;"/><path d="M84.21,106.85l1.13-1.39,7.46,4.29-.83,1.03-1.46-.88,.02,.02-.95,1.17,1.14,1.23-.77,.95-5.74-6.42Zm5.32,2.46l-3.63-2.19v.02s2.88,3.09,2.88,3.09l.75-.92Z" style="fill:#edede0;"/></g><text transform="translate(40.08 51.71)" style="fill:#edede0; font-family:BebasNeue-Regular, &apos;Bebas Neue&apos;; font-size:6.72px;"><tspan x="0" y="0">20</tspan></text><text transform="translate(72.49 51.71)" style="fill:#edede0; font-family:BebasNeue-Regular, &apos;Bebas Neue&apos;; font-size:6.72px;"><tspan x="0" y="0">22</tspan></text><text transform="translate(48.26 98.17)" style="fill:#edede0; font-family:BebasNeue-Regular, &apos;Bebas Neue&apos;; font-size:6.72px;"><tspan x="0" y="0">hurghada </tspan><tspan x="5.1" y="8.07">Egypt</tspan></text><text transform="translate(52.73 52.86)" style="fill:#edede0; font-family:BebasNeue-Regular, &apos;Bebas Neue&apos;; font-size:9.13px;"><tspan x="0" y="0">PADI</tspan></text></svg>