<?xml version="1.0" encoding="UTF-8"?><svg id="layer" xmlns="http://www.w3.org/2000/svg" viewBox="0 0 600.1 208.2"><g id="Logos-_-Brand-_-Primary-H-Light"><g id="PADI-horizontal-trap-on-light"><path id="Shape" d="m104.1,0C46.6,0,0,46.6,0,104.1s46.6,104.1,104.1,104.1,104.1-46.6,104.1-104.1c0-27.6-11-54.1-30.5-73.6S131.7,0,104.1,0" style="fill:#fff; stroke-width:0px;"/><path id="Shape-2" d="m41.7,131.8c-1.1-4.5-2-9-2.6-13.6.6.1,1.1.3,1.7.3h1.6c1.2,2.4,4.5,3.5,12.5,5.2,3.1.7,6.2,1.7,9.2,2.9,2.6,1.1,5.2,1.9,8,2.5,0,.9.3,1.8.4,2.7.3.9.1,1.9-.5,2.6s-1.5,1.1-2.5,1h-23.5c-2.2.1-4.1-1.5-4.4-3.6h.1ZM117,39.8h-26c-2.6.2-5,1.8-5.9,4.3l-5.9,20.2c-.4,1-.2,2.2.4,3.1s1.7,1.4,2.8,1.4h43.4c1.1,0,2.2-.5,2.8-1.4s.8-2.1.4-3.1l-6.1-20.2c-.9-2.5-3.2-4.1-5.9-4.3Zm-37.5,0h-17c-2.5.2-4.8,1.6-6.1,3.7-.6.9-1.1,1.8-1.7,2.8.5.5.8,1,1.1,1.6l.7,1.5h1.3c2.5,0,5.2-5.2,5.2-5.2,0,0,5.6,6.9,3.4,11.9-1.2,3-3.9,5-7.1,5.2h-.9c-.6.5-1.3.9-2,1.3,0,2.1-.7,4.1-1.9,5.9h15.6c2.3-.1,4.2-1.7,4.7-4,1.7-7.2,3.9-14.3,6.6-21.3,0,0,1.9-3.7-2-3.7v.3h.1Zm93.6-.4h-14c-5.7,0-3,3.6-3,3.6,4.8,6.5,8.5,13.8,10.9,21.4.6,2.4,2.8,4,5.2,4h19.6c5.2,0,3.3-4.8,3.3-4.8-2.9-7.6-7.2-14.7-12.6-20.8-2.7-2.2-6.2-3.4-9.8-3.2l.4-.2Zm-10.8,33.2h-23.6c-.9-.1-1.9.3-2.5,1s-.8,1.7-.5,2.6c1.1,6.6,1.8,13.2,2,19.9,2.2-1,4.5-1.6,6.9-1.6,1.7.3,3.5-.1,4.9-1,.6-1,1.4-1.8,2.4-2.3v-.7c1-2.8,3.4-4.8,6.3-5.2.5-.1,1-.1,1.5,0,2.5.1,4.8,1.1,6.6,2.8.8.7,1.6,1.4,2.5,2-.5-4.6-1.3-9.1-2.4-13.6-.3-2.2-2.2-3.7-4.4-3.6l.3-.3Zm4.2,59.2c1.1-4.6,2-9.2,2.5-13.8-.9-3.9-2.9-7.5-5.8-10.4l-1-.9c-3.2-.7-6.5-.4-9.5.6-5.7,2.6-11,6.1-15.6,10.4,0,1.6,0,3.1-.4,4.7,4.1.5,8,2.1,11.2,4.7,4.8,3.9,10.5,6.4,16.6,7.5,1-.7,1.6-1.7,1.8-2.9l.2.1Zm-38,36.3h17.3c2.5-.2,4.8-1.6,6.1-3.7,4.2-6.1,7.6-12.5,10.4-19.4-6.4-.8-12.6-2.3-18.6-4.5h-.7c-2.9.7-5.9,1.2-8.9,1.3-.2.4-.3.8-.4,1.1-1.7,7.2-4,14.3-6.7,21.3,0,0-1.9,3.7,2,3.7l-.5.2Zm-72-3.9c1.3,2.2,3.6,3.6,6.1,3.7h17c3.9,0,2-3.7,2-3.7-2.7-6.9-4.9-14-6.6-21.3-.5-2.2-2.5-3.8-4.7-4h-22.6c-4.2,0-2.4,4-2.4,4,2.8,7.5,6.5,14.6,11,21.2h.2v.1Zm117-91.3c-3.4,0-2.5,3.6-2.5,3.6,1.4,5.7,2.3,11.4,2.8,17.2l5.2,4c1.6,1.3,3.1,2.7,4.5,4.2h16.1c1.2.1,2.4-.4,3.2-1.3s1.2-2.1,1-3.3c-.4-6.8-1.5-13.5-3.4-20-.8-2.7-3.3-4.5-6.1-4.4h-20.8Zm-104,0h-19.3l-.9.6c-2.4,1.2-5,1.9-7.6,2-.2.3-.3.6-.3.9-.9,4-1.6,8-2.1,12.1v.6c.4,1.7,1.2,3.3,2.4,4.6l1.2,1.4c.6-.9,1.4-1.7,2.2-2.4-.6-.8-1-1.6-1.2-2.6-.3-1.5.1-3.1.9-4.4l3.1-4.4c1.2-1.7,3.1-2.7,5.2-2.7,1.1,0,2.2.3,3.2.8l.8-.8c1.9-1.5,4.3-2.3,6.7-2.1,2.5,0,4.9.5,7.2,1.4l1.1.6.3-2c.3-.9.1-1.9-.5-2.6s-1.5-1.1-2.5-1h.1Zm62.3,4.5c-.3-2.6-2.6-4.6-5.2-4.6h-45.1c-2.6,0-4.9,2-5.2,4.6l-.4,4.5c1.3,1.5,2.2,3.3,2.8,5.2,1.4-.6,3-.8,4.5-.6,1.6,0,3.2.3,4.6.9,2.1.7,30.5,13,34.4,14.6h7.3c.7,0,1.4-.2,2-.5l.3-.4c.5-.6,1-1.1,1.5-1.7.3-.7.4-1.4.4-2.1l-1.9-19.9Zm28.9-8.6c4.2,0,2.4-4,2.4-4-2.8-7.5-6.5-14.6-11-21.2-1.3-2.2-3.7-3.7-6.3-3.7h-17c-3.9,0-2,3.7-2,3.7,2.7,6.9,4.9,14,6.7,21.3.5,2.2,2.4,3.8,4.7,4h22.5v-.1Zm-47.9,60.7c.4,1,.8,2.1,1.1,3.2,1.8-1.3,4-2,6.3-2,.3,0,3.6,0,4.5.3,4.5.4,5.2-2.3,5.2-2.3.6-1.5,1.4-2.9,2.5-4.2l.3-3.3c-5.9,4.1-12.7,6.9-19.8,8.2h-.1v.1Zm-31.1,5.9h6.8c-.7-1-1.4-1.8-1.7-2.4l-1.9-2.9c-2.9,0-5.8-.3-8.4-.5v1c.3,2.6,2.6,4.6,5.2,4.6v.2Zm9.6,32.8h26c2.6-.2,5-1.8,5.9-4.3l5.9-19.5c-4.6,3.1-9.7,5.3-15.1,6.5-1.7.4-3.5.5-5.2.5-4.8.1-9.5-2-12.5-5.7l-4.7-6.3h-9.2c-1.1-.1-2.2.5-2.8,1.4s-.8,2.1-.4,3.1l6.1,20.2c1,2.5,3.3,4.2,5.9,4.3l.1-.2Zm-5.3,7.6c-.8-2.2-2.8-3.8-5.2-4h-14.7c-5.2,0-.8,4.2-.8,4.2,8.2,9.9,18.4,18.1,29.9,24,4.3,1.9,4.8,1.8,3.1-.9-2.5-3.8-9.4-17.2-12.1-23.2h-.2v-.1Zm29.3-4.1h-22.4c-2.4,0-3.5,1.9-2.4,4.3,2.8,7,6,13.8,9.7,20.4,1.8,3,2.2,3.4,3.9,3.4s2.1-.4,3.9-3.4c3.7-6.6,6.9-13.4,9.7-20.4,1.1-2.3,0-4.3-2.4-4.3Zm-21.3,30c-13-6-24.4-14.9-33.3-26-2.2-2.5-5.3-3.9-8.6-4h-15.3s-5.7,0-2.3,4c14.3,13.9,32.4,23.1,52,26.6,5.2.9,13.2,1.9,7.6-.6h-.1Zm49.1-26s4.3-4.2-.8-4.2h-14.9c-2.4.2-4.4,1.8-5.2,4-2.7,6-9.6,19.4-12.1,23.2-1.8,2.8-1.2,2.8,3.1.9,11.5-5.8,21.7-14,29.9-23.9Zm56.5-69.4h-12.2c3.6,4.3,6.7,9,9.3,14l.7,1.5c.3.6.3,1.3,0,1.9s-.8,1.1-1.5,1.3l-1.6.5c-1.6.7-3.1,1.7-4.3,2.9-1.7,1.7-4,2.6-6.4,2.6-1.8,0-3.6-.5-5.2-1.2-1.3-.2-2.7-.3-4-.3h-2.6c0,.8-.4,1.6-.5,2.4-.2.8-.9,3.6,2.5,3.6h20.8c2.8.1,5.4-1.7,6.1-4.4,1.9-6.5,3-13.2,3.4-20,.2-1.2-.2-2.4-1-3.3s-2-1.4-3.2-1.3l-.3-.2Zm-164.2,62.1h13.7c5.7,0,3-3.6,3-3.6-4.8-6.5-8.5-13.8-10.9-21.4-.6-2.4-2.8-4-5.2-4h-19.8c-5.2,0-3.3,4.8-3.3,4.8,2.9,7.6,7.2,14.7,12.6,20.8,2.7,2.2,6.2,3.4,9.8,3.2v.2h.1Zm136,3.3h-15.2c-3.3.1-6.4,1.5-8.5,4-8.9,11.1-20.3,20-33.3,26-5.6,2.5,2.4,1.5,7.6.6,19.6-3.5,37.7-12.8,52-26.6,3-4-2.6-4-2.6-4Zm20.8-32.4h-3.5c.5.8.8,1.7.8,2.7,0,4.6-5.2,4.6-9.3,4.6-4.7-.1-9.4-.4-14-.9-2.4,6.8-5.7,13.3-10,19.1,0,0-2.7,3.6,3,3.6h13.7c3.5.2,7-.9,9.8-3.2,5.4-6.1,9.7-13.2,12.6-20.8,0,0,1.9-4.8-3.3-4.8l.2-.3ZM122,32.4c.8,2.2,2.8,3.8,5.2,4h14.7c5.2,0,.8-4.2.8-4.2-8.2-9.9-18.4-18.1-29.9-24-4.3-1.9-4.8-1.8-3.1.9,2.5,3.8,9.4,17.2,12.1,23.2h.2v.1Zm-87.3,102.9c3.4,0,2.5-3.6,2.5-3.6-1.3-5.3-2.2-10.6-2.7-16-2.9-2.4-4.7-5.8-5.2-9.5H8.6c-1.2,0-2.4.4-3.2,1.3-.8.9-1.2,2.1-1,3.3.4,6.8,1.5,13.5,3.4,20,.8,2.7,3.3,4.6,6.1,4.4h20.8v.1Zm58.2-98.8h22.4c2.4,0,3.5-1.9,2.4-4.3-2.8-7-6-13.8-9.7-20.4-1.8-3-2.2-3.4-3.9-3.4s-2.1.4-3.9,3.4c-3.6,6.6-6.9,13.4-9.7,20.4-1.1,2.3,0,4.3,2.4,4.3Zm21.6-30.1c13,6,24.4,14.9,33.3,26,2.1,2.4,5.1,3.9,8.3,4.1h15.3s5.8,0,2.3-4c-14.3-13.9-32.4-23.2-52-26.6-5.2-.9-13.2-1.9-7.6.6l.4-.1Zm-49.4,26.1s-4.3,4.2.8,4.2h14.7c2.4-.2,4.4-1.8,5.2-4,2.7-6,9.6-19.4,12.1-23.2,1.8-2.8,1.2-2.8-3.1-.9-11.5,5.9-21.7,14-29.9,24h.2v-.1ZM8.6,101.9h19.9c-.3-2.6-1.1-5.2-2.5-7.4-2.8-5.2-2.8-8.1-4.3-10.4l-.9-2c-1.2-2.7-1.2-5.7,0-8.4v-.8h-6.9c-2.8-.1-5.4,1.7-6.1,4.4-1.9,6.5-3,13.2-3.4,20-.2,1.2.2,2.4,1,3.3s2,1.4,3.2,1.3h0Zm28.2-65.4h15.2c3.3-.1,6.4-1.5,8.5-4,8.9-11.1,20.3-20,33.3-26,5.6-2.5-2.4-1.5-7.6-.6-19.6,3.5-37.7,12.8-52,26.6-2.9,4,2.6,4,2.6,4Zm-20.8,32.4h7.1v-.6c.2-1.8.7-3.5,1.5-5.2l-.4-1.3c-1.1-3.9-.1-8.1,2.7-11,2.1-2.4,5.1-3.8,8.3-3.6,2.4,0,5.2,1.6,7.9,1.4.4,0,.8-.1,1.2-.3,1.6-2.1,3.9-3.4,6.5-3.6h.3l1.1-1.2s2.7-3.6-3-3.6h-13.8c-3.5-.2-7,.9-9.8,3.2-5.4,6.1-9.7,13.2-12.6,20.8,0,0-1.9,4.8,3.3,4.8l-.3.2Z" style="fill:#0072d3; stroke-width:0px;"/><path id="Shape-3" d="m24,80.2c-.8-1.6-.8-3.6,0-5.2,1.2-2.9,2.5-3,3.1-6.3.2-4.6,3.7-8.5,8.3-9.2,6.3-1.1,11,8.2,16.7,2.2.4,3.5-1.6,6.8-4.8,8.2-3.6,2.1-8.1,2.3-11.9.5-1.7-.7-4.8-3.4-5.9,0-1,3.4,5.2,2.2,4.1,7.9-3.2-2-7.4-1.3-9.8,1.7m20.5-22c1.7-1.2,3-2.9,3.7-4.9,1.6-3.5,4-3.6,4-3.6-1-2-3.1-.7-5.2,1.4s-5.9,1.2-7.5,1.2c-3.2-1.4-6.9-.7-9.4,1.6-1.8,1.9-2.5,4.7-1.9,7.2,4.6-4,11-4.9,16.5-2.5m11.4.4c2.3-1.9,5.2.3,6.8-4,.7-1.4.7-3.1,0-4.5-2.4,3.7-4.1,3.4-7.8,3-3.7-.5-4,1.1-5.8,3.5-.8,1.2-1.8,2.3-3.1,3,2.1,2,7.5.9,9.9-1m-27.2,21.5c-2,1.2-2.9,3.7-2.2,6s2.9,3.8,5.3,3.6c2.5-.9,3.7-3.7,2.9-6.2-.8-2.6-3.4-4.1-6-3.4m4.1,25c.5,4.5,3.8,8.3,8.3,9.2,3.5.3,5.5-1.4,5.2-5.8-.3-4.5-5.2-9.3-7.9-12.6-1.6-1.8-2.7-4-3.2-6.5-1.5,2.2-4.3,3.1-6.7,2,2.7,4,4.1,8.7,4,13.6m17.4-10.4c-1.8,0-3.5,1.1-4.2,2.8-.7,1.7-.3,3.6,1,4.9s3.2,1.7,4.9,1c1.7-.7,2.8-2.4,2.8-4.2,0-2.4-2-4.5-4.5-4.5m11.5,1.7l2.7-4.6c.7-1.2.3-2.8-.8-3.5l-8.9-5.6c-1.1-.6-2.5-.4-3.3.5l-3,4.4c-.3.4-.4.9-.3,1.4s.4.9.8,1.2l10.4,6.7c.4.3,1,.4,1.5.3s1-.5,1.2-.9m-6,7.1c-.7.6-1.5,1-2.4,1.1,6.7,2.2,3,0,9.2-.4,5.8.6,11.2-3.2,12.5-8.9,2.1-5.3-.1-11.4-5.2-14.1-3.1-1.5-6.7-1.5-9.7,0-.5.3-.7.8-.7,1.4.1.6.5,1,1,1.2,0,0,3.5,2.2,5.7,3.9,1.3.9,1.8,2.5,1.2,3.9,0,0-2.5,4.6-4.1,6.7-1.5,2.1-5.2,1.6-5.2,1.6l-2.3,3.6m0,16.2c9.4,2,12.2,5.2,20.8,6s21.4.9,21.4.9c-.4-3.5-.7-6.9-.7-10.4-9.4-1.6-13-2.1-16-5.8-3-3.7.6-9.1.6-9.1-1.5-1.5-3.4-2.3-5.5-2.3-2.7,4.6-7.6,7.4-13,7.5-1.4-.4-2.9-.1-4,.9-1.3.9-2.8.7-6.3-.7s-3.8.9-3.8.9c-.5,7.8-2.4,7.1-3.4,8.1-.9.9.6,2,9.7,3.9m53.3-14.5c3.6,2.8,8.2,3.7,12.6,2.7.4-.4.5-1,.3-1.6-.2-.5-.6-.9-1.2-1.1,0,0-32.3-13.8-34.3-14.6-2.3-1.1-5.1-.8-7.1.8-1.3,1.4-1.9,3.3-1.6,5.2,5.5,1,6.8,3.7,6.8,3.7,8.5-.6,17,1.1,24.6,4.9m-9.3,9.4c0,1.5.8,14.7.8,14.7,1.6,1.1,3.7,1.4,5.6.8,2-6.7,3-13.8,2.8-20.8-.9-2.7-2.3-3.3-9.6-4.9-4.5-1.2-9.1-1.7-13.7-1.5-2,.8-3.1,3.1-2.5,5.2.6,2.8,4.6,4.2,4.6,4.2,4,1.1,8,2,12.1,2.6m4.4,24.5c1.1-.1,2.1-.7,2.6-1.7s.5-2.2,0-3.2c-1.1-1.9-3.4-2.8-5.6-2.2-1.7.5-2.1,2.7-2.1,2.7-1,3.7,2.6,4.7,5.2,4.4m7.6-29.5c-.1,5.5-1,11-2.4,16.3,8.7-1,16.9-4.4,23.7-9.9,11.9-9.4,13.9-10.8,18.4-12.4,3-1.1,6.2-1.5,9.3-1.1,2.1,0,3.9,1.1,4.8-.4.9-1.6-4.6-6.1-7.9-7.1-3.3-1-4.2-.5-4.8.8-2.1,2-4.9,3-7.8,2.7-4-.1-7.9,1.7-10.4,4.8-6.1,6.2-15,8.6-23.4,6.4m57.3-8.3c.7,2.1-2.6,3.2-2.6,3.2,7.8,6.8,8.6,20.8,8.6,20.8,1.7,0,3.5.1,5.2.5,2.3,1.7,5.5,1.5,7.6-.5,1.6-1.6,3.6-2.9,5.8-3.7-4.2-7.9-9.7-15-16.2-21.1-4.1-3-9.8-7.6-11.6-9s-3.2-3.1-5.8-2.6c-1.5.2-2.7,1.2-3.3,2.6,5.1,1.8,9.5,5.3,12.5,9.8m-69.9,41.2c3.3,4.5,9.1,6.3,14.4,4.5,9.9-2,16.6-9.1,20.1-8.9,2.9,0,5.7-.4,8.5-1.1-2.3-5.2-10.4-5.7-10.4-5.7-1.8,2.8-5.2,3-11,2.7-2.9-.5-5.9.9-7.4,3.4,0,0-1.8,0-2.4-3.1-.3-1.6-1.2-3.1-2.5-4.1-.5.3-.9.9-1,1.5s.1,1.2.5,1.7c1,1.5,1.1,3.3.4,4.9-.9,1.4-2.4,2.4-4,2.7s-3.3,0-4.7-1c-4.6-2.8-1.4-9.5-1.4-9.5h-7.9c-.1-.1,7.7,10.8,8.8,12m45.5-5.9c13.7,5.8,41,6.9,41,5.2s-1.7-1.2-1.7-1.2c-24.7-.9-33.7-7.3-37.9-10.7-2.8-2.2-6.1-3.7-9.6-4.5-2.4.3-3.4,3.3-3.4,3.3,5,.4,9.3,3.4,11.6,7.9" style="fill:#f23d4e; stroke-width:0px;"/><path id="Shape-4" d="m384,39.8l44,128.6h-122.6l24.8-76.8h32.1l-14.9,46.3h37.7l-33-98h31.9v-.1Zm109.6,0h-57.2v30.5h40c12,.1,23,6.6,29,17.1,5.9,10.4,5.8,23.3-.3,33.6-6.1,10.3-17.2,16.7-29.2,16.6h-8.9v-46h-30.6v76.8h57.2c29.4-2.7,50.6-32.8,50.6-64.1s-23.4-61.9-50.6-64.5Zm-171,40.5c-.6-22.2-18.5-40-40.7-40.5h-47.8v30.5h43.5c5.5.1,9.9,4.5,9.9,10,0,5.9-4.5,10.8-10.4,11.2h-43v76.8h30.5v-46.8h17.2c22.3-.7,40.1-18.8,40.6-41.1l.2-.1Zm259.7-40.4h-30.5v128.5h30.5V39.9Z" style="stroke-width:0px;"/></g><path id="_" d="m588.3,46.5c0-3.3,2.7-5.8,5.9-5.8s5.9,2.5,5.9,5.8-2.7,5.9-5.9,5.9c-3.2-.1-5.9-2.6-5.9-5.9Zm1.1,0c0,2.9,2.1,5,4.8,5s4.8-2.2,4.8-5-2.1-4.9-4.8-4.9c-2.7-.1-4.8,2.1-4.8,4.9Zm2.5,3.4v-6.8h2.6c1.6,0,2.4.6,2.4,2,0,1.2-.8,1.7-1.8,1.9l2,3h-1.1l-1.9-2.9h-1.1v2.9h-1.1v-.1Zm1.1-6v2.2h1.1c.9,0,1.8,0,1.8-1.1,0-.9-.8-1-1.5-1h-1.4v-.1Z" style="stroke-width:0px;"/></g></svg>