<?xml version="1.0" encoding="UTF-8"?><svg id="Layer_1" xmlns="http://www.w3.org/2000/svg" viewBox="0 0 138 100"><circle cx="70" cy="50" r="50" style="fill:#6ab7de;"/><g><circle cx="51" cy="19" r="1" style="fill:#c7eafb;"/><circle cx="43" cy="20" r="1" style="fill:#c7eafb;"/><circle cx="102" cy="32" r="1" style="fill:#c7eafb;"/><circle cx="73" cy="83" r="1" style="fill:#c7eafb;"/><circle cx="58" cy="13" r="1" style="fill:#c7eafb;"/><circle cx="95" cy="21" r="1" style="fill:#c7eafb;"/><circle cx="60" cy="20" r="1" style="fill:#c7eafb;"/><circle cx="63" cy="79" r="1" style="fill:#c7eafb;"/><circle cx="79" cy="76" r="1" style="fill:#c7eafb;"/><circle cx="67" cy="91" r="1" style="fill:#c7eafb;"/><circle cx="39" cy="27" r="1" style="fill:#c7eafb;"/><circle cx="46" cy="13" r="2" style="fill:#c7eafb;"/><circle cx="67" cy="10" r="2" style="fill:#c7eafb;"/><circle cx="94" cy="28" r="2" style="fill:#c7eafb;"/><circle cx="60" cy="86" r="2" style="fill:#c7eafb;"/><circle cx="90" cy="14" r="2" style="fill:#c7eafb;"/></g><g><path d="m28,56h11v1.17c0,4.87-3.95,8.83-8.83,8.83h-.17c-1.1,0-2-.9-2-2v-8h0Z" style="fill:#d1d3d4;"/><g><polygon points="104.26 93.99 88 69.24 92.24 65 116.99 81.26 104.26 93.99" style="fill:#ffde17;"/><path d="m104.26,94.49c-.16,0-.32-.08-.42-.23l-16.26-24.75c-.13-.2-.1-.46.06-.63l4.24-4.24c.17-.17.43-.19.63-.06l24.75,16.26c.23.15.29.46.14.69-.15.23-.47.29-.69.14l-24.41-16.04-3.67,3.67,16.04,24.41c.15.23.09.54-.14.69-.08.06-.18.08-.27.08Z" style="fill:#414042;"/></g><g><path d="m88.3,62.3h3v6h-3c-1.66,0-3-1.34-3-3h0c0-1.66,1.34-3,3-3Z" transform="translate(72.04 -43.31) rotate(45)" style="fill:#d1d3d4;"/><path d="m88.3,70.54c-.26,0-.51-.1-.71-.29l-2.12-2.12c-.76-.76-1.17-1.76-1.17-2.83s.42-2.07,1.17-2.83c1.51-1.51,4.14-1.51,5.66,0l2.12,2.12c.39.39.39,1.02,0,1.41l-4.24,4.24c-.2.2-.45.29-.71.29Zm0-7.24c-.53,0-1.04.21-1.41.59s-.59.88-.59,1.41.21,1.04.59,1.41l1.41,1.41,2.83-2.83-1.41-1.41c-.38-.38-.88-.59-1.41-.59Z" style="fill:#414042;"/></g><g><polygon points="38.04 93.99 54.3 69.24 50.06 65 25.31 81.26 38.04 93.99" style="fill:#ffde17;"/><path d="m38.04,94.49c.16,0,.32-.08.42-.23l16.26-24.75c.13-.2.1-.46-.06-.63l-4.24-4.24c-.17-.17-.43-.19-.63-.06l-24.75,16.26c-.23.15-.29.46-.14.69.15.23.47.29.69.14l24.41-16.04,3.67,3.67-16.04,24.41c-.15.23-.09.54.14.69.08.06.18.08.27.08Z" style="fill:#414042;"/></g><g><path d="m54,62.3h3v6h-3c-1.66,0-3-1.34-3-3h0c0-1.66,1.34-3,3-3Z" transform="translate(138.36 73.29) rotate(135)" style="fill:#d1d3d4;"/><path d="m53.29,70.25l-4.24-4.24c-.39-.39-.39-1.02,0-1.41l2.12-2.12c1.51-1.51,4.15-1.51,5.66,0,.76.75,1.17,1.76,1.17,2.83s-.42,2.07-1.17,2.83l-2.12,2.12c-.2.2-.45.29-.71.29s-.51-.1-.71-.29Zm-.71-6.36l-1.41,1.41,2.83,2.83,1.41-1.41c.38-.38.59-.88.59-1.41,0-.53-.21-1.04-.59-1.41s-.88-.59-1.41-.59-1.04.21-1.41.59Z" style="fill:#414042;"/></g><path d="m30,34h.17c4.87,0,8.83,3.95,8.83,8.83v1.17h-11v-8c0-1.1.9-2,2-2Z" style="fill:#d1d3d4;"/><path d="m87,65h-40.43c-1.69,0-3.34-.43-4.82-1.24l-17.75-9.76v-8l17.75-9.76c1.48-.81,3.13-1.24,4.82-1.24h40.43c8.28,0,15,6.72,15,15h0c0,8.28-6.72,15-15,15Z" style="fill:#d1d3d4;"/><circle cx="56" cy="50" r="1" style="fill:#414042;"/><circle cx="1" cy="50" r="1" style="fill:#414042;"/><circle cx="50" cy="29" r="1" style="fill:#414042;"/><circle cx="50" cy="50" r="1" style="fill:#414042;"/><circle cx="56" cy="42" r="1" style="fill:#414042;"/><circle cx="50" cy="42" r="1" style="fill:#414042;"/><circle cx="90" cy="50" r="1" style="fill:#414042;"/><circle cx="84" cy="50" r="1" style="fill:#414042;"/><circle cx="90" cy="42" r="1" style="fill:#414042;"/><circle cx="84" cy="42" r="1" style="fill:#414042;"/><path d="m71,74c3.31,0,6-2.69,6-6h-12c0,3.31,2.69,6,6,6Z" style="fill:#c7eafb;"/><rect x="64" y="65" width="14" height="3" style="fill:#d1d3d4;"/><path d="m81,35h-22l3.8-4.56c.76-.91,1.89-1.44,3.07-1.44h13.13c1.1,0,2,.9,2,2v4Z" style="fill:#d1d3d4;"/><g><polygon points="137.5 63 105 53 105 47 137.5 37 137.5 63" style="fill:#ffde17;"/><path d="m137.5,63.5s-.1,0-.15-.02l-32.5-10c-.21-.07-.35-.26-.35-.48v-6c0-.22.14-.41.35-.48l32.5-10c.27-.08.54.06.63.33.08.26-.06.54-.33.63l-32.15,9.89v5.27l32.15,9.89c.21.07.35.26.35.48,0,.05,0,.1-.02.15-.07.21-.26.35-.48.35Z" style="fill:#414042;"/></g><path d="m37,53h-9c-.55,0-1-.45-1-1v-4c0-.55.45-1,1-1h9c1.65,0,3,1.35,3,3s-1.35,3-3,3Zm-8-2h8c.55,0,1-.45,1-1s-.45-1-1-1h-8v2Z" style="fill:#414042;"/><path d="m78,10c-3.87,0-7,3.13-7,7v12h4v-12c0-1.66,1.34-3,3-3h4v-4h-4Z" style="fill:#d1d3d4;"/><path d="m87,34h-5v-3c0-1.65-1.35-3-3-3h-3v-11c0-1.1.9-2,2-2h3c0,.55.45,1,1,1s1-.45,1-1v-6c0-.55-.45-1-1-1s-1,.45-1,1h-3c-4.41,0-8,3.59-8,8v11h-4.13c-1.49,0-2.89.66-3.84,1.8l-3.5,4.2h-11.96c-1.85,0-3.68.47-5.3,1.36l-3.15,1.73c-1.79-2.47-4.67-4.09-7.95-4.09h-.17c-1.65,0-3,1.35-3,3v7.21l-3.48,1.92c-.32.18-.52.51-.52.88v3h-2.06l.9-2.42c.35-.95.14-2.04-.54-2.78-.95-1.03-2.64-1.03-3.59,0-.68.73-.89,1.82-.54,2.78l1.05,2.83c-.13.17-.22.37-.22.59s.09.42.22.59l-1.05,2.83c-.35.95-.14,2.04.54,2.78.47.51,1.11.8,1.79.8s1.32-.28,1.8-.8c.68-.73.89-1.82.54-2.78l-.9-2.42h2.06v3c0,.36.2.7.52.88l3.48,1.92v7.21c0,1.65,1.35,3,3,3h.17c3.27,0,6.16-1.62,7.95-4.09l3.15,1.73c1.62.89,3.45,1.36,5.3,1.36h16.43v2c0,.55.45,1,1,1h.08c.49,3.39,3.4,6,6.92,6s6.43-2.61,6.92-6h.08c.55,0,1-.45,1-1v-2h8c8.82,0,16-7.18,16-16s-7.18-16-16-16Zm-15-17c0-3.31,2.69-6,6-6h3v2h-3c-2.21,0-4,1.79-4,4v11h-2v-11Zm-8.43,14.08c.57-.69,1.41-1.08,2.3-1.08h13.13c.55,0,1,.45,1,1v3h-18.86l2.43-2.92Zm-34.57,4.92c0-.55.45-1,1-1h.17c2.52,0,4.76,1.2,6.19,3.06l-7.37,4.05v-6.11Zm1.17,29h-.17c-.55,0-1-.45-1-1v-6.11l7.37,4.05c-1.43,1.86-3.67,3.06-6.19,3.06Zm21.83-1h-5.43c-1.51,0-3.01-.39-4.34-1.11l-17.23-9.48v-6.82l17.23-9.48c1.32-.73,2.82-1.11,4.34-1.11h5.43v28Zm19,9c-2.41,0-4.44-1.72-4.9-4h9.8c-.46,2.28-2.48,4-4.9,4Zm6-6h-12v-1h12v1Zm9-3h-32v-28h32v28Zm2-.05v-27.9c7.25.52,13,6.57,13,13.95s-5.75,13.43-13,13.95Z" style="fill:#414042;"/><path d="m70,41c4.97,0,9,4.03,9,9h0c0,4.97-4.03,9-9,9h0c-4.97,0-9-4.03-9-9h0c0-4.97,4.03-9,9-9h0Zm0-1c-5.51,0-10,4.49-10,10s4.49,10,10,10,10-4.49,10-10-4.49-10-10-10h0Z" style="fill:#58595b;"/><g><rect x="64" y="44" width="12" height="12" rx="6" ry="6" style="fill:#c7eafb;"/><path d="m70,57c-3.86,0-7-3.14-7-7s3.14-7,7-7,7,3.14,7,7-3.14,7-7,7Zm0-12c-2.76,0-5,2.24-5,5s2.24,5,5,5,5-2.24,5-5-2.24-5-5-5Z" style="fill:#414042;"/></g><circle cx="56" cy="58" r="1" style="fill:#414042;"/><circle cx="50" cy="58" r="1" style="fill:#414042;"/><circle cx="90" cy="58" r="1" style="fill:#414042;"/><circle cx="84" cy="58" r="1" style="fill:#414042;"/><path d="m60,30h-6c-.55,0-1-.45-1-1s.45-1,1-1h6c.55,0,1,.45,1,1s-.45,1-1,1Z" style="fill:#414042;"/><path d="m25,36h-7c-.55,0-1-.45-1-1s.45-1,1-1h7c.55,0,1,.45,1,1s-.45,1-1,1Z" style="fill:#414042;"/><path d="m25,66h-7c-.55,0-1-.45-1-1s.45-1,1-1h7c.55,0,1,.45,1,1s-.45,1-1,1Z" style="fill:#414042;"/><path d="m14,66h-1c-.55,0-1-.45-1-1s.45-1,1-1h1c.55,0,1,.45,1,1s-.45,1-1,1Z" style="fill:#414042;"/><path d="m13,51H5c-.55,0-1-.45-1-1s.45-1,1-1h8c.55,0,1,.45,1,1s-.45,1-1,1Z" style="fill:#414042;"/><path d="m15,47h-5c-.55,0-1-.45-1-1s.45-1,1-1h5c.55,0,1,.45,1,1s-.45,1-1,1Z" style="fill:#414042;"/><path d="m14,55h-7c-.55,0-1-.45-1-1s.45-1,1-1h7c.55,0,1,.45,1,1s-.45,1-1,1Z" style="fill:#414042;"/><path d="m66.5,50c-.28,0-.5-.22-.5-.5,0-1.93,1.57-3.5,3.5-3.5.28,0,.5.22.5.5s-.22.5-.5.5c-1.38,0-2.5,1.12-2.5,2.5,0,.28-.22.5-.5.5Z" style="fill:#414042;"/><g><path d="m102,47h3v6h-3c-1.66,0-3-1.34-3-3h0c0-1.66,1.34-3,3-3Z" style="fill:#d1d3d4;"/><path d="m105,54h-3c-2.21,0-4-1.79-4-4s1.79-4,4-4h3c.55,0,1,.45,1,1v6c0,.55-.45,1-1,1Zm-3-6c-1.1,0-2,.9-2,2s.9,2,2,2h2v-4h-2Z" style="fill:#414042;"/></g></g></svg>