<?xml version="1.0" encoding="UTF-8"?><svg id="a" xmlns="http://www.w3.org/2000/svg" viewBox="0 0 406.89 99.7"><g id="b"><path d="M2.94,51.23c.01-8.07,1.58-14.82,4.67-21.21,2.37-4.9,5.52-9.24,9.44-13.02,2.01-1.94,4.24-3.58,6.53-5.18,2.5-1.75,5.17-3.16,7.96-4.36,1.52-.65,3.08-1.21,4.68-1.66,1.36-.38,2.7-.8,4.09-1.06,1.37-.25,2.76-.44,4.15-.54,1.4-.1,2.75-.5,4.17-.41,2.73,.18,5.46,.21,8.18,.64,4.49,.7,8.78,2.03,12.87,3.98,3.9,1.86,7.47,4.22,10.69,7.11,3.08,2.78,5.87,5.81,8.15,9.29,3.27,4.99,5.51,10.41,6.7,16.26,.73,3.59,1.04,7.21,.89,10.87-.21,5.1-1.19,10.05-3,14.84-.77,2.05-1.8,3.96-2.74,5.92-.92,1.91-2.1,3.63-3.43,5.26-1.7,2.08-3.4,4.17-5.36,6.02-.68,.64-1.47,1.15-2.15,1.79-2.22,2.1-4.79,3.72-7.44,5.23-2.53,1.44-5.21,2.51-7.95,3.49-3.16,1.13-6.45,1.71-9.75,2.11-2.68,.32-5.39,.31-8.1,.1-1.19-.09-2.37-.22-3.54-.41-2.74-.45-5.45-1.03-8.08-1.94-3.78-1.31-7.35-3.06-10.69-5.27-6.46-4.28-11.54-9.83-15.28-16.63-2.4-4.37-4.03-9.02-4.92-13.91-.5-2.73-.78-5.48-.74-7.3Zm51.63-3.09c0-1.24,0-2.47-.02-3.71,0-.32-2.15,1.06,.32-.79,1.47-1.03,2.54-2.37,3.14-4.07m.72-2.74c.48-2.54,3.32-4.3,5.87-3.56,2.36,.68,3.66,2.33,3.59,4.49-.04,1.11-.35,2.18-.62,3.24-.96,3.85-3.03,7.03-6.08,9.56-1.28,1.06-2.61,2.06-4.17,2.68-1.07,.42-1.6,1.38-2.38,2.09-.7,.64-.55,1.35-.6,2.08-.02,.25,.04,.52,0,.77-.18,.93,.32,1.64,.85,2.26,.83,.96,1.83,1.77,3.13,1.98,1.09,.18,2.22,.52,3.29-.21,1.28-.88,2.48-1.85,3.65-2.88,.92-.82,1.54-1.97,2.73-2.51,.06-.03,.06-.19,.1-.29,.65-1.39,1.46-2.54,3.09-2.97,2.03-.54,3.92-.03,5.3,1.53,1.06,1.2,1.39,4.04,.36,5.4-.59,.78-1.13,1.6-1.73,2.35-3.02,3.81-6.74,6.78-11.11,8.92-1.99,.97-4.05,1.78-6.2,2.34-1.8,.46-2.72,1.84-3.3,3.49-.21,.59-.06,1.18,.03,1.77,.11,.7-.24,1.39-.07,2.09,.48,1.98,1.69,3.31,3.63,3.9,.35,.11,.54,.48,.97,.42,1.81-.23,3.46-1.01,5.16-1.57,1.19-.39,2.33-1.08,3.45-1.7,2.44-1.35,4.68-2.99,6.75-4.86,3.17-2.86,5.73-6.19,7.78-9.94,2.16-3.95,3.49-8.16,4.05-12.61,.39-3.05,.42-6.11-.01-9.17-.46-3.24-1.24-6.39-2.43-9.44-1.42-3.63-3.51-6.87-5.9-9.89-1.47-1.85-3.25-3.48-5.13-4.97-6.43-5.12-13.75-7.82-21.95-8.17-2.34-.1-4.67,.11-7,.46-3.59,.54-7.02,1.61-10.27,3.19-6.07,2.94-10.96,7.26-14.74,12.85-2.99,4.42-4.65,9.37-5.9,14.48-.29,1.19-.24,2.47-.28,3.7-.06,1.98-.09,3.97,.11,5.95,.16,1.52,.39,3.03,.74,4.52,.28,1.21,.61,2.4,1.02,3.57,1.09,3.08,2.48,6.01,4.38,8.69,2.35,3.33,5.03,6.33,8.37,8.74,3.32,2.41,6.9,4.23,10.75,5.61,1.31,.47,2.52,.52,3.74-.09,1.63-.81,2.75-2.07,2.93-3.94,.1-1.01,.02-2.04,.03-3.06,0-.65-.17-1.21-.54-1.78-.75-1.14-1.59-2.09-3.01-2.36-.89-.17-1.75-.48-2.61-.79-4.13-1.49-7.79-3.72-11.04-6.65-1.84-1.66-3.38-3.59-4.85-5.58-1.1-1.49-1.24-3.07-.68-4.74,.28-.81,.9-1.43,1.55-1.99,1.74-1.47,4.67-1.4,6.42,.34,.55,.55,.85,1.28,1.34,1.86,1.67,1.97,3.52,3.74,5.7,5.16,.9,.58,1.79,1.02,2.96,.92,1.47-.13,2.73-.54,3.64-1.72,.41-.54,.94-1.08,1.03-1.73,.18-1.36,.32-2.76-.66-3.96-.5-.62-.87-1.35-1.7-1.67-.77-.29-1.48-.71-2.2-1.15-2.78-1.71-4.99-3.95-6.66-6.75-1.18-1.99-1.78-4.17-2.28-6.4-.59-2.61,.34-4.36,2.29-5.5,2.58-1.51,6.17-.29,7.12,3.25,.22,.83,.3,1.69,.64,2.51,.64,1.56,1.56,2.87,2.87,3.92,.17,.14,.39,.3,.57,.22,.21-.08,.17-.36,.17-.58,0-.15,0-.3,0-.45,0-4.33-.04-8.66,.02-12.99,.01-.91,0-1.81-.02-2.72-.02-.88,.2-1.64,.64-2.42,1.56-2.72,5.29-2.99,7.5-.95,1.29,1.19,1.58,2.72,1.38,4.38-.04,.31-.21,.51-.53,.54-.01,0-.03-.03-.04-.05l.04,.11c.56,.35,.58,.94,.58,1.58-.02,4.39-.02,8.79,0,13.18,0,.58-.24,1.45-.75,1.12,.51-.52,.52-.98,.51-.52-.02,1.07,1.69-.22,1.69,.85" style="fill:#f54952;"/></g><g><g><path d="M110.86,32.43c0-17.17,13.17-29.22,31.14-29.22,10.94,0,19.56,3.99,25.07,11.18l-11.9,10.62c-3.27-4.15-7.19-6.55-12.22-6.55-7.82,0-13.09,5.43-13.09,13.97s5.27,13.97,13.09,13.97c5.03,0,8.94-2.39,12.22-6.55l11.9,10.62c-5.51,7.19-14.13,11.18-25.07,11.18-17.96,0-31.14-12.06-31.14-29.22Z" style="fill:red;"/><path d="M169.06,32.43c0-16.93,13.33-29.22,31.54-29.22s31.54,12.3,31.54,29.22-13.33,29.22-31.54,29.22-31.54-12.3-31.54-29.22Zm44.07,0c0-8.7-5.59-13.97-12.54-13.97s-12.53,5.27-12.53,13.97,5.59,13.97,12.53,13.97,12.54-5.27,12.54-13.97Z" style="fill:red;"/><path d="M262.95,46.33h-5.11v14.05h-18.84V4.49h26.91c15.57,0,25.47,8.14,25.47,21.08,0,8.06-3.83,14.13-10.54,17.57l11.74,17.25h-20.12l-9.5-14.05Zm1.76-27.31h-6.87v13.09h6.87c5.19,0,7.66-2.47,7.66-6.55s-2.48-6.55-7.66-6.55Z" style="fill:red;"/><path d="M336.56,50.64h-21.24l-3.75,9.74h-19.16l24.43-55.89h18.52l24.43,55.89h-19.48l-3.75-9.74Zm-5.19-13.57l-5.43-14.05-5.43,14.05h10.86Z" style="fill:red;"/><path d="M362.82,4.49h18.84V45.77h25.23v14.61h-44.07V4.49Z" style="fill:red;"/><path d="M138.01,78.68c0,6.37-4.88,10.39-12.55,10.39h-3.97v6.77h-9.28v-27.54h13.26c7.67,0,12.55,4.01,12.55,10.39Zm-9.36,0c0-2.01-1.22-3.23-3.78-3.23h-3.38v6.45h3.38c2.56,0,3.78-1.22,3.78-3.23Z" style="fill:red;"/><path d="M141.04,68.3h9.28v20.34h12.43v7.2h-21.72v-27.54Z" style="fill:red;"/><path d="M184.47,91.04h-10.46l-1.85,4.8h-9.44l12.04-27.54h9.13l12.04,27.54h-9.6l-1.85-4.8Zm-2.56-6.69l-2.67-6.92-2.68,6.92h5.35Z" style="fill:red;"/><path d="M212.01,85.84v9.99h-9.28v-10.11l-10.39-17.43h9.8l5.63,9.52,5.67-9.52h8.97l-10.39,17.55Z" style="fill:red;"/><path d="M240.61,81.32h8.07v11.65c-3.34,2.28-7.95,3.5-12,3.5-8.89,0-15.38-5.94-15.38-14.4s6.49-14.4,15.58-14.4c5.43,0,9.8,1.89,12.59,5.31l-5.94,5.23c-1.73-2.01-3.74-3.03-6.18-3.03-4.09,0-6.69,2.64-6.69,6.88s2.6,6.89,6.57,6.89c1.14,0,2.24-.2,3.38-.67v-6.96Z" style="fill:red;"/><path d="M264.45,88.91h-2.52v6.92h-9.28v-27.54h13.26c7.67,0,12.55,4.01,12.55,10.39,0,3.97-1.89,6.96-5.19,8.66l5.78,8.5h-9.91l-4.68-6.92Zm.87-13.46h-3.38v6.45h3.38c2.56,0,3.78-1.22,3.78-3.23s-1.22-3.23-3.78-3.23Z" style="fill:red;"/><path d="M280.85,82.07c0-8.34,6.57-14.4,15.54-14.4s15.54,6.06,15.54,14.4-6.57,14.4-15.54,14.4-15.54-6.06-15.54-14.4Zm21.72,0c0-4.29-2.75-6.88-6.18-6.88s-6.18,2.6-6.18,6.88,2.75,6.89,6.18,6.89,6.18-2.6,6.18-6.89Z" style="fill:red;"/><path d="M315.07,83.45v-15.15h9.28v14.87c0,4.21,1.61,5.78,4.21,5.78s4.21-1.57,4.21-5.78v-14.87h9.13v15.15c0,8.26-4.96,13.02-13.42,13.02s-13.42-4.76-13.42-13.02Z" style="fill:red;"/><path d="M373.3,68.3v27.54h-7.63l-10.46-12.51v12.51h-9.05v-27.54h7.63l10.47,12.51v-12.51h9.05Z" style="fill:red;"/><path d="M377.78,68.3h13.57c9.21,0,15.54,5.23,15.54,13.77s-6.33,13.77-15.54,13.77h-13.57v-27.54Zm13.18,20.3c3.9,0,6.57-2.32,6.57-6.53s-2.67-6.53-6.57-6.53h-3.89v13.06h3.89Z" style="fill:red;"/></g><g><path d="M110.86,32.43c0-17.17,13.17-29.22,31.14-29.22,10.94,0,19.56,3.99,25.07,11.18l-11.9,10.62c-3.27-4.15-7.19-6.55-12.22-6.55-7.82,0-13.09,5.43-13.09,13.97s5.27,13.97,13.09,13.97c5.03,0,8.94-2.39,12.22-6.55l11.9,10.62c-5.51,7.19-14.13,11.18-25.07,11.18-17.96,0-31.14-12.06-31.14-29.22Z" style="fill:#f54952;"/><path d="M169.06,32.43c0-16.93,13.33-29.22,31.54-29.22s31.54,12.3,31.54,29.22-13.33,29.22-31.54,29.22-31.54-12.3-31.54-29.22Zm44.07,0c0-8.7-5.59-13.97-12.54-13.97s-12.53,5.27-12.53,13.97,5.59,13.97,12.53,13.97,12.54-5.27,12.54-13.97Z" style="fill:#f54952;"/><path d="M262.95,46.33h-5.11v14.05h-18.84V4.49h26.91c15.57,0,25.47,8.14,25.47,21.08,0,8.06-3.83,14.13-10.54,17.57l11.74,17.25h-20.12l-9.5-14.05Zm1.76-27.31h-6.87v13.09h6.87c5.19,0,7.66-2.47,7.66-6.55s-2.48-6.55-7.66-6.55Z" style="fill:#f54952;"/><path d="M336.56,50.64h-21.24l-3.75,9.74h-19.16l24.43-55.89h18.52l24.43,55.89h-19.48l-3.75-9.74Zm-5.19-13.57l-5.43-14.05-5.43,14.05h10.86Z" style="fill:#f54952;"/><path d="M362.82,4.49h18.84V45.77h25.23v14.61h-44.07V4.49Z" style="fill:#f54952;"/><path d="M138.01,78.68c0,6.37-4.88,10.39-12.55,10.39h-3.97v6.77h-9.28v-27.54h13.26c7.67,0,12.55,4.01,12.55,10.39Zm-9.36,0c0-2.01-1.22-3.23-3.78-3.23h-3.38v6.45h3.38c2.56,0,3.78-1.22,3.78-3.23Z" style="fill:#f54952;"/><path d="M141.04,68.3h9.28v20.34h12.43v7.2h-21.72v-27.54Z" style="fill:#f54952;"/><path d="M184.47,91.04h-10.46l-1.85,4.8h-9.44l12.04-27.54h9.13l12.04,27.54h-9.6l-1.85-4.8Zm-2.56-6.69l-2.67-6.92-2.68,6.92h5.35Z" style="fill:#f54952;"/><path d="M212.01,85.84v9.99h-9.28v-10.11l-10.39-17.43h9.8l5.63,9.52,5.67-9.52h8.97l-10.39,17.55Z" style="fill:#f54952;"/><path d="M240.61,81.32h8.07v11.65c-3.34,2.28-7.95,3.5-12,3.5-8.89,0-15.38-5.94-15.38-14.4s6.49-14.4,15.58-14.4c5.43,0,9.8,1.89,12.59,5.31l-5.94,5.23c-1.73-2.01-3.74-3.03-6.18-3.03-4.09,0-6.69,2.64-6.69,6.88s2.6,6.89,6.57,6.89c1.14,0,2.24-.2,3.38-.67v-6.96Z" style="fill:#f54952;"/><path d="M264.45,88.91h-2.52v6.92h-9.28v-27.54h13.26c7.67,0,12.55,4.01,12.55,10.39,0,3.97-1.89,6.96-5.19,8.66l5.78,8.5h-9.91l-4.68-6.92Zm.87-13.46h-3.38v6.45h3.38c2.56,0,3.78-1.22,3.78-3.23s-1.22-3.23-3.78-3.23Z" style="fill:#f54952;"/><path d="M280.85,82.07c0-8.34,6.57-14.4,15.54-14.4s15.54,6.06,15.54,14.4-6.57,14.4-15.54,14.4-15.54-6.06-15.54-14.4Zm21.72,0c0-4.29-2.75-6.88-6.18-6.88s-6.18,2.6-6.18,6.88,2.75,6.89,6.18,6.89,6.18-2.6,6.18-6.89Z" style="fill:#f54952;"/><path d="M315.07,83.45v-15.15h9.28v14.87c0,4.21,1.61,5.78,4.21,5.78s4.21-1.57,4.21-5.78v-14.87h9.13v15.15c0,8.26-4.96,13.02-13.42,13.02s-13.42-4.76-13.42-13.02Z" style="fill:#f54952;"/><path d="M373.3,68.3v27.54h-7.63l-10.46-12.51v12.51h-9.05v-27.54h7.63l10.47,12.51v-12.51h9.05Z" style="fill:#f54952;"/><path d="M377.78,68.3h13.57c9.21,0,15.54,5.23,15.54,13.77s-6.33,13.77-15.54,13.77h-13.57v-27.54Zm13.18,20.3c3.9,0,6.57-2.32,6.57-6.53s-2.67-6.53-6.57-6.53h-3.89v13.06h3.89Z" style="fill:#f54952;"/></g></g></svg>