<?xml version="1.0" encoding="UTF-8"?><svg id="a" xmlns="http://www.w3.org/2000/svg" xmlns:xlink="http://www.w3.org/1999/xlink" viewBox="0 0 471.77 99.7"><defs><style>.s{fill:url(#e);}.t{fill:url(#d);}.u{fill:url(#g);}.v{fill:url(#f);}.w{fill:url(#p);}.x{fill:url(#o);}.y{fill:url(#q);}.a`{fill:url(#r);}.aa{fill:url(#i);}.ab{fill:url(#h);}.ac{fill:url(#k);}.ad{fill:url(#j);}.ae{fill:url(#m);}.af{fill:url(#l);}.ag{fill:url(#n);}.ah{fill:url(#c);}</style><linearGradient id="c" x1="49.55" y1="94.21" x2="49.55" y2=".99" gradientTransform="matrix(1, 0, 0, 1, 0, 0)" gradientUnits="userSpaceOnUse"><stop offset="0" stop-color="#4d3aad"/><stop offset=".12" stop-color="#563aad"/><stop offset=".32" stop-color="#6f3aad"/><stop offset=".57" stop-color="#973aad"/><stop offset=".87" stop-color="#a400bc"/><stop offset=".99" stop-color="#a855ff"/></linearGradient><linearGradient id="d" x1="110.86" y1="50.1" x2="471.77" y2="50.1" xlink:href="#c"/><linearGradient id="e" x1="110.86" y1="50.1" x2="471.77" y2="50.1" xlink:href="#c"/><linearGradient id="f" x1="110.86" y1="50.1" x2="471.77" y2="50.1" xlink:href="#c"/><linearGradient id="g" x1="110.86" y1="50.1" x2="471.77" y2="50.1" xlink:href="#c"/><linearGradient id="h" x1="110.86" y1="50.1" x2="471.77" y2="50.1" xlink:href="#c"/><linearGradient id="i" x1="110.86" y1="50.1" x2="471.77" y2="50.1" xlink:href="#c"/><linearGradient id="j" x1="110.86" y1="50.1" x2="471.77" y2="50.1" xlink:href="#c"/><linearGradient id="k" x1="110.86" y1="50.1" x2="471.77" y2="50.1" xlink:href="#c"/><linearGradient id="l" x1="110.86" y1="50.1" x2="471.77" y2="50.1" xlink:href="#c"/><linearGradient id="m" x1="110.86" y1="50.1" x2="471.77" y2="50.1" xlink:href="#c"/><linearGradient id="n" x1="110.86" y1="50.1" x2="471.77" y2="50.1" xlink:href="#c"/><linearGradient id="o" x1="110.86" y1="50.1" x2="471.77" y2="50.1" xlink:href="#c"/><linearGradient id="p" x1="110.86" y1="50.1" x2="471.77" y2="50.1" xlink:href="#c"/><linearGradient id="q" x1="110.86" y1="50.1" x2="471.77" y2="50.1" xlink:href="#c"/><linearGradient id="r" x1="110.86" y1="50.1" x2="471.77" y2="50.1" xlink:href="#c"/></defs><g id="b"><path d="M2.94,51.23c.01-8.07,1.58-14.82,4.67-21.21,2.37-4.9,5.52-9.24,9.44-13.02,2.01-1.94,4.24-3.58,6.53-5.18,2.5-1.75,5.17-3.16,7.96-4.36,1.52-.65,3.08-1.21,4.68-1.66,1.36-.38,2.7-.8,4.09-1.06,1.37-.25,2.76-.44,4.15-.54,1.4-.1,2.75-.5,4.17-.41,2.73,.18,5.46,.21,8.18,.64,4.49,.7,8.78,2.03,12.87,3.98,3.9,1.86,7.47,4.22,10.69,7.11,3.08,2.78,5.87,5.81,8.15,9.29,3.27,4.99,5.51,10.41,6.7,16.26,.73,3.59,1.04,7.21,.89,10.87-.21,5.1-1.19,10.05-3,14.84-.77,2.05-1.8,3.96-2.74,5.92-.92,1.91-2.1,3.63-3.43,5.26-1.7,2.08-3.4,4.17-5.36,6.02-.68,.64-1.47,1.15-2.15,1.79-2.22,2.1-4.79,3.72-7.44,5.23-2.53,1.44-5.21,2.51-7.95,3.49-3.16,1.13-6.45,1.71-9.75,2.11-2.68,.32-5.39,.31-8.1,.1-1.19-.09-2.37-.22-3.54-.41-2.74-.45-5.45-1.03-8.08-1.94-3.78-1.31-7.35-3.06-10.69-5.27-6.46-4.28-11.54-9.83-15.28-16.63-2.4-4.37-4.03-9.02-4.92-13.91-.5-2.73-.78-5.48-.74-7.3Zm51.63-3.09c0-1.24,0-2.47-.02-3.71,0-.32-2.15,1.06,.32-.79,1.47-1.03,2.54-2.37,3.14-4.07m.72-2.74c.48-2.54,3.32-4.3,5.87-3.56,2.36,.68,3.66,2.33,3.59,4.49-.04,1.11-.35,2.18-.62,3.24-.96,3.85-3.03,7.03-6.08,9.56-1.28,1.06-2.61,2.06-4.17,2.68-1.07,.42-1.6,1.38-2.38,2.09-.7,.64-.55,1.35-.6,2.08-.02,.25,.04,.52,0,.77-.18,.93,.32,1.64,.85,2.26,.83,.96,1.83,1.77,3.13,1.98,1.09,.18,2.22,.52,3.29-.21,1.28-.88,2.48-1.85,3.65-2.88,.92-.82,1.54-1.97,2.73-2.51,.06-.03,.06-.19,.1-.29,.65-1.39,1.46-2.54,3.09-2.97,2.03-.54,3.92-.03,5.3,1.53,1.06,1.2,1.39,4.04,.36,5.4-.59,.78-1.13,1.6-1.73,2.35-3.02,3.81-6.74,6.78-11.11,8.92-1.99,.97-4.05,1.78-6.2,2.34-1.8,.46-2.72,1.84-3.3,3.49-.21,.59-.06,1.18,.03,1.77,.11,.7-.24,1.39-.07,2.09,.48,1.98,1.69,3.31,3.63,3.9,.35,.11,.54,.48,.97,.42,1.81-.23,3.46-1.01,5.16-1.57,1.19-.39,2.33-1.08,3.45-1.7,2.44-1.35,4.68-2.99,6.75-4.86,3.17-2.86,5.73-6.19,7.78-9.94,2.16-3.95,3.49-8.16,4.05-12.61,.39-3.05,.42-6.11-.01-9.17-.46-3.24-1.24-6.39-2.43-9.44-1.42-3.63-3.51-6.87-5.9-9.89-1.47-1.85-3.25-3.48-5.13-4.97-6.43-5.12-13.75-7.82-21.95-8.17-2.34-.1-4.67,.11-7,.46-3.59,.54-7.02,1.61-10.27,3.19-6.07,2.94-10.96,7.26-14.74,12.85-2.99,4.42-4.65,9.37-5.9,14.48-.29,1.19-.24,2.47-.28,3.7-.06,1.98-.09,3.97,.11,5.95,.16,1.52,.39,3.03,.74,4.52,.28,1.21,.61,2.4,1.02,3.57,1.09,3.08,2.48,6.01,4.38,8.69,2.35,3.33,5.03,6.33,8.37,8.74,3.32,2.41,6.9,4.23,10.75,5.61,1.31,.47,2.52,.52,3.74-.09,1.63-.81,2.75-2.07,2.93-3.94,.1-1.01,.02-2.04,.03-3.06,0-.65-.17-1.21-.54-1.78-.75-1.14-1.59-2.09-3.01-2.36-.89-.17-1.75-.48-2.61-.79-4.13-1.49-7.79-3.72-11.04-6.65-1.84-1.66-3.38-3.59-4.85-5.58-1.1-1.49-1.24-3.07-.68-4.74,.28-.81,.9-1.43,1.55-1.99,1.74-1.47,4.67-1.4,6.42,.34,.55,.55,.85,1.28,1.34,1.86,1.67,1.97,3.52,3.74,5.7,5.16,.9,.58,1.79,1.02,2.96,.92,1.47-.13,2.73-.54,3.64-1.72,.41-.54,.94-1.08,1.03-1.73,.18-1.36,.32-2.76-.66-3.96-.5-.62-.87-1.35-1.7-1.67-.77-.29-1.48-.71-2.2-1.15-2.78-1.71-4.99-3.95-6.66-6.75-1.18-1.99-1.78-4.17-2.28-6.4-.59-2.61,.34-4.36,2.29-5.5,2.58-1.51,6.17-.29,7.12,3.25,.22,.83,.3,1.69,.64,2.51,.64,1.56,1.56,2.87,2.87,3.92,.17,.14,.39,.3,.57,.22,.21-.08,.17-.36,.17-.58,0-.15,0-.3,0-.45,0-4.33-.04-8.66,.02-12.99,.01-.91,0-1.81-.02-2.72-.02-.88,.2-1.64,.64-2.42,1.56-2.72,5.29-2.99,7.5-.95,1.29,1.19,1.58,2.72,1.38,4.38-.04,.31-.21,.51-.53,.54-.01,0-.03-.03-.04-.05l.04,.11c.56,.35,.58,.94,.58,1.58-.02,4.39-.02,8.79,0,13.18,0,.58-.24,1.45-.75,1.12,.51-.52,.52-.98,.51-.52-.02,1.07,1.69-.22,1.69,.85" style="fill:url(#c);"/></g><g><g><path d="M110.86,28.3c0-10.32,7.92-17.57,18.72-17.57,6.58,0,11.76,2.4,15.07,6.72l-7.15,6.38c-1.97-2.5-4.32-3.94-7.34-3.94-4.7,0-7.87,3.26-7.87,8.4s3.17,8.4,7.87,8.4c3.02,0,5.38-1.44,7.34-3.94l7.15,6.38c-3.31,4.32-8.5,6.72-15.07,6.72-10.8,0-18.72-7.25-18.72-17.57Z" style="fill:url(#d);"/><path d="M145.85,28.3c0-10.18,8.02-17.57,18.96-17.57s18.96,7.39,18.96,17.57-8.02,17.57-18.96,17.57-18.96-7.39-18.96-17.57Zm26.5,0c0-5.23-3.36-8.4-7.54-8.4s-7.54,3.17-7.54,8.4,3.36,8.4,7.54,8.4,7.54-3.17,7.54-8.4Z" style="fill:url(#e);"/><path d="M202.3,36.65h-3.07v8.45h-11.33V11.5h16.18c9.36,0,15.31,4.9,15.31,12.67,0,4.85-2.3,8.5-6.34,10.56l7.06,10.37h-12.1l-5.71-8.45Zm1.06-16.42h-4.13v7.87h4.13c3.12,0,4.61-1.49,4.61-3.94s-1.49-3.94-4.61-3.94Z" style="fill:url(#f);"/><path d="M246.56,39.24h-12.77l-2.26,5.86h-11.52l14.69-33.6h11.14l14.69,33.6h-11.71l-2.26-5.86Zm-3.12-8.16l-3.26-8.45-3.26,8.45h6.53Z" style="fill:url(#g);"/><path d="M262.35,11.5h11.33v24.82h15.17v8.78h-26.5V11.5Z" style="fill:url(#h);"/><path d="M143.69,67.77c0,7.78-5.95,12.67-15.31,12.67h-4.85v8.26h-11.33V55.1h16.18c9.36,0,15.31,4.9,15.31,12.67Zm-11.42,0c0-2.45-1.49-3.94-4.61-3.94h-4.13v7.87h4.13c3.12,0,4.61-1.49,4.61-3.94Z" style="fill:url(#i);"/><path d="M147.39,55.1h11.33v24.82h15.17v8.79h-26.5V55.1Z" style="fill:url(#j);"/><path d="M200.38,82.84h-12.77l-2.26,5.86h-11.52l14.69-33.6h11.14l14.69,33.6h-11.71l-2.26-5.86Zm-3.12-8.16l-3.26-8.45-3.26,8.45h6.53Z" style="fill:url(#k);"/><path d="M233.98,76.51v12.19h-11.33v-12.34l-12.67-21.27h11.95l6.86,11.62,6.91-11.62h10.94l-12.67,21.41Z" style="fill:url(#l);"/><path d="M268.88,70.99h9.84v14.21c-4.08,2.78-9.7,4.27-14.64,4.27-10.85,0-18.77-7.25-18.77-17.57s7.92-17.57,19.01-17.57c6.62,0,11.95,2.3,15.36,6.48l-7.25,6.38c-2.11-2.45-4.56-3.7-7.54-3.7-4.99,0-8.16,3.22-8.16,8.4s3.17,8.4,8.02,8.4c1.39,0,2.74-.24,4.13-.82v-8.5Z" style="fill:url(#m);"/><path d="M297.96,80.25h-3.07v8.45h-11.33V55.1h16.18c9.36,0,15.31,4.9,15.31,12.67,0,4.85-2.3,8.5-6.34,10.56l7.06,10.37h-12.1l-5.71-8.45Zm1.06-16.42h-4.13v7.87h4.13c3.12,0,4.61-1.49,4.61-3.94s-1.49-3.94-4.61-3.94Z" style="fill:url(#n);"/><path d="M317.98,71.9c0-10.18,8.02-17.57,18.96-17.57s18.96,7.39,18.96,17.57-8.02,17.57-18.96,17.57-18.96-7.39-18.96-17.57Zm26.5,0c0-5.23-3.36-8.4-7.54-8.4s-7.54,3.17-7.54,8.4,3.36,8.4,7.54,8.4,7.54-3.17,7.54-8.4Z" style="fill:url(#o);"/><path d="M359.74,73.58v-18.48h11.33v18.15c0,5.14,1.97,7.06,5.14,7.06s5.14-1.92,5.14-7.06v-18.15h11.14v18.48c0,10.08-6.05,15.89-16.37,15.89s-16.37-5.81-16.37-15.89Z" style="fill:url(#p);"/><path d="M430.78,55.1v33.6h-9.31l-12.77-15.27v15.27h-11.04V55.1h9.31l12.77,15.26v-15.26h11.04Z" style="fill:url(#q);"/><path d="M436.25,55.1h16.56c11.23,0,18.96,6.38,18.96,16.8s-7.73,16.8-18.96,16.8h-16.56V55.1Zm16.08,24.77c4.75,0,8.02-2.83,8.02-7.97s-3.26-7.97-8.02-7.97h-4.75v15.94h4.75Z" style="fill:url(#r);"/></g><g><path d="M110.86,28.3c0-10.32,7.92-17.57,18.72-17.57,6.58,0,11.76,2.4,15.07,6.72l-7.15,6.38c-1.97-2.5-4.32-3.94-7.34-3.94-4.7,0-7.87,3.26-7.87,8.4s3.17,8.4,7.87,8.4c3.02,0,5.38-1.44,7.34-3.94l7.15,6.38c-3.31,4.32-8.5,6.72-15.07,6.72-10.8,0-18.72-7.25-18.72-17.57Z"/><path d="M145.85,28.3c0-10.18,8.02-17.57,18.96-17.57s18.96,7.39,18.96,17.57-8.02,17.57-18.96,17.57-18.96-7.39-18.96-17.57Zm26.5,0c0-5.23-3.36-8.4-7.54-8.4s-7.54,3.17-7.54,8.4,3.36,8.4,7.54,8.4,7.54-3.17,7.54-8.4Z"/><path d="M202.3,36.65h-3.07v8.45h-11.33V11.5h16.18c9.36,0,15.31,4.9,15.31,12.67,0,4.85-2.3,8.5-6.34,10.56l7.06,10.37h-12.1l-5.71-8.45Zm1.06-16.42h-4.13v7.87h4.13c3.12,0,4.61-1.49,4.61-3.94s-1.49-3.94-4.61-3.94Z"/><path d="M246.56,39.24h-12.77l-2.26,5.86h-11.52l14.69-33.6h11.14l14.69,33.6h-11.71l-2.26-5.86Zm-3.12-8.16l-3.26-8.45-3.26,8.45h6.53Z"/><path d="M262.35,11.5h11.33v24.82h15.17v8.78h-26.5V11.5Z"/><path d="M143.69,67.77c0,7.78-5.95,12.67-15.31,12.67h-4.85v8.26h-11.33V55.1h16.18c9.36,0,15.31,4.9,15.31,12.67Zm-11.42,0c0-2.45-1.49-3.94-4.61-3.94h-4.13v7.87h4.13c3.12,0,4.61-1.49,4.61-3.94Z"/><path d="M147.39,55.1h11.33v24.82h15.17v8.79h-26.5V55.1Z"/><path d="M200.38,82.84h-12.77l-2.26,5.86h-11.52l14.69-33.6h11.14l14.69,33.6h-11.71l-2.26-5.86Zm-3.12-8.16l-3.26-8.45-3.26,8.45h6.53Z"/><path d="M233.98,76.51v12.19h-11.33v-12.34l-12.67-21.27h11.95l6.86,11.62,6.91-11.62h10.94l-12.67,21.41Z"/><path d="M268.88,70.99h9.84v14.21c-4.08,2.78-9.7,4.27-14.64,4.27-10.85,0-18.77-7.25-18.77-17.57s7.92-17.57,19.01-17.57c6.62,0,11.95,2.3,15.36,6.48l-7.25,6.38c-2.11-2.45-4.56-3.7-7.54-3.7-4.99,0-8.16,3.22-8.16,8.4s3.17,8.4,8.02,8.4c1.39,0,2.74-.24,4.13-.82v-8.5Z"/><path d="M297.96,80.25h-3.07v8.45h-11.33V55.1h16.18c9.36,0,15.31,4.9,15.31,12.67,0,4.85-2.3,8.5-6.34,10.56l7.06,10.37h-12.1l-5.71-8.45Zm1.06-16.42h-4.13v7.87h4.13c3.12,0,4.61-1.49,4.61-3.94s-1.49-3.94-4.61-3.94Z"/><path d="M317.98,71.9c0-10.18,8.02-17.57,18.96-17.57s18.96,7.39,18.96,17.57-8.02,17.57-18.96,17.57-18.96-7.39-18.96-17.57Zm26.5,0c0-5.23-3.36-8.4-7.54-8.4s-7.54,3.17-7.54,8.4,3.36,8.4,7.54,8.4,7.54-3.17,7.54-8.4Z"/><path d="M359.74,73.58v-18.48h11.33v18.15c0,5.14,1.97,7.06,5.14,7.06s5.14-1.92,5.14-7.06v-18.15h11.14v18.48c0,10.08-6.05,15.89-16.37,15.89s-16.37-5.81-16.37-15.89Z"/><path d="M430.78,55.1v33.6h-9.31l-12.77-15.27v15.27h-11.04V55.1h9.31l12.77,15.26v-15.26h11.04Z"/><path d="M436.25,55.1h16.56c11.23,0,18.96,6.38,18.96,16.8s-7.73,16.8-18.96,16.8h-16.56V55.1Zm16.08,24.77c4.75,0,8.02-2.83,8.02-7.97s-3.26-7.97-8.02-7.97h-4.75v15.94h4.75Z"/></g></g></svg>