<svg xmlns="http://www.w3.org/2000/svg" xmlns:xlink="http://www.w3.org/1999/xlink" style="margin:auto;background:rgba(NaN, NaN, NaN, 0);display:block;z-index:1;position:relative" width="1600" height="900" preserveAspectRatio="xMidYMid" viewBox="0 0 1600 900">
<g transform="translate(800,450) scale(1,1) translate(-800,-450)"><path d="M-100 442.89C-69.79 449.33 -70.19 440.46 -41.94 440.46S-12.52 441.93 16.13 441.93S45.42 436.57 74.19 436.57S104.69 436.12 132.26 436.12S163.41 434.42 190.32 434.42S221.6 454.44 248.39 454.44S278.68 440.46 306.45 440.46S336.09 445.42 364.52 445.42S395.3 448.69 422.58 448.69S451.63 453.67 480.65 453.67S510.39 450.62 538.71 450.62S569.27 433.1 596.77 433.1S626.3 452.67 654.84 452.67S684.97 453.98 712.9 453.98S743.66 439.82 770.97 439.82S801.34 449.51 829.03 449.51S858.14 433.92 887.1 433.92S916.93 442.53 945.16 442.53S975.41 445.56 1003.23 445.56S1033.68 452.72 1061.29 452.72S1092.4 439.29 1119.35 439.29S1150.17 438.29 1177.42 438.29S1208.56 434 1235.48 434S1266.48 453.47 1293.55 453.47S1322.78 433.13 1351.61 433.13S1381.08 441.87 1409.68 441.87S1440.53 453.24 1467.74 453.24S1498.11 435.37 1525.81 435.37S1555.5 442.26 1583.87 442.26S1614.49 447.54 1641.94 447.54S1672.29 442.58 1700 442.58S1731.22 450.42 1758.06 450.42L1700 900 L-100 900 Z" fill="#2d3859" stroke-width="0">
  <animate attributeName="d" dur="52.63157894736842s" repeatCount="indefinite" values="M-100 442.89C-69.79 449.33 -70.19 440.46 -41.94 440.46S-12.52 441.93 16.13 441.93S45.42 436.57 74.19 436.57S104.69 436.12 132.26 436.12S163.41 434.42 190.32 434.42S221.6 454.44 248.39 454.44S278.68 440.46 306.45 440.46S336.09 445.42 364.52 445.42S395.3 448.69 422.58 448.69S451.63 453.67 480.65 453.67S510.39 450.62 538.71 450.62S569.27 433.1 596.77 433.1S626.3 452.67 654.84 452.67S684.97 453.98 712.9 453.98S743.66 439.82 770.97 439.82S801.34 449.51 829.03 449.51S858.14 433.92 887.1 433.92S916.93 442.53 945.16 442.53S975.41 445.56 1003.23 445.56S1033.68 452.72 1061.29 452.72S1092.4 439.29 1119.35 439.29S1150.17 438.29 1177.42 438.29S1208.56 434 1235.48 434S1266.48 453.47 1293.55 453.47S1322.78 433.13 1351.61 433.13S1381.08 441.87 1409.68 441.87S1440.53 453.24 1467.74 453.24S1498.11 435.37 1525.81 435.37S1555.5 442.26 1583.87 442.26S1614.49 447.54 1641.94 447.54S1672.29 442.58 1700 442.58S1731.22 450.42 1758.06 450.42L1700 900 L-100 900 Z;M-100 449C-69.84 438.13 -68.99 443.36 -41.94 443.36S-11.05 452.24 16.13 452.24S47.32 454.31 74.19 454.31S104.11 448.48 132.26 448.48S161.76 440.15 190.32 440.15S219.91 439.71 248.39 439.71S278.12 433.71 306.45 433.71S335.7 432.48 364.52 432.48S395.76 454.06 422.58 454.06S453.01 448.44 480.65 448.44S511.69 453.54 538.71 453.54S569.43 450.81 596.77 450.81S626.44 441.84 654.84 441.84S684.06 450.91 712.9 450.91S743.48 447.31 770.97 447.31S801.55 436.89 829.03 436.89S860.29 440.91 887.1 440.91S917.68 442.68 945.16 442.68S974.45 437.35 1003.23 437.35S1034.26 444.51 1061.29 444.51S1091.59 440.12 1119.35 440.12S1150.39 449.64 1177.42 449.64S1207.73 436.48 1235.48 436.48S1265.51 449.19 1293.55 449.19S1323.58 445.3 1351.61 445.3S1381.95 450.19 1409.68 450.19S1438.94 432.54 1467.74 432.54S1497.38 444.21 1525.81 444.21S1555.81 452.43 1583.87 452.43S1614.38 448.79 1641.94 448.79S1671.56 446.93 1700 446.93S1729.78 444.15 1758.06 444.15L1700 900 L-100 900 Z;M-100 442.89C-69.79 449.33 -70.19 440.46 -41.94 440.46S-12.52 441.93 16.13 441.93S45.42 436.57 74.19 436.57S104.69 436.12 132.26 436.12S163.41 434.42 190.32 434.42S221.6 454.44 248.39 454.44S278.68 440.46 306.45 440.46S336.09 445.42 364.52 445.42S395.3 448.69 422.58 448.69S451.63 453.67 480.65 453.67S510.39 450.62 538.71 450.62S569.27 433.1 596.77 433.1S626.3 452.67 654.84 452.67S684.97 453.98 712.9 453.98S743.66 439.82 770.97 439.82S801.34 449.51 829.03 449.51S858.14 433.92 887.1 433.92S916.93 442.53 945.16 442.53S975.41 445.56 1003.23 445.56S1033.68 452.72 1061.29 452.72S1092.4 439.29 1119.35 439.29S1150.17 438.29 1177.42 438.29S1208.56 434 1235.48 434S1266.48 453.47 1293.55 453.47S1322.78 433.13 1351.61 433.13S1381.08 441.87 1409.68 441.87S1440.53 453.24 1467.74 453.24S1498.11 435.37 1525.81 435.37S1555.5 442.26 1583.87 442.26S1614.49 447.54 1641.94 447.54S1672.29 442.58 1700 442.58S1731.22 450.42 1758.06 450.42L1700 900 L-100 900 Z"></animate>
  <animateTransform attributeName="transform" type="translate" dur="52.63157894736842s" begin="0s" repeatCount="indefinite" values="0;10;0" calcMode="spline" keySplines="0.3 0 0.7 1;0.3 0 0.7 1"></animateTransform>
</path><path d="M-100 469.27C-69.89 465 -69.9 485.59 -40.4 485.59S-8.46 485 19.21 485S50.31 479.6 78.81 479.6S109.57 474.66 138.41 474.66S168.58 480.96 198.01 480.96S228.18 466.09 257.62 466.09S288.26 469.24 317.22 469.24S348.76 472.29 376.82 472.29S407.38 477.79 436.42 477.79S467.05 472.92 496.03 472.92S526.38 471.94 555.63 471.94S587.23 465.54 615.23 465.54S645.23 486.22 674.83 486.22S704.92 471.05 734.44 471.05S765.54 484.93 794.04 484.93S824.29 481.53 853.64 481.53S884.52 484.99 913.25 484.99S944.7 476.82 972.85 476.82S1003.58 482.29 1032.45 482.29S1062.44 468.11 1092.05 468.11S1122.43 468.49 1151.66 468.49S1182.42 463.73 1211.26 463.73S1243.21 486.28 1270.86 486.28S1302.73 466.21 1330.46 466.21S1361.2 473.96 1390.07 473.96S1421.61 479.53 1449.67 479.53S1480.01 478.04 1509.27 478.04S1539.82 480.37 1568.87 480.37S1599.89 473.16 1628.48 473.16S1660.04 480.7 1688.08 480.7S1719.82 463.79 1747.68 463.79L1700 900 L-100 900 Z" fill="#3a4b69" stroke-width="0">
  <animate attributeName="d" dur="47.368421052631575s" repeatCount="indefinite" values="M-100 469.27C-69.89 465 -69.9 485.59 -40.4 485.59S-8.46 485 19.21 485S50.31 479.6 78.81 479.6S109.57 474.66 138.41 474.66S168.58 480.96 198.01 480.96S228.18 466.09 257.62 466.09S288.26 469.24 317.22 469.24S348.76 472.29 376.82 472.29S407.38 477.79 436.42 477.79S467.05 472.92 496.03 472.92S526.38 471.94 555.63 471.94S587.23 465.54 615.23 465.54S645.23 486.22 674.83 486.22S704.92 471.05 734.44 471.05S765.54 484.93 794.04 484.93S824.29 481.53 853.64 481.53S884.52 484.99 913.25 484.99S944.7 476.82 972.85 476.82S1003.58 482.29 1032.45 482.29S1062.44 468.11 1092.05 468.11S1122.43 468.49 1151.66 468.49S1182.42 463.73 1211.26 463.73S1243.21 486.28 1270.86 486.28S1302.73 466.21 1330.46 466.21S1361.2 473.96 1390.07 473.96S1421.61 479.53 1449.67 479.53S1480.01 478.04 1509.27 478.04S1539.82 480.37 1568.87 480.37S1599.89 473.16 1628.48 473.16S1660.04 480.7 1688.08 480.7S1719.82 463.79 1747.68 463.79L1700 900 L-100 900 Z;M-100 473.58C-67.99 469.9 -70.09 483.04 -40.4 483.04S-9.62 474.59 19.21 474.59S51.09 473.59 78.81 473.59S110.61 481.15 138.41 481.15S169.02 468.59 198.01 468.59S227.86 468.7 257.62 468.7S289 485.39 317.22 485.39S348.4 477.27 376.82 477.27S406.96 471.59 436.42 471.59S467.36 470.73 496.03 470.73S527.01 483.95 555.63 483.95S586.96 478.29 615.23 478.29S645.82 485.72 674.83 485.72S705.1 468.17 734.44 468.17S765.92 480.93 794.04 480.93S825.94 472.55 853.64 472.55S884.46 471.54 913.25 471.54S944.23 473.31 972.85 473.31S1002.66 472.98 1032.45 472.98S1063.68 483.25 1092.05 483.25S1122.33 477.53 1151.66 477.53S1182.04 467.4 1211.26 467.4S1242.1 480.24 1270.86 480.24S1301.47 475.27 1330.46 475.27S1360.66 484.53 1390.07 484.53S1420.21 482.92 1449.67 482.92S1480.04 479.71 1509.27 479.71S1540.54 477.73 1568.87 477.73S1600.29 486.29 1628.48 486.29S1659.96 472.54 1688.08 472.54S1718.87 481.86 1747.68 481.86L1700 900 L-100 900 Z;M-100 469.27C-69.89 465 -69.9 485.59 -40.4 485.59S-8.46 485 19.21 485S50.31 479.6 78.81 479.6S109.57 474.66 138.41 474.66S168.58 480.96 198.01 480.96S228.18 466.09 257.62 466.09S288.26 469.24 317.22 469.24S348.76 472.29 376.82 472.29S407.38 477.79 436.42 477.79S467.05 472.92 496.03 472.92S526.38 471.94 555.63 471.94S587.23 465.54 615.23 465.54S645.23 486.22 674.83 486.22S704.92 471.05 734.44 471.05S765.54 484.93 794.04 484.93S824.29 481.53 853.64 481.53S884.52 484.99 913.25 484.99S944.7 476.82 972.85 476.82S1003.58 482.29 1032.45 482.29S1062.44 468.11 1092.05 468.11S1122.43 468.49 1151.66 468.49S1182.42 463.73 1211.26 463.73S1243.21 486.28 1270.86 486.28S1302.73 466.21 1330.46 466.21S1361.2 473.96 1390.07 473.96S1421.61 479.53 1449.67 479.53S1480.01 478.04 1509.27 478.04S1539.82 480.37 1568.87 480.37S1599.89 473.16 1628.48 473.16S1660.04 480.7 1688.08 480.7S1719.82 463.79 1747.68 463.79L1700 900 L-100 900 Z"></animate>
  <animateTransform attributeName="transform" type="translate" dur="47.368421052631575s" begin="-4.7368421052631575s" repeatCount="indefinite" values="0;10;0" calcMode="spline" keySplines="0.3 0 0.7 1;0.3 0 0.7 1"></animateTransform>
</path><path d="M-100 501.14C-68.72 496.42 -68.36 515.84 -38.78 515.84S-7.04 514.66 22.45 514.66S53.84 502.53 83.67 502.53S116.08 495.06 144.9 495.06S176.99 523.53 206.12 523.53S238.89 504.26 267.35 504.26S298.5 524.19 328.57 524.19S359.92 498.11 389.8 498.11S420.48 520.25 451.02 520.25S482.3 513.37 512.24 513.37S543.82 519.44 573.47 519.44S605.12 504.18 634.69 504.18S665.76 505.23 695.92 505.23S726.86 495.51 757.14 495.51S788.27 509.23 818.37 509.23S849.59 496.24 879.59 496.24S911.89 510.54 940.82 510.54S972.5 515.55 1002.04 515.55S1034.52 522.62 1063.27 522.62S1094.07 504.44 1124.49 504.44S1156.56 507.45 1185.71 507.45S1218.55 508.25 1246.94 508.25S1277.71 519.49 1308.16 519.49S1340.61 510.71 1369.39 510.71S1401.75 517.25 1430.61 517.25S1462.22 494.07 1491.84 494.07S1523.49 508.85 1553.06 508.85S1584.35 503.88 1614.29 503.88S1645.06 509.19 1675.51 509.19S1708 513.78 1736.73 513.78L1700 900 L-100 900 Z" fill="#4a5e78" stroke-width="0">
  <animate attributeName="d" dur="42.10526315789474s" repeatCount="indefinite" values="M-100 501.14C-68.72 496.42 -68.36 515.84 -38.78 515.84S-7.04 514.66 22.45 514.66S53.84 502.53 83.67 502.53S116.08 495.06 144.9 495.06S176.99 523.53 206.12 523.53S238.89 504.26 267.35 504.26S298.5 524.19 328.57 524.19S359.92 498.11 389.8 498.11S420.48 520.25 451.02 520.25S482.3 513.37 512.24 513.37S543.82 519.44 573.47 519.44S605.12 504.18 634.69 504.18S665.76 505.23 695.92 505.23S726.86 495.51 757.14 495.51S788.27 509.23 818.37 509.23S849.59 496.24 879.59 496.24S911.89 510.54 940.82 510.54S972.5 515.55 1002.04 515.55S1034.52 522.62 1063.27 522.62S1094.07 504.44 1124.49 504.44S1156.56 507.45 1185.71 507.45S1218.55 508.25 1246.94 508.25S1277.71 519.49 1308.16 519.49S1340.61 510.71 1369.39 510.71S1401.75 517.25 1430.61 517.25S1462.22 494.07 1491.84 494.07S1523.49 508.85 1553.06 508.85S1584.35 503.88 1614.29 503.88S1645.06 509.19 1675.51 509.19S1708 513.78 1736.73 513.78L1700 900 L-100 900 Z;M-100 499.17C-69.01 494.61 -69.23 503.15 -38.78 503.15S-6.9 500.17 22.45 500.17S53.72 503.11 83.67 503.11S115.93 501.03 144.9 501.03S177.37 503.5 206.12 503.5S238.41 498.14 267.35 498.14S300.04 506.71 328.57 506.71S359.52 500.81 389.8 500.81S422.09 518.66 451.02 518.66S483.68 514.86 512.24 514.86S545.01 523.23 573.47 523.23S606.06 497.32 634.69 497.32S665.86 520.64 695.92 520.64S727.5 509.39 757.14 509.39S789.75 517.85 818.37 517.85S850.61 511.16 879.59 511.16S910.79 520.74 940.82 520.74S972.09 524.48 1002.04 524.48S1034.58 519.74 1063.27 519.74S1095.28 515.38 1124.49 515.38S1156.63 498.57 1185.71 498.57S1217.44 513.07 1246.94 513.07S1277.77 515.39 1308.16 515.39S1340.61 503.6 1369.39 503.6S1400.94 511.47 1430.61 511.47S1461.69 507.81 1491.84 507.81S1522.64 505.71 1553.06 505.71S1585.02 498.41 1614.29 498.41S1645.88 519.97 1675.51 519.97S1707.45 497.43 1736.73 497.43L1700 900 L-100 900 Z;M-100 501.14C-68.72 496.42 -68.36 515.84 -38.78 515.84S-7.04 514.66 22.45 514.66S53.84 502.53 83.67 502.53S116.08 495.06 144.9 495.06S176.99 523.53 206.12 523.53S238.89 504.26 267.35 504.26S298.5 524.19 328.57 524.19S359.92 498.11 389.8 498.11S420.48 520.25 451.02 520.25S482.3 513.37 512.24 513.37S543.82 519.44 573.47 519.44S605.12 504.18 634.69 504.18S665.76 505.23 695.92 505.23S726.86 495.51 757.14 495.51S788.27 509.23 818.37 509.23S849.59 496.24 879.59 496.24S911.89 510.54 940.82 510.54S972.5 515.55 1002.04 515.55S1034.52 522.62 1063.27 522.62S1094.07 504.44 1124.49 504.44S1156.56 507.45 1185.71 507.45S1218.55 508.25 1246.94 508.25S1277.71 519.49 1308.16 519.49S1340.61 510.71 1369.39 510.71S1401.75 517.25 1430.61 517.25S1462.22 494.07 1491.84 494.07S1523.49 508.85 1553.06 508.85S1584.35 503.88 1614.29 503.88S1645.06 509.19 1675.51 509.19S1708 513.78 1736.73 513.78L1700 900 L-100 900 Z"></animate>
  <animateTransform attributeName="transform" type="translate" dur="42.10526315789474s" begin="-8.421052631578949s" repeatCount="indefinite" values="0;10;0" calcMode="spline" keySplines="0.3 0 0.7 1;0.3 0 0.7 1"></animateTransform>
</path><path d="M-100 527.74C-68.48 533.1 -67.77 528.83 -37.06 528.83S-4.99 534.8 25.87 534.8S58.87 545.94 88.81 545.94S121.73 532.63 151.75 532.63S185.16 548.44 214.69 548.44S247.66 527.91 277.62 527.91S311.01 539.65 340.56 539.65S374.09 524.51 403.5 524.51S435.81 555.02 466.43 555.02S498.04 541.65 529.37 541.65S562.78 557.61 592.31 557.61S625.78 531.23 655.24 531.23S688.65 545.04 718.18 545.04S750.84 541.43 781.12 541.43S813.11 539.45 844.06 539.45S876.74 540.61 906.99 540.61S938.77 541.27 969.93 541.27S1002.46 543.09 1032.87 543.09S1064.67 528.96 1095.8 528.96S1127.29 540.3 1158.74 540.3S1192.37 543.47 1221.68 543.47S1253.21 556.27 1284.62 556.27S1318.33 549.37 1347.55 549.37S1379.61 531.39 1410.49 531.39S1444.04 538.6 1473.43 538.6S1505.78 556.47 1536.36 556.47S1569.48 539.62 1599.3 539.62S1632.75 548.41 1662.24 548.41S1695.5 555.27 1725.17 555.27L1700 900 L-100 900 Z" fill="#5a7188" stroke-width="0">
  <animate attributeName="d" dur="36.8421052631579s" repeatCount="indefinite" values="M-100 527.74C-68.48 533.1 -67.77 528.83 -37.06 528.83S-4.99 534.8 25.87 534.8S58.87 545.94 88.81 545.94S121.73 532.63 151.75 532.63S185.16 548.44 214.69 548.44S247.66 527.91 277.62 527.91S311.01 539.65 340.56 539.65S374.09 524.51 403.5 524.51S435.81 555.02 466.43 555.02S498.04 541.65 529.37 541.65S562.78 557.61 592.31 557.61S625.78 531.23 655.24 531.23S688.65 545.04 718.18 545.04S750.84 541.43 781.12 541.43S813.11 539.45 844.06 539.45S876.74 540.61 906.99 540.61S938.77 541.27 969.93 541.27S1002.46 543.09 1032.87 543.09S1064.67 528.96 1095.8 528.96S1127.29 540.3 1158.74 540.3S1192.37 543.47 1221.68 543.47S1253.21 556.27 1284.62 556.27S1318.33 549.37 1347.55 549.37S1379.61 531.39 1410.49 531.39S1444.04 538.6 1473.43 538.6S1505.78 556.47 1536.36 556.47S1569.48 539.62 1599.3 539.62S1632.75 548.41 1662.24 548.41S1695.5 555.27 1725.17 555.27L1700 900 L-100 900 Z;M-100 525.42C-68.41 544.32 -68.23 554.94 -37.06 554.94S-3.38 531.73 25.87 531.73S58.73 532.01 88.81 532.01S120.37 545.29 151.75 545.29S184.22 541.7 214.69 541.7S248 540.94 277.62 540.94S309.88 549.09 340.56 549.09S372.1 538.54 403.5 538.54S436.71 551.6 466.43 551.6S499.44 531.66 529.37 531.66S562.82 537.97 592.31 537.97S624.55 525.25 655.24 525.25S687.6 539.36 718.18 539.36S750.45 525.09 781.12 525.09S814.83 544.2 844.06 544.2S877.29 557.08 906.99 557.08S940.34 547.01 969.93 547.01S1001.78 537.69 1032.87 537.69S1064.43 542.57 1095.8 542.57S1128.91 535.13 1158.74 535.13S1190.44 553.8 1221.68 553.8S1253.42 539.45 1284.62 539.45S1317.18 548.15 1347.55 548.15S1379.26 544.71 1410.49 544.71S1442.61 543.83 1473.43 543.83S1506.94 538.77 1536.36 538.77S1568 553.95 1599.3 553.95S1631.23 527.91 1662.24 527.91S1695.24 541.77 1725.17 541.77L1700 900 L-100 900 Z;M-100 527.74C-68.48 533.1 -67.77 528.83 -37.06 528.83S-4.99 534.8 25.87 534.8S58.87 545.94 88.81 545.94S121.73 532.63 151.75 532.63S185.16 548.44 214.69 548.44S247.66 527.91 277.62 527.91S311.01 539.65 340.56 539.65S374.09 524.51 403.5 524.51S435.81 555.02 466.43 555.02S498.04 541.65 529.37 541.65S562.78 557.61 592.31 557.61S625.78 531.23 655.24 531.23S688.65 545.04 718.18 545.04S750.84 541.43 781.12 541.43S813.11 539.45 844.06 539.45S876.74 540.61 906.99 540.61S938.77 541.27 969.93 541.27S1002.46 543.09 1032.87 543.09S1064.67 528.96 1095.8 528.96S1127.29 540.3 1158.74 540.3S1192.37 543.47 1221.68 543.47S1253.21 556.27 1284.62 556.27S1318.33 549.37 1347.55 549.37S1379.61 531.39 1410.49 531.39S1444.04 538.6 1473.43 538.6S1505.78 556.47 1536.36 556.47S1569.48 539.62 1599.3 539.62S1632.75 548.41 1662.24 548.41S1695.5 555.27 1725.17 555.27L1700 900 L-100 900 Z"></animate>
  <animateTransform attributeName="transform" type="translate" dur="36.8421052631579s" begin="-11.05263157894737s" repeatCount="indefinite" values="0;10;0" calcMode="spline" keySplines="0.3 0 0.7 1;0.3 0 0.7 1"></animateTransform>
</path><path d="M-100 559.16C-65.73 560.1 -66.72 593.18 -35.25 593.18S-2.3 567.42 29.5 567.42S63.09 585.57 94.24 585.57S127.1 594.29 158.99 594.29S193.07 554.65 223.74 554.65S257.02 554.76 288.49 554.76S321.07 589.13 353.24 589.13S387.37 557.52 417.99 557.52S452.51 574.75 482.73 574.75S516.14 578.4 547.48 578.4S579.97 578.56 612.23 578.56S645.46 589.23 676.98 589.23S710.75 583.14 741.73 583.14S776.29 576.12 806.47 576.12S839.02 563.18 871.22 563.18S904.04 575.61 935.97 575.61S969.38 592.49 1000.72 592.49S1033.64 561.9 1065.47 561.9S1099.18 579 1130.22 579S1164.48 570.47 1194.96 570.47S1228.35 589.1 1259.71 589.1S1293.53 564 1324.46 564S1358.83 575.6 1389.21 575.6S1421.63 560.15 1453.96 560.15S1487 567 1518.71 567S1551.89 571.13 1583.45 571.13S1616.65 589.24 1648.2 589.24S1682.38 568.87 1712.95 568.87L1700 900 L-100 900 Z" fill="#6d8597" stroke-width="0">
  <animate attributeName="d" dur="31.57894736842105s" repeatCount="indefinite" values="M-100 559.16C-65.73 560.1 -66.72 593.18 -35.25 593.18S-2.3 567.42 29.5 567.42S63.09 585.57 94.24 585.57S127.1 594.29 158.99 594.29S193.07 554.65 223.74 554.65S257.02 554.76 288.49 554.76S321.07 589.13 353.24 589.13S387.37 557.52 417.99 557.52S452.51 574.75 482.73 574.75S516.14 578.4 547.48 578.4S579.97 578.56 612.23 578.56S645.46 589.23 676.98 589.23S710.75 583.14 741.73 583.14S776.29 576.12 806.47 576.12S839.02 563.18 871.22 563.18S904.04 575.61 935.97 575.61S969.38 592.49 1000.72 592.49S1033.64 561.9 1065.47 561.9S1099.18 579 1130.22 579S1164.48 570.47 1194.96 570.47S1228.35 589.1 1259.71 589.1S1293.53 564 1324.46 564S1358.83 575.6 1389.21 575.6S1421.63 560.15 1453.96 560.15S1487 567 1518.71 567S1551.89 571.13 1583.45 571.13S1616.65 589.24 1648.2 589.24S1682.38 568.87 1712.95 568.87L1700 900 L-100 900 Z;M-100 568.08C-67.47 576.32 -65.53 592.52 -35.25 592.52S-1.67 569.11 29.5 569.11S63.34 594.71 94.24 594.71S127.79 592.71 158.99 592.71S191.82 586.32 223.74 586.32S257.62 574.04 288.49 574.04S322.93 584.34 353.24 584.34S386.33 572.68 417.99 572.68S450.47 589.44 482.73 589.44S516.26 571.37 547.48 571.37S581.13 580.74 612.23 580.74S645.99 572.63 676.98 572.63S710.79 584.21 741.73 584.21S775.86 565.39 806.47 565.39S839.06 584.36 871.22 584.36S904.02 578.48 935.97 578.48S969.47 581.05 1000.72 581.05S1034.23 571.38 1065.47 571.38S1099.93 577.27 1130.22 577.27S1162.63 565.39 1194.96 565.39S1229.55 587.02 1259.71 587.02S1292.43 558.45 1324.46 558.45S1358.62 579.71 1389.21 579.71S1423.02 573.05 1453.96 573.05S1486.9 575.42 1518.71 575.42S1551.77 565.36 1583.45 565.36S1617.11 584.08 1648.2 584.08S1681.04 564.95 1712.95 564.95L1700 900 L-100 900 Z;M-100 559.16C-65.73 560.1 -66.72 593.18 -35.25 593.18S-2.3 567.42 29.5 567.42S63.09 585.57 94.24 585.57S127.1 594.29 158.99 594.29S193.07 554.65 223.74 554.65S257.02 554.76 288.49 554.76S321.07 589.13 353.24 589.13S387.37 557.52 417.99 557.52S452.51 574.75 482.73 574.75S516.14 578.4 547.48 578.4S579.97 578.56 612.23 578.56S645.46 589.23 676.98 589.23S710.75 583.14 741.73 583.14S776.29 576.12 806.47 576.12S839.02 563.18 871.22 563.18S904.04 575.61 935.97 575.61S969.38 592.49 1000.72 592.49S1033.64 561.9 1065.47 561.9S1099.18 579 1130.22 579S1164.48 570.47 1194.96 570.47S1228.35 589.1 1259.71 589.1S1293.53 564 1324.46 564S1358.83 575.6 1389.21 575.6S1421.63 560.15 1453.96 560.15S1487 567 1518.71 567S1551.89 571.13 1583.45 571.13S1616.65 589.24 1648.2 589.24S1682.38 568.87 1712.95 568.87L1700 900 L-100 900 Z"></animate>
  <animateTransform attributeName="transform" type="translate" dur="31.57894736842105s" begin="-12.631578947368421s" repeatCount="indefinite" values="0;10;0" calcMode="spline" keySplines="0.3 0 0.7 1;0.3 0 0.7 1"></animateTransform>
</path><path d="M-100 616.93C-66.44 615.46 -65.67 587.72 -33.33 587.72S1.84 601.17 33.33 601.17S67.52 617.08 100 617.08S135.54 606.71 166.67 606.71S202.05 609.49 233.33 609.49S267.47 595.34 300 595.34S334.37 611.27 366.67 611.27S400.62 605.21 433.33 605.21S467.2 585.75 500 585.75S535.18 595.15 566.67 595.15S600.64 611.7 633.33 611.7S667.91 599.26 700 599.26S734.36 615.54 766.67 615.54S801.77 604.79 833.33 604.79S868.91 610.3 900 610.3S933.57 598.63 966.67 598.63S1000.69 624.46 1033.33 624.46S1067.62 591.36 1100 591.36S1134.61 623.26 1166.67 623.26S1200.16 606.81 1233.33 606.81S1267.24 616.33 1300 616.33S1335.12 609.43 1366.67 609.43S1401.21 623.6 1433.33 623.6S1468.51 600.87 1500 600.87S1534.5 624.42 1566.67 624.42S1600.36 587.83 1633.33 587.83S1667.44 616.88 1700 616.88S1735.08 595.44 1766.67 595.44L1700 900 L-100 900 Z" fill="#8199a7" stroke-width="0">
  <animate attributeName="d" dur="26.31578947368421s" repeatCount="indefinite" values="M-100 616.93C-66.44 615.46 -65.67 587.72 -33.33 587.72S1.84 601.17 33.33 601.17S67.52 617.08 100 617.08S135.54 606.71 166.67 606.71S202.05 609.49 233.33 609.49S267.47 595.34 300 595.34S334.37 611.27 366.67 611.27S400.62 605.21 433.33 605.21S467.2 585.75 500 585.75S535.18 595.15 566.67 595.15S600.64 611.7 633.33 611.7S667.91 599.26 700 599.26S734.36 615.54 766.67 615.54S801.77 604.79 833.33 604.79S868.91 610.3 900 610.3S933.57 598.63 966.67 598.63S1000.69 624.46 1033.33 624.46S1067.62 591.36 1100 591.36S1134.61 623.26 1166.67 623.26S1200.16 606.81 1233.33 606.81S1267.24 616.33 1300 616.33S1335.12 609.43 1366.67 609.43S1401.21 623.6 1433.33 623.6S1468.51 600.87 1500 600.87S1534.5 624.42 1566.67 624.42S1600.36 587.83 1633.33 587.83S1667.44 616.88 1700 616.88S1735.08 595.44 1766.67 595.44L1700 900 L-100 900 Z;M-100 586.33C-66.35 586.07 -65.09 617.67 -33.33 617.67S0.78 597.49 33.33 597.49S68 627.79 100 627.79S133.54 617.62 166.67 617.62S200.93 624.29 233.33 624.29S268.66 625.17 300 625.17S333.65 619.05 366.67 619.05S400.18 588.25 433.33 588.25S466.81 616.31 500 616.31S534.32 592.34 566.67 592.34S600.81 613 633.33 613S667.92 600.47 700 600.47S734.44 614.17 766.67 614.17S802.24 596.29 833.33 596.29S867.24 625.01 900 625.01S935.56 601.65 966.67 601.65S1002.19 623.35 1033.33 623.35S1067.05 598.2 1100 598.2S1133.53 591.82 1166.67 591.82S1202.12 596.19 1233.33 596.19S1267.28 592.01 1300 592.01S1335.41 599.13 1366.67 599.13S1402.23 618.25 1433.33 618.25S1468.53 606.18 1500 606.18S1533.42 609.41 1566.67 609.41S1600.78 604.6 1633.33 604.6S1667.97 620.8 1700 620.8S1734.69 620.9 1766.67 620.9L1700 900 L-100 900 Z;M-100 616.93C-66.44 615.46 -65.67 587.72 -33.33 587.72S1.84 601.17 33.33 601.17S67.52 617.08 100 617.08S135.54 606.71 166.67 606.71S202.05 609.49 233.33 609.49S267.47 595.34 300 595.34S334.37 611.27 366.67 611.27S400.62 605.21 433.33 605.21S467.2 585.75 500 585.75S535.18 595.15 566.67 595.15S600.64 611.7 633.33 611.7S667.91 599.26 700 599.26S734.36 615.54 766.67 615.54S801.77 604.79 833.33 604.79S868.91 610.3 900 610.3S933.57 598.63 966.67 598.63S1000.69 624.46 1033.33 624.46S1067.62 591.36 1100 591.36S1134.61 623.26 1166.67 623.26S1200.16 606.81 1233.33 606.81S1267.24 616.33 1300 616.33S1335.12 609.43 1366.67 609.43S1401.21 623.6 1433.33 623.6S1468.51 600.87 1500 600.87S1534.5 624.42 1566.67 624.42S1600.36 587.83 1633.33 587.83S1667.44 616.88 1700 616.88S1735.08 595.44 1766.67 595.44L1700 900 L-100 900 Z"></animate>
  <animateTransform attributeName="transform" type="translate" dur="26.31578947368421s" begin="-13.157894736842104s" repeatCount="indefinite" values="0;10;0" calcMode="spline" keySplines="0.3 0 0.7 1;0.3 0 0.7 1"></animateTransform>
</path><path d="M-100 628.49C-63.65 620.12 -65.45 644.69 -31.3 644.69S4.16 636.77 37.4 636.77S72 654.19 106.11 654.19S142.21 616.72 174.81 616.72S210.65 655.37 243.51 655.37S277.89 628.87 312.21 628.87S346.67 629.86 380.92 629.86S416.48 643.27 449.62 643.27S485.48 661.12 518.32 661.12S552.69 615.79 587.02 615.79S623.21 653.29 655.73 653.29S691.09 634.33 724.43 634.33S759.59 663.03 793.13 663.03S829.18 651.07 861.83 651.07S898.13 656.12 930.53 656.12S966.81 620.71 999.24 620.71S1035.18 660.1 1067.94 660.1S1104.29 664.52 1136.64 664.52S1171.94 651.84 1205.34 651.84S1241.26 635.03 1274.05 635.03S1310.16 651.06 1342.75 651.06S1378.65 636.97 1411.45 636.97S1447.18 659.47 1480.15 659.47S1515.99 636.02 1548.85 636.02S1584.78 645.81 1617.56 645.81S1653.91 631.14 1686.26 631.14S1720.63 661.4 1754.96 661.4L1700 900 L-100 900 Z" fill="#97adb7" stroke-width="0">
  <animate attributeName="d" dur="21.05263157894737s" repeatCount="indefinite" values="M-100 628.49C-63.65 620.12 -65.45 644.69 -31.3 644.69S4.16 636.77 37.4 636.77S72 654.19 106.11 654.19S142.21 616.72 174.81 616.72S210.65 655.37 243.51 655.37S277.89 628.87 312.21 628.87S346.67 629.86 380.92 629.86S416.48 643.27 449.62 643.27S485.48 661.12 518.32 661.12S552.69 615.79 587.02 615.79S623.21 653.29 655.73 653.29S691.09 634.33 724.43 634.33S759.59 663.03 793.13 663.03S829.18 651.07 861.83 651.07S898.13 656.12 930.53 656.12S966.81 620.71 999.24 620.71S1035.18 660.1 1067.94 660.1S1104.29 664.52 1136.64 664.52S1171.94 651.84 1205.34 651.84S1241.26 635.03 1274.05 635.03S1310.16 651.06 1342.75 651.06S1378.65 636.97 1411.45 636.97S1447.18 659.47 1480.15 659.47S1515.99 636.02 1548.85 636.02S1584.78 645.81 1617.56 645.81S1653.91 631.14 1686.26 631.14S1720.63 661.4 1754.96 661.4L1700 900 L-100 900 Z;M-100 616.72C-65.58 615.62 -63.44 647.25 -31.3 647.25S4.97 636.41 37.4 636.41S71.8 658.79 106.11 658.79S141.26 625.97 174.81 625.97S209.58 657.68 243.51 657.68S278.2 630.47 312.21 630.47S348.58 652.14 380.92 652.14S416.74 636.31 449.62 636.31S484.68 648.57 518.32 648.57S554.32 618.06 587.02 618.06S621.84 655.92 655.73 655.92S690.48 636.95 724.43 636.95S759.36 659.41 793.13 659.41S828.89 633.25 861.83 633.25S898 660.92 930.53 660.92S965.4 630.98 999.24 630.98S1034.43 626.31 1067.94 626.31S1103.28 629.75 1136.64 629.75S1172.7 652.69 1205.34 652.69S1240.29 636.84 1274.05 636.84S1309.95 651.47 1342.75 651.47S1378.04 636.5 1411.45 636.5S1447.49 659.16 1480.15 659.16S1514.77 619.9 1548.85 619.9S1584.16 648.12 1617.56 648.12S1652.12 621.42 1686.26 621.42S1721.27 662.49 1754.96 662.49L1700 900 L-100 900 Z;M-100 628.49C-63.65 620.12 -65.45 644.69 -31.3 644.69S4.16 636.77 37.4 636.77S72 654.19 106.11 654.19S142.21 616.72 174.81 616.72S210.65 655.37 243.51 655.37S277.89 628.87 312.21 628.87S346.67 629.86 380.92 629.86S416.48 643.27 449.62 643.27S485.48 661.12 518.32 661.12S552.69 615.79 587.02 615.79S623.21 653.29 655.73 653.29S691.09 634.33 724.43 634.33S759.59 663.03 793.13 663.03S829.18 651.07 861.83 651.07S898.13 656.12 930.53 656.12S966.81 620.71 999.24 620.71S1035.18 660.1 1067.94 660.1S1104.29 664.52 1136.64 664.52S1171.94 651.84 1205.34 651.84S1241.26 635.03 1274.05 635.03S1310.16 651.06 1342.75 651.06S1378.65 636.97 1411.45 636.97S1447.18 659.47 1480.15 659.47S1515.99 636.02 1548.85 636.02S1584.78 645.81 1617.56 645.81S1653.91 631.14 1686.26 631.14S1720.63 661.4 1754.96 661.4L1700 900 L-100 900 Z"></animate>
  <animateTransform attributeName="transform" type="translate" dur="21.05263157894737s" begin="-12.631578947368421s" repeatCount="indefinite" values="0;10;0" calcMode="spline" keySplines="0.3 0 0.7 1;0.3 0 0.7 1"></animateTransform>
</path><path d="M-100 666.21C-63.32 653.1 -64.22 678.64 -29.13 678.64S7.56 649.73 41.73 649.73S78.55 690.5 112.6 690.5S148.77 648.73 183.46 648.73S221.11 678.68 254.33 678.68S290.4 663.91 325.2 663.91S361.38 693.91 396.06 693.91S431.61 654.93 466.93 654.93S503.78 684.73 537.8 684.73S573.96 661.39 608.66 661.39S645.71 691.02 679.53 691.02S716.82 658.97 750.39 658.97S787.58 678.27 821.26 678.27S857.68 646.9 892.13 646.9S929.55 682.64 962.99 682.64S1000.57 659.88 1033.86 659.88S1071.3 681.21 1104.72 681.21S1142.39 691.46 1175.59 691.46S1212.82 691.54 1246.46 691.54S1283.41 687.04 1317.32 687.04S1354.36 697.35 1388.19 697.35S1425.55 646.71 1459.06 646.71S1494.51 698.28 1529.92 698.28S1566.61 684.87 1600.79 684.87S1637.8 697.82 1671.65 697.82S1708.12 695.81 1742.52 695.81L1700 900 L-100 900 Z" fill="#aec1c7" stroke-width="0">
  <animate attributeName="d" dur="15.789473684210526s" repeatCount="indefinite" values="M-100 666.21C-63.32 653.1 -64.22 678.64 -29.13 678.64S7.56 649.73 41.73 649.73S78.55 690.5 112.6 690.5S148.77 648.73 183.46 648.73S221.11 678.68 254.33 678.68S290.4 663.91 325.2 663.91S361.38 693.91 396.06 693.91S431.61 654.93 466.93 654.93S503.78 684.73 537.8 684.73S573.96 661.39 608.66 661.39S645.71 691.02 679.53 691.02S716.82 658.97 750.39 658.97S787.58 678.27 821.26 678.27S857.68 646.9 892.13 646.9S929.55 682.64 962.99 682.64S1000.57 659.88 1033.86 659.88S1071.3 681.21 1104.72 681.21S1142.39 691.46 1175.59 691.46S1212.82 691.54 1246.46 691.54S1283.41 687.04 1317.32 687.04S1354.36 697.35 1388.19 697.35S1425.55 646.71 1459.06 646.71S1494.51 698.28 1529.92 698.28S1566.61 684.87 1600.79 684.87S1637.8 697.82 1671.65 697.82S1708.12 695.81 1742.52 695.81L1700 900 L-100 900 Z;M-100 650.83C-64 659.38 -62.82 686.72 -29.13 686.72S8.13 691.35 41.73 691.35S79.06 658.65 112.6 658.65S150.02 655.91 183.46 655.91S219.41 651.2 254.33 651.2S289.79 659.48 325.2 659.48S361.66 686.9 396.06 686.9S431.79 651.65 466.93 651.65S502.74 695.61 537.8 695.61S573.55 650.97 608.66 650.97S645.81 664.48 679.53 664.48S715.99 658.87 750.39 658.87S786.88 682.55 821.26 682.55S856.93 661.65 892.13 661.65S928.01 656.02 962.99 656.02S998.79 649.87 1033.86 649.87S1070.68 697.47 1104.72 697.47S1141.47 655.5 1175.59 655.5S1212.29 651.23 1246.46 651.23S1281.92 652.08 1317.32 652.08S1353.95 689.25 1388.19 689.25S1424.42 657.43 1459.06 657.43S1494.61 696.54 1529.92 696.54S1565.69 649.66 1600.79 649.66S1636.9 698.24 1671.65 698.24S1707.13 646.63 1742.52 646.63L1700 900 L-100 900 Z;M-100 666.21C-63.32 653.1 -64.22 678.64 -29.13 678.64S7.56 649.73 41.73 649.73S78.55 690.5 112.6 690.5S148.77 648.73 183.46 648.73S221.11 678.68 254.33 678.68S290.4 663.91 325.2 663.91S361.38 693.91 396.06 693.91S431.61 654.93 466.93 654.93S503.78 684.73 537.8 684.73S573.96 661.39 608.66 661.39S645.71 691.02 679.53 691.02S716.82 658.97 750.39 658.97S787.58 678.27 821.26 678.27S857.68 646.9 892.13 646.9S929.55 682.64 962.99 682.64S1000.57 659.88 1033.86 659.88S1071.3 681.21 1104.72 681.21S1142.39 691.46 1175.59 691.46S1212.82 691.54 1246.46 691.54S1283.41 687.04 1317.32 687.04S1354.36 697.35 1388.19 697.35S1425.55 646.71 1459.06 646.71S1494.51 698.28 1529.92 698.28S1566.61 684.87 1600.79 684.87S1637.8 697.82 1671.65 697.82S1708.12 695.81 1742.52 695.81L1700 900 L-100 900 Z"></animate>
  <animateTransform attributeName="transform" type="translate" dur="15.789473684210526s" begin="-11.052631578947368s" repeatCount="indefinite" values="0;10;0" calcMode="spline" keySplines="0.3 0 0.7 1;0.3 0 0.7 1"></animateTransform>
</path><path d="M-100 696.32C-62.23 677.11 -61.88 723.82 -26.83 723.82S10.76 693.47 46.34 693.47S84.25 696.86 119.51 696.86S158.22 695.98 192.68 695.98S230.42 729.49 265.85 729.49S303.21 692.01 339.02 692.01S377.52 720.21 412.2 720.21S448.94 690.98 485.37 690.98S523.58 732.75 558.54 732.75S595.49 682.07 631.71 682.07S668.92 732.61 704.88 732.61S742.06 681.87 778.05 681.87S814.68 734.49 851.22 734.49S889.95 689.69 924.39 689.69S961.4 730.12 997.56 730.12S1034.54 688.82 1070.73 688.82S1108.88 713.12 1143.9 713.12S1182.27 683.79 1217.07 683.79S1255.18 731.69 1290.24 731.69S1327.31 696.42 1363.41 696.42S1400.23 719.87 1436.59 719.87S1474.85 721.11 1509.76 721.11S1547.3 696.62 1582.93 696.62S1620.2 687.77 1656.1 687.77S1693.88 729.68 1729.27 729.68L1700 900 L-100 900 Z" fill="#c6d6d9" stroke-width="0">
  <animate attributeName="d" dur="10.526315789473685s" repeatCount="indefinite" values="M-100 696.32C-62.23 677.11 -61.88 723.82 -26.83 723.82S10.76 693.47 46.34 693.47S84.25 696.86 119.51 696.86S158.22 695.98 192.68 695.98S230.42 729.49 265.85 729.49S303.21 692.01 339.02 692.01S377.52 720.21 412.2 720.21S448.94 690.98 485.37 690.98S523.58 732.75 558.54 732.75S595.49 682.07 631.71 682.07S668.92 732.61 704.88 732.61S742.06 681.87 778.05 681.87S814.68 734.49 851.22 734.49S889.95 689.69 924.39 689.69S961.4 730.12 997.56 730.12S1034.54 688.82 1070.73 688.82S1108.88 713.12 1143.9 713.12S1182.27 683.79 1217.07 683.79S1255.18 731.69 1290.24 731.69S1327.31 696.42 1363.41 696.42S1400.23 719.87 1436.59 719.87S1474.85 721.11 1509.76 721.11S1547.3 696.62 1582.93 696.62S1620.2 687.77 1656.1 687.77S1693.88 729.68 1729.27 729.68L1700 900 L-100 900 Z;M-100 695.51C-63.35 692.22 -63.17 732.84 -26.83 732.84S11.62 693.75 46.34 693.75S83.14 678.4 119.51 678.4S156.6 681.11 192.68 681.11S231.33 715.61 265.85 715.61S302.72 682.08 339.02 682.08S377.6 720.43 412.2 720.43S450.15 684.79 485.37 684.79S523.95 732.73 558.54 732.73S596.86 692.86 631.71 692.86S668.88 723.21 704.88 723.21S741.97 691.49 778.05 691.49S815.79 726.51 851.22 726.51S889.21 687.56 924.39 687.56S962.15 682.98 997.56 682.98S1035.2 680.49 1070.73 680.49S1108.62 716.57 1143.9 716.57S1182.43 685.17 1217.07 685.17S1254.61 723.25 1290.24 723.25S1328.57 692.28 1363.41 692.28S1401.75 728.05 1436.59 728.05S1475.03 687.57 1509.76 687.57S1546.92 725.13 1582.93 725.13S1621.61 684.46 1656.1 684.46S1693.37 689.14 1729.27 689.14L1700 900 L-100 900 Z;M-100 696.32C-62.23 677.11 -61.88 723.82 -26.83 723.82S10.76 693.47 46.34 693.47S84.25 696.86 119.51 696.86S158.22 695.98 192.68 695.98S230.42 729.49 265.85 729.49S303.21 692.01 339.02 692.01S377.52 720.21 412.2 720.21S448.94 690.98 485.37 690.98S523.58 732.75 558.54 732.75S595.49 682.07 631.71 682.07S668.92 732.61 704.88 732.61S742.06 681.87 778.05 681.87S814.68 734.49 851.22 734.49S889.95 689.69 924.39 689.69S961.4 730.12 997.56 730.12S1034.54 688.82 1070.73 688.82S1108.88 713.12 1143.9 713.12S1182.27 683.79 1217.07 683.79S1255.18 731.69 1290.24 731.69S1327.31 696.42 1363.41 696.42S1400.23 719.87 1436.59 719.87S1474.85 721.11 1509.76 721.11S1547.3 696.62 1582.93 696.62S1620.2 687.77 1656.1 687.77S1693.88 729.68 1729.27 729.68L1700 900 L-100 900 Z"></animate>
  <animateTransform attributeName="transform" type="translate" dur="10.526315789473685s" begin="-8.421052631578949s" repeatCount="indefinite" values="0;10;0" calcMode="spline" keySplines="0.3 0 0.7 1;0.3 0 0.7 1"></animateTransform>
</path><path d="M-100 755.38C-60.36 766.92 -61.44 716.91 -24.37 716.91S15.03 709.13 51.26 709.13S89.88 767.41 126.89 767.41S165.93 719.43 202.52 719.43S241.2 759.42 278.15 759.42S317.93 727.37 353.78 727.37S391.6 761.23 429.41 761.23S467.81 710.01 505.04 710.01S543.74 752.18 580.67 752.18S620.31 712.64 656.3 712.64S695.33 767.48 731.93 767.48S770.62 713.39 807.56 713.39S845.4 767.47 883.19 767.47S923.11 712.9 958.82 712.9S998.15 752.73 1034.45 752.73S1074.45 712.02 1110.08 712.02S1148.21 728.13 1185.71 728.13S1223.6 708.8 1261.34 708.8S1300.78 753.69 1336.97 753.69S1376.98 715.71 1412.61 715.71S1450.58 757.92 1488.24 757.92S1526.13 726.22 1563.87 726.22S1602.03 749.43 1639.5 749.43S1678.3 714.68 1715.13 714.68L1700 900 L-100 900 Z" fill="#dfeaeb" stroke-width="0">
  <animate attributeName="d" dur="5.2631578947368425s" repeatCount="indefinite" values="M-100 755.38C-60.36 766.92 -61.44 716.91 -24.37 716.91S15.03 709.13 51.26 709.13S89.88 767.41 126.89 767.41S165.93 719.43 202.52 719.43S241.2 759.42 278.15 759.42S317.93 727.37 353.78 727.37S391.6 761.23 429.41 761.23S467.81 710.01 505.04 710.01S543.74 752.18 580.67 752.18S620.31 712.64 656.3 712.64S695.33 767.48 731.93 767.48S770.62 713.39 807.56 713.39S845.4 767.47 883.19 767.47S923.11 712.9 958.82 712.9S998.15 752.73 1034.45 752.73S1074.45 712.02 1110.08 712.02S1148.21 728.13 1185.71 728.13S1223.6 708.8 1261.34 708.8S1300.78 753.69 1336.97 753.69S1376.98 715.71 1412.61 715.71S1450.58 757.92 1488.24 757.92S1526.13 726.22 1563.87 726.22S1602.03 749.43 1639.5 749.43S1678.3 714.68 1715.13 714.68L1700 900 L-100 900 Z;M-100 768.24C-61.12 757.15 -62.02 722.1 -24.37 722.1S13.65 722.17 51.26 722.17S89.55 760.1 126.89 760.1S166.55 721.89 202.52 721.89S241.79 770.01 278.15 770.01S317.16 727.72 353.78 727.72S393.37 755.92 429.41 755.92S468.83 720.99 505.04 720.99S544.29 749.99 580.67 749.99S620.44 758.08 656.3 758.08S694.54 750.44 731.93 750.44S769.94 722.51 807.56 722.51S846.33 760.36 883.19 760.36S921.42 725.5 958.82 725.5S997.76 748.99 1034.45 748.99S1074.01 726.52 1110.08 726.52S1149.71 749.5 1185.71 749.5S1225.55 711.17 1261.34 711.17S1300.03 762.11 1336.97 762.11S1375.04 716.16 1412.61 716.16S1451.9 760.4 1488.24 760.4S1526.5 727.24 1563.87 727.24S1602.81 751.65 1639.5 751.65S1678.93 718.48 1715.13 718.48L1700 900 L-100 900 Z;M-100 755.38C-60.36 766.92 -61.44 716.91 -24.37 716.91S15.03 709.13 51.26 709.13S89.88 767.41 126.89 767.41S165.93 719.43 202.52 719.43S241.2 759.42 278.15 759.42S317.93 727.37 353.78 727.37S391.6 761.23 429.41 761.23S467.81 710.01 505.04 710.01S543.74 752.18 580.67 752.18S620.31 712.64 656.3 712.64S695.33 767.48 731.93 767.48S770.62 713.39 807.56 713.39S845.4 767.47 883.19 767.47S923.11 712.9 958.82 712.9S998.15 752.73 1034.45 752.73S1074.45 712.02 1110.08 712.02S1148.21 728.13 1185.71 728.13S1223.6 708.8 1261.34 708.8S1300.78 753.69 1336.97 753.69S1376.98 715.71 1412.61 715.71S1450.58 757.92 1488.24 757.92S1526.13 726.22 1563.87 726.22S1602.03 749.43 1639.5 749.43S1678.3 714.68 1715.13 714.68L1700 900 L-100 900 Z"></animate>
  <animateTransform attributeName="transform" type="translate" dur="5.2631578947368425s" begin="-4.736842105263158s" repeatCount="indefinite" values="0;10;0" calcMode="spline" keySplines="0.3 0 0.7 1;0.3 0 0.7 1"></animateTransform>
</path></g>
</svg>