<?xml version="1.0" encoding="UTF-8"?><svg xmlns="http://www.w3.org/2000/svg" viewBox="0 0 214.24 76.39"><g id="a"/><g id="b"><g id="c"><g><path d="M108.35,59.43c-2.03,.53-4.06,1.48-6.1,1.51-12.46,.14-24.93,.07-37.66,1.05,2.62,.81,5.21,1.72,7.87,2.4,7.83,2.03,8.61,3.05,8.23,11.99-5.14-.72-10.09-1.54-13.93-5.39-2.7-2.71-5.09-5.74-7.89-8.32-1.34-1.24-3.23-2.16-5.03-2.58-11.47-2.68-23.1-4.75-34.42-7.92-5.47-1.53-10.6-4.7-15.5-7.74-5.23-3.24-5.19-7.05-.16-10.56,11.31-7.9,24.22-11.73,37.68-13.42,13.68-1.71,27.46-2.58,41.2-3.83,1.1-.1,2.2-.35,3.33-1.28-4.96-1-9.92-2-16.23-3.27,6.63-4.25,12.3-7.89,18.84-12.08,.99,3.98,1.89,6.75,2.35,9.59,.88,5.49,3.77,7.37,9.44,7.84,13.06,1.09,26.04,3.17,39.04,4.97,1.32,.18,2.52,1.23,3.78,1.87-11.61,11.72-23.23,23.44-34.84,35.16ZM40.64,41.07c2.58,1.85,4.93,4.89,7.59,5.2,7.68,.88,14.79-1.7,21.85-5.59-7.77-5.29-23.87-5.11-29.44,.39Zm-15.68-4.52c-2.89-2.11-4.68-4.37-5.94-4.1-1.69,.36-2.98,2.66-4.44,4.12,1.38,1.32,2.7,3.62,4.14,3.69,1.61,.08,3.32-1.86,6.23-3.71Z"/><path d="M108.35,59.43c11.61-11.72,23.23-23.44,34.84-35.16,3.48,.43,6.96,.86,11.17,1.38-3-1.75-5.45-3.17-7.89-4.59,.87-.94,1.74-1.88,2.61-2.82,3.66,1.89,7.43,3.61,10.93,5.78,1.14,.7,1.55,2.57,2.3,3.9l-.97,1.55c9.6,1.59,19.17,3.45,28.83,4.58,2.1,.25,4.95-1.67,6.69-3.37,3.91-3.82,7.28-8.17,10.98-12.2,1.4-1.53,3.12-2.77,5.14-4.53,2.38,5.84,1.16,10.74-1.58,14.81-4.77,7.11-4.73,13.67-.12,20.75,2.66,4.07,3.82,8.71,1.84,14.57-2.03-1.51-3.87-2.49-5.2-3.93-3.7-4.02-6.9-8.54-10.86-12.26-2.06-1.94-5.56-4.03-7.99-3.62-13.15,2.22-26.18,5.21-39.24,7.93,.09,.69,.17,1.37,.26,2.06,1.75-.16,3.5-.29,5.24-.5,1.96-.23,3.92-.52,6.01-.81-4.48,2.91-8.66,5.89-13.12,8.37-1.32,.73-4.01,.74-5.09-.13-7.94-6.43-16.37-2.86-24.75-1.8-3.29,.42-6.68,.04-10.03,.03Z"/></g></g></g></svg>