<?xml version="1.0" encoding="UTF-8"?><svg xmlns="http://www.w3.org/2000/svg" viewBox="0 0 224.08 76.65"><g id="a"/><g id="b"><g id="c"><path d="M150.44,18.71c-2.97-.92-5.93-1.83-10.17-3.14,5.29-4.66,10.06-8.98,15.02-13.07,.61-.51,2.81-.18,3.36,.5,3.92,4.85,7.6,9.89,11.84,15.5-3.25,1.01-5.53,1.72-9.19,2.86,3.46,.87,5.68,1.47,7.93,1.99,6.79,1.58,13.59,3.12,20.38,4.7,6.52,1.52,10.89-1.31,15.06-6.2,5.01-5.86,10.86-11.01,16.43-16.38,.77-.74,1.99-1.01,2.98-1.49-2.69,10.82-5.37,21.44-7.94,32.08-.32,1.32-.33,2.85,.02,4.15,.46,1.74,1.73,3.29,2.09,5.04,1.87,8.99,3.56,18.02,5.26,26.8-6.94-2.68-12.2-8.55-17.05-14.91-1.31-1.72-2.36-3.65-3.78-5.27-3.69-4.24-8.23-5.82-13.88-4.49-11.62,2.74-23.28,5.25-35.1,8.46,4.39,.45,8.78,.9,13.51,1.38-2.99,5.6-6.03,11.29-9.56,17.9-2.11-2.32-4.63-4.23-6.02-6.76-5.03-9.14-11.47-13.19-22.85-12.23-17.34,1.46-34.9,.38-52.36,.38-.07,.73-.13,1.45-.2,2.18,5.02,1.13,10.04,2.27,15.66,3.54-.86,4-1.65,7.84-2.52,11.66-.79,3.46-2.86,3.37-5.09,1.48-5.96-5.04-11.69-10.34-17.76-15.24-1.75-1.41-4.29-2.39-6.54-2.55-16.41-1.15-32.85-1.89-49.25-3.15-3.63-.28-7.14-2.16-10.71-3.31,.07-.58,.15-1.16,.22-1.74H27.97c.2-.59,.39-1.18,.59-1.77-7.43-4.69-14.87-9.39-22.3-14.08,.21-.48,.43-.95,.64-1.43,28-7.1,56.06-13.9,85.43-12.74-.05-.51-.09-1.01-.14-1.52-6.68-.71-13.35-1.42-20.78-2.21,2.9-6.73,6.66-12.26,12.76-15.09,4.55-2.11,7.28,2.49,10.11,5.3,4.2,4.17,8.23,8.53,12.44,12.68,.59,.58,1.86,.61,2.82,.63,13.14,.28,26.29,.51,39.44,.73,.47,0,.95-.2,1.43-.31l.03-.86ZM53.01,36.56c6.51,.64,8.8,3.7,6.61,9.39,5.39,.64,18.33-9.11,21.86-16.41-9.98,.04-19.29,1.57-28.48,7.02Zm-17.69,2.08c1.7-2.8,3.49-4.45,3.26-5.73-.23-1.29-2.42-2.95-3.85-3.06-1.02-.08-3.11,2.16-3.09,3.35,.02,1.41,1.78,2.8,3.68,5.44Z"/></g></g></svg>