<?xml version="1.0" encoding="UTF-8"?><svg xmlns="http://www.w3.org/2000/svg" viewBox="0 0 198.04 109.76"><g id="a"/><g id="b"><g id="c"><path d="M96.39,26.29c-11.87-1.32-23.74-2.65-36.55-4.08,1.89-6.92,3.83-14.05,6.06-22.21,2.25,1.93,3.72,2.64,4.35,3.81,6.07,11.31,16.42,16.08,28.13,19.29,6.85,1.87,13.32,5.08,20.14,7.09,1.86,.55,4.53-.7,6.52-1.72,4.88-2.52,9.58-5.38,14.35-8.11,.32,.47,.65,.94,.97,1.42-.46,.78-.92,1.56-1.39,2.33-4.72,7.69-3.64,15.39,6.02,18.57,7.55,2.49,14.79,5.91,22.14,8.97,3.97,1.65,7.12,1.09,9.19-3,5.17-10.23,10.28-20.48,15.57-30.64,1.4-2.69,3.4-5.07,5.7-7.34-10.18,30.64-9.76,61.02,.46,91.39l-1.16,.61c-2.09-3.18-4.48-6.21-6.2-9.58-3.7-7.24-7.02-14.68-10.57-22-.94-1.94-2.05-3.8-3.2-5.62-2.6-4.11-5.75-5.59-10.4-2.7-10.04,6.25-20.24,12.25-29.96,19.38h6.82c1.33,2.5,2.54,4.78,3.75,7.07-.16,.39-.32,.78-.47,1.17-4.34-1.62-8.68-3.25-13.03-4.84-1.31-.48-2.85-1.41-4-1.11-21.82,5.83-44.07,5.76-67.95,5.02,3.74,1.79,6.14,3.3,8.76,4.1,3.16,.96,4.07,2.85,4.02,5.91-.05,2.96,.33,5.92,.61,10.28-3.17-1.97-5.99-3.04-7.83-5.01-3.62-3.86-7.18-7.96-9.83-12.5-1.68-2.88-3.5-3.87-6.5-4.3-18.28-2.63-34.57-10.25-49.88-20.24-.51-.33-.84-.95-1.01-2.71,5.05,.49,10.11,.98,15.97,1.54-4.56-4.33-8.86-8.41-13.16-12.48C31.21,35.3,60.97,21.73,96.66,29.08c-.09-.93-.18-1.86-.26-2.79Zm16.55,28.67c-9.34-5.74-52.68-2.28-60.8,5.25,1.83,.79,3.49,1.25,4.85,2.16,1.36,.91,3.55,2.41,3.42,3.39-.71,5.45,2.81,4.87,5.89,4.3,3.56-.66,7.25-1.45,10.48-3.01,11.34-5.5,22.45-11.51,35.57-11.35,.1,0,.2-.24,.6-.74Zm-92.58,4.16c2.21-2.95,4.65-4.82,4.41-6.25-.3-1.83-2.74-3.32-4.27-4.95-1.41,1.55-3.76,2.99-3.95,4.67-.18,1.6,1.9,3.46,3.81,6.53Z"/></g></g></svg>