<?xml version="1.0" encoding="UTF-8"?><svg xmlns="http://www.w3.org/2000/svg" viewBox="0 0 205.8 110.74"><g id="a"/><g id="b"><g id="c"><g><path d="M95.45,8.75c1.86-1.52,3.72-3.05,5.58-4.57,.34,.28,.68,.55,1.02,.83-.39,1.61-.78,3.22-1.46,6.05,3.33-1.23,5.93-2.47,8.67-3.14,3.6-.89,7.54-2.47,10.94-1.78,14.35,2.92,27.58,8.96,38.7,18.42,3.68,3.13,5.01,9.12,7.11,13.93,.27,.63-1.07,2.49-2.06,3.03-1.5,.81-3.37,.97-5.76,1.58,5.89,3.02,11.3,3.35,16.33,.44,3.98-2.31,7.28-5.77,11.13-8.34,5.96-3.97,12.13-7.62,18.21-11.41,.65,.42,1.3,.84,1.96,1.27v59.91c-10.47-1.98-17.25-7.91-23.69-14.02-9.37-8.89-18.85-9.77-29.69-2.91-6.53,4.13-13.73,7.21-20.48,11.45l30.84-10.35c-.13,15.37-15.89,28.65-31.13,18.58-6.89-4.56-14.47-5.82-22.86-3.64-6.22,1.61-12.83,1.92-19.3,2.29-6.43,.37-12.9,.08-19.36,.08-.21,.56-.41,1.12-.62,1.68,2.09,1.23,4.04,2.93,6.29,3.58,3.94,1.14,5.02,3.2,3.74,6.97-1.31,3.85-2.41,7.77-3.72,12.05-5.33-2.92-8.7-6.87-10.02-11.91-2.28-8.7-6.32-12.96-16.41-13.14-14.29-.25-28.24-3.99-41.01-11.08-5.72-3.18-7.53-5.63-8.39-12.95,6.34,1.47,12.54,2.91,18.73,4.34,.2-.36,.41-.73,.61-1.09-3.08-2.74-6.24-5.39-9.21-8.24-4.73-4.53-4.63-4.54-.05-8.95,8.79-8.48,18.72-15.25,29.4-21.19,10.96-6.1,22.71-7.65,34.73-7.06,10.6,.52,21.29,1.64,31.65,3.86,9.47,2.02,18.56,5.86,27.82,8.91,1.66,.55,3.29,1.19,4.93,1.78,.18-.47,.36-.93,.54-1.4-8.19-3.3-16.39-6.56-24.56-9.9-2.87-1.17-5.67-2.53-8.51-3.79-3.55-3.39-7.09-6.78-10.64-10.17Zm-16.91,59.13c-.06-.29-.15-1.47-.54-2.53-1.52-4.17-6.5-7.15-10.67-6.49-4.26,.67-11.24,8.57-11.11,12.91,.17,5.46,5.02,4.78,8.38,5.99,.62,.22,1.3,.25,1.95,.39,6.86,1.44,11.89-2.51,11.99-10.27ZM29.91,45.67c-.35-.68-.7-1.35-1.05-2.03-1.18-.89-2.48-2.61-3.5-2.45-1.07,.17-2.64,2.17-2.57,3.27,.07,1.16,1.75,2.96,2.9,3.1,1.31,.16,2.81-1.19,4.22-1.89Z"/><path d="M95.45,8.75c3.55,3.39,7.09,6.78,10.64,10.17-4.82-.51-9.64-1-14.45-1.53-5.93-.66-11.85-1.61-17.8-1.96-5.78-.34-11.6-.07-18.43-.07,2.33-3.24,4.26-5.91,6.64-9.22,.79,1.95,1.25,3.07,1.9,4.66,2.84-3.04,5.52-5.91,8.73-9.35,.35,2.52,.62,4.48,1.01,7.26,3.55-2.9,6.64-5.43,10.65-8.7-.68,3.54-1.13,5.85-1.73,8.94,3.08-2.02,5.5-3.61,8.43-5.53,.34,1.94,.57,3.3,.77,4.45,1.25,.31,2.45,.6,3.65,.9Z"/></g></g></g></svg>