<?xml version="1.0" encoding="UTF-8"?><svg xmlns="http://www.w3.org/2000/svg" viewBox="0 0 73.85 41.09"><g id="a"/><g id="b"><g id="c"><path d="M0,2.81c.09,.82,1.09,2.83,1.5,4.38,.41,1.55,1.28,4.37,1.46,6.11,.23,1.73-.73,4.83-.96,5.47-.27,.55-1.09,2.55-.86,3.28,0,0,.36,.27,1.55-.82,1.28-1.19,2.28-2.28,2.64-2.74,.27-.37,1.32-1.28,1.46-1.55,.55,.09,1.14,.37,1.82,.64,.77,.28,3.42,1.91,3.42,1.91,0,0,.27,.82,.23,1.28-.05,.46,.05,1.09,.05,1.37,.04,.18,.23,.55,.82,.09,.55-.46,1.59-.73,1.87-.91,.23-.09,.54-.18,.77-.27l11.48,6.02c.27,.27,.59,.55,.87,.82-.37,.18-.59,.27-.73,.45-.36,.37,.82,1.82,.87,2.46,0,.18,0,.28-.05,.37-.36,.91-1.91,2.46-2.23,2.92-.41,.64-3.87,3.01-4.92,3.74-1.05,.73-2.19,1.55-3.19,2.1-.41,.18-.91,.54-1.18,.82-.46,.37-.32,.64,1.96-.18,0,0,4.15-1.64,8.34-3.65,0,0,3.37-1.55,6.61-4.01,0,0,1.05-.82,2.37-1.73,.23,.09,.46,.18,.68,.27,1.82,.82,6.84,1,8.07,.91,1.09,0,1.37,.37,4.33,.46,1.46,0,3.23-.27,5.15-.64,.55,.09,1.23,.09,2.05,.18,2.78,.09,6.29,3.1,7.02,3.65,.82,.55,1.09,.55,.55-.55-.46-.82-2.73-3.37-4.1-4.74,.09-.09,.18-.09,.27-.09,4.47-1.55,7.02-3.46,7.47-3.55,.46-.18,1.28-1.28,1.73-1.46,.46-.27,.73-.09,1.64-1.09,.55-.73,.55-1.28,.46-1.64,.09-.18,.18-.37,.36-.46,.46-.45,1-.73,1.37-.91,.91-.46,1.73-1.73-1.27-3.56-1.19-.73-5.93-2.92-8.11-3.74-1.91-.73-3.92-2.28-5.29-2.74-1.14-.45-9.11-4.19-17.09-3.37,0,0-5.42,.36-6.02,.27-.64-.18-1.28-1-1.68-1.73-.41-.82-3.15-6.2-4.42-6.56-1.32-.46-.45,1.19-.45,1.46v.28h0v.27h0l-.46,4.47c-.04,.18-.09,.37-.14,.55,0,0-.5,1.91-.87,2.28-.32,.36-.41,.82-.68,1-.27,.18,1.09,.09,1.09,.09,0,0-2.14,.64-3.05,1.09-.91,.37-6.56,2.37-7.98,2.55-1.46,.09-1.64-.55-1.78-.64-.28-.27-1.69-1.92-2-1.92-.37,0-.18,.55-.18,.91s-.55,1.91-1.14,2.19c0,0-2.28,.27-3.19-.09-.91-.36-.91-.18-1.46-1.09-.55-.91-2.96-6.38-4.19-7.93C1.46,4-.09,1.99,0,2.81Z"/></g></g></svg>