<?xml version="1.0" encoding="UTF-8"?><svg xmlns="http://www.w3.org/2000/svg" viewBox="0 0 209.16 106.68"><g id="a"/><g id="b"><g id="c"><path d="M209.16,14.28c-5.72,6.05-11.24,11.52-16.3,17.37-3.02,3.5-5.67,7.42-7.86,11.49-3.68,6.82-.15,12.84,3.81,17.88,6.15,7.83,13.17,14.97,20,22.6-8.19-.11-15.22-3.76-21.55-8.8-4.93-3.93-9.4-8.44-14.13-12.63-4.62-4.09-9.75-5.98-16.05-4.18-12.41,3.54-24.88,6.84-37.33,10.24,.06,.41,.12,.81,.18,1.22,11.7-1.74,23.4-3.49,35.76-5.33-3.35,5.5-8.65,6.45-13.56,7.77-7.85,2.11-15.84,3.69-23.66,5.9-2.42,.68-4.95,2.26-6.57,4.17-2.52,2.96-4.93,2.87-7.83,1.18-1.86-1.08-4.09-1.88-5.44-3.43-4.19-4.79-9.02-4.67-14.75-3.5-10.33,2.11-20.81,3.47-31.94,5.69,12.28,3.62,14.57,12.9,14.31,24.74-3.69-2.91-7.36-5.11-10.11-8.13-4-4.4-7.19-9.54-11.06-14.07-1.29-1.51-3.53-2.74-5.49-3.05-8.51-1.32-17.12-1.97-25.61-3.42-5.71-.98-9.46-5.15-12.99-10.27,1.62-.31,2.92-.56,4.51-.87-10.13-9.96-3.67-20.49-.9-30.46,1.48-5.31,7.23-6.48,12.54-6,11.6,1.04,23.16,2.44,34.77,3.35,19.91,1.56,39.84,2.87,59.76,4.25,1.65,.11,3.31,.02,4.99-.59-32.9-4.19-65.81-8.39-99.8-12.72,2.11-2.66,3.44-5.27,5.55-6.81,7.62-5.56,15.37-10.97,23.35-16.02,4.21-2.66,9.13-2.36,13.37,.15,24,14.26,50.3,22.05,77.21,28.51,6.9,1.66,13.21,5.83,19.74,8.96,5.02,2.41,9.58,.89,13.49-2.06,7.02-5.29,13.49-11.33,20.54-16.58,5.4-4.03,11.43-7.1,19.07-6.57ZM32.33,59.64c1.59,2.59,3.23,4.34,3.75,6.39,.52,2.03-.08,4.34-.2,6.87,10.46-.02,16.35-8.26,24.62-12.06-9.48-2.83-18.77-4.3-28.17-1.2Z"/></g></g></svg>