<?xml version="1.0" encoding="UTF-8"?><svg xmlns="http://www.w3.org/2000/svg" viewBox="0 0 50.75 23.13"><g id="a"/><g id="b"><g id="c"><path d="M21.67,16.68c3.6-.04,13.07-5.74,17.43-9.05,0-.08,0-.13-.08-.17,.79-.38,1.63-.79,2.47-1.26,7,1.05,9.34-.42,9.26-.46-4.69-1.34-5.74-3.98-8.21-3.14,.5-1-1.3-1.05-1.43-2.6-2.89,2.18-.71,.71-2.6,3.65-1.97,.13-4.82,1.17-7.63,.92-6.87-.63-12.99-.59-18.19,.29v-.17h-1.93v.55c-.09,.04-.13,.04-.21,.08v-.21h-1.34v.54c-.08,0-.17,.04-.21,.04h-1.55v.5c-.08,.04-.12,.04-.17,.08h-1v.38c-.08,.04-.17,.04-.21,.08v-.08H3.14v1.63c-1.34,.92-2.09,1.8-2.35,2.68H0v2.14H1.17c.38,.46,.92,.88,1.59,1.22v.71h2.93v-.08h.84c1.34-.13,2.68,.29,3.98,.8-.21,.38-1.21,2.18-1.34,3.27,1.47-.96,1.21-1.43,3.02-1.21,.67,0,1.26-.34,1.47-.96,.46,.12,.92,.17,1.38,.17,6.24,6.08,2.35,2.52,7.5,6.12-.71-3.65,1.42-3.31-.88-6.45Zm11.35-5.87h0l-.04,.04s.04-.04,.04-.04Zm-11.44,5.83h0Z"/></g></g></svg>