<?xml version="1.0" encoding="UTF-8"?><svg xmlns="http://www.w3.org/2000/svg" viewBox="0 0 163.99 159.52"><g id="a"/><g id="b"><g id="c"><path d="M123.38,152.67c9.18,2.72,18.15,.37,27.14-1.7,.18,.49,.36,.97,.54,1.46-5.14,1.98-10.12,4.79-15.44,5.8-15.29,2.9-30.37,1.4-42.16-9.46-7.15-6.59-15.34-7.23-23.36-7.3-13.9-.13-27.82,1.82-41.74,2.48-7.42,.35-14.92,.14-22.32-.53-2.13-.19-4.04-2.84-6.04-4.36,1.65-1.83,2.96-4.46,5.02-5.33,5.52-2.31,11.66-3.25,17.03-5.83,20.44-9.82,41.77-9.25,63.41-6.4,.29,.04,.62-.17,.93-.26l.26-1.43c-12.4-2.25-24.8-4.5-36.79-6.67,2.06-.59,4.97-1.9,7.97-2.19,15.1-1.49,29.69,1.04,44.34,4.87,10.5,2.75,21.55,3.41,32.37,4.88,2.68,.36,4.4-1.01,3.51-3.83-1.99-6.26-3.26-13.06-6.63-18.51-6.62-10.71-14.48-20.64-21.8-30.92-6.29-8.82-12.7-17.62-14.24-28.74-.52-3.76-.75-7.71-.19-11.43,1.41-9.34,8.65-16.1,17.87-18.59,11.18-3.02,21.68-.25,32.39,2.77-10.13-9.74-28.63-10.24-45.68-1.37C101.4,4.13,113.92,.04,124.47,0c14.63-.05,28.24,3.14,38.71,16.26-4.52,1.04-8.99,2.62-13.57,3-6.46,.53-12.99,.08-19.48,.24-2.81,.07-5.7,.28-8.4,1.01-7.16,1.94-10.09,8.16-7.73,15.23,4.13,12.36,12.91,21.53,20.96,31.24,7.83,9.45,16.12,18.62,22.94,28.76,6.47,9.61,7.43,20.95,4.54,32.21-3.5,13.58-17.3,22.61-30.42,23.43-2.81,.18-5.64,.03-8.46,.03-.06,.42-.12,.84-.18,1.26Zm31.39-50.48c1.24,7.91,1.62,14.77-2.53,21.08-4.2,6.38-11.25,7.53-18.49,9.76,11.29,1.98,20.24-1.21,24.51-8.3,3.51-5.83,2.27-15.1-3.5-22.53ZM20.43,134.16c-.39-.77-.77-1.53-1.16-2.3-2.1,.73-4.19,1.47-6.29,2.2,.73,1.23,1.47,2.46,2.2,3.68,1.75-1.2,3.5-2.39,5.25-3.59Z"/></g></g></svg>