<?xml version="1.0" encoding="UTF-8"?><svg xmlns="http://www.w3.org/2000/svg" viewBox="0 0 196.05 167.48"><g id="a"/><g id="b"><g id="c"><g><path d="M41.46,46.33c-1.34,.24-2.87,.14-3.99,.76-10.86,6.01-20.4,13.77-28.42,23.18C4.45,75.67-.12,81.36,0,89.2c.05,3.52,.06,6.74,4.72,7.35,1.03,.14,1.91,1.44,3.18,2.47-1.66,.92-2.75,1.53-3.85,2.14-.58,.69-1.16,1.38-1.75,2.08,2.51,1.61,4.91,3.43,7.54,4.79,6.34,3.27,12.86,6.18,19.13,9.56,1.73,.93,3.44,2.82,4.09,4.65,1.98,5.59,5.25,9.8,11.07,12.86,.93-2.86,2.93-5.78,2.21-7.67-.88-2.32-4.03-3.77-6.61-5.95,1.19,0,1.96-.11,2.69,.02,10.63,1.89,21.26,3.74,31.85,5.83,1.33,.26,2.89,1.58,3.51,2.83,2.67,5.35,4.72,11.02,7.58,16.25,4.46,8.14,8.65,16.69,19.03,21.07-1.31-2.17-2.16-3.37-2.8-4.68-4.92-9.96-7.44-18.98,5.45-26.29,12.91-7.32,24.63-16.27,35.02-26.91,2.24-2.29,4.33-4.71,6.5-7.08-.33-.46-.66-.92-.99-1.37-2.31,.99-4.84,1.66-6.89,3.04-8.1,5.49-15.7,11.8-24.14,16.67-6.82,3.93-14.05,7.99-21.62,7.5,5.09-2.24,10.86-4.68,16.51-7.37,.96-.46,1.42-1.98,2.11-3.01,1.16-.16,2.57,.05,3.43-.55,3.13-2.18,6.16-4.53,9.08-6.99,5.58-4.7,10.74-9.97,16.67-14.17,6.84-4.84,9.25-4.3,14.79,2.04,4.36,5,7.99,10.65,12.45,15.54,6.44,7.07,13.25,13.83,20.11,20.49,1.52,1.48,3.95,2.01,5.96,2.98-8.71-15-15.26-30.18-18.38-46.65-.83-4.39-.55-9.29,.45-13.68,3.51-15.38,9.7-29.74,17.71-43.75-4.32,2-8.79,4.06-11.79,7.43-9.05,10.15-17.53,20.81-26.22,31.28-3.05,3.67-6.81,6.79-11.54,4.42-4.35-2.18-7.97-5.83-11.91-8.83l.91-1.44c2.38,.72,4.75,1.44,7.93,2.39-9.92-15.17-20.65-28.26-34.69-38.49-8.94-6.51-10.21-14.19-4.75-24.42,1.03-1.93,2.26-3.75,3.39-5.62-13.38,5.68-19.16,17.49-25.59,29.09,18.14,6.58,33.58,16.63,37.64,24.7-1.34-1.09-2.2-1.81-3.08-2.51-12.74-10.21-26.19-18.52-43.59-15.65-5.89,.97-11.91,1.74-17.52,3.62-4.78,1.6-9.07,4.67-13.57,7.09Z" style="fill:#fff;"/><path d="M41.46,46.33c4.5-2.42,8.79-5.49,13.57-7.09,5.62-1.88,11.63-2.65,17.52-3.62,17.4-2.86,30.85,5.44,43.59,15.65,.88,.7,1.74,1.42,3.08,2.51-4.06-8.06-19.5-18.12-37.64-24.7,6.43-11.6,12.21-23.41,25.59-29.09-1.14,1.87-2.36,3.69-3.39,5.62-5.46,10.23-4.19,17.91,4.75,24.42,14.04,10.23,24.77,23.32,34.69,38.49-3.17-.96-5.55-1.68-7.93-2.39l-.91,1.44c3.94,3,7.56,6.65,11.91,8.83,4.73,2.37,8.5-.75,11.54-4.42,8.69-10.47,17.17-21.13,26.22-31.28,3-3.37,7.47-5.42,11.79-7.43-8.01,14.01-14.2,28.37-17.71,43.75-1,4.39-1.29,9.29-.45,13.68,3.13,16.47,9.67,31.65,18.38,46.65-2.01-.97-4.44-1.51-5.96-2.98-6.87-6.67-13.67-13.42-20.11-20.49-4.46-4.9-8.09-10.55-12.45-15.54-5.54-6.35-7.95-6.88-14.79-2.04-5.93,4.2-11.09,9.47-16.67,14.17-2.92,2.46-5.95,4.81-9.08,6.99-.86,.6-2.27,.39-3.43,.55-14.63-14.74-29.21-29.53-43.92-44.19-9.29-9.26-18.77-18.32-28.17-27.47Z"/><path d="M41.46,46.33c9.4,9.15,18.88,18.21,28.17,27.47,14.71,14.66,29.29,29.46,43.92,44.19-.69,1.03-1.15,2.55-2.11,3.01-5.65,2.69-11.42,5.12-16.51,7.37,7.57,.49,14.8-3.57,21.62-7.5,8.44-4.87,16.05-11.17,24.14-16.67,2.04-1.39,4.58-2.05,6.89-3.04,.33,.46,.66,.92,.99,1.37-2.16,2.36-4.26,4.79-6.5,7.08-10.39,10.64-22.11,19.58-35.02,26.91-12.89,7.31-10.37,16.33-5.45,26.29,.64,1.3,1.49,2.51,2.8,4.68-10.37-4.38-14.57-12.93-19.03-21.07-2.86-5.23-4.91-10.9-7.58-16.25-.62-1.24-2.18-2.57-3.51-2.83-10.59-2.09-21.22-3.94-31.85-5.83-.73-.13-1.5-.02-2.69-.02,2.58,2.18,5.73,3.63,6.61,5.95,.72,1.89-1.28,4.81-2.21,7.67-5.83-3.05-9.1-7.27-11.07-12.86-.65-1.83-2.36-3.72-4.09-4.65-6.27-3.39-12.8-6.29-19.13-9.56-2.64-1.36-5.04-3.18-7.54-4.79,.58-.69,1.16-1.38,1.75-2.08,1.1-.61,2.19-1.22,3.85-2.14-1.27-1.03-2.15-2.34-3.18-2.47C.07,95.93,.06,92.71,0,89.2c-.12-7.83,4.45-13.53,9.04-18.92,8.02-9.41,17.56-17.17,28.42-23.18,1.13-.62,2.65-.53,3.99-.76Zm5.41,52.03c5.09,1,7.13,3.26,5.2,7.86-.28,.67,.11,1.94,.62,2.59,3.26,4.19,11.06,5.69,15.31,2.68,5.14-3.64,8.88-9.63,16.84-8.07-4.72-10.07-28.03-12.88-37.97-5.06Zm-30.59-9.47c-2.67-1.88-4.22-3.75-5.91-3.89-1.17-.1-3.64,2.3-3.54,3.4,.14,1.5,2.08,3.85,3.41,3.96,1.55,.13,3.27-1.76,6.04-3.46Z"/></g></g></g></svg>