<?xml version="1.0" encoding="UTF-8"?><svg xmlns="http://www.w3.org/2000/svg" viewBox="0 0 71.71 30.9"><g id="a"/><g id="b"><g id="c"><path d="M70.96,8.11c.25,0,.75-.38,.75-.84-4.52-.17-9.64,2.51-13.07,7-1.93-.08-4.69-.75-6.62-1.38-.33-.25-.08-.63,0-.75,.25-.17,.17-.46-.17-.59-1.09-.21-.84,.54-1.85,.92l-15.59-3.44c-.84-.13-.42-.29,0-.54,.75,0,1.93,.5,2.51,.08-1.34-.5-1.76-5.15-2.93-6.29-.17-.96,.84-1.84,0-2.26-3.27-.5-4.44,6.2-7.21,6.49-5.2,.63-10.9,.46-15.34,.84C6.26,7.86,.39,10.92,.22,11.72c-1.09,2.68,2.09,1.72,3.27,3.77,.5,.75,3.77-1.51,3.69-.46-.42-.25-1.68,.29-2.68,.63l-.5,.17c-.17,.04-.25,.04-.42,.08,0,.13,.08,.21,.08,.29,0,0,0,.04,.08,.08,.25,.25,.92,.04,1.42,.42,3.18,2.68,10.14,2.05,14.16,2.22,.17,.17,.42,.88,.42,1.05,.92,3.48,2.52,7.67,5.11,9.93,.33,.34,.67,.59,1.01,.75v.04c.08,0,.08,.04,.17,.04,.33,.17,.59,.21,.84,.08,.08,0,.17-.08,.17-.17,.08-.08,.08-.17,.17-.25,.08-1.47-.5-3.31-1.01-5.2-.17-.84-.33-1.64-.5-2.35,0-.34-.09-.63-.09-.92v-.34c.09-.08,.09-.21,.17-.34,.25-.33,.84-.5,1.09-1.47l3.77,.38c-.25-.04-.5-.08-.67-.13,3.02,.38,6.12,.88,9.13,.21h.17l-.17,.04c3.02,.33,.84,3.06,3.77,2.64,.33,.13,.84-1.93,3.52-2.72-.09,0-.75-.46-.84-.46,.25,.04,.75,.12,1.17-.34-1.17-.13-.84-.59-1.93-.46l-2.6,.59h0l11.31-2.6c1.26-.29,3.77-.63,5.03-.59,1.17,1.76,4.69,5.45,7.54,6.2,.67,.5,1.51,.71,3.02,1.05-.75-2.56-4.27-5.07-3.69-8.59,.42-2.98,2.6-3.23,4.11-4.9,0-.29-.17-.75-.17-.92,1.17,1.55,1.09-.13,1.59-1.09Z"/></g></g></svg>