<?xml version="1.0" encoding="UTF-8"?><svg xmlns="http://www.w3.org/2000/svg" viewBox="0 0 181.74 141.43"><g id="a"/><g id="b"><g id="c"><path d="M180.58,31.75c-.37,1-.47,2.08-1.06,2.76-5.8,6.68-4.19,14.74-4.09,22.42,.1,8.05,1.53,16.15,.98,24.13-.7,10.14-3.1,20.22,5.33,30.05-8.35-1.05-13.67-4.63-18.23-9.14-4.47-4.42-8.17-9.6-12.49-14.19-5.65-6-15.07-5.99-20.92-.12-5.97,5.98-11.8,12.12-17.73,18.14-6.5,6.6-14.6,10.27-23.41,12.63-1.04,.28-2.01,.86-2.87,1.78,9.3,.81,17.48-2.93,26.65-6.64-4.5,9.37-8.74,18.04-16.22,24.51-4.63,4-10.18,4.48-15.27,1.06-11.14-7.48-22.14-15.17-32.98-23.07-6.84-4.98-13.3-10.48-19.89-15.81-1.76-1.42-3.34-3.06-5.04-4.62,5.54-2.17,10.79-3.7,15.5-6.22,4.83-2.58,8.52-6.61,10.06-12.03-4.6,2.95-9.1,5.8-13.56,8.7-11.89,7.75-28.16-1.41-33.26-9.48-3.54-5.6-2.52-10.18,2.7-15.64,4.99-5.21,9.75-10.65,14.76-15.84,14.28-14.81,31.17-24.16,52.27-24.05,4.54,.02,9.07,1.22,13.65,1.53-11.95-6.44-24.7-6.23-37.73-3.78l-.47-1.45c8.23-4.08,16.34-8.43,24.73-12.15,5.08-2.25,10.49-4.22,15.95-5.09,8.2-1.31,12.11,5.51,16.07,10.8,9.05,12.09,17.56,24.59,26.15,37.02,1.38,1.99,2.82,4.44,2.89,6.72,.1,3.51,1.96,4.77,4.56,4.2,4.42-.98,9.36-1.84,12.8-4.44,4.67-3.53,8.29-8.52,12.06-13.13,3.36-4.12,12.87-9.51,18.12-9.58Z"/></g></g></svg>