<?xml version="1.0" encoding="UTF-8"?><svg xmlns="http://www.w3.org/2000/svg" viewBox="0 0 59.9 31.65"><g id="a"/><g id="b"><g id="c"><path d="M34.75,26.9c2.93,.42,6.29,.67,8.72,.25-.08-.25,0-.38,0-.75v.79c-.5,.34-.67,.55-1.09,.55-.75-.13-1.93-.25-2.77,.21h0c-.25,.71,1.26,1.84,2.1,2.18,.92,.29,1.59,.25,1.59,0v.04c1.43-.92,1.68-.34,2.85-.42,2.77-.08,5.03-.12,7.21-.63,2.26-.5,2.51-1.93,3.52-2.26,1-.46,2.85-1.17,3.02-2.18,.09-1.21-1.51-1.43-2.85-1.21-.34,.5-1.43,1.13-2.6,1.26-3.1,0-6.37-1.38-8.3-4.19-3.69-3.9-3.27-3.44-8.46-6.29-.09-.08-.25-.12-.33-.21-.67-3.56-3.1-11.77-5.03-13.74-.67-.5-1.09-.38-.75,.59,1.59,9.76-.84,10.52-1.68,10.02,.25,.42,.5,.71,.67,.96-1.09-.25-1.93-.46-2.26-.5-4.27-.84-7.04-.84-9.05-.8-.33-1.3-2.01-2.56-3.44-3.06-.25,.5,1.59,2.05,.25,2.51,.59,.21,.5,.38,.59,.63-1.76,.21-3.02,1.38-4.02,.84C9.45,7.41,5.34,3.47,.02,4.27c-.17,.38,1.05,.33,1.3,.96,0,.42,.04,.84,.33,1.38,.25-.67,.5-1.13,.92-1.17,2.51,2.35,4.94,7.63,7.21,8.88-1.09,.88-1.26,1.47-1.43,3.48-.08,1.97-1.42,2.43-.92,2.93,3.94-.96,4.02-6.12,5.45-6.29,1.17,.04,3.6,.88,4.95,1.64-.5,.5-1.59,.63-2.6,.13,1.09,1.17,.33,2.39-.42,2.72,1,.42,2.68-.12,3.52-.96,.25-.33,.92-.38,1.26-.29,.08,0,.5,.09,.76,.17,.08,0,.08,.04,.08,.04,.09,.08,.17,.21,.25,.29,.08,.8-.17,1.97-1.43,1.17-.5-.25-.92-.21-1.26,0,.92,2.52-1.17,2.26-3.02,2.73,2.68,.59,6.03,0,7.63-1.17,.59,0,1.34,.34,1.59,.04,.42,.92,2.6,3.52,6.7,5.03-.59,.5-2.09,.55-2.52,.46-1.34,2.31-7.21,5.07-8.8,5.07,4.19,.96,14.25-3.14,15.17-4.61Zm5.95,1.34c.34,.08,.67,.17,1.01,.25-.33-.08-.67-.17-1.01-.25Zm-22.79-12.07c.17,.04,.25,.13,.5,.25-.17-.08-.34-.17-.5-.25Z"/></g></g></svg>