<?xml version="1.0" encoding="UTF-8"?><svg xmlns="http://www.w3.org/2000/svg" viewBox="0 0 207.54 95.15"><g id="a"/><g id="b"><g id="c"><path d="M99.74,27.16c-5.93-1.63-11.87-3.26-18.33-5.04,5.87-6.92,11.28-13.75,17.21-20.1,3.15-3.38,5.76-2.39,7.32,2.03,.39,1.09,.77,2.23,.87,3.38,.57,6.68,3.62,11.95,9.87,16.13-2.77,2.04-5.01,3.7-7.39,5.45,15.61,4.49,30.83,8.87,47.19,13.58-1.42-1.84-2.04-2.65-2.67-3.47,3.88-3.54,8.65-4.61,10.04-1.94,.7,1.36-.9,3.91-1.53,6.18,5.65,3.56,11.76,3.06,16.96-2.23,7.08-7.2,13.95-14.63,23.33-18.99,1-.46,2.11-.68,4.95-1.57-9.1,22.47-9.71,44.09-.41,65.71-.58,.36-1.15,.73-1.73,1.09-3.53-1.8-7.48-3.09-10.5-5.52-5.01-4.05-9.62-8.66-14.04-13.37-4.53-4.83-10.22-5.73-16.04-4.76-5,.83-9.8,2.99-14.6,4.79-.89,.33-1.36,1.76-2.72,3.64,4.39-.7,7.82-1.25,11.72-1.88-1.64,3.98-2.95,7.49-4.52,10.89-1.44,3.12-3.75,1.92-5.8,.72-1.82-1.07-3.53-2.32-5.22-3.59-3.56-2.7-7.16-2.13-11.25-1.05-7.04,1.85-14.28,2.92-21.44,4.32-2.24,.44-4.48,.91-6.66,2.11,2.88,.45,5.9,.51,8.59,1.49,1.84,.67,3.88,2.32,4.62,4.05,.63,1.47,.09,4.83-.91,5.32-1.75,.84-4.77,.91-6.34-.11-3.71-2.4-6.65-5.99-10.35-8.4-2.43-1.58-5.62-2.55-8.54-2.72-17.08-1.01-34.29-.76-51.24-2.77-14.63-1.73-27.93-8.2-40.18-18.08H14.02c.03-4.7-3.28-7.38-7.19-9.86-5.26-3.34-5.19-4.01,.22-7.14,23.15-13.39,48.33-18.18,74.77-17.61,5.87,.13,11.73,.51,17.6,.77l.32-1.42ZM36.71,63.77c1.75,2.45,2.39,3.66,3.32,4.59,6.33,6.32,20.47,8.44,28.41,4.15,1.33-.72,2.23-2.23,3.33-3.37-1.33-1.07-2.58-2.95-3.99-3.08-9.8-.93-19.63-1.49-31.08-2.29Zm-10.57-15.24c-2.99-2.01-4.56-3.88-6.09-3.86-1.24,.02-3.36,2.29-3.41,3.62-.05,1.27,2.01,3.6,3.27,3.69,1.53,.11,3.18-1.65,6.23-3.45Z"/></g></g></svg>