<?xml version="1.0" encoding="UTF-8"?><svg xmlns="http://www.w3.org/2000/svg" viewBox="0 0 34.48 45.99"><g id="a"/><g id="b"><g id="c"><path d="M32.4,37.4c.21-.25,.38-.42,.17-.42-.34-.04-1.05,0-1.59,0-.25-.17-.34-.42-.92-.46-.08-.17-.21-.29-.38-.29-.21,0-.92-.08-1.38-.17-.09-.12-.17-.25-.17-.29,0-.08-.08-.13-.21-.13,.09-.21,.25-.38-.21-.29-.63,.08-.92-.17-1.05-.38-.13-.17-.5-.29-.8-.5,0-.04-.04-.08-.04-.13-.09-.04-.21-.12-.25-.17-.17-.12-.25-.29-.5-.29-.25-.04-.63-1.05-.55-1.26,0-.08,.13-.13,.17-.13h.04c.17,.04,.34,.21,.59,.59,.38,.59,.67,.54,.88,.54,.25,0,.38,.17,.55,.34,.12,.13,.29,.59,.75,.59s0-.34-.38-.75c-.08-.09-.17-.17-.21-.25,.04,0,.08,0,.13-.04,.42-.17-.09-.38-.21-.59-.08-.17-.13-.29-.13-.42,.21,.13,.42,.42,.63,.67,.29,.34,.88,.38,1.26,.46,.38,.04,.8,.75,.88,1,.13,.21,.25,.71,.5,.34,.21-.38-.55-1.21-.71-1.42-.17-.21-.5-.34-.46-.59,.04-.21-.29-.54-.29-.54-.34-.63,.04-.08,.88-.42,.84-.29,.71-.34,1-.8,.29-.46-.75-.29-1.43-.21-.42,0-.88,.08-1.3,.12,0-.17,.25-.29,.59-.29s.8-.42,1-.67c.21-.25-.08-.42-.46-.29-.42,.12-1.59,.5-1.59,.5-.5,0-.84,.25-1.01,.55,.09-.25,.21-.5,.21-.5,.25-.34-.09-1,0-1.63,.08-.42,.46-.96,.46-.96,0,0-.08-.17-.29-.67-.04-.17-.09-.46-.12-.75h0c-.04-.54-.04-1.13-.09-1.17-.25-.21-.17-.75-.17-.75,0,0-.42-.59-.5-.63-.38-.21-.38-.55-.55-.59-.25-.04-.59-.29-.59-.29-.25-.04-.21,.17-.63,.08,0,0-.04,.04-.08,.04h.04c-.12,.04-.29,.29-.42,.42h0s-.25,.21-.38,.5c-.17,.29-.38,.59-.5,.46,0,0-.09-.04-.12-.09h.04c.55-.08,.09-.92-.38-1.26,0,0-.04-.08-.13-.21,.25-.17,.5-.34,.84-.59,.42-.25-.08-.17-.38-.04-.04,0-.09,.04-.13,.04,.21-.21,.5-.5,0-.25-.12,.08-.42,.25-.59,.38-.21-.42-.42-.92-.34-1.26,.13-.63,.13-.84-.21-1.34-.38-.46,.38-1.05,.67-.5,.29,.59-.21,1.38,.21,1.93,.38,.54,.84,1.17,.63,.25-.21-.88-.04-.67,.21-.12,.29,.54,.5,1,1.17,1,.5-.04-.25-.59-.67-1.05,.34-.13,.21-.34,0-.46-.13-.12-.21-.25-.21-.38,.17-.25,.34-.46,0-.84-.13-.13-.34-.25-.5-.42,.13-.04,.46-.29-.08-.63-.63-.42-.3-1.01,.5-.5,.12,.13,.29,.29,.42,.25,.08,.13,.13,.25,.13,.25,.08,.08,.46,1.51,.67,1.97,.25,.46,.71,.8,.88,.63,.17-.17,.25-.34,.38-.21,.17,.09,0-.5,.25-.21,.29,.25,.67,.67,1.13,.88,0,0,.59,.5,.67,.88,.08,.42,.29,1.43,.63,.92,.25-.46-.42-2.09-.67-2.3-.21-.21-1.09-.92-.96-1.43,.17-.5-.8-.59-1.17-.92-.29-.29-.38-.96,.08-1.09,.17,.08,.38,.21,.5,.46,.17,.34,.34,.21,.42,.09,.17,.34,.17,.71,.25,.88,.17,.29,.67,1.26,1.47,.63,0,0,.25-.54,.55-.17,0,0,.79,.21,1-.29,.21-.46,.29-.25,.55-.21,.25,.04,.75-.04,.88-.38,.17-.34,.34-.46,.63-.46,.25,.04,.5-.46-.08-.5-.46,0-2.01,0-3.1-.25,.13-.04,.3-.17,.3-.25,.08-.21,.46-.17,.59-.29,.12-.13,.5-.25,.75-.5,.25-.21-.34-.34-.59-.17-.21,.17-1.13,.08-1.59,.08-.42-.08-2.52-.08-3.27-.08-.79-.04-2.22,.46-2.22,.46-.5,.34-1.59,.42-1.84,.42h-.04s-.08-.08-.12-.04c-.21,.08-.46-.04-.71-.17-.34-.17-.5-.04-.71,0-.17,.08-.34,0-.59-.08,.08-.12,.25-.34,.5-.55,.12-.13,.42-.25,.21-.33-.25-.04-.8,.38-1.05,.59-.12,.13-.25,.21-.29,.25-.17,0-.25-.12-.25-.12-.13-.29-.13-.04-.38,.04-.25,.08-.63-.13-.63-.13-.12-.34-.21-.08-.34-.08-.08,0-.29-.08-.42-.17,.13-.21,.67-.63,.8-.75,.17-.13,.46-.25,.21-.29-.13-.04-.42,.08-.67,.25,.13-.17,.25-.29,.29-.33,.17-.25-.25-.04-.54,.21-.25,.17-.67,.55-.8,.67-.17-.08-.42-.25-.59-.34,0,0-.04-.04-.08-.04,.17-.42,.92-1.05,1.05-1.21,.13-.17,.55-.38,.29-.46-.17-.04-.46,.17-.75,.42,.13-.13,.21-.29,.25-.33,.04-.17,.08-.25-.04-.21-.13,.04-.38,.25-.71,.67-.25,.33-.59,.67-.67,.75-.13-.04-.21-.12-.25-.17-.09,0-.04-.12,0-.29,.04-.17-.21,0-.29,.04-.08,0-.25-.12-.38-.25-.13-.13-.04-.29,.08-.42,.08-.12-.17,0-.25,0-.12-.04-.17-.08-.29-.29-.08-.21,.17-.29,.21-.42,.04-.13-.25-.04-.38-.08-.13-.08-.21-.84-.21-1-.04-.21,.08-.25,.17-.38,.13-.12-.12-.08-.21-.17-.08-.08,0-.67,0-1,.04-.21,.12-.8,.21-1.26h0s.04-.04,.04-.04l.04,.04v-.04c.12-.12,.42-.25,.42-.25h0s.04,.04,.04,.04l-.04-.04c.04-.17,.29-.42,.29-.42l.04,.04s-.04,0-.04-.04c.04-.13,.21-.34,.21-.46l.04,.04s-.04-.04-.04-.04h0c0-.08,.08-.42,.08-.55h.04s-.04,0-.04-.04h0s-.04-.04-.08-.12l.04-.04h0c.12,.08,.25-.04,.38,.63,.12,.67-.17,1.09-.25,1.26-.12,.17-.75,.88-.04,1.59,.71,.67,.5,.21,.71-.46,.21-.63,.13-.75-.08-1.09-.21-.34-.13-.46-.13-.8,.04-.29-.04-.71,.13-.92,.59-.13,.54,.59,.5,.88-.04,.29,.12,.92,.42,.88,.25-.04,.67,.04,.96,.75,.33,.71,.63,.63,.46,.17-.13-.42-.17-1.13-.08-1.34,.04-.21,.29-.63-.34-1.05-.67-.38,.08-.42,.38-.34,.33,.04,.71,.04,.63,.92-.08,.84,.21,1.01,.96,1.13,.75,.17,.96,1.05,.96,1.05,.59,1.17,1.17,.71,.84,.25-.29-.46-.21-.59-.21-1.55-.04-.96-.34-.46-1.09-1.21-.75-.76,1.09-.25,1.17-.04,.08,.42,1.05,.96,1.47,.42,.55-.71,0-.67-.8-.96-.8-.33-2.35-.42-3.14-.42-.8-.04-2.81-.13-3.39-.25,0,0-.04,0-.04,.04h0c-.34-.54-.75-.46-.92-.46-.21,0-.5-.17-.59-.25-.08-.08-.25-.34-.25-.42,0-.04-.08-.09,.13-.34,.04,0,.08,0,.12-.04v-.04c.34-.34,.54-.8,.59-.92,.04-.17,.21-.3,.38-.34,.13-.04,.25,.08,.42,.25,.13,.13,.29,.21,.42,.08,.12-.17-.08-.38-.25-.5-.17-.17-.34-.04-.46,0-.13,.04-.21,0-.21-.13,.04-.13,.25-.63,.46-.8,.17-.13,.46-.25,.63-.21,.17,.04,.25,.17,.38,.29,.08,.13,.29,.29,.5,.25,.17-.04,.08-.34-.12-.55-.21-.25-.5-.17-.59-.13-.12,0-.46,0-.5-.04-.04-.04,.17-.25,.29-.34,.13-.08,.29-.5,.46-.88,.21-.38,.75-.63,.88-.67,.13,0,.75,.29,.84-.04,.08-.34-.5-.46-.88-.34-.42,.13-.84,.71-.92,.92-.08,.25-.5,.96-.71,1.09-.17,.08-.08-.21,.04-.42,.08-.25,.34-.38,.42-.71,.08-.29-.25,0-.5,.21-.21,.25-.17,.67-.21,.96,0,.29-.25,.54-.5,.88-.29,.38-.33,.8-.46,1.17-.12,.29-.33,.5-.5,.67h-.04s-.08,.04-.08,.08c-.08,.13-.46,.17-.5,.08-.09-.08-.17-.34-.04-.46,.04-.04,.04-.08,.04-.08v-.08c.08-.13,.25-.38,.54-.55,.29-.17,.46-.04,.55-.17,.08-.13,.04-.21-.08-.21s-.34,.13-.25-.08c.08-.21,.17-.42,.38-.54,.21-.13,.59-.46,.55-.59,0-.12-.13-.12-.29-.08-.21,.08-.46,.38-.55,.63-.08,.25-.25,.63-.38,.75-.12,.08-.29,.34-.29,.17,0-.12,.25-.59,.34-.8,.08-.21,.5-1.09,.54-1.17,.04-.08,.21-.25,.42-.38,.17-.09,.38-.04,.55-.17,.12-.13,.29-.29,.25-.38-.04-.08-.21-.17-.42-.08-.21,.08-.25,.29-.38,.42-.17,.12-.34,.38-.34,.21,0-.13,.09-.55,.25-.8,.17-.29,.34-.5,.46-.59,.12-.08,.5-.04,.63-.13,.08-.04,.59-.25,.54-.42-.08-.17-.29-.17-.5-.13-.21,.04-.54,.38-.71,.5-.13,.12-.46,.42-.63,.84-.17,.38-.25,.84-.34,.96-.08,.17-.63,1.43-.71,1.51-.04,.13-.17,.25-.21,.09,0-.17-.04-.46-.04-.67,.04-.21,.13-.42,.21-.55,.12-.08,.59-.63,.38-.88-.12-.17-.71,.29-.67,.92,0,.5-.04,.71-.13,.92-.04,.17,0,.34,.08,.59,.04,.21,0,.59-.04,.75h-.04s-.04,.04-.04,.08c.04,.08-.04,.17-.08,.25-.04,.08-.08,.04-.12-.12,0-.04-.04-.04-.04-.08q0-.08-.04-.08v-.04c-.08-.12-.17-.71-.25-.92-.04-.17-.08-.33,.04-.63,.08-.25,.29-.21,.33-.42,.04-.21,0-.42-.08-.54-.13-.12-.59,.34-.67,.59-.13,.29,.04,.59,.13,.71,.08,.13,.21,.71,.21,.8,0,.13,.04,.42,.13,.55h-.04s0,.04,.08,.08c.08,.04,.08,.25,.08,.29-.04,.13-.25,.29-.33,.38-.08,.04-.25,.13-.34,.13s-.29,.08-.46,.04c-.17,0-.29-.17-.34-.25-.04-.04,.04-.08,.12-.13v-.04c.04-.08,.08-.13,.13-.21,.04-.04,.17-.21,.29-.21,.17-.04,.25,.12,.46,.08,.13,0,.34-.17-.04-.38-.13-.08-.29-.08-.55,.12-.21,.21-.25,.34-.38,.46h-.04c-.08,.13-.17,.04-.21,.04-.04-.04-.08-.13,0-.25l.04-.04h0s.12-.21,.29-.34c.13-.13,.29-.08,.38-.17,.13-.08,.04-.12,.08-.25,.04-.08,.29-.17,.29-.29,0-.08-.17-.04-.34,0-.17,.04-.17,0-.21-.04-.04-.08-.08-.08-.25,0-.13,.13-.08,.42-.08,.54s-.29,.5-.29,.5v.04c-.09,.08-.17,0-.17-.04v-.08c.08-.04,0-.34-.04-.46-.04-.17,0-.25,.08-.29,.08-.08,.13-.21,.04-.29-.04-.12,.17-.21,.09-.33-.09-.13-.38,.17-.46,.38-.08,.21,.08,.59,.17,.71,.04,.08,.04,.21,.04,.29-.04,0-.04,.08-.08,.13,0,.04-.08,.12-.13,.34-.04,.04-.04,.08-.08,.12h0s-.17-.12-.29-.34c-.12-.21-.12-.38-.25-.42-.12-.04-.12-.21-.17-.29-.04-.08-.21-.42-.21-.25,0,.12-.17,.25-.33,.21s-.46-.09-.46,.04-.21,.33-.34,.38c-.12,.04-.12,.34-.21,.42-.13,.08-.13,.17,0,.17,.17,.04,.8,.5,.88,.67,.04,.08,0,.13-.08,.17-.63,.08-2.14,.04-2.72,0-.63-.04-2.64-.21-3.31-.55-.17-.04-.5-.38-.75-.5-.25-.08-.21,.59-.17,.8,.04,.17,.13,.33,.13,.33,0,0-.17,.21-.21,.38-.08,.17,.42,.21,.59,.25,.17,0,.29,.08,.5,.46,.04,0,.04,.04,.08,.04v.04s.29,.59,.25,.8c-.08,.21-.25,.92-.04,1.13,.21,.25,.21,0,.21-.17-.04-.17-.17-.29-.13-.5,.04-.17,.08-.38,.17-.13,.12,.25,.38,.67,.38,.88,0,.17,.34,.59,.46,.71,.13,.13,.54,.29,.46-.04-.12-.34-.63-.54-.8-.84-.12-.29-.38-.67-.29-.71,.04-.08,.34,0,.5,.13,.17,.17,.38,.46,.59,.29,.21-.13,.08-.25,.04-.29-.08-.08-.67-.25-.76-.29-.08-.04-.33-.04-.5-.25-.12-.17-.34-.38-.17-.38s.42,.17,.54,.04c.09-.17-.04-.21-.17-.25-.13,0-.59,0-.67-.21v-.04c0-.08,.17-.13,.25-.21,.13-.13,.29-.04,.42,0,.08,.08,.42,0,.59,0s3.9,.46,4.11,.54c.13,.09,.29,.25,.25,.38,0,.04-.04,.08,0,.12,0,0,0,.04-.04,.08,0,0-.08,.46-.29,.67-.21,.21-.29,.25-.46,.29-.12,0-.54,.25-.59,.42-.04,.21,0,.25,.13,.12,.08-.08,.13-.21,.25-.29,.13-.08,.34-.21,.21,0-.17,.21-.38,.54-.54,.75-.21,.21-.5,.59-.42,.84,.04,.25,.21,.29,.38,.17,.17-.17,.25-.5,.29-.71,0-.17,.04-.42,.17-.63,.12-.21,.25-.34,.29-.29,0,.04,.13,.29,.08,.5-.08,.21-.29,.42-.21,.67,.04,.21,.17,.34,.29,.17,.13-.21,.17-.5,.13-.67-.04-.17-.17-.59-.13-.75,.04-.13,.13-.33,.21-.42,.04-.08,.25-.42,.29-.25,.04,.17,.04,.59,0,.84,0,.21,0,.46-.08,.55-.04,.12-.21,.75-.13,.96,.04,.21,.25,.34,.34,.04,.08-.29-.12-.46-.08-.67,0-.21,.08-.54,.12-.29,.08,.25,.21,.63,.25,.84,0,.25,.25,.84,.46,1.05,.21,.21,.42,0,.42-.13,0-.08-.12-.29-.29-.46-.17-.12-.38-.38-.42-.55-.08-.17-.34-.84-.13-.59,.25,.21,.34,.25,.38,.42,.09,.12,.17,.29,.25,.17,.13-.08,.17-.17,.29-.12,.17,0,.34-.04,.38-.13,.04-.08-.08-.21-.13-.25-.08-.04-.17-.21-.25-.25-.04-.08-.13-.08-.21-.04-.08,.08-.17,.12-.34,.12-.12,0-.33,0-.38-.21-.08-.21-.04-.29-.04-.42-.04-.13-.17-.25-.08-.38,.04-.13,0-.21,.12-.08,.13,.12,.46,.46,.75,.38,.25-.04,.34-.13,.34-.21,0-.04-.08-.21-.21-.25-.13-.04-.25,0-.34-.08-.08-.12-.08-.21-.17-.21-.12,.04-.38,.25-.5,.09-.08-.21-.21-.63-.17-.8,.04,0,.04-.04,.04-.04,0,0,0-.08,.04-.12,.12-.08,.21-.29,.38-.29s.38,.08,.8,.46c.38,.38,.75-.08,1.01-.08,.21,.04,.54,.5,.67,.75,.13,.21,.38,.17,.46,.21,.13,.04,.25,.13,.33,.5,.13,.38-.12,1.05-.29,1.3-.04,.08-.08,.17-.13,.29-.21,.21-.71,.5-1.13,.63-.5,.21-1.59,.88-2.1,1.47-.46,.63-.25,.67,.12,.34,.38-.34,1.34-1.01,1.84-1.21,.46-.21,1.01-.34,1.13-.46,0,.08,.08,.13,.08,.17,.08,.08-.08,.29-.29,.63-.25,.17-1.21,.96-1.38,1.05-.21,.08-1.63,1.26-1.68,1.72-.04,.5,.92-.59,1.26-.8,.29-.21,1.34-.96,1.51-1.09,.04,.04,.04,.29-.13,.42-.13,.12-.17,.29-.25,.5-.04,.25-.42,.71-.59,.92-.17,.25-.5,.42-.59,.54t0,.08c-.46,.34-1.88,1.17-2.56,1.68-.71,.5-2.01,1.76-2.56,4.32-.59,2.56,.67,1.84,.67,1.26-.08-.55-.17-2.77,.29-1.26,0,0-.04,.88,.08,1.42-.04,.55-.08,1.13-.17,1.59-.21,.92-.34,1.38,.04,1.84,.42,.46,.67,1.09,.67,1.09,.25-.29,.42-.88,.17-1.63-.29-.8-.46-1.3-.34-1.72,.17-.42,.63-.21,.67,.92,.08,1.13,.8,1.43,1.21,1.59,.29,.13,.5,.25,.67,.46-.29,.25-.46,.46-.55,.59-.38,.38-.42,2.05,.08,1.8,.29-.13,.59-.84,.84-1.43,.04,.17,.09,.29,.17,.42-.08,.21-.12,.42-.12,.59,0,0-.75,1.34-.29,1.93,.46,.59,.63,.88,1.38-.08,0,0,.29-1.13,.04-1.68-.25-.59,.08-1.97,.42-1.34,.34,.59-.25,1.59,.34,2.31,.59,.75,.84,1.01,1.05,1.42,.17,.46,1.05,1.13,.59,.13-.42-1.05-.75-1.13,.04-1.09,.8,.04,.42-.67,.04-1.63-.38-1.17-2.05-1.97-1.3-3.14,.25-.38,.46-.63,.63-.75,.13,.21,.21,.34,.21,.63,0,.34-.29,1.26,.13,1.51,.17,.09,.42,.13,.67,.17,.13,.21,.29,.38,.5,.46,.13,.04,.25,.04,.34,.13,.17,.29,.25,.71,.21,1.38,0,.84,.33,1.05,.38,.25,.04-.34,.08-.59,.08-.8,.08,.13,.13,.25,.17,.42,.34,1.13,.38,1.76,1.01,1.84,0,0,.67,0-.55-2.09-1.22-2.09-.13-1.68,.17-2.01,.25-.34,.38-.84-.13-1.26-.54-.42-2.01-.96-1.93-2.01,.13-1.05,.5-1.68,.75-1.8,.04,0,.08-.04,.17-.12,.13-.17,.08-.42,.17-.59,.12-.17,.25-.67,.42-.63h.04c-.13,.46-.67,2.18-.55,2.34,.17,.17,.75-1.68,1.01-2.39,.12-.04,.21-.04,.21-.04,.04-.04,.13-.04,.21-.08,0,.13,0,.46-.17,.71-.21,.29-.63,2.01-.63,2.26,0,.29,.04,.96,.42,.04,.38-.92,.34-1.72,.63-2.26,.17-.38,.38-.59,.46-.71,.21,.04,.38,.08,.42,.08,.04,0,.08,.04,.17,.04-.04,.21-.29,1.05-.46,1.38-.21,.38-.46,1.97-.38,2.18,.13,.21,.5-.46,.63-.84,.08-.34,.46-2.09,.92-2.68h.17c.08,0,.17,0,.25,.04-.08,.46-.46,1.38-.63,1.89-.13,.63-.08,1.72,.08,1.47,.21-.29,.25-1.38,.46-1.93,.17-.34,.5-.92,.67-1.17,.08,.08,.17,.12,.17,.17,.04,.08,.09,.25,.09,.25h.04v.04s0,.13,.08,.25c-.08,.29-.29,.88-.55,1.26-.29,.46-.88,1.72-.63,2.09,.25,.34,.59-.96,.71-1.26,.13-.29,.59-1.05,.8-1.3,.08,.29,.13,.71,.08,1.09v.13c-.17,.25-.38,.75-.59,.96-.25,.33-.84,1.3-.71,1.55,.12,.25,.63-.75,.79-1.01,.17-.25,.55-.54,.71-.67,.04,.13,.04,.17,.04,.17,0,.04,.04,.12,.04,.17-.04,.09-.04,.17,0,.21,.08,.17,.17,.08,.08,.42-.04,.17,0,.25,.04,.34,0,.46-.08,.88-.46,1.38-.38,.54-1,.88-.71,1.21,0,0-.34,.59-.63,.96-.29,.38-.8,.59-1.13,.88-.33,.34-.96,2.3-.75,3.1,.08,.34,.34,.34,.59,.17-.17,.46-.3,.96-.46,1.51-.55,1.76,.42,1.05,.42,1.05,.8-.59,1.38-1.93,1.55-2.22,.13-.29,.04-.25-.12-.46-.17-.21-.3-.5-.3-1,.04-.5,.42,.17,.34,.42-.08,.21,.25,.71,.25,1.01-.04,.34,.5,.17,.88,.67,.34,.55,1.43,2.85,1.72,3.23,.29,.34,.67,.13,.38-.33-.29-.46-.54-1.51-.71-2.18-.17-.67-.92-1.8-.71-2.35,.25-.54-.13-1.17-.46-1.47-.29-.3-.5-1.51,.04-1.84,.55-.34,.71,1.13,.92,1.8,.17,.67,.71,1.47,1.17,1.38,.42-.09-.17-1.17-.55-2.01-.34-.8-.67-1.09-.96-1.47-.33-.33-.42-.5-.21-.38,.21,.13,.29-.08,.29-.75,0-.55,.08-.59,.21-.92h.04c.12-.21,.29-.46,.38-.29,.04,.13,0,.38,.25,0,.25-.42,.5-.29,.5-.17s.13,.46,.29,0c0,0,.63-.25,.84,0,.25,.25-.17,.71,.38,.42,0,0,.21,.17,.13,.29-.04,.13,.25,0-.08,.63-.25,.46,.13,.63,.42,.8,.25,.17,.21,.46,.25,.67,0,.21,.13,.25-.12,.54-.25,.29-.12,.8,.08,1,.21,.21,.46,.17,.42,.46,0,0-.17,.34,.29,.42,0,0,.04,.21,.17,.34,0,0-.17,.29-.08,.38,.08,.08,.29,0,.13,.25-.21,.21-.21,.96,.5,1.05,.67,.08,.55-.09,.59,.21,0,.08-.25,.25,.12,.34,.13,0,.21,.21,.21,.34,.04,.13,.13,.46,.25,.63,.17,.12,0,.38,.21,.54,.21,.13,.21,.75,.29,.96,.13,.17,.13,.54,.17,.75,0,.17-.04,.42,.08,.5,0,0,.08,.71,.12,.92,.08,.5-.34,.75,0,.88,.08,.13,0,.34,.04,.67,0,.34,.08,.71,.12,.84,0,.13-.08,.55,.08,.5,0,0,.21,1.13,.63,1.55,.38,.42,.21-.42,.04-.67-.17-.25-.17-.46-.17-.54,.13,.08,.25,.17,.29,.38,0,.13,.04,.21,.08,.29-.08,.29,0,.55,.21,.67,.46,.21,.29,.88,.88,.8,.46-.08,.59,.38,.71,.54,.12,.17,.8,.29,.25-.5-.08-.13-.25-.34-.38-.55,.29,.13,.5,.63,.63,.84,.12,.25,.42,.34,.46,0,.08-.29-.55-.96-.75-1.17-.17-.08-.21-.29-.3-.54,.04,.08,.13,.17,.17,.21,.34,.33,.59-.04,.75-.29,.13-.29,.63,.04,.8,.13,.13,.13,.13,.38,.67,.54,.59,.21,.25-.54-.13-.8-.38-.21-.96-.92-.96-.92-.12-.46,.38-.29,.5-.04,.17,.25,.34,.12,.25-.21-.04-.13-.29-.42-.59-.63,.08-.04,.25,0,.29,.12,.08,.17,.25,.5,.96,.59,.71,.13,.59-.12,.25-.46-.25-.25-.84-.71-1.26-1.09-.08-.25-.25-.5-.29-.71-.13-.42,.63,.55,.63,.55,.88,.59,1.89,.38,2.18,.29,.17-.09,.84-.5,0-.8-2.01-.71-2.14-1.09-2.68-1.34-.54-.25-.17-.25-.17-.63,0-.21-.12-.25-.33-.21v-.13c-.04-.5,.59,.29,.79,.5,.17,.21,.55,.96,1.38,1.17,.59,.13,.25-.34,0-.67,.46,.25,.92,.42,.71,.04-.25-.5-.5-.34-.8-.75,1.26,.46,2.35,.08,2.43,.04,.12-.08,.34,0,.25-.38-.04-.29-1.13-.54-2.05-.67Zm-6.41-5.87v.13c-.08,0-.13,.04-.17,.04,.04-.04,.12-.13,.17-.17ZM6.84,17.92s.17-.13,.42-.29c-.29,.25-.59,.55-.92,.8-.17,.13-.34,.29-.46,.46,.08-.46,.38-.84,.96-.96Zm-2.31,3.39c-.42-1.42,.42-2.6,1.01-2.01-.46,.63-.8,1.34-1.01,2.01Zm3.31,7.5c-.09-.13-.17-.21-.21-.33,.08-.21,.17-.34,.25-.34h.25c-.08,.21-.21,.46-.29,.67Zm4.44-9.01s.04,0,.04-.04c0,.04,.04,.04,.04,.09,0,.17-.04,.5-.17,.67-.13,.21-.25,.84-.29,.96,0,.08-.33,.5-.38,.59,0,.04,0,.13,.04,.21-.13,.21-.13,.42-.34,.84-.17,.42-.8,1.68-1.43,2.14-.38,.29-1.38,1.26-2.22,2.09,.42-1.09,0-1.97-.5-2.39-.46-.34-1.38-1.17-1.84-1.64l.71-1.38c.04,.21,.12,.34,.12,.34,1.38,.84,1.05,1.3,1.51,1.55,.38,.21,.08-.42-.17-.88,.25,.04,.5,.21,.75,.79,.38,.84,.71,1.22,.71,1.22,.42,0,.25-.67-.59-1.64-.8-1-.21-1.68-.21-1.68,.04-.71-.54-1-1.17-1.63l1.3-2.56c.17-.12,.34-.29,.5-.42,.04,.04,.17-.08,.29-.17,.04,0,.08-.04,.13-.04,.04,.17,.04,.42-.13,.76-.21,.5-.5,1.68-.54,2.3-.04,.67,.08,1,.42-.17,.34-1.17,.54-2.26,.96-2.77,.13,.08,.25,.17,.46,.46t.04,.08c-.08,.29-.5,2.47-.75,3.1-.29,.71-.54,1.76-.21,1.3,.34-.46,1.26-3.44,1.42-4.06v-.17c.09,0,.21-.34,.42-.42,.25-.12,.46,.25,.5,.71,0,.04,0,.08,.04,.12h0c-.04,.12-1.38,3.6-1,4.02,.25,.34,.92-2.85,1.3-3.56,.13,.12,.25,.21,.25,.29,.08,.17,0,.5-.04,.8h0l-.04,.04c-.08,.08-.17,.17-.17,.21,0,.08,.08,0,.21-.08Zm3.52,13.07c0-.09,0-.17-.04-.29,0,0,.13-.8,.46-.42-.13,.21-.29,.46-.42,.71Zm1.76-2.89l-.55,1.13s-.08,.13-.12,.21c0-.13,0-.25-.04-.34-.13-.42,.38-1.09,.75-1.17,0,.04-.04,.08-.04,.17Zm3.14-7.08c-.21,0-.29-.34-.25-.55,.13-.38-.5-.46-.34-1.05,.08-.34,.13-.46,.08-.84-.04-.21,0-.5,0-.75h0s.04-.67,.04-.88,.13-.54,.17-.71c.04-.17,.25-.21,.34-.13,0,.04,.08,.04,.13,.04h0c.21,.29,.21,.54,0,1.38-.21,.88-.59,1.47-.42,2.31,.17,.84,.42,1.3,.63,.54,.21-.63,.29-.08,.46,.38-.21,.17-.46,.38-.59,.46-.04-.13-.13-.21-.25-.21Zm1.13,1.13c-.25-.08-.34-.21-.34-.34,0-.08-.21-.04-.34-.08,.04-.04,.34-.25,.55-.46,.08,.34,.21,.71,.38,.96-.08-.04-.21-.08-.25-.08Zm1.59-.46h0v0Zm1.01,8.29c.13-.04,.21-.21,.21-.38,.13,.13,.42,.34,.63,.38-.25,.09-.46,.13-.63,.17,0,0-.04-.04-.08,0-.13,.13-.34-.12-.13-.17Zm1.59,5.41c.04-.25,.38-.04,.46,.04,0,0,.09-.04,.09-.08,.13,.08,.21,.33,.25,.54,.04,.25,.12,.92,.42,1.05,.17,.13,.3,.25,.42,.42-.25-.08-.46-.21-.63-.29,.04-.13,0-.21-.09-.25-.25-.08-.54-.08-.79-.42,0,0-.17-.75-.13-1.01Zm1.26,5.87c-.17,.08-.34-.08-.5-.21v-.04c-.17-.17-.46-.67-.38-1.3,0,0,0-.42,.17-.38,.04,.04,.08,0,.08,0,.21,0,.34-.04,.42,.71,.13,.84,.59,.88,.79,.84,.25,0,.29,.12,.29,.33v.08c-.29-.21-.71-.13-.88-.04Zm.46-2.01c-.5-.29-.8-.25-1.09-.25,0,0-.04,0-.04-.04-.25-.17-.3-.17-.3-.5s-.08-1.09,.04-1.09c.17,0,.29,.21,.42,.21,0,0,.04-.04,.08-.08,.25,.17,.25,.33,.42,1.05,.21,.75,.5,.5,.46,.25-.04-.21,.08-.34,.29-.13,.25,.21,.17,.5,.38,.25,.17-.17,.42,.29,.67,.71-.42,0-.88-.04-1.34-.38Zm.55-1.63c0-.25,.12-.12,.25,.04-.08,0-.17,0-.25-.04Zm.79-1.17c-.5,.09-1.05-.17-1.47-.59-.34-.38-.67-.67-.92-.88,.04-.08,0-.21-.04-.25-.25-.08-.63,.25-.84-.5-.21-.75-.25-.71-.42-1.01-.17-.25,.08-.25,.25-.08,0,.04,.04,.04,.04,.04,.21,.17,.38,.29,.59,.34,.21,0,.8,.79,.84,1.26,.08,.42,.29,.59,.55,.71,.25,.08-.04,.21,.54,.59,.63,.34,.04-.46,.04-.46-.34-.75,.71,.29,.88,.5,.08,.04,.21,.21,.29,.29-.08,0-.21,.04-.34,.04Z"/></g></g></svg>