<?xml version="1.0" encoding="UTF-8"?><svg xmlns="http://www.w3.org/2000/svg" viewBox="0 0 31.75 34.04"><g id="a"/><g id="b"><g id="c"><path d="M29.15,10.36c-.25-.08-.92,.12-1.59,.29-.8,.17-2.18,1.13-2.68,1.55-.5,.38-1.17,.59-2.05,.96-.88,.38-1.55,.08-1.72,0-.21-.08-3.14-1.22-3.14-1.22-.46-.33-1.72-.54-2.47-.63h.29v-.04h.08s1.63-3.52,2.01-3.94c.34-.42,2.56-3.48,3.31-3.81,.76-.38,1.13-.75,1.97-.84,0,0-.92-.17-1.8,.21-.46,.21-1.21,.88-1.88,1.55,.5-.71,.96-1.34,1.21-1.63,1-1.34,1.72-1.51,1.72-1.51-2.18,.42-2.1,.92-2.43,1.09-.34,.17-2.47,3.52-2.85,3.9-.33,.38-3.06,5.03-3.06,5.03l.96-.04s0,.04,.04,.04h-.08c-.42,0-.97,.04-1.59,.08,.33-.08,.71-.12,.71-.12,0,0,2.43-4.99,2.6-5.41,.17-.46,2.01-3.73,3.23-4.61C21.19,.34,22.44,0,22.44,0c-.21-.04-1.34,.17-2.64,.59-1.3,.38-2.43,2.47-2.68,2.81-.21,.34-3.9,7.37-4.23,8.05h-.17s.08-.04,.08-.04c0-.46,.25-2.56,.25-2.56,0-1.34,1.3-4.44,1.84-5.49,.59-1.09,1.13-1.8,1.13-1.8-1.63,.5-1.38,.8-1.89,1.13-.5,.38-1.09,2.68-1.38,3.14-.29,.46-1.05,5.53-1.05,5.62,.08,0,.38,.04,.67,.04-.88,.04-1.68,.13-1.97,.13-.46,0-1.17,.25-1.64,.42-.17,.04-.33,.08-.5,.17-.5,.13-2.34,1.51-2.68,1.89-.12,.13-.46,.46-.88,.88h0s.08-.13,.12-.17c-.12,.13-.25-.13-.38-.25-.04-.04-.17,.04-.25,0-.04-.04-.08-.13-.17-.13-.21-.04-.38,.04-.54-.12-.08-.04-.17,.08-.29,.12-.08,.04-.21,0-.29-.04,0-.04-.04,0-.04,0-.13,.21-.38,.17-.59,.25-.13,.04-.33,.13-.21,.21,.08,.08,.25,.04,.34,.04,.21,.04,.42,.04,.59,.13,.13,.04,.21,.17,.29,.29,.04,.08,.21,.08,.25,.21,.04,.04,.04,.17,.09,.21,.08,.04,.08,.13,.12,.17,.08-.08,.17-.13,.21-.21v.04c-.42,.42-.8,.8-.92,.92-.38,.38-2.26,2.09-2.47,2.26-.25,.12-.21,.59-.33,.8-.09,.17-.46,.08-.04,.84,.42,.76,2.3,1.13,3.06,1.09h.34c0,.09,.04,.13,.04,.17,.08,.13-.04,.21-.13,.29-.04,0,0,.08,0,.13,.17,.25,.25,.59,.08,.84-.04,.04,.08,.08,.12,.21,.04,.08-.12,.08-.21,.12v.08c.08,.08,.21,.04,.29,.13,.13,.08,.21,.21,.25,.38,.12-.04,.04-.21,.12-.29,.08-.04,.17-.04,.21-.13,.08-.08-.09-.08-.09-.13,.04-.08,.17-.17,.09-.21-.09-.08-.17-.12-.09-.25,.04-.08,.17-.08,.25-.13,.04,0,.04-.04,.04-.08-.04-.08-.17-.12-.17-.17-.08-.12,.12-.21,.12-.34,0-.17-.25-.29-.12-.5h0c.21,.08,.38,.12,.54,.21,.17,.09,1.09,.09,2.05,.04v0c1.13,0,2.39-.04,2.72-.13h.25c.29,.38,.67,1.17,.55,2.18-.21,1.55-.25,2.97-.67,4.31,0,0-.5,1.26,1.13,2.51,0,0-.38-.63-.21-1.34,.17-.71,.38-2.31,.42-2.98,.04-.34,.08-1.09,.08-1.89,.21,.76,.54,1.84,.54,2.89,0,0-.38,3.1-.42,3.56-.04,.46-.17,2.26,.29,2.6,.42,.38,.92,.29,.92,.29,0,0-.25-.21-.29-.96-.04-.75-.08-2.43,.08-3.23,.17-.84,.13-3.14-.04-4.11-.13-.96-.63-2.64-1.3-3.56-.12-.17-.25-.38-.37-.5,.13-.04,.25-.08,.37-.12,.04,.04,.04,.12,.09,.17,.29,.84,1.09,2.35,1.34,2.68,.25,.29,1.38,4.32,1.34,4.78-.04,.5,.04,1.89,.84,2.01,0,0,.8,.21,.88,.12,0,0-.42-.12-.8-1.68-.37-1.55-.84-4.32-.96-4.73-.17-.42-1.26-2.52-1.72-3.02-.13-.08-.33-.29-.54-.5h.08c.5,.38,1,.84,1.47,1.17,.08,.09,.12,.17,.17,.21,.33,.59,2.98,4.69,3.1,5.07,.13,.38,1.84,3.23,3.35,3.44,0,0-1.59-1.47-1.93-2.64,0,0-1.17-3.1-1.34-3.31-.08-.08-.29-.33-.59-.67,1.38,.96,3.02,2.14,3.27,2.22,.42,.17,2.81,1.68,3.27,2.14,.46,.46,2.09,1.93,2.18,1.97,.08,.04-1.38-1.76-1.8-2.22-.46-.5-3.77-3.06-4.86-3.77-.59-.34-2.05-1.17-3.35-1.97-.17-.13-.25-.25-.33-.33-.13-.13-.38-.38-.71-.63,1.13,.42,4.19,1.68,4.9,2.01,.84,.42,7.21,3.1,7.96,3.31,.75,.21,2.81,1.09,2.89,1.34,0,0,.29-.84-1.3-1.59-1.59-.8-8.51-3.31-8.88-3.48-.13-.04-.59-.25-1.26-.5,.09,.04,.17,.04,.25,.04,2.81,.42,6.95,.55,7.54,.55,.63,.04,3.56-.12,3.94-.08,.33,.08,1.42,.42,1.59,.59,0,0-.54-.88-1.42-1.17-.92-.34-4.23-.38-4.86-.38s-4.11,.21-4.86,0c-.75-.17-4.11-.67-5.49-1.43-.34-.21-.71-.38-1.09-.55,0-.04,.04-.04,.04-.04,.42,.17,.83,.29,1.17,.33,1.34,.25,6.41,.76,8.42,.63,1.97-.17,3.77-.08,4.4,.13,.59,.17,1.51,.5,1.68,.71,0,0-.92-1.22-1.22-1.38-.25-.17-.25-.29-1.88-.38h-1.68c.25-.17,.5-.33,.54-.42,.09-.17,.46-.5,.59-1.05h.13c.71,.12,1.3,.71,1.3,.71-.04-.08-.84-1.13-1.3-1.42-.04-.04-.09-.09-.17-.09-.04-.25-.17-.5-.33-.8-1.01-1.55-2.35-.92-2.89-.88-.09,.04-.21,.04-.34,.04,.21-.09,.34-.13,.34-.13-.21-.04-.97,.08-1.21,.08-.09,0-.21-.04-.42-.04,1.01-.63,1.72-.84,1.72-.84,1.72-.38,2.68,.38,3.06,.5,.38,.17,1.72,1.01,3.02,1.3,1.34,.34,1.51-.13,1.59-.17,.09-.04,.38-.42,.67-.92,.25-.29,.33-.46,.42-.63,.13-.17,.21-.38,.33-.54,.63-1.09,.25-1.8-.12-2.68-.5-1.26-1.84-2.31-2.14-2.39Zm-11.4,8.67c.12,0,.29-.08,.5-.17,.13,.13,.29,.25,.42,.38-.59,.08-1.21,.21-1.93,.34-.29,.04-.54,.08-.8,.08,.67-.17,1.8-.63,1.8-.63Zm1.93,1.68c-.38,0-2.85-.12-3.81-.17-.42-.04-1.09-.08-1.8-.17,.04,0,.08-.04,.08-.04,.46,.04,.88,.04,1.17,.08,.96,0,3.1-.25,3.77-.42,.08,0,.17-.04,.29-.04,.29,.29,.54,.55,.71,.75h-.42Z"/></g></g></svg>