<?xml version="1.0" encoding="UTF-8"?><svg xmlns="http://www.w3.org/2000/svg" viewBox="0 0 39.67 29.52"><g id="a"/><g id="b"><g id="c"><path d="M16.41,25.36c.75,.8,1.59,1.68,2.39,2.35-.08-.08-.17-.13-.17-.13,0,0-.17,0-.04,.21,.08,.21,.34,.42,.46,.42s.17-.12,.13-.17c0,0-.08-.08-.17-.17,.17,.17,.38,.29,.5,.42-.04-.04-.08-.08-.08-.08,0,0-.25,.04-.08,.25,.13,.21,.34,.38,.5,.38s.13-.21,.08-.25c0,0-.04-.04-.12-.08,.29,.17,.54,.34,.75,.38,.42,.08,1.13,.29,1.93,.38-.13-.04-.25-.04-.25-.04-.08-.04-.17,.17,.08,.25,.21,.08,.75,.08,.79-.04,.09-.08,0-.13,0-.13h.29s-.12,.08,.04,.17c.13,.08,.63,.04,.75-.04,.08-.13-.04-.21-.04-.21,0,0-.04,0-.12,.04,.34-.08,.59-.17,.8-.29l.04-.04c.04,.13,.63-.04,.67-.29,0-.12-.04-.17-.12-.12,.04-.08,.12-.13,.17-.17-.04,.04,.12,.17,.29,.04,.17-.17,.25-.25,.25-.42s-.08-.13-.17-.13h0s.08-.13,.12-.17h0c.04,.17,.13,.17,.25,.04,.17-.08,.17-.21,.21-.42,0-.17-.09-.25-.17-.25,0-.04,0-.13,.04-.17h0c.04,.08,.17,.04,.21-.08,.08-.08,.08-.29,.08-.42-.04-.17-.17-.25-.25-.21-.04-.34-.12-.67-.33-1.05,0-.08-.04-.12-.08-.21,.08,.17,.17,.25,.17,.25,.34,.04,.17-.46,.04-.63-.13-.21-.38-.04-.38-.04,0-.17-.42-.25-.34-.25,.09,.04,.17,.21,.3,.38-.38-.54-.71-.5-.67-.92,0-.04,.04-.08,.04-.08,.08-.04,.33-.04,.88,.04,.04,.08,.08,.17,.13,.25,.17,.29,.84,.42,1.17,.38,.25-.04,.38-.3,.42-.38,.08-.04,.21-.08,.29-.04,0,.04-.09,.25,.08,.34,.13,.13,.92,.38,1.26,.04,.38-.29,.21-.29,.21-.29h-.09c.25-.13,.29-.13,.46-.04-.04,0-.13,0-.13-.04,0,0,0,.34,.34,.42,.34,.08,.84,.08,.88-.34,0,0-.04,.08-.25,.08,.08,0,.17-.04,.21-.04,.17-.12,.13-.17,.25-.08h-.04s-.04,.25,.25,.34c.25,.08,.8-.04,.92-.21,.13-.17,.08-.21,.08-.21h-.04s.04,0,.04-.04c.17-.09,.29-.09,.34-.04h-.17s.04,.25,.38,.25c.38-.04,.71-.17,.75-.29,.04-.12,.04-.25,.04-.25,0,0-.04,.04-.12,.08,.17-.12,.25-.08,.38-.08h-.04s0,.25,.42,.21c.42-.04,.75-.13,.8-.34,.08-.17,.04-.25,.04-.25,0,0-.13,.13-.34,.17-.08,.04-.25,.08-.42,.13,.29-.08,.63-.17,.71-.25,.12-.17,0-.21,.25-.21,0,.04,.04,.25,.38,.21,.34,0,.75-.13,.88-.34,.12-.21,0-.33,0-.33,0,0-.08,.08-.25,.17,.08-.04,.17-.08,.17-.13q.08-.08,.25-.13s.21-.04,.42-.12c-.17,.08-.29,.12-.34,.12,0,0-.04,.25,.25,.17,.34-.08,.71-.29,.71-.46s-.08-.21-.08-.21c0,0-.04,.04-.13,.13,.04-.04,.08-.08,.13-.17,.08-.25,.21-.25,.25-.25h0s.13,.29,.38,.08c.25-.25,.33-.46,.29-.63-.04-.17-.17-.21-.17-.21,.04-.08,.08-.21,.17-.38l-.08,.25s.25,.04,.38-.29c.13-.34,.04-.5-.04-.5,0,0-.04,.04-.08,.13,.08-.21,.17-.46,.25-.71-.04,.08-.04,.21-.08,.25,0,0,.25,0,.33-.25,.04-.21,.04-.38,0-.5-.04-.08-.12-.08-.17-.13,.04-.17,.04-.38,.04-.59,0-.25-.04-.5-.08-.71,0,0,.04-.04,.08-.13,.12-.33-.21-1.13-.29-.84-.04,.04-.04,.08-.08,.12,0-.04-.04-.12-.08-.17l.04-.04c.12-.33-.25-1.09-.34-.75-.04,.04-.04,.09-.04,.13,0-.04-.04-.08-.08-.13,.04,0,.04-.04,.04-.04,.04-.55-.67-.88-.63-.59h0s-.08-.04-.13-.04v-.04c-.04-.29-.55-.5-.59-.38-.04,0-.12-.04-.21-.08,.04,0,.04-.04,.04-.08-.04-.13-.71-.21-.63-.04t.08,.08c-.17,0-.34-.04-.5,0,.04-.04,.08-.08,.04-.08-.08-.21-.63-.09-.54,.13-.13,.04-.3,.08-.46,.12,.08-.04,.12-.04,.12-.08,.04-.04-.08-.09-.21-.04-.13,.08-.29,.17-.17,.25,0,0,.04-.04,.13-.08-.13,.08-.25,.17-.33,.25v-.04c0-.08-.38,.13-.25,.25l.08-.09c-.04,.09-.08,.13-.13,.21-.59,.88-.54,2.05,.59,2.09,.42,.04,.67-.21,.79-.5,.04,.04,.04,0,.08,0,.08-.08,.08-.34,.04-.34,0-.08,0-.13-.04-.21,.08-.08-.04-.38-.12-.38-.04-.08-.13-.17-.21-.21,0,0,.8-.34,1.17,.25,.42,.63,.88,2.81-.92,3.6-1.76,.75-3.85-.42-4.4-.88-.59-.46-2.43-1.89-1.05-3.27,1.43-1.38,3.44-1.84,5.2-2.18,1.63-.29,3.77-1.21,4.02-2.97v.08c.12,0,.21-.17,.21-.34s-.13-.34-.17-.25v.04c0-.13,0-.3-.04-.46v.04c.17,.13,.21-.21,.21-.42-.04-.21-.21-.25-.25-.21l.04,.25c-.04-.25-.08-.55-.17-.75l.08,.17s.13-.13,.08-.34c-.04-.17-.21-.21-.25-.17-.08-.13-.13-.21-.17-.29l.04,.04c.08-.42-.38-.5-.38-.5h.04c-.08-.08-.17-.17-.25-.21,0-.29-.34-.38-.46-.34-.33-.21-.8-.34-1.3-.46-1.05-.21-2.26,.67-2.64,1.68-.55,1.34,.21,3.48,2.51,2.43,0,0,.34-.34,.42-.8,.04,0,.04,.04,.04,.04,.13,.04,.13-.5,0-.42v.04c0-.08-.04-.13-.04-.21h0c.08-.08-.13-.42-.21-.34h0s-.04-.04-.08-.08c-1.01-1-1.84,.17-1.84,.17,0,0,.17-1.34,1.09-1.34,.92-.04,1.34,.08,1.59,.46,.25,.42,.71,1.72,.13,2.26-.54,.54-1.13,.5-1.59,.54-.5,.04-2.1-.13-3.35,.17-1.22,.34-1.72,.29-2.01,.08h0c.08,0,1-.13,1.76-.88,.67-.67,1.51-1.8,1.34-3.18v.04c.08,0,.13-.17,.08-.34-.04-.21-.17-.17-.17-.17v.04s0-.12-.04-.17c-.04-.13-.04-.21-.08-.29,0,0,.04-.17-.08-.38-.08-.21-.29-.21-.29-.21,.04,.04,.09,.12,.13,.17-.13-.17-.29-.29-.46-.42,0,0,0-.17-.17-.25-.21-.12-.42,0-.42,0,.25,.08,.42,.17,.5,.21-.5-.25-1.09-.25-1.43-.21h.04c.04-.12-.04-.21-.29-.08-.29,.08-.25,.17-.25,.17,.04,0,.12-.04,.21-.04-.5,.13-2.18,.67-2.18,.67,0,0-.29-3.39-2.47-4.44-2.18-1.05-4.48-1.93-7.92,1.17h0s0-.25-.17-.17l-.04,.04s-.04-.08-.08-.13h0c.12,.04,.04-.21-.08-.29-.17-.08-.25,.04-.25,.04h.04c-.12-.04-.25-.09-.42-.13,.08,0,.17,.04,.25,.08,0,0,.08-.04,.04-.13-.04-.04-.25-.08-.46-.08-.21,.04-.04,.12-.04,.12h.12c-.12,0-.29,0-.42,.04-1.05,.29-2.05,1.38-2.3,2.93-.21,1.22,.29,1.89,.54,2.14,.04,0,.09,.04,.09,.08,.04,0,.04,.04,.04,.04,0,0,0,.04-.04,.13-.04,.04-.13,.17-.21,.29-.08,.13-.21,.29-.34,.42-.08,.04-.17,.08-.21,.12-.04,.04-.12,.08-.17,.08-.09,.04-.13,.04-.21,.08-.08,.04-.21,.08-.29,.08-.08,.04-.17,.08-.25,.08-.08,.04-.12,.09-.21,.09-.34,.08-.71,.13-1.22,.08-.29-.04-.63-.08-.96-.13l-.04-.04h-.21l-.09-.04h-.08l-.08-.04h-.17c-.5-.08-1.05-.17-1.47-.21-.84-.04-1.26-.34-1.43-.25-.21,.08-.29-.17-.46-.08-.17,.04-.13-.29-.46-.42,0,0-.33-.75,.42-1.26,.29-.21,.5-.25,.67-.29h.13s0,.04,.04,.04h.04c.08,.04,.13,.08,.13,.08h-.17c-.29,.08-.88,.25-.84,.63,0,.25,.21,.34,.42,.38,.08,.04,.12,.04,.21,.04h.21s.67,.63,1.17,.13c.04-.04,.04-.08,.08-.13h0v-.04h0c.12-.29-.13-.63-.13-.63,0,0,.42-.75-.17-1.26,0,0,.04,0,.04-.08s-.17-.17-.29-.17c-.08-.04-.17,0-.13,.04,.08,0,.17,.04,.25,.13-.17-.13-.34-.17-.5-.25,.13-.12-.21-.17-.29-.17s-.08,.04-.08,.08c-.59-.04-1.3,.04-2.22,.21-.08,.04-.17,.08-.29,.08h0c.08,0,.59-.12,.59-.12,0,0,.08-.09-.04-.13-.13-.04-.38,.04-.46,.13-.08,.04-.13,.12-.08,.12-.13,.04-.25,.08-.34,.12-.04-.25-.54,.08-.67,.17-.13,.08-.13,.21-.13,.21,.09-.04,.17-.13,.29-.17-.25,.13-.42,.25-.63,.42h.04s0-.12-.12-.12c-.08,0-.38,.34-.42,.46-.04,.13,.04,.17,.08,.13-.13,.21-.21,.42-.29,.63,0-.12,.04-.17,.04-.17,0,0,.04-.12-.08-.12-.13,.04-.25,.34-.25,.54,0,.12,.12,.21,.17,.17,0,.13-.04,.25,0,.38l-.04-.04s-.08-.12-.17,.04c-.04,.21,.04,.5,.08,.63,.04,.12,.17-.04,.17-.04,0-.04,0-.08-.04-.13,.08,.42,.25,.92,.46,1.34-.04-.08-.08-.13-.08-.17,0-.08-.17,.04-.17,.17,.04,.13,.13,.38,.29,.42,.17,.04,.13-.08,.13-.08,0,0,0-.04-.04-.13,.09,.13,.17,.25,.25,.38h0c-.08-.04-.21,0-.17,.13,.04,.13,.21,.29,.29,.34,.12,.04,.17-.08,.17-.13l-.04-.04s.13,.08,.17,.17c-.04-.04-.13,.04-.09,.17,.09,.13,.29,.25,.38,.21,.13,0,.08-.13,.08-.13,.13,.04,.21,.08,.34,.13-.08,0-.13-.04-.13-.04,0,0-.12,.04-.08,.12,.04,.13,.29,.21,.42,.17,.17,0,.17-.13,.13-.17,1.38,.29,2.35,.42,2.35,1.05,0,.67-.17,1.17-1.05,1.64-.88,.46-1.93,1.17-1.93,1.17,0,0-.59-.08-1.17-.04-.55,.04-1.93,.17-3.06,1.72-1.13,1.55-.59,2.72,.04,3.1,.17,.12,.34,.25,.55,.38,0,0-.08,0-.08,.13,.04,.08,.29,.25,.42,.25,.17,0,.08-.12,.08-.17,.09,.04,.17,.08,.25,.08h0s-.17,.04-.12,.17c.08,.08,.34,.17,.5,.13,.17,0,.17-.13,.13-.17,.08,0,.17,.04,.25,.04h0c-.09,0-.13,.13,0,.21,.08,.08,.25,.08,.46,.04,.17-.04,.13-.12,.04-.21h.34s-.13,.08-.04,.17c.08,.13,.38,.08,.55,.04,.17-.04,.08-.17,.04-.21h1s-.04,.04,.04,.13c.08,.08,.46,.08,.5,0,.04-.08,0-.13,0-.17h.17c-.04,.13,.08,.25,.38,.21,.29,0,.29-.12,.21-.25h.17s.08,.17,.29,.21c.25,0,.46-.13,.5-.25,0,0-.13-.12-.21-.12h-.04s.04,0,.04-.04c0,0,.88,.42,.67,1.8-.21,1.68-.59,1.89-1.09,2.47-.5,.55-.84,1.01-1.26,1.38-.42,.42-1.13,.38-1.51,.04-.33-.29-1-.84-.75-2.56v-.13s.04-.04,.04-.08v-.08l.04-.04v-.08s.04-.04,.04-.08h0s.04-.12,.08-.17h0s.04-.04,.04-.04v-.04l.04-.04h0l.04-.04v-.04s.04,0,.04-.04h0s.08-.04,.13-.08h0l.04-.04h0l.04-.04h.04v-.04h.09s0-.04,.04-.04h.04l.04-.04h.12v-.04h.17v.08c-.08,0-.17,.13-.12,.17v.04h-.04c-.08-.04-.21,.25-.08,.25v.12c-.13,0-.17,.25-.04,.29v.08h0c-.17,.04-.08,.38,.04,.38,0,0,0,.04,.04,.09h-.04c-.13,.04,0,.38,.13,.34,0,.04,.04,.08,.04,.08h0c-.21,.12,.04,.42,.21,.34h0s.04,.04,.04,.08h0c-.04,.13,.34,.34,.42,.21h0c.08,0,.21,0,.34-.04,.8-.25,1.05-1.22,.88-1.97-.13-.54-.25-.88-.67-1.13,0,0,.17-.13,.5-.17,.29-.04,.59,.21,.75,.54,.21,.34,.5,.34,.12-.38-.38-.71-1.09-.59-1.09-.59h-.21s-.04,0-.04,.04h-.13s-.04,0-.04,.04h-.08l-.04,.04h0c-.17,.08-.29,.17-.29,.17h0l-.04-.04h-.04s-.04,0-.04-.04h-.08s-.04,0-.04-.04h-.21v-.04h-.54s0,.04-.04,.04h-.21s-.04,.04-.04,.04h-.08s-.04,.04-.04,.04h-.08s-.04,.04-.08,.04h-.04l-.04,.04h-.04s-.08,.04-.12,.04c-.12,.08-.25,.17-.38,.25,0-.13-.5,.17-.34,.29l.04-.04c-.04,.08-.13,.17-.21,.25-.08-.08-.42,.34-.25,.42-.04,.04-.04,.12-.08,.17v-.04c-.08-.12-.38,.34-.17,.42-.04,.08-.08,.17-.08,.25-.21-.17-.42,.71-.21,.75,0,.08,0,.17-.04,.25v-.04c-.25-.09-.38,.84,0,.75h0c0,.08,0,.21,.04,.29-.21,.04-.04,1.05,.17,.84,0,.12,.04,.21,.08,.33h-.04c-.21,.13,.17,.88,.38,.8h.04c.04,.08,.08,.17,.12,.25h0c-.08,.08,.08,.67,.42,.63,.04,0,.08-.04,.08-.04,.04,.04,.08,.04,.13,.08,.04,.04,.12,.13,.17,.17-.04,0-.17,.04-.09,.17,.09,.13,.42,.34,.63,.38,.17,.04,.21-.09,.21-.13,.08,.04,.21,.08,.34,.08-.04,.04-.08,.08,0,.17,.08,.13,.54,.17,.75,.13,.13-.04,.13-.09,.08-.13,.21,0,.38-.04,.55-.04,.04,0,.04,.04,.13,.08,.12,0,.34-.08,.42-.17,.04-.04,.04-.09,.04-.09,.13-.04,.21-.08,.34-.12,0,0-.04,.08,.12,.12,.25,0,.46-.25,.46-.34,0-.12-.13-.12-.13-.12v.04s.13-.13,.17-.17c.59-.5,1.38-1.22,2.09-1.93,0,.04-.04,.13,.08,.13s.46-.29,.5-.42c.04-.12-.12-.12-.12-.12l-.29,.29c.84-.84,1.68-1.72,2.05-2.39,0,0,.25-.46,1.13-.25,.88,.21,2.56,.71,4.02,2.31Zm22.25-4.4s0-.08,.04-.13c-.04,.04-.04,.08-.09,.17,0-.04,.04-.04,.04-.04Zm-.08,.13c-.04,.13-.13,.25-.25,.38,.08-.13,.21-.25,.25-.38Zm-6.29,2.81c-.21,.04-.59,.08-.88,0,.17,.04,.59,.04,.88,0Zm-3.52,.13c-.13,0-.21-.04-.25-.04h-.04c.08,0,.17,0,.29,.04Zm-2.14-.25h-.08s-.13-.04-.21-.09c.12,.04,.21,.04,.29,.09ZM8.45,6.17c.59,.17,.34,.42,.17,.34-.13-.08-.29-.08-.42-.04-.13,.04-.08,.21-.08,.21l-.17-.42c.08-.17,.5-.08,.5-.08Zm-4.78-.42s.04-.08,.08-.08c-.04,0-.04,.04-.08,.08Zm1.68,4.73s.08,.04,.13,.04c0,0-.08-.04-.13-.04Zm-3.14,9.43s.13,.04,.17,.04c-.04,0-.08,0-.17-.04Z"/></g></g></svg>