<?xml version="1.0" encoding="UTF-8"?><svg xmlns="http://www.w3.org/2000/svg" viewBox="0 0 41.21 29.39"><g id="a"/><g id="b"><g id="c"><path d="M38.98,11.86c-.38-.04-.59-.38-.71-.71-.08-.29-.08-1.34-1.21-.8,0,0-1.72,.29-2.14-.71-.17-.34-4.61-6.08-7.12-7.25-.13-.04-.25-.08-.38-.17-.17-.08-.34-.17-.5-.25-.04,0-.08-.04-.12-.04C24.6,.79,22.26-.46,16.64,.17c-3.02,.33-6.2,2.14-8.55,3.73l.29-.17c-.17-.67-.42-1.55-.5-2.22-.13,.21-.08,.42-.13,.63-.08,.67,0,1.34,0,2.01l.21-.13c-.34,.25-.67,.46-1.01,.71l.5-.42c-.29-.5-.34-1.34-.71-1.8-.04,0-.13-.08-.13,.04,.09,.75,.21,1.55,.21,2.3-1.21,.88-2.01,1.63-2.14,1.76,0,0-1.72,1.59-2.22,2.43-.46,.79-1.26,2.3-1.34,2.81,0,0-.54,1.43-.75,1.64-.25,.25-.71,.59,0,.96,.67,.38,1.05,.42,.38,1.09-.63,.63,.08,.92,.33,.92,.21,.04,1.01,.17,1.42,.88-.54,.38-1.51,.92-2.01,1.3-.13,.04-.17,.17-.17,.29,.75-.08,1.72-.71,2.47-1.09,.17,.29,.42,.71,.71,1.13-.08,.17-.17,.34-.21,.54l-.04-.84c-.54,.67-1.51,1.34-1.93,2.14,.04,0,.13,.04,.17,0,.54-.34,1.26-.88,1.76-1.26-.34,.8-.71,1.8-.75,2.26,.29,0,.34-.29,.46-.5,.29-.38,.71-1.17,1.01-1.64,.25,.34,.46,.67,.71,.96-.34,.67-.84,1.63-1.21,2.26-.04,.08,.04,.13,.08,.13,.55-.38,1.05-1.3,1.51-1.84,.25,.33,.42,.54,.46,.67,.04,.04,.21,.29,.5,.59-.04,.96-.34,2.1-.25,2.98,0,.08,.25,.17,.29,0,.17-.63,.46-1.55,.75-2.18,.21,.21,.5,.42,.8,.67,.34,.92,.8,2.56,1.17,2.85,.04-.59-.29-1.59-.46-2.26,.34,.25,.71,.5,1.09,.75,.29,.71,.67,1.63,.96,2.22,.04,0,.21,.08,.17-.04-.04-.34-.25-1.13-.38-1.72,.46,.25,.92,.46,1.38,.63,.55,.84,1.13,2.01,1.72,2.64,.13-.25-.08-.46-.12-.67-.17-.38-.46-1.13-.71-1.68,.38,.13,.75,.21,1.13,.25,.13,.04,.21,.04,.34,.04,.54,.63,1.09,1.8,1.8,2.22-.21-.63-.8-1.47-1.09-2.14,.5,.08,1.01,.12,1.51,.17,.42,.63,.96,1.64,1.47,2.18,0,.04,.08,0,.17,0-.09-.59-.5-1.51-.75-2.14,.46,.04,.88,.04,1.34,0,.54,.5,1.63,1.64,2.01,1.68-.21-.5-.8-1.17-1.26-1.72,.63-.04,1.26-.12,1.89-.25,.75,.55,1.59,1.34,2.35,1.63-.21-.54-.76-.84-1.09-1.3-.08-.08-.29-.34-.42-.55,.55-.13,1.13-.33,1.72-.54,.71,.54,1.55,1.43,2.31,1.84,.04,0,0-.08,.04-.13-.38-.63-1.26-1.34-1.63-2.01,.5-.21,1.05-.5,1.59-.8,.88,.38,2.01,1.09,2.81,1.3,.04,0,.08-.08,0-.17-.55-.42-1.51-1.09-2.09-1.51,.25-.17,.54-.34,.84-.5l-.46,.29c.46,.17,1.09,.8,1.63,.75-.25-.42-.88-.67-1.17-1.05,.17-.13,.38-.25,.59-.38,0-.04,.09-.08,.17-.17,.63,.21,1.51,.46,2.05,.63,.12,0,.29,.04,.38-.13-.46-.29-1.38-.63-1.97-.96,.12-.17,.29-.33,.46-.54,.8,.25,1.84,.5,2.64,.59,0-.34-.29-.34-.5-.42-.38-.21-1.21-.5-1.68-.71,.25-.3,.5-.59,.75-.92,.71,.04,1.89,.25,2.47,.17,.13-.04,0-.21-.08-.21-.38-.17-1.3-.34-1.97-.5,.29-.38,.59-.8,.88-1.22,.8,.08,1.93,.21,2.51,.13,0,0,.04-.08,0-.13-.42-.21-1.38-.42-2.14-.54,.09-.13,.21-.3,.29-.42,.67,.12,1.59,.34,1.97,.17-.09-.29-.42-.25-.63-.34-.21-.08-.71-.17-1.09-.25,.17-.29,.38-.63,.5-.92,.75,.08,1.8,.29,2.47,.25,.04-.46-.63-.42-.96-.59-.21-.13-.8-.25-1.17-.38,.08-.17,.13-.34,.21-.46,.63-.04,1.47,0,1.89-.04,0-.04,.04-.17-.09-.17-.34,0-1.13-.08-1.72-.17,.04-.08,.04-.17,.08-.25,0,0,1.8,.08,2.09,.04,.25,0,.8-.08-.08-.38-.55-.12-1.17-.21-1.59-.25l.13-.04c.55,0,1.43-.04,1.55-.08,.17,0,.8,.04,.04-.21,0,0-1.26-.17-.42-.25,0,0,.67-.17-.04-.21,0,0-1.51-.21-1.34-.84,.17-.67,.42-.34,.67-.29,.29,.04,1.76,.55,3.19,2.01,0,0,1.51,1.17,2.14,.25,.59-.92,1.88-1.3,.59-2.47,0,0-1.34-.67-1.68-.75Z"/></g></g></svg>