<?xml version="1.0" encoding="UTF-8"?><svg xmlns="http://www.w3.org/2000/svg" viewBox="0 0 201.37 99.96"><g id="a"/><g id="b"><g id="c"><path d="M140.63,72.46c5.13,.75,9.18,1.35,13.23,1.94l.08,1.39c-3.02,2.51-5.85,5.34-9.18,7.35-1.24,.75-4.31,.22-5.39-.87-2.04-2.05-3.24-4.94-4.98-7.8-10.88,2.18-21.96,4.39-33.05,6.61l.07,.61c4.52,.65,9.21,.78,13.48,2.17,2.14,.7,3.52,3.7,5.52,5.96-3.67,3.03-7.05,5.89-10.51,8.64-2.65,2.11-5.51,2.08-7.36-.78-2.58-4.01-5.13-8.18-6.75-12.62-1.23-3.4-2.86-4.1-6.15-4.01-17.83,.52-35.52-.71-53.59-4.88,8.39-7.96,14.4-16.36,8.91-28.04-.67-1.42-2.42-2.34-3.66-3.5l-1.02,.87c.34,1.24,.47,2.6,1.06,3.71,3.81,7.17-.1,12.9-4.43,17.47-4.45,4.7-10.5,6.29-17.37,3.73-6.62-2.46-13.03-4.85-17.61-10.61-2.63-3.32-2.6-6.75,.29-9.36,3.36-3.04,7.41-5.31,11.17-7.9,13.64-9.39,29.52-12.24,45.31-14.9,7.8-1.31,15.86-1.05,23.81-1.46,1.71-.09,3.43-.01,5.15-.01l.08-1.25c-6.98-1.02-13.95-2.04-21.28-3.12,2.92-7.27,6.06-13.98,11.93-18.99,4.47-3.81,7.01-3.78,11.3,.12,4.3,3.9,8.56,7.85,12.85,11.77,4.64,4.24,4.66,4.67-.05,8.65-1.01,.86-2.2,1.5-3.3,2.24l.59,1.35c3.77,.89,7.54,1.74,11.3,2.66,16.13,3.97,32.25,7.94,48.38,11.94,4.78,1.18,9.03,.11,13.4-2.09,7.41-3.73,15.05-7.03,22.7-10.27,1.41-.6,3.98-.67,4.82,.19,.86,.88,.76,3.39,.21,4.85-1.7,4.5-3.61,8.96-5.84,13.23-2.61,5-2.56,9.85-.3,14.84,2.12,4.69,4.42,9.31,6.33,14.08,1.53,3.84,.06,5.85-3.76,4.57-7.04-2.37-14.52-4.54-20.52-8.69-12.09-8.36-23.25-3.82-35.86,.18ZM58.48,54.66l-.53,2.15c1.54,1.36,3.59,2.45,4.49,4.14,.91,1.71,.5,4.07,1.06,6.03,.17,.62,1.56,1.08,2.46,1.27,8.85,1.83,21.33-5.97,23.97-15.42-11.01-4.23-20.76,4.7-31.44,1.83Zm-38.47,3.64c.76,0,1.53,0,2.29,.01,1.23-1.75,3.27-3.41,3.49-5.28,.3-2.56-.84-5.36-4.4-5.13-3.04,.2-5.29,1.91-4.73,5.07,.34,1.91,2.18,3.56,3.34,5.33Z"/></g></g></svg>