<?xml version="1.0" encoding="UTF-8"?><svg xmlns="http://www.w3.org/2000/svg" viewBox="0 0 201.42 120.19"><g id="a"/><g id="b"><g id="c"><g><path d="M197.94,40.68c1.14-5.77,2.27-11.54,3.48-17.69-6.39-.43-11.03,2.46-15.23,6.35-3.65,3.39-7.11,6.99-10.85,10.27-5.43,4.77-17.4,6.01-22.55,2.54,1.21-.84,2.43-1.65,3.62-2.52,3.36-2.44,5.77-5.89,4.11-9.78-1.02-2.4-4.16-4.78-6.79-5.44-6.73-1.69-13.67-2.89-20.6-3.41-8.89-.67-16.53-4.21-23.97-8.56-6.4-3.74-12.46-8.24-19.22-11.1-4.42-1.87-9.55-1.84-14.72,.49-3.31,1.5-5.51,3.5-7.79,5.92-1.84,1.95-3.91,3.69-6.03,5.66,12.47,1.42,23.98,1.81,35.04,4.26,11.12,2.47,22.09,6.3,31.19,13.86-1.52,0-2.99-.23-4.22-.89-22.03-11.67-45.37-12.87-69.38-8.78-10.37,1.77-19.45,6.79-28.08,12.37-7.25,4.67-13.92,10.26-20.69,15.63-3,2.38-3.77,4.49,.61,7.03,4.48,2.6,8.25,6.43,12.78,10.09-6.31,2.89-13.05,1.41-18.62,6.33,2.55,1.29,4.07,2.2,5.69,2.87,14.05,5.81,28.65,9.61,43.77,11.15,3.16,.32,4.22,1.55,4.91,4.34,2.24,9.11,7.48,16.62,13.42,23.64,1.4,1.66,3.42,2.8,6.04,4.9,1.48-8.85,2.75-16.47,3.97-23.76-5.1-2.35-9.63-4.44-14.16-6.53l.33-1.35c19.34,1.22,38.24-.06,55.96-8.77,.68-.34,2.29,.7,3.2,1.43,5.15,4.13,10.1,8.52,15.38,12.47,1.32,.99,3.6,.7,5.43,.99,2.68,1.18,5.37,2.36,8.05,3.54l1.26-1.39c-.85-2.92-1.7-5.84-2.55-8.75,.36-2.28,.44-4.65,1.13-6.83,1.51-4.76-.78-6.56-4.96-7.67-2.04-.54-3.83-2.03-6.65-3.6,2.62-1.13,4.1-1.78,5.58-2.4,8.89-3.71,18.03-3.9,27.33-1.97,6.16,5.93,12.09,12.13,18.62,17.63,2.32,1.96,6.08,2.2,8.35,2.96-.42-11.57-.76-22.25-1.22-32.92-.18-4.19-.63-8.37-.95-12.56Z" style="fill:#fff;"/><path d="M173.14,65.57c-9.3-1.92-18.44-1.74-27.33,1.97-1.49,.62-2.97,1.28-5.58,2.4,2.82,1.57,4.61,3.06,6.65,3.6,4.19,1.11,6.48,2.92,4.96,7.67-.69,2.18-.77,4.55-1.13,6.83-2.25,2.2-4.5,4.41-6.76,6.61-1.84-.3-4.11,0-5.43-.99-5.28-3.95-10.23-8.33-15.38-12.47-.91-.73-2.52-1.76-3.2-1.43-17.71,8.71-36.62,9.99-55.96,8.77l-.33,1.35c4.53,2.09,9.05,4.18,14.16,6.53-1.22,7.29-2.49,14.91-3.97,23.76-2.62-2.09-4.64-3.23-6.04-4.9-5.94-7.03-11.18-14.53-13.42-23.64-.69-2.79-1.76-4.02-4.91-4.34-15.12-1.53-29.71-5.34-43.77-11.15-1.62-.67-3.15-1.58-5.69-2.87,5.58-4.91,12.32-3.43,18.62-6.33-4.53-3.66-8.29-7.49-12.78-10.09-4.38-2.54-3.61-4.65-.61-7.03,6.78-5.37,13.45-10.95,20.69-15.63,8.64-5.57,17.71-10.6,28.08-12.37,24-4.09,47.35-2.88,69.38,8.78,1.24,.66,2.7,.88,4.22,.89-9.1-7.56-20.08-11.4-31.19-13.86-11.05-2.45-22.57-2.84-35.04-4.26,2.12-1.97,4.19-3.71,6.03-5.66,2.28-2.42,4.48-4.43,7.79-5.92,5.17-2.33,10.31-2.36,14.72-.49,6.76,2.86,12.82,7.37,19.22,11.1,7.45,4.35,15.09,7.9,23.97,8.56,6.92,.52,13.87,1.72,20.6,3.41,2.63,.66,5.76,3.04,6.79,5.44,1.66,3.88-.75,7.33-4.11,9.78-1.19,.87-2.41,1.68-3.62,2.52,5.15,3.47,17.12,2.23,22.55-2.54,3.74-3.28,7.2-6.88,10.85-10.27,4.19-3.89,8.83-6.78,15.23-6.35-1.21,6.16-2.35,11.92-3.48,17.69-8.27,8.3-16.53,16.59-24.8,24.89Zm-117.25,1.73c2.86,3.19,6.15,5.47,7.29,8.56,.98,2.64,1.91,3.61,4.41,4.28,8.26,2.22,14.22-1.84,19.48-7.16,4.38-4.43,9.28-7.3,15.41-8.37,1.35-.24,2.5-1.67,3.74-2.55-1.38-.82-2.7-2.21-4.15-2.36-14.79-1.53-29.09,.77-42.96,5.96-1.33,.5-2.54,1.29-3.21,1.65Zm-22.57-21.51c-2.76-1.95-4.4-4.01-5.84-3.87-1.52,.14-2.85,2.37-4.26,3.69,1.38,1.39,2.62,3.66,4.17,3.89,1.38,.21,3.11-1.83,5.92-3.71Z"/><path d="M173.14,65.57c8.27-8.3,16.53-16.59,24.8-24.89,.33,4.19,.77,8.37,.95,12.56,.46,10.67,.8,21.35,1.22,32.92-2.27-.75-6.03-1-8.35-2.96-6.52-5.5-12.45-11.7-18.62-17.63Z"/><path d="M143.95,94.66c2.25-2.2,4.5-4.41,6.76-6.61,.85,2.92,1.7,5.84,2.55,8.75l-1.26,1.39c-2.68-1.18-5.37-2.36-8.05-3.54Z"/><path d="M33.32,45.79c-2.82,1.88-4.54,3.92-5.92,3.71-1.55-.24-2.79-2.51-4.17-3.89" style="fill:#fff;"/></g></g></g></svg>