<?xml version="1.0" encoding="UTF-8"?><svg xmlns="http://www.w3.org/2000/svg" viewBox="0 0 55.51 44.47"><g id="a"/><g id="b"><g id="c"><path d="M48.68,34.49c1.42-1.72,2.18-1.55,3.27-2.01,.59-.21,2.68-1.38,3.35-.42,.17,.13,.25-.13,.17-.34-.25-.42-.92-.71-1.26-.92-1.67-.75-5.28-1.43-6.79-.71v.42c0-.21-.08-.46-.17-.67-.17-.59-.42-1.47-.84-2.47,0,.04,.09,.08,.09,.13,.42,.42,.92,.67,1.43,1.38,.25-.42,.08-1.09-.34-1.68-.33-.55-.67-1.8-.42-1.89-.59-.8-1.51-1.3-2.27-1.84,.17,.46,.42,1.05,.59,1.59-.92-2.26-1.84-4.53-2.26-5.41-.75-1.51-2.43-3.94-4.27-5.53,.25-1.22,1.43-1.84,2.09-2.77-.33,0-.33-.29-.33-.5-.42,.08-.5-.29-.25-.59-.42,.04-.42-.46-.25-.75-.33,0-.5-.92-.17-1.09-.33-.21-.33-.84,0-.96-.25-.04-.17-.5,0-.88-.84-.17-.25-.84-.42-1.43-.42,.42-.84,.25-.75-.34h0v-.04c-.67,.63-.84,.5-.92,.25-.5,.54-1.01,.84-1.01,.46-.5,.42-.67,.54-.75,.17-.5,.29-1.09-.42-.33-1.68-.5,.04-.75-.25-.67-1.13-.5,.5-.84,.13-.67-.8-.42,.75-1,.34-.84-.54-.42,.71-1.09,.59-1-.21-.67,.5-1.26,1.84-1.09-.67-.5,1.01-.84,1.09-1.09,.42-.34,.75-.84,1-1.17,.17-.42,.8-1.34,.75-1.59,0-.59,.71-1.42,.59-1.59-.04-.25,.42-.59,.46-.75,0h0v-.08c-.33,.63-.67,.54-.92-.13-.59,.67-1.51,.42-1.68-.25-.25,.34-.75,.29-.84-.25-.25,.46-.75,.34-.84-.21-.25,.42-.75,.46-.84-.25-.5,1.68-.84,3.86-1.09,5.41-.67,1.51-.67,3.6-.59,5.49-1.26,.13-2.51,1.01-3.44,1.59-.34,.21-.75,.42-1.17,.55-.17,.04-.42,.08-.59,.13-.84,.12-1.68,.17-2.43,.17-1.25,0-2.43-.12-3.18-.08h-.84L.41,12.57c-.54,.04-.54,.25,0,.38l6.7,.84c.92,0,2.43,.29,3.69,.71,.17,.08,.34,.12,.5,.21h0c.34,.08,.59,.21,.75,.29v.04c.08,0,.08,.04,.17,.04,.25,.17,.42,.34,.5,.5v.04c-3.1,.12-4.61,.38-4.78,.46-.33,.08-.92,.5-.84,.8,.17,.17,.08-.21,.92-.21,.92-.12,2.43,.29,4.19,.63,1.93,1.47,2.26,1.89,4.94,1.51l.25-.25c-.25,.84,3.69,.59,5.03,.59,4.77,.38,9.89-2.14,14.33,1.13,.5-.29,.84,3.69,1.17,4.27,.25,.42,.5,.88,.75,1.3h0c.25,.59,.59,1.05,.84,1.09,.17-1.09,.17-2.09,.33-3.31,0-.46,.33-.55,.42-.38,1.01,1.43,1.43,2.1,2.1,3.31v.04c0-.12-.08-.21-.17-.29,.17,1.09,0,1.93,.42,2.85,0-.08,.08-.08,.17,0,.42,.34,1.26,2.18,1.34,2.39,0,.75,.42,1.13,.33,.8-.08-.84-.25-1.59-.17-2.18,.17,.38,.42,.8,.75,1.34,.25,.46,.5,.76,.84,.88h-.09c-.59,2.26,0,7.84,.59,10.18,.17,.5,.34,1.38,.67,1.84,.17,.17,.33-.08,.25-.29-.67-.96,.17-3.98,.17-4.86,0-1.55,.17-3.14,1.17-4.78Zm-6.2-7.88v-.04s0,.13,.08,.17c-.08-.04-.08-.08-.08-.13Zm.75,1.38c.33,.63,.5,1.09,.75,1.51-.25-.5-.5-1.01-.75-1.51Z"/></g></g></svg>