<?xml version="1.0" encoding="UTF-8"?><svg xmlns="http://www.w3.org/2000/svg" viewBox="0 0 229.05 108.35"><g id="a"/><g id="b"><g id="c"><path d="M43.83,66.3C30.24,55.65,13.62,55.04,0,47.27c4.3,.96,8.57,2.18,12.92,2.83,8.35,1.25,16.73,2.48,25.15,3.05,2.65,.18,5.99-1.12,8.08-2.87,8.56-7.17,17.81-9.16,28.78-6.75,15.04,3.31,30.29,5.73,45.49,8.26,3.48,.58,7.14,.09,9.83,.09-16.01-3.6-32.91-6.98-49.55-11.32-8.07-2.1-15.73-5.52-25.43-2.36-.38-8.31-.72-15.99-1.07-23.68,1.08-.63,2.16-1.27,3.24-1.9,.39,1.31,.46,2.86,1.23,3.89,4.47,5.98,10.6,7.52,17.13,3.98,7.19-3.9,14.05-8.4,21.25-12.28,5.28-2.85,10.78-5.37,16.35-7.6,5.76-2.31,16.15,2.39,20.99,7.03,6.68,6.41,8.34,14.49,10.47,22.75,1.39,5.38,3.13,10.85,5.86,15.62,1.48,2.59,5.25,4.95,8.2,5.25,2.21,.22,4.9-2.88,7.1-4.8,1.03-.9,1.43-2.53,2.15-3.91q4.1,3.98,14.69-.37c-.48,1.61-.87,2.94-1.37,4.63,4.61,.32,6.16-1.86,7.36-5.99,2.23-7.71,5.11-15.29,8.35-22.64,1.23-2.78,4.24-4.78,6.54-7.25-1.74,8.07-4,15.52-4.82,23.12-1.06,9.82,4.41,16.79,12.49,21.56,5.47,3.23,11.38,5.72,17.65,8.82-9.3,1.37-18.01,.99-25.92-3.55-11.8-6.77-11.68-6.97-23.18,.52-.53,.34-1.07,.66-1.61,.98,.16,.39,.33,.77,.49,1.16,2.72-1.12,5.42-3.06,8.16-3.12,2.88-.06,5.8,1.69,9.78,3.01-5.36,2.66-13.21,.83-11.26,10.41-2.75-1.09-5.13-1.72-7.18-2.92-5.73-3.35-11.27-3.84-17.52-.96-7.93,3.64-16.22,6.47-24.33,10.28,4.17-.28,8.34-.56,12.62-.85,.89,4.52,1.75,8.92,2.62,13.33l-1.15,1.12c-5.78-3.73-11.49-7.56-17.37-11.12-1.52-.92-3.66-1.6-5.36-1.34-11.63,1.78-23.21,3.83-34.8,5.81-.76,.13-1.5,.44-3.24,.97,8.45,4.3,16.01,8.16,23.58,12.02l-.37,.97c-8.65-2.79-17.29-5.59-25.94-8.38l-.55,.76c6.88,4.41,13.75,8.82,20.63,13.23l-.73,1.6c-26.39-15.84-54.95-26.25-85.8-35.72,4.44-1.6,7.71-3.01,11.12-3.93,3.6-.97,7.32-1.48,12.1-2.4Zm27.27,6.32c3.75,1.73,7.92,2.35,6.14,8.79,11.38-4.66,21.77-8.91,33.44-13.68-14.45-1.95-27.46-2.73-39.58,4.89Zm-15.54-13.98c-2.31-1.62-3.71-3.36-4.97-3.26-1.32,.1-3.28,1.81-3.52,3.09-.19,1.02,1.85,3.51,2.79,3.45,1.6-.1,3.11-1.68,5.7-3.27Z"/></g></g></svg>