<?xml version="1.0" encoding="UTF-8"?><svg xmlns="http://www.w3.org/2000/svg" viewBox="0 0 17.23 40.88"><g id="a"/><g id="b"><g id="c"><path d="M8.94,8.8c.5,.08,1,0,1.42,.12,.33,.13,.5,.63,.92,.71,.25,.08,.67,.08,.92,.17,.92,.34,1.76,.59,2.6,1.09,.25,.13,.25,.38,.42,.55,.17,.12,.42,.12,.59,.08,.42-.12,.5-.54,.84-.8,.25-.17,.34-.5,.5-.8,.17-.33,.08-.84-.42-.92-.42-.08-.84,.17-1.17,.13-.76-.08-1.17-.67-1.76-.96-.17-.08-.42-.08-.5-.21-.17-.33,.25-.59,.17-.92-.08-.25-.42-.46-.33-.71,0-.29,.17-.59,.17-.88-.08-.25-.33-.38-.59-.38-.08,0-.08-.08-.08-.17-.08-.29,0-.71-.33-.88-.09-.04-.17-.04-.25,0-.25,.13-.59,.34-.84,.08-.5-.42-1.17-.92-1.26-1.55,0-.25,.25-.59,.17-.84-.08-.21-.17-.5-.33-.63-.33-.17-.59-.04-.84,0-.5,.08-.59-.5-.84-.84-.17-.17-.34-.34-.59-.21-.17,.04-.09,.42-.25,.38-.17-.04-.25-.17-.42-.21-.25-.08-.42,.21-.59,.38,0,.12,0,.25,.09,.38,0,.04,.08,.12,0,.17-.59,.29-1.93,.21-1.51,1.09-.25,.42-.75,.29-1.09,.38-.42,.12-.42,.5-.59,.75,0,.13-.08,.25-.17,.25-.92,0-1.26,1.01-1.26,1.76-.5,.5-1.34,.96-1.09,1.68,.17,.33,.08,.71-.17,1.01-.09,.21,.08,.46,.17,.67,0,.33-.08,.67-.17,.96-.09,.21-.33,.33-.42,.55-.08,.17-.08,.38,.09,.46,.08,.08,.25,.04,.25,.12,.34,.34,.17,.8,0,1.17-.08,.04-.08,.13,0,.17,.67,.38,.84,1.13,.84,1.84,0,.21,.34,.13,.42,.29,.25,.42,.42,.8,.42,1.26,0,.25,.33,.21,.5,.38,.17,.29,.25,.76,0,1.05-.84-.13-1.76,.04-2.18,.75-.25,.42,.34,.8,.34,1.17,0,.58-.08,1.21,.42,1.67,.17,.08,.17,.29,.17,.46-.17,.97,.25,1.93,1.01,2.56,0,.55,.34,1.01,.67,1.43h.25c.25,.09,.42,.5,.75,.46,.17-.04,.33-.21,.42-.38,.59-.84,.75-2.31,1.93-2.35,.25,0,.33,.29,.42,.54,.08,.17-.17,.29-.25,.42-.16,.25,.08,.42,.17,.63,.09,.17,0,.42-.17,.54-.25,.17-.5,.33-.5,.67,.08,.04,.17,.08,.25,.17v.17c-.17,.25-.33,.5-.67,.59-.17,.04-.34,.25-.25,.38,.17,.17,.17,.34,.08,.5-.17,.25-.5,.25-.67,.5v.13c.08,.12,.25,.21,.17,.38-.09,.46-.42,.71-.75,1.01-.17,.08,0,.38-.09,.54,0,.25-.17,.5-.42,.67-.08,.08-.17,.29-.08,.5,0,.17,.33,.08,.33,.25,.09,.17,.17,.46,.09,.54-.17,.21-.33,.63-.17,.71,.59,.17,.33,.75,.33,1.17,0,.04,.08,0,.08,.08,.17,0,.34,0,.42,.17,.09,.21,0,.38-.08,.54,0,.17,.08,.46,.42,.38,0,0,.08,.04,.08,.08,.08,.29,.25,.5,.17,.88,0,.04,.08,.25,.17,.25,.25,0,.33,.04,.42,.21,.08,.25-.08,.63,.25,.71,.25,.13,.59,.21,.67,.46,.08,.25,.08,.63,.42,.67,.17,.08,.42,.13,.5,.34,.08,.21,.08,.46,.33,.59,.42,.25,.84,.42,1.26,.71,.08,.08,.33,.04,.42,.12,.08,.04,.25,.13,.34,.21,.17,.08,.33,.08,.5,.17,.42,.21,.75,.34,1.17,.46,.59,.17,1.17,0,1.67-.25,.17-.08,.34-.13,.42-.29,.08-.17,.33-.12,.5-.25,0-.13,.08-.17,.17-.25,.17-.17,.5-.25,.59-.5,.5-1.13,.08-2.34-.75-3.14-.09-.08-.25-.17-.34-.12-.25,.12-.59,.34-.5,.63,.08,.42,.5,.79,.33,1.21-.25,.84-1.17,1.26-1.93,1.05-.25-.09-.59-.38-.84-.63-.33-.38-.67-.71-.92-1.13,0-.08-.08-.25-.17-.29-.42-.29-.75-.54-.92-1.09,0-.12-.25-.12-.33-.25,0-.25,0-.54-.17-.71-.25-.25-.5-.55-.59-.88-.08-.12,0-.29,0-.46,0-.29-.25-.5-.25-.75-.08-.29-.08-.54-.17-.8-.09-.17-.09-.29-.17-.46,0-.25,.25-.42,.25-.67,.08-.21,0-.46,.08-.63,.42-.55,.67-1.13,1.09-1.63,.5-.67,.92-1.26,1.42-2.01,.42-.63,1.09-.88,1.51-1.51,.92-1.42,1.17-2.97,2.01-4.4,.17-.29,.33-.59,.5-.88,.5-1.05,.33-2.22,0-3.31-.17-.38-.5-.75-.42-1.17,.08-.21,.17-.46,0-.54-.42-.21-.5-.63-.75-.96,0-.08,.08-.21,0-.33-.08-.34-.42-.08-.59-.29-.33-.34-.84-.59-.75-1.13,0-.17-.25-.29-.33-.25-.5,.04-.84-.25-1.09-.63-.08-.08,0-.25-.08-.38,0-.08-.08-.17-.17-.17-.42,.04-.76-.17-.92-.5-.08-.17-.08-.33-.25-.42-.08-.04-.25,.08-.42-.04-.17-.13-.59-.21-.5-.46,.17-.34,.67-.38,1.01-.29Z"/></g></g></svg>