<?xml version="1.0" encoding="UTF-8"?><svg xmlns="http://www.w3.org/2000/svg" viewBox="0 0 70.05 36.57"><g id="a"/><g id="b"><g id="c"><path d="M54.71,6.91c1.38,.42,8.25,.46,10.18-3.39,1.01-1.8,3.94-2.97,5.15-3.52-1.59,.75-5.87,1.64-7.29,1.84-3.82,.5-10.02,1.43-9.56,3.69,2.52-.75,5.74-1.68,8.17-2.39-.09,.08-.17,.13-.25,.17l-26.78,7.63h0c-1.84,.34-6.66,2.01-9.68,3.52-.42,.21-1.13,.96-.84,1.34t.04,.04c-.88,.21-.34,1.84-1.76,1.97-.29,.04-.71,0-.88,.17t.04-.04c-3.77,.63-7.25,1.59-10.64,2.93-2.56,1.17-4.82,2.35-6.66,3.82-1.01,.75-.55,1.13,0,.71,2.18-1.38,4.23-2.72,6.7-3.69,4.11-1.68,8.8-2.01,11.82-3.1-.04,0-.08-.04-.13-.04-.21,0-.55,0-.8-.04,.25,.04,.5,.04,.8,.04h.13v.04h.08c.13,0,.29,0,.42,.04-.17-.04-.29-.04-.42-.04-1.51,1.26-3.64,1.72-5.15,2.39-1.89,.84-4.48,1.55-7.21,1.55-.55,.13-.5,.63,0,.8,1.09,.08,2.18-.04,3.27-.25-.5,.38-.92,.88-1.34,1.51-1,.21-2.01,.5-3.02,.88-.54,.29-1.3,.29-1.8,1.01-.34,.63,1.13,.8,1.59,0,.34-.25,.59-.42,1.01-.59,.5-.13,1.13-.34,1.76-.46-.08,.12-.13,.29-.21,.42-.38,.59-.63,1-.92,1.3-.59,.09-1.22,.13-1.84,.17-1.47,.13-3.48-.08-5.24-.17-.88-.33-1.8-.59-2.64-.59-.84-.12-1.13,.46-.42,.92,1.05,.42,2.26,.42,3.39,.38,1.88,.21,3.73,.42,5.36,.21h.29c-.29,.17-.63,.38-1.05,.63-1.26,.25-3.6,.59-4.74-.17-.71-.38-.5,.38-.04,.75,.96,.76,3.56,.38,4.86,.17,1.17-.46,1.84-.88,2.51-1.59,.96-.21,1.8-.46,2.6-.67-1.34,1.13-3.1,2.01-4.69,2.39-1.47,.5-2.93,.92-4.32,1.01-1.05,.12-.71,1,.21,.92,1.59-.08,3.14-.54,4.32-1.13,3.35-1.13,5.87-2.85,8.59-4.36-1.43,1.09-2.68,1.97-3.86,3.27-.12,.13-.29,.29-.42,.42-2.6,1.17-5.28,1.93-8.09,2.43-.84,.08-1.55-.17-2.22-.46-.71-.29-.96,.21-.04,.67,.63,.33,1.38,.54,2.26,.5,2.18-.34,4.36-.88,6.49-1.68-.46,.42-.96,.84-1.55,1.34-.67,.63-1.84,.71-2.81,.71-1.22-.17-1.34,.92,.08,.96,.67,.04,1.3-.04,1.93-.25-.84,.63-.25,1.47,.84,.8,1.63-.92,3.98-2.56,5.45-3.35,.12-.04,.25-.13,.38-.21-.8,.84-1.68,1.64-2.22,2.56-.46,.67-.63,1.47-.84,2.18-.08,.92,1.09,.8,.92,.08,.13-.92,.42-1.55,.8-2.14,1.09-1.34,2.47-2.26,3.18-3.4,.17-.21,.29-.42,.46-.63,1.76-1.09,3.44-2.3,4.82-3.6,1.51-1.51,2.64-3.39,3.52-5.15t-.08-.04c.08,.08,.21,.08,.38,.08,1.38-.34,2.35-1.34,3.65-1.72h.04c.38-.08,.38-.25,.88-.38,.5-.12,1.76-.79,2.26-1,.76-.34,1.93-.55,2.6-1.01L54.71,6.91Zm-31.35,11.82c-.12-.04-.21-.08-.34-.08,.13,0,.21,.04,.34,.08Zm-8.25,4.4c.84-.04,1.63-.13,2.43-.29-.29,.38-.84,.75-1.84,1.05-.75,.12-1.47,.25-2.18,.42,.34-.46,.84-.84,1.59-1.17Zm-.59,2.51c-.42,.17-.84,.25-1.13,.5-.25,.21-.42,.38-.5,.54-.33,.08-.71,.17-1.09,.25,.08-.13,.21-.25,.33-.42,.29-.46,.5-.92,.71-1.34,.96-.12,1.72-.12,1.68,.21-.04,.13-.04,.21,0,.25Zm3.52,1.47s-.04,.04-.08,.08c-.54,.38-1.09,.71-1.63,1.05,.59-.5,1.17-.84,1.72-1.13Zm-.29,2.05c-.75,.46-1.51,.92-2.22,1.34-1.51,.75-3.27,2.39-5.2,3.06,.08-.04,.21-.08,.29-.17,1.8-1.34,2.93-2.18,3.9-3.31,1.38-.63,2.68-1.34,3.94-2.18,0,0,.04,0,.04-.04-.21,.46-.46,.88-.75,1.3Zm-2.1-3.18l.04-.04c1.26-.59,2.1-1.13,3.1-1.93,.75-.5,1.22-1.01,1.68-1.55,.46-.38,.92-.75,1.3-1.13-.13,.04-.25,.08-.38,.17h0c1-.54,2.01-1.13,2.93-1.76,.04-.09,.04-.13,.04-.17,0,.04,0,.08-.04,.17h0c0,.12-.04,.29-.04,.42v-.04c-.29,.46-.59,.92-.92,1.34-1.26,1.13-2.89,2.26-4.48,3.18-1.09,.54-2.01,.92-3.23,1.34Zm7.21-.92c-.71,.92-1.84,1.84-3.14,2.77,.29-.5,.54-1,.71-1.47,.17-.29,.38-.55,.59-.84,.88-.84,1.76-1.72,2.56-2.64,.67-.54,1.34-1.05,2.01-1.51-.84,1.17-1.89,2.47-2.73,3.69Zm3.73-4.48s.04,.04,.04,.08c-.04,.08-.04,.17,0,.21-.04-.12,0-.21-.04-.29Zm.04,.34s.04,.09,.08,.13c-.04-.04-.08-.08-.08-.13Zm2.14-5.41s-.08,.04-.13,.04c.04,0,.08-.04,.17-.04h-.04Z"/></g></g></svg>