<?xml version="1.0" encoding="UTF-8"?><svg xmlns="http://www.w3.org/2000/svg" viewBox="0 0 42.2 41.83"><g id="a"/><g id="b"><g id="c"><path d="M31.85,1.1c-1.63-1.72-3.85-1.17-5.78-.08-1.97,1.09-12.99,4.27-14.63,6.83,.88,3.69,1.68,3.52,2.51,7.63,.88,4.07,.84,7.17,3.02,8.13-1.26,1.76,1.88,.71,2.18,.59-.08,.21,.04,.21,.21,.12,.13-.04,.42-.42,.46-.55-.09,.17-.17,.38,.04,.34,.21-.08,.29-.29,.33-.46-.12,.34,.42,.09,.42-.21,.17,0,.46-.17,.59-.34l.17-.12c.17-.08,.29-.21,.42-.3l.13-.08v-.04h0c-.13,.54-.25,1.13-.33,1.72-.46,2.3-2.01,4.11-3.94,5.45-1.43,1-3.14,1.67-4.78,2.34-2.56,1.09-6.04,3.77-7.75,4.95-2.05,1.43-2.72,3.52-4.86,4.53-.08,.04-.13,.25-.25,.29,2.35-.34,3.52-3.39,6.08-4.36,.55-.21,4.9-3.35,7.67-4.53,5.07-2.14,7.75-3.44,8.88-5.28,1.26-2.09,.88-4.02,1.26-4.78,.13-.38,.34-.88,.59-1.47,0,.08-.04,.12-.04,.21-.29,.55-.46,1.05-.63,1.59h.04c.08,.33,.59,.75,.46,1.26,.13,.08,.13,.04,.17-.04l-.04,.25c.13,0,.29,0,.38-.17,0,.13,0,.21,.17,.34,.12,.08,.54,.21,.75,.17,.08-.04,.08-.21,.08-.33,0,.13-.04,.33,.08,.33,.09,.04,.38,.13,.38-.13-.09,.29,.59,.46,.63,.42,.08,0,.12-.08,.16-.12-.13,.25,.21,.25,.55,.21,.71-.46,.88-.21,.71-1.21,5.03-1.47,5.28-3.56,7.96-4.9,2.68-1.3,5.87-3.31,5.91-4.78-2.35-7.5-5.62-8.84-10.35-13.41Z"/></g></g></svg>