<?xml version="1.0" encoding="UTF-8"?><svg xmlns="http://www.w3.org/2000/svg" viewBox="0 0 171.46 168.82"><g id="a"/><g id="b"><g id="c"><g><path d="M66.46,77.07c4.72-10.68,11.62-16.84,20.59-20.83,13.24-5.89,27.26-8.25,41.56-9.61,11.23-1.07,22.44-2.46,33.63-3.91,1.84-.24,3.54-1.51,6.38-2.79-2.72-1.01-3.95-1.52-5.2-1.93-6.5-2.1-6.87-2.72-5.23-9.25,.28-1.13,.46-2.31,.95-3.35,3.93-8.19,7.92-16.36,12.32-25.41-4.84,3.46-9.68,6.13-13.53,9.84-7.53,7.25-14.45,15.13-21.72,22.66-5.67,5.86-21.89,7.2-27.91,1.76-2.85-2.57-4.3-6.69-6.75-10.7-6.43-.24-12.18,3.15-18.44,7.8,7.17,1.33,13.31,2.47,19.45,3.61-2.29,.98-4.51,.92-6.73,1-9.47,.35-19.06-.1-28.37,1.28-19.84,2.95-34.7,13.19-41.1,32.93-4.48,13.8-2.56,27.75,2.24,41.11,3.2,8.92,7.58,17.43,11.85,27.04-6.85-.5-13.44-.6-19.9-1.56-6.61-.98-13.1-2.82-20.55-4.48,1.33,1.43,2.01,2.3,2.82,3.01,7.77,6.88,17.22,10.17,27.21,11.2,11.53,1.19,22.08,3.94,32.54,9.51,10.7,5.7,22.84,8.78,34.49,12.57,2.32,.75,5.28-.47,7.95-.79-.41-2.51-.63-5.06-1.25-7.51-2.6-10.22-5.31-20.42-7.99-30.62l1.54-.51c1.18,1.1,2.36,2.2,3.53,3.28,9.71-6.03,18.67-16.16,19.78-22.34-8.22,5.24-16.47,10.5-25.03,15.96-1.49-3.25-2.09-5.42-3.33-7.11-9.27-12.54-18.66-24.98-28.02-37.46-6.04-8.06-11.46-16.39-12.6-26.6,4.74,7.09,9.48,14.17,14.83,22.18Z" style="fill:#fff;"/><path d="M66.46,77.07c-5.35-8.01-10.09-15.09-14.83-22.18,1.13,10.2,6.56,18.54,12.6,26.6,9.36,12.47,18.75,24.92,28.02,37.46,1.25,1.69,1.84,3.86,3.33,7.11,8.57-5.46,16.81-10.72,25.03-15.96-1.11,6.17-10.07,16.31-19.78,22.34-1.16-1.08-2.34-2.18-3.53-3.28l-1.54,.51c2.67,10.2,5.39,20.4,7.99,30.62,.62,2.45,.85,5,1.25,7.51-2.67,.31-5.63,1.54-7.95,.79-11.65-3.79-23.79-6.87-34.49-12.57-10.46-5.58-21.01-8.32-32.54-9.51-9.98-1.03-19.44-4.32-27.21-11.2-.81-.72-1.49-1.58-2.82-3.01,7.45,1.66,13.94,3.49,20.55,4.48,6.46,.96,13.05,1.06,19.9,1.56-4.26-9.62-8.64-18.12-11.85-27.04-4.8-13.37-6.72-27.32-2.24-41.11,6.41-19.74,21.26-29.98,41.1-32.93,9.31-1.39,18.9-.94,28.37-1.28,2.22-.08,4.44-.01,6.73-1-6.14-1.14-12.28-2.28-19.45-3.61,6.26-4.65,12.01-8.04,18.44-7.8,2.45,4.01,3.9,8.12,6.75,10.7,6.02,5.44,22.24,4.11,27.91-1.76,7.27-7.53,14.19-15.4,21.72-22.66,3.84-3.7,8.68-6.37,13.53-9.84-4.4,9.06-8.39,17.22-12.32,25.41-.49,1.03-.67,2.22-.95,3.35-1.64,6.52-1.27,7.15,5.23,9.25,1.26,.41,2.48,.91,5.2,1.93-2.84,1.28-4.54,2.55-6.38,2.79-11.19,1.45-22.39,2.84-33.63,3.91-14.3,1.36-28.33,3.72-41.56,9.61-8.98,4-15.87,10.15-20.59,20.83Zm8.37,67.45c-2.03,3.01-4.18,4.85-3.88,6.1,.4,1.7,2.68,2.95,4.16,4.4,1.21-1.49,3.23-2.9,3.4-4.5,.15-1.41-1.76-3.05-3.68-6Z"/><path d="M74.83,144.52c1.92,2.95,3.83,4.58,3.68,6-.17,1.6-2.19,3.01-3.4,4.5-1.48-1.45-3.76-2.7-4.16-4.4-.3-1.25,1.86-3.09,3.88-6.1Z" style="fill:#fff;"/></g></g></g></svg>