<?xml version="1.0" encoding="UTF-8"?><svg xmlns="http://www.w3.org/2000/svg" viewBox="0 0 27.92 37.95"><g id="a"/><g id="b"><g id="c"><path d="M27.78,15.32c-.21-.92-.84-1.22-1.47-1.09-.46,.04-1.01,.25-1.47,.67-.67,.54-1.55,1.17-2.77,1.38h-.17c-.08-.04-.21-.08-.25-.29,0,0-.04-.21-.13-.55,.13-.08,.38-.08,.84-.08,.08,0,.21-.04,.34-.08h-.04c.46-.17,.92-.63,1.01-.75,.17-.17,.67-1,.79-1.55,.13-.38,.55-1.8,.55-1.8,.34-.5,.38-1.63,.42-2.52,.08-.92-.96-1.63-.96-1.63-.13-.59-.33-.92-.54-.96-.21-.04-.38-.46-.38-.46-.21-.04-.25-.46-.25-.46-.17-.67-1.05-.42-1.55-1.51-.46-.88-1.47-.46-1.59-1.09-.13-.59-1.42-.84-1.68-.92-.5-.21-.46-.8-.92-.84-.46-.08-1.68-.25-1.76-.42-.09-.13-.5-.33-.84-.25-.38,.08-1.17,.12-1.34-.04-.17-.17-.88,.04-.88,.04-1.13,.29-1.51,.59-1.51,.59-1.05,.55-1.01,.42-.8,.17,.63-.75-.59,.08-.59,.08-.88,.5-.75,.5-1.01,.71-.21,.17,.17-.63,.17-.63,.34-.88-1.17,1.22-1.13,.8,.17-.92-1.17,1.26-1.17,1.26-.59,1.26-.84,1.72-.84,1.72,.08-1-.34-.21-.67,.8-.34,.92-.38,1.21-.38,1.21-.04-.5,0-.84,0-.84-.59,.5-1.09,2.93-1.09,2.93,0,0-.13,.46-.17,.84v.04c-.63,.59-1.13,1.26-1.51,1.97-.63,1.09-1.21,3.31-1.3,4.27-.12,.88-.38,2.77-.5,3.6H.25c-.29,.29-.29,.8-.17,1.13,.08,.17,.12,.29,.17,.34,0,.25,.12,.42,.12,.42,.21,.67,.84,1.8,.88,2.47,0,0,.92,3.6,1.8,3.69,0,0,1.51,2.1,2.22,2.35,0,0,.34,.25,.8,.63,.04,.34,.29,1,.34,1.26,0,.29,.5,1.26,.71,1.38,.21,.17,.38,.21,.63,.8,.25,.63,.96,1.55,1.38,2.14,.46,.59,1.01,1,1.47,1.26,.42,.21-.17-.17-.55-.55-.38-.38-.59-1.13-.59-1.13,.55,.5,.17,0-.04-.38-.25-.34-.54-1.89-.46-2.01v-.04c.25,.34,.59,.67,.71,.75h0c.25,.13,.42,.13,.84,.71,.42,.59,1.38,1.42,1.97,1.93,.59,.55,1.3,1.01,1.8,1.17h.17s-.5-.29-.92-.59c-.42-.29-.84-.96-.88-1.05,.21,.12,.29,.17,.29,.17,.04-.04-.25-.29-.5-.54-.13-.13-.29-.46-.5-.8,0-.04-.04-.09-.04-.13h-.04s-.04-.08-.08-.17h0s-.04-.08-.04-.13c-.08-.13-.13-.25-.21-.38-.04-.17-.08-.25-.13-.34v-.08s-.04,0-.04-.04c0-.13-.17-.59-.34-.67-.04-.04-.08-.08-.08-.08h-.04v-.04h0c.46,.21,1,.42,1.59,.67,.08,.04,.21,.08,.29,.08,.34,.25,.63,.38,.8,.38,.29,.04,.09-.09-.21-.29,.08,0,.13,.04,.21,.04,.29,.21,.55,.3,.71,.34,.33,.04,.08-.12-.29-.38h.12c.42,.21,.75,.29,.96,.29,.3,0,.09-.13-.29-.29,.59,.17,1.05,.21,1.3,.13,.38-.13-.17-.13-.75-.25-.12,0-.25-.04-.38-.08h.08v.04h0c.92,.17,1.68,.04,1.97-.08,.38-.25-.21-.13-.8-.08-.17,0-.38,0-.59-.04h.04c1,.04,1.8-.25,2.05-.46,.29-.29-.21-.08-.8,.08-.13,.04-.33,.04-.5,.08,1.55-.46,2.6-1.17,3.6-2.26,0,0,.04-.04,.09-.13h.04c-.08,.08-.08,.13-.13,.13,.96-1.01,1.84-2.39,2.98-4.15,1.84-2.89,.63-3.52-.38-3.86-.29-.09-.42-.13-.63-.17-.38-.08-.71-.08-.96-.21,.08-.17,.21-.29,.29-.33h.08c.08-.04,.17-.04,.21-.04h0c.46-.04,.96,.04,1.34,.08l.84,.34c.54,.25,1.13,.55,1.13,.55,.29,.13,.67,.25,1.17,.42,1.38,.38,1.76-2.01,1.8-2.52,.08-1.42-.25-1.72-.13-2.43,.08-.63,.25-2.05,0-3.35Z"/></g></g></svg>