<?xml version="1.0" encoding="UTF-8"?><svg xmlns="http://www.w3.org/2000/svg" viewBox="0 0 222.69 67.97"><g id="a"/><g id="b"><g id="c"><path d="M153.9,11.99c1.57,12.33,1.71,12.75,12.43,14.67,7.62,1.36,15.39,1.93,23.07,2.97,6.09,.83,10.49-1.91,14.46-6.15,4.76-5.09,9.73-9.97,14.69-14.87,.63-.63,1.7-.81,4.14-1.91-11.65,20.73-11.77,40.45-.41,60.13l-1.4,.81c-2.56-2.1-5.3-4.01-7.64-6.34-3.3-3.27-6.35-6.8-9.42-10.29-5.37-6.11-12-7.72-19.79-6-7.4,1.63-14.87,2.99-22.31,4.43-4.09,.79-6.37,2.98-6.83,7.34-.61,5.76-2.27,6.86-6.55,3.18-7.54-6.48-15.83-3.81-24.11-3.75-24.61,.18-49.22,.06-74.23,.06,2.73,3.06,11.13,3.67,4.74,11.71-1.94-2.93-4.2-5.34-5.26-8.19-1.39-3.75-4.08-4.72-7.45-5.45-12.82-2.77-25.62-5.66-38.42-8.54-.59-.13-1.1-.56-1.62-2.13h15.86l.31-1.83c-4.6-5.19-12.2-3.82-18.17-6.88,34.45-14.11,69.78-19.13,106.41-15.8-.03-.57-.06-1.14-.09-1.72-6.07-.48-12.14-1.05-18.22-1.41-6.48-.39-12.97-.69-19.46-.83-6.3-.14-12.61-.03-18.9-.03-.6-6.24,.53-7.7,6.41-7.57,15.28,.32,30.13-1.71,44.61-6.8,3.99-1.41,8.48-1.09,11.72,2.16,4.07,4.08,8.03,8.35,11.49,12.95,4.01,5.33,13.97,6.91,19.38,2.81,3.07-2.32,6.5-4.16,10.56-6.72Zm-83.88,26.91c-7.04-3.55-22.08-3.18-27.24,.06,.87,2.09,1.48,4.2,2.6,6.01,.68,1.1,2.49,2.66,3.21,2.4,7.01-2.55,13.9-5.43,21.42-8.47Zm-45.43,1.05c1.52-2.42,3-3.75,3.02-5.1,.01-1.2-1.59-2.42-2.47-3.64-1.34,1.18-3.34,2.15-3.78,3.6-.3,.99,1.58,2.65,3.24,5.14Z"/></g></g></svg>