<?xml version="1.0" encoding="UTF-8"?><svg xmlns="http://www.w3.org/2000/svg" viewBox="0 0 207.29 112.49"><g id="a"/><g id="b"><g id="c"><path d="M90.65,25.61c-9.18-.82-18.36-1.63-28.5-2.54,2.19-7.81,4.34-15.51,6.46-23.08,1.42,.22,1.93,.17,2.01,.33,7.12,13.52,19.6,18.76,33.33,23.15,8.23,2.64,13.62,1.01,19.28-4.75,6.66-6.78,14.1-12.86,23.62-15.14,5.3-1.27,10.86-1.44,16.86-2.17-7.41,3.63-14.57,5.93-20.17,10.26-4.88,3.77-8.73,9.43-11.66,14.98-2.83,5.36-.69,9.91,4.87,12.21,12.42,5.12,24.99,9.88,37.56,14.64,3.55,1.34,6.17,.29,8.19-3.38,4.39-7.98,8.52-16.28,16.59-21.43,2.19-1.4,4.54-2.55,7.7-3.61-18.77,22.26-18.38,44.11,.49,65.73-.4,.39-.79,.79-1.19,1.18-4.34-3.11-9.36-5.61-12.84-9.48-4.28-4.76-7.41-10.6-10.77-16.13-2.11-3.48-4.78-4.78-8.29-2.71-12.09,7.13-24.08,14.43-35.72,22.59,3.69-.64,7.37-1.27,11.12-1.92,7.56,10.39,17.3,15.19,30.29,12.01-9.55,4.88-19.13,4.25-28.75,.59-2.17-.83-4.43-1.66-6.29-2.99-6.99-5.02-14.15-6.14-22.89-4.54-18.03,3.3-36.38,3.99-54.73,2.39-.81-.07-1.63,0-2.77,1.08,2.49,.88,4.96,1.86,7.49,2.61,7.99,2.36,10.53,9.97,5.4,17-7.67-3.83-13.43-9.62-17.15-17.32-1.48-3.07-3.58-4.06-6.84-4.7-18.53-3.63-35.98-10.11-51.65-20.9-.55-.38-1.15-.68-1.72-1.02l.6-1.85c5.48,.62,10.96,1.23,16.95,1.91-4.55-4.19-9.05-8.34-14.36-13.23,13.58-7.84,26.83-15.99,41.44-21.57,14.76-5.64,30.25-7.21,46.02-6.82v-1.38ZM46.45,59.41c.31,.55,.62,1.1,.93,1.66,4.8,1.02,10.23,1.26,9.56,8.6-.05,.59,2.26,2.18,3.1,1.95,13.25-3.59,26.72-2.42,40.15-2.2,12.65,.2,25.35,.4,37.34-4.49,3.42-1.4,6.44-3.77,9.64-5.69-.26-.47-.51-.93-.77-1.4-.79-.06-1.65-.34-2.37-.15-15.42,4.13-30.69,1.51-45.96-.97-14.47-2.35-28.97-4.23-43.55-1.24-2.84,.58-5.39,2.59-8.07,3.94Zm-20.6-2.5c-2.54-1.76-4.24-3.79-5.39-3.52-1.6,.38-2.78,2.49-4.14,3.87,1.46,1.24,2.81,3.23,4.43,3.48,1.17,.18,2.7-1.93,5.09-3.83Z"/></g></g></svg>