<?xml version="1.0" encoding="utf-8"?>
<!-- Generator: Adobe Illustrator 26.2.0, SVG Export Plug-In . SVG Version: 6.00 Build 0)  -->
<svg version="1.1" id="a" xmlns="http://www.w3.org/2000/svg" xmlns:xlink="http://www.w3.org/1999/xlink" x="0px" y="0px"
	 viewBox="0 0 502.1 381.5" style="enable-background:new 0 0 502.1 381.5;" xml:space="preserve">
<style type="text/css">
	.st0{fill:#FFF0CC;}
	.st1{fill:#6AEFAC;}
	.st2{fill:#7F7F7F;}
</style>
<g>
	<path class="st0" d="M443.9,141.5L443.9,141.5c-25,0-45.7-19.3-48-43.8h-0.4c-2.2,24.5-23,43.8-48,43.8l0,0
		c-25,0-45.7-19.3-48-43.8H299c-2.2,24.5-23,43.8-48,43.8l0,0c-25,0-45.7-19.3-48-43.8h-0.4c-2.2,24.5-23,43.8-48,43.8l0,0
		c-25,0-45.7-19.3-48-43.8h-0.4c-2.2,24.5-23,43.8-48,43.8l0,0c-25,0-45.7-19.3-48-43.8h-0.2v273.8h482V97.7h-0.2
		C489.6,122.2,468.9,141.5,443.9,141.5L443.9,141.5z"/>
	<path class="st1" d="M472.1,10h-442l-20,83.3c0,1.5,0.1,3,0.2,4.4c2.2,24.5,23,43.8,48,43.8l0,0c25,0,45.7-19.3,48-43.8h0.4
		c2.2,24.5,23,43.8,48,43.8l0,0c25,0,45.7-19.3,48-43.8h0.4c2.2,24.5,23,43.8,48,43.8l0,0c25,0,45.7-19.3,48-43.8h0.4
		c2.2,24.5,23,43.8,48,43.8l0,0c25,0,45.7-19.3,48-43.8h0.4c2.2,24.5,23,43.8,48,43.8l0,0c25,0,45.7-19.3,48-43.8
		c0.1-1.5,0.2-2.9,0.2-4.4L472.1,10L472.1,10z"/>
</g>
<rect x="312.1" y="205.9" class="st1" width="103.6" height="165.6"/>
<rect x="124.1" y="205.9" class="st1" width="103.6" height="69.8"/>
<g>
	<path class="st2" d="M492.1,381.5c5.5,0,10-4.5,10-10V97.7c0-1.5-0.1-6-0.3-6.8l-20-83.3c-1.1-4.5-5.1-7.7-9.7-7.7h-442
		c-4.6,0-8.6,3.2-9.7,7.7L0.3,91c-0.5,2.2-0.3,4.5-0.3,6.8v273.8c0,5.5,4.5,10,10,10H492.1z M482,94.4
		c-0.6,20.6-17.5,37.1-38.2,37.1s-38.2-17.1-38.2-38.2c0-0.4,0-0.8-0.1-1.2L396.9,20h67.2L482,94.4L482,94.4z M376.8,20l8.9,73.9
		c-0.3,20.8-17.3,37.6-38.2,37.6s-38.2-17.1-38.2-38.2c0-0.2,0-0.4,0-0.6L304.9,20L376.8,20L376.8,20z M217.3,20h67.6l4.4,73.6
		c-0.1,20.9-17.2,37.9-38.2,37.9s-38.1-17-38.2-37.9L217.3,20L217.3,20z M192.9,92.7c0,0.2,0,0.4,0,0.6c0,21.1-17.1,38.2-38.2,38.2
		s-37.9-16.8-38.2-37.6l8.9-73.9h71.9C197.2,20,192.9,92.7,192.9,92.7z M37.9,20h67.2l-8.7,72.2c-0.1,0.4-0.1,0.8-0.1,1.2
		c0,21.1-17.1,38.2-38.2,38.2S20.7,115,20.1,94.5L37.9,20z M322.1,361.5V215.9h83.6v145.6H322.1z M425.7,361.5V205.9
		c0-5.5-4.5-10-10-10H312.1c-5.5,0-10,4.5-10,10v155.6h-282V137.2c10.2,8.9,23.6,14.4,38.2,14.4c20,0,37.7-10.2,48.2-25.6
		c10.5,15.5,28.2,25.6,48.2,25.6s37.7-10.2,48.2-25.6c10.5,15.5,28.2,25.6,48.2,25.6s37.7-10.2,48.2-25.6
		c10.5,15.5,28.2,25.6,48.2,25.6s37.7-10.2,48.2-25.6c10.5,15.5,28.2,25.6,48.2,25.6c14.6,0,28-5.4,38.2-14.4v224.3H425.7
		L425.7,361.5z"/>
	<path class="st2" d="M227.7,195.9H124.1c-5.5,0-10,4.5-10,10v69.8c0,5.5,4.5,10,10,10h103.6c5.5,0,10-4.5,10-10v-69.8
		C237.7,200.4,233.2,195.9,227.7,195.9L227.7,195.9z M217.7,265.8h-83.6v-49.8h83.6V265.8z"/>
	<path class="st2" d="M44.1,244.7c-5.5,0-10,4.5-10,10v84c0,5.5,4.5,10,10,10s10-4.5,10-10v-84C54.1,249.2,49.6,244.7,44.1,244.7z"
		/>
	<path class="st2" d="M44.1,184.7c-5.5,0-10,4.5-10,10v21c0,5.5,4.5,10,10,10s10-4.5,10-10v-21C54.1,189.2,49.6,184.7,44.1,184.7z"
		/>
	<path class="st2" d="M343.1,265.8c-5.5,0-10,4.5-10,10v21c0,5.5,4.5,10,10,10s10-4.5,10-10v-21
		C353.1,270.2,348.6,265.8,343.1,265.8z"/>
	<path class="st2" d="M446.6,122.7c5.5,0,10-4.5,10-10s-4.5-10-10-10c-6.3,0-11.5-5.2-11.5-11.5c0-5.5-4.5-10-10-10s-10,4.5-10,10
		C415.1,108.6,429.2,122.7,446.6,122.7z"/>
	<path class="st2" d="M254.1,122.7c5.5,0,10-4.5,10-10s-4.5-10-10-10c-6.3,0-11.5-5.2-11.5-11.5c0-5.5-4.5-10-10-10s-10,4.5-10,10
		C222.6,108.6,236.7,122.7,254.1,122.7z"/>
</g>
</svg>
