<?xml version="1.0" encoding="UTF-8"?><svg id="a" xmlns="http://www.w3.org/2000/svg" viewBox="0 0 502.06 381.5"><g><path d="M443.86,141.54h0c-25.02,0-45.74-19.33-47.99-43.79h-.42c-2.25,24.46-22.97,43.79-47.99,43.79h0c-25.02,0-45.74-19.33-47.99-43.79h-.42c-2.25,24.46-22.97,43.79-47.99,43.79h0c-25.02,0-45.74-19.33-47.99-43.79h-.42c-2.25,24.46-22.97,43.79-47.99,43.79h0c-25.02,0-45.74-19.33-47.99-43.79h-.42c-2.25,24.46-22.97,43.79-47.99,43.79h0c-25.02,0-45.74-19.33-47.99-43.79h-.21V371.5H492.06V97.75h-.21c-2.25,24.46-22.97,43.79-47.99,43.79Z" style="fill:#fff9e6;"/><path d="M472.06,10H30.06L10.06,93.34c0,1.49,.08,2.96,.21,4.41,2.25,24.46,22.97,43.79,47.99,43.79h0c25.02,0,45.74-19.33,47.99-43.79h.42c2.25,24.46,22.97,43.79,47.99,43.79h0c25.02,0,45.74-19.33,47.99-43.79h.42c2.25,24.46,22.97,43.79,47.99,43.79h0c25.02,0,45.74-19.33,47.99-43.79h.42c2.25,24.46,22.97,43.79,47.99,43.79h0c25.02,0,45.74-19.33,47.99-43.79h.42c2.25,24.46,22.97,43.79,47.99,43.79h0c25.02,0,45.74-19.33,47.99-43.79,.13-1.46,.21-2.93,.21-4.41l-20-83.34Z" style="fill:#5cc9c1;"/></g><rect x="312.06" y="205.95" width="103.61" height="165.55" style="fill:#5cc9c1;"/><rect x="124.06" y="205.95" width="103.61" height="69.8" style="fill:#5cc9c1;"/><g><path d="M492.06,381.5c5.52,0,10-4.48,10-10V97.75c0-1.47-.09-5.98-.28-6.75L481.78,7.67c-1.08-4.5-5.1-7.67-9.72-7.67H30.06c-4.62,0-8.65,3.17-9.72,7.67L.33,91c-.52,2.16-.28,4.54-.28,6.75V371.5c0,5.52,4.48,10,10,10H492.06Zm-10.02-287.05c-.59,20.55-17.49,37.08-38.18,37.08s-38.2-17.14-38.2-38.2c0-.4-.02-.8-.07-1.19l-8.66-72.14h67.24l17.87,74.45ZM376.79,20l8.87,73.9c-.3,20.81-17.32,37.64-38.2,37.64s-38.2-17.14-38.2-38.2c0-.2,0-.4-.02-.6l-4.36-72.74h71.91Zm-159.51,0h67.56l4.42,73.62c-.15,20.93-17.23,37.92-38.2,37.92s-38.05-16.98-38.2-37.92l4.42-73.62Zm-24.4,72.74c-.01,.2-.02,.4-.02,.6,0,21.06-17.14,38.2-38.2,38.2s-37.89-16.83-38.2-37.64l8.87-73.9h71.91l-4.36,72.74ZM37.94,20H105.19l-8.66,72.15c-.05,.4-.07,.79-.07,1.19,0,21.06-17.14,38.2-38.2,38.2s-37.59-16.53-38.18-37.08L37.94,20ZM322.06,361.5V215.95h83.61v145.55h-83.61Zm103.61,0V205.95c0-5.52-4.48-10-10-10h-103.61c-5.52,0-10,4.48-10,10v155.55H20.06V137.19c10.23,8.92,23.59,14.35,38.2,14.35,20.03,0,37.72-10.17,48.2-25.62,10.47,15.45,28.17,25.62,48.2,25.62s37.73-10.17,48.2-25.62c10.48,15.45,28.17,25.62,48.2,25.62s37.73-10.17,48.2-25.62c10.48,15.45,28.17,25.62,48.2,25.62s37.73-10.17,48.2-25.62c10.48,15.45,28.17,25.62,48.2,25.62,14.61,0,27.97-5.42,38.2-14.35v224.31h-56.39Z"/><path d="M227.66,195.95H124.06c-5.52,0-10,4.48-10,10v69.8c0,5.52,4.48,10,10,10h103.61c5.52,0,10-4.48,10-10v-69.8c0-5.52-4.48-10-10-10Zm-10,69.8h-83.61v-49.8h83.61v49.8Z"/><path d="M44.06,244.75c-5.52,0-10,4.48-10,10v84c0,5.52,4.48,10,10,10s10-4.48,10-10v-84c0-5.52-4.48-10-10-10Z"/><path d="M44.06,184.75c-5.52,0-10,4.48-10,10v21c0,5.52,4.48,10,10,10s10-4.48,10-10v-21c0-5.52-4.48-10-10-10Z"/><path d="M343.06,265.75c-5.52,0-10,4.48-10,10v21c0,5.52,4.48,10,10,10s10-4.48,10-10v-21c0-5.52-4.48-10-10-10Z"/><path d="M446.56,122.75c5.52,0,10-4.48,10-10s-4.48-10-10-10c-6.34,0-11.5-5.16-11.5-11.5,0-5.52-4.48-10-10-10s-10,4.48-10,10c0,17.37,14.13,31.5,31.5,31.5Z"/><path d="M254.06,122.75c5.52,0,10-4.48,10-10s-4.48-10-10-10c-6.34,0-11.5-5.16-11.5-11.5,0-5.52-4.48-10-10-10s-10,4.48-10,10c0,17.37,14.13,31.5,31.5,31.5Z"/></g></svg>