<?xml version="1.0" encoding="UTF-8"?><svg id="dive_centre_marker" xmlns="http://www.w3.org/2000/svg" xmlns:xlink="http://www.w3.org/1999/xlink" viewBox="0 0 24.53 31.33"><defs><clipPath id="clippath"><path d="M20.95,12.27c0,4.8-3.89,8.69-8.69,8.69S3.58,17.06,3.58,12.27,7.47,3.58,12.27,3.58s8.69,3.89,8.69,8.69Z" style="fill:none;"/></clipPath></defs><g><path d="M24.53,12.27C24.53,5.49,19.04,0,12.27,0S.29,5.21,.01,11.75h0c0,.18-.01,.35-.01,.52,0,3.01,1.08,5.76,2.88,7.89,3.62,6.07,9.39,11.17,9.39,11.17,.34-.3,5.65-5.07,9.12-10.86,1.96-2.17,3.15-5.05,3.15-8.2Z" style="fill:#7551ff;"/><g style="clip-path:url(#clippath);"><rect x="3.58" y="3.58" width="17.37" height="17.37" style="fill:#ececec;"/><circle cx="12.27" cy="12.27" r="8.69" style="fill:#ececec;"/><circle cx="12.27" cy="12.27" r="8.34" style="fill:#ededed;"/><circle cx="12.27" cy="12.27" r="7.99" style="fill:#ededed;"/><circle cx="12.27" cy="12.27" r="7.64" style="fill:#eee;"/><circle cx="12.27" cy="12.27" r="7.3" style="fill:#efefef;"/><circle cx="12.27" cy="12.27" r="6.95" style="fill:#f0f0f0;"/><circle cx="12.27" cy="12.27" r="6.6" style="fill:#f0f0f0;"/><circle cx="12.27" cy="12.27" r="6.25" style="fill:#f1f1f1;"/><circle cx="12.27" cy="12.27" r="5.91" style="fill:#f2f2f2;"/><circle cx="12.27" cy="12.27" r="5.56" style="fill:#f3f3f3;"/><circle cx="12.27" cy="12.27" r="5.21" style="fill:#f4f4f4;"/><circle cx="12.27" cy="12.27" r="4.86" style="fill:#f5f5f5;"/><circle cx="12.27" cy="12.27" r="4.52" style="fill:#f5f5f5;"/><circle cx="12.27" cy="12.27" r="4.17" style="fill:#f6f6f6;"/><circle cx="12.27" cy="12.27" r="3.82" style="fill:#f7f7f7;"/><circle cx="12.27" cy="12.27" r="3.47" style="fill:#f8f8f8;"/><circle cx="12.27" cy="12.27" r="3.13" style="fill:#f8f8f8;"/><circle cx="12.27" cy="12.27" r="2.78" style="fill:#f9f9f9;"/><circle cx="12.27" cy="12.27" r="2.43" style="fill:#fafafa;"/><circle cx="12.27" cy="12.27" r="2.08" style="fill:#fbfbfb;"/><circle cx="12.27" cy="12.27" r="1.74" style="fill:#fbfbfb;"/><circle cx="12.27" cy="12.27" r="1.39" style="fill:#fcfcfc;"/><circle cx="12.27" cy="12.27" r="1.04" style="fill:#fdfdfd;"/><circle cx="12.27" cy="12.27" r=".69" style="fill:#fdfdfd;"/><path d="M12.61,12.27c0,.19-.16,.35-.35,.35s-.35-.16-.35-.35,.16-.35,.35-.35,.35,.16,.35,.35Z" style="fill:#fff;"/></g></g><g><path d="M16,10.52h0c-.5,0-.92-.39-.96-.88h0c-.05,.49-.46,.88-.96,.88h0c-.5,0-.92-.39-.96-.88h0c-.05,.49-.46,.88-.96,.88h0c-.5,0-.92-.39-.96-.88h0c-.05,.49-.46,.88-.96,.88h0c-.5,0-.92-.39-.96-.88h0c-.05,.49-.46,.88-.96,.88h0c-.5,0-.92-.39-.96-.88h0v5.49h9.67v-5.49h0c-.05,.49-.46,.88-.96,.88h0Z" style="fill:#fff;"/><path d="M16.56,7.88H7.7l-.4,1.67s0,.06,0,.09c.05,.49,.46,.88,.96,.88h0c.5,0,.92-.39,.96-.88h0c.05,.49,.46,.88,.96,.88h0c.5,0,.92-.39,.96-.88h0c.05,.49,.46,.88,.96,.88h0c.5,0,.92-.39,.96-.88h0c.05,.49,.46,.88,.96,.88h0c.5,0,.92-.39,.96-.88h0c.05,.49,.46,.88,.96,.88h0c.5,0,.92-.39,.96-.88,0-.03,0-.06,0-.09l-.4-1.67h0Z" style="fill:#fff;"/></g><rect x="13.35" y="11.81" width="2.08" height="3.32" style="fill:#fff;"/><rect x="9.58" y="11.81" width="2.08" height="1.4" style="fill:#fff;"/><g><path d="M16.96,15.33c.11,0,.2-.09,.2-.2v-5.49s0-.12,0-.14l-.4-1.67c-.02-.09-.1-.15-.19-.15H7.7c-.09,0-.17,.06-.19,.15l-.4,1.67s0,.09,0,.14v5.49c0,.11,.09,.2,.2,.2h9.67Zm-.2-5.76c-.01,.41-.35,.74-.77,.74s-.77-.34-.77-.77v-.02l-.18-1.45h1.35l.36,1.49h0Zm-2.11-1.49l.18,1.48c0,.42-.35,.75-.77,.75s-.77-.34-.77-.77h0l-.09-1.47h1.44Zm-3.2,0h1.35l.09,1.48c0,.42-.35,.76-.77,.76s-.76-.34-.77-.76l.09-1.48h0Zm-.49,1.46h0c0,.43-.34,.78-.77,.78s-.76-.34-.77-.75l.18-1.48h1.44l-.09,1.46Zm-3.11-1.46h1.35l-.17,1.45v.02c0,.42-.35,.77-.77,.77s-.75-.33-.77-.74l.36-1.49Zm5.7,6.85v-2.92h1.68v2.92h-1.68Zm2.08,0v-3.12c0-.11-.09-.2-.2-.2h-2.08c-.11,0-.2,.09-.2,.2v3.12H7.5v-4.5c.21,.18,.47,.29,.77,.29,.4,0,.76-.2,.97-.51,.21,.31,.56,.51,.97,.51s.76-.2,.97-.51c.21,.31,.56,.51,.97,.51s.76-.2,.97-.51c.21,.31,.56,.51,.97,.51s.76-.2,.97-.51c.21,.31,.56,.51,.97,.51,.29,0,.56-.11,.77-.29v4.5h-1.13Z"/><path d="M11.66,11.61h-2.08c-.11,0-.2,.09-.2,.2v1.4c0,.11,.09,.2,.2,.2h2.08c.11,0,.2-.09,.2-.2v-1.4c0-.11-.09-.2-.2-.2h0Zm-.2,1.4h-1.68v-1h1.68v1Z"/><path d="M7.98,12.59c-.11,0-.2,.09-.2,.2v1.68c0,.11,.09,.2,.2,.2s.2-.09,.2-.2v-1.68c0-.11-.09-.2-.2-.2Z"/><path d="M7.98,11.39c-.11,0-.2,.09-.2,.2v.42c0,.11,.09,.2,.2,.2s.2-.09,.2-.2v-.42c0-.11-.09-.2-.2-.2Z"/><path d="M13.98,13.01c-.11,0-.2,.09-.2,.2v.42c0,.11,.09,.2,.2,.2s.2-.09,.2-.2v-.42c0-.11-.09-.2-.2-.2Z"/><path d="M16.05,10.14c.11,0,.2-.09,.2-.2s-.09-.2-.2-.2c-.13,0-.23-.1-.23-.23,0-.11-.09-.2-.2-.2s-.2,.09-.2,.2c0,.35,.28,.63,.63,.63Z"/><path d="M12.19,10.14c.11,0,.2-.09,.2-.2s-.09-.2-.2-.2c-.13,0-.23-.1-.23-.23,0-.11-.09-.2-.2-.2s-.2,.09-.2,.2c0,.35,.28,.63,.63,.63Z"/></g></svg>