<?xml version="1.0" encoding="UTF-8"?><svg id="a" xmlns="http://www.w3.org/2000/svg" viewBox="0 0 156.33 166.22"><path d="M14.38,39.81V23.1l20.94-7.73s25.1,3.66,40.97,21.61c15.87,17.95,34.66,34.07,45.13,37.15,10.47,3.16,25.1,17.29,25.1,17.29v17.04l-15.38,6.32-27.59-12.55L47.12,52.36,14.38,39.81Z" style="fill:#fff;"/><path d="M135.55,115.27c-3.99-1.91-5.49-2.58-9.23-3.99-28.01-10.31-45.38-35.82-68.48-53.44-10.39-7.98-21.44-14.46-34.07-17.95-4.65-1.25-8.98-2.24-13.3-2.91V108.96s17.45-7.4,46.13-.42c23.77,5.73,45.96,15.96,79.7,7.06-.25-.08-.5-.17-.75-.33Z" style="fill:#e21b1b;"/><path d="M33.74,16.79c29.34,9.06,51.53,31,73.14,51.78,4.82,4.57,9.89,9.23,14.21,12.22,5.9,4.07,10.64,5.82,16.54,8.23,4.82,1.99,4.4,.42,8.89,2.41l-.08-63.16s-32.93,11.17-65.99-7.94c-22.77-5.82-34.99-6.85-46.71-3.52,2.58,.58-2.58-.75,0,0Z" style="fill:#e21b1b;"/><path d="M152.59,19.28c-2.33-1.58-5.32-1.99-7.98-.91-17.37,6.65-39.81,5.82-61.67-2.16C58.84,7.23,39.23,3.74,14.38,12.55V7.15C14.38,3.16,11.14,0,7.23,0S0,3.24,0,7.15V159.07c0,3.99,3.24,7.15,7.15,7.15s7.15-3.24,7.15-7.15v-45.04c23.77-9.39,41.64-6.4,65.24,2.33,13.21,4.9,26.51,7.31,39.06,7.31s23.19-2.16,33.08-6.65c2.83-1.25,4.65-4.16,4.65-7.23V26.35c.08-2.83-1.33-5.49-3.74-7.06Zm-6.15,89.18c-17.62,7.48-40.72,6.98-63.41-1.5-24.18-8.89-43.8-12.38-68.65-3.57V23.1c4.99-2.08,12.38-4.57,21.86-5.49,0,0,1.33-.17,2.66-.17,19.36-1.08,40.64,7.98,40.64,7.98,23.35,8.64,47.54,9.64,66.9,2.83V108.46h0Z"/></svg>