<?xml version="1.0" encoding="utf-8"?>
<!-- Generator: Adobe Illustrator 27.1.1, SVG Export Plug-In . SVG Version: 6.00 Build 0)  -->
<svg version="1.1" id="Layer_1" xmlns="http://www.w3.org/2000/svg" xmlns:xlink="http://www.w3.org/1999/xlink" x="0px" y="0px"
	 viewBox="0 0 24.5 24.6" style="enable-background:new 0 0 24.5 24.6;" xml:space="preserve">
<style type="text/css">
	.st0{fill:#FEFEFE;stroke:#8B38C6;stroke-width:3;stroke-miterlimit:10;}
	.st1{fill:none;stroke:#8B38C6;stroke-width:0.5;stroke-miterlimit:10;}
	.st2{fill:none;stroke:#8B38C6;stroke-width:0.25;stroke-miterlimit:10;}
</style>
<circle class="st0" cx="12.3" cy="12.3" r="10.7"/>
<g>
	<path class="st1" d="M17.5,16.4c0.1,0,0.2-0.1,0.2-0.2v-5.8c0,0,0-0.1,0-0.1l-0.4-1.8c0-0.1-0.1-0.2-0.2-0.2H7.6
		c-0.1,0-0.2,0.1-0.2,0.2L7,10.3c0,0,0,0.1,0,0.1v5.8c0,0.1,0.1,0.2,0.2,0.2H17.5L17.5,16.4z M17.3,10.3c0,0.4-0.4,0.8-0.8,0.8
		c-0.4,0-0.8-0.4-0.8-0.8v0l-0.2-1.5h1.4L17.3,10.3L17.3,10.3L17.3,10.3z M15,8.8l0.2,1.6c0,0.4-0.4,0.8-0.8,0.8
		c-0.4,0-0.8-0.4-0.8-0.8l0,0l-0.1-1.6L15,8.8L15,8.8z M11.6,8.8h1.4l0.1,1.6c0,0.4-0.4,0.8-0.8,0.8c-0.4,0-0.8-0.4-0.8-0.8
		L11.6,8.8L11.6,8.8L11.6,8.8z M11.1,10.3L11.1,10.3c0,0.5-0.4,0.8-0.8,0.8c-0.5,0-0.8-0.4-0.8-0.8l0.2-1.6h1.5L11.1,10.3L11.1,10.3
		z M7.8,8.8h1.4L9,10.3v0c0,0.4-0.4,0.8-0.8,0.8c-0.4,0-0.8-0.3-0.8-0.8L7.8,8.8L7.8,8.8z M13.9,16v-3.1h1.8V16H13.9z M16.1,16v-3.3
		c0-0.1-0.1-0.2-0.2-0.2h-2.2c-0.1,0-0.2,0.1-0.2,0.2V16h-6v-4.8c0.2,0.2,0.5,0.3,0.8,0.3c0.4,0,0.8-0.2,1-0.5
		c0.2,0.3,0.6,0.5,1,0.5c0.4,0,0.8-0.2,1-0.5c0.2,0.3,0.6,0.5,1,0.5c0.4,0,0.8-0.2,1-0.5c0.2,0.3,0.6,0.5,1,0.5c0.4,0,0.8-0.2,1-0.5
		c0.2,0.3,0.6,0.5,1,0.5c0.3,0,0.6-0.1,0.8-0.3V16H16.1L16.1,16z"/>
	<path class="st1" d="M11.8,12.5H9.6c-0.1,0-0.2,0.1-0.2,0.2v1.5c0,0.1,0.1,0.2,0.2,0.2h2.2c0.1,0,0.2-0.1,0.2-0.2v-1.5
		C12.1,12.6,12,12.5,11.8,12.5L11.8,12.5z M11.6,14H9.8v-1.1h1.8V14z"/>
	<path class="st2" d="M8.1,13.4c-0.1,0-0.2,0.1-0.2,0.2v1.8c0,0.1,0.1,0.2,0.2,0.2c0.1,0,0.2-0.1,0.2-0.2v-1.8
		C8.3,13.5,8.2,13.4,8.1,13.4z"/>
	<path class="st2" d="M8.1,12.1c-0.1,0-0.2,0.1-0.2,0.2v0.4C7.9,12.9,8,13,8.1,13c0.1,0,0.2-0.1,0.2-0.2v-0.4
		C8.3,12.2,8.2,12.1,8.1,12.1z"/>
	<path class="st2" d="M14.5,14c-0.1,0-0.2,0.1-0.2,0.2v0.4c0,0.1,0.1,0.2,0.2,0.2c0.1,0,0.2-0.1,0.2-0.2v-0.4
		C14.7,14.1,14.6,14,14.5,14z"/>
	<path class="st2" d="M12.6,10.5c0.1,0,0.2-0.1,0.2-0.2c0-0.1-0.1-0.2-0.2-0.2c-0.1,0-0.2-0.1-0.2-0.2c0-0.1-0.1-0.2-0.2-0.2
		c-0.1,0-0.2,0.1-0.2,0.2C11.9,10.2,12.2,10.5,12.6,10.5z"/>
</g>
</svg>
