<?xml version="1.0" encoding="UTF-8"?><svg id="Layer_1" xmlns="http://www.w3.org/2000/svg" xmlns:xlink="http://www.w3.org/1999/xlink" viewBox="0 0 24.53 31.33"><defs><clipPath id="clippath"><path d="M20.95,12.27c0,4.8-3.89,8.69-8.69,8.69S3.58,17.06,3.58,12.27,7.47,3.58,12.27,3.58s8.69,3.89,8.69,8.69Z" style="fill:none;"/></clipPath></defs><g><path d="M24.53,12.27C24.53,5.49,19.04,0,12.27,0S.29,5.21,.01,11.75h0c0,.18-.01,.35-.01,.52,0,3.01,1.08,5.76,2.88,7.89,3.62,6.07,9.39,11.17,9.39,11.17,.34-.3,5.65-5.07,9.12-10.86,1.96-2.17,3.15-5.05,3.15-8.2Z" style="fill:#e5332a;"/><g style="clip-path:url(#clippath);"><rect x="3.58" y="3.58" width="17.37" height="17.37" style="fill:#ececec;"/><circle cx="12.27" cy="12.27" r="8.69" style="fill:#ececec;"/><circle cx="12.27" cy="12.27" r="8.34" style="fill:#ededed;"/><circle cx="12.27" cy="12.27" r="7.99" style="fill:#ededed;"/><circle cx="12.27" cy="12.27" r="7.64" style="fill:#eee;"/><circle cx="12.27" cy="12.27" r="7.3" style="fill:#efefef;"/><circle cx="12.27" cy="12.27" r="6.95" style="fill:#f0f0f0;"/><circle cx="12.27" cy="12.27" r="6.6" style="fill:#f0f0f0;"/><circle cx="12.27" cy="12.27" r="6.25" style="fill:#f1f1f1;"/><circle cx="12.27" cy="12.27" r="5.91" style="fill:#f2f2f2;"/><circle cx="12.27" cy="12.27" r="5.56" style="fill:#f3f3f3;"/><circle cx="12.27" cy="12.27" r="5.21" style="fill:#f4f4f4;"/><circle cx="12.27" cy="12.27" r="4.86" style="fill:#f5f5f5;"/><circle cx="12.27" cy="12.27" r="4.52" style="fill:#f5f5f5;"/><circle cx="12.27" cy="12.27" r="4.17" style="fill:#f6f6f6;"/><circle cx="12.27" cy="12.27" r="3.82" style="fill:#f7f7f7;"/><circle cx="12.27" cy="12.27" r="3.47" style="fill:#f8f8f8;"/><circle cx="12.27" cy="12.27" r="3.13" style="fill:#f8f8f8;"/><circle cx="12.27" cy="12.27" r="2.78" style="fill:#f9f9f9;"/><circle cx="12.27" cy="12.27" r="2.43" style="fill:#fafafa;"/><circle cx="12.27" cy="12.27" r="2.08" style="fill:#fbfbfb;"/><circle cx="12.27" cy="12.27" r="1.74" style="fill:#fbfbfb;"/><circle cx="12.27" cy="12.27" r="1.39" style="fill:#fcfcfc;"/><circle cx="12.27" cy="12.27" r="1.04" style="fill:#fdfdfd;"/><circle cx="12.27" cy="12.27" r=".69" style="fill:#fdfdfd;"/><path d="M12.61,12.27c0,.19-.16,.35-.35,.35s-.35-.16-.35-.35,.16-.35,.35-.35,.35,.16,.35,.35Z" style="fill:#fff;"/></g></g><rect x="7" y="8.33" width="11" height="8" style="fill:#e5332a;"/><polygon points="18 14.7 18 16.33 16.83 16.33 7 9.35 7 8.33 9.02 8.33 18 14.7" style="fill:#fcfcfc;"/></svg>