<?xml version="1.0" encoding="utf-8"?>
<!-- Generator: Adobe Illustrator 26.2.0, SVG Export Plug-In . SVG Version: 6.00 Build 0)  -->
<svg version="1.1" id="a" xmlns="http://www.w3.org/2000/svg" xmlns:xlink="http://www.w3.org/1999/xlink" x="0px" y="0px"
	 viewBox="0 0 156.3 166.2" style="enable-background:new 0 0 156.3 166.2;" xml:space="preserve">
<style type="text/css">
	.st0{fill:#FFFFFF;}
	.st1{fill:#F91545;}
	.st2{fill:#C6C4C4;}
</style>
<path class="st0" d="M14.4,39.8V23.1l20.9-7.7c0,0,25.1,3.7,41,21.6s34.7,34.1,45.1,37.2c10.5,3.2,25.1,17.3,25.1,17.3v17l-15.4,6.3
	l-27.6-12.6L47.1,52.4L14.4,39.8z"/>
<path class="st1" d="M135.6,115.3c-4-1.9-5.5-2.6-9.2-4c-28-10.3-45.4-35.8-68.5-53.4c-10.4-8-21.4-14.5-34.1-18
	c-4.6-1.2-9-2.2-13.3-2.9v72c0,0,17.5-7.4,46.1-0.4c23.8,5.7,46,16,79.7,7.1C136.1,115.5,135.8,115.4,135.6,115.3z"/>
<path class="st1" d="M33.7,16.8c29.3,9.1,51.5,31,73.1,51.8c4.8,4.6,9.9,9.2,14.2,12.2c5.9,4.1,10.6,5.8,16.5,8.2
	c4.8,2,4.4,0.4,8.9,2.4l-0.1-63.2c0,0-32.9,11.2-66-7.9C57.7,14.5,45.5,13.5,33.7,16.8C36.3,17.4,31.2,16.1,33.7,16.8L33.7,16.8z"/>
<path class="st2" d="M152.6,19.3c-2.3-1.6-5.3-2-8-0.9c-17.4,6.6-39.8,5.8-61.7-2.2c-24.1-9-43.7-12.5-68.6-3.7V7.1
	c0-4-3.2-7.2-7.2-7.2S0,3.2,0,7.1v151.9c0,4,3.2,7.1,7.2,7.1s7.2-3.2,7.2-7.1v-45c23.8-9.4,41.6-6.4,65.2,2.3
	c13.2,4.9,26.5,7.3,39.1,7.3s23.2-2.2,33.1-6.7c2.8-1.2,4.6-4.2,4.6-7.2V26.3C156.4,23.5,155,20.9,152.6,19.3L152.6,19.3z
	 M146.4,108.5c-17.6,7.5-40.7,7-63.4-1.5c-24.2-8.9-43.8-12.4-68.7-3.6V23.1c5-2.1,12.4-4.6,21.9-5.5c0,0,1.3-0.2,2.7-0.2
	c19.4-1.1,40.6,8,40.6,8c23.3,8.6,47.5,9.6,66.9,2.8V108.5L146.4,108.5z"/>
</svg>
