<?xml version="1.0"?>
<svg xmlns="http://www.w3.org/2000/svg" viewBox="0 0 512 512" width="512" height="512"><g id="outline"><path d="M256,232a64,64,0,1,0,64,64A64.072,64.072,0,0,0,256,232Zm0,112a48,48,0,1,1,48-48A48.053,48.053,0,0,1,256,344Z"/><path d="M256,264a32,32,0,1,0,32,32A32.036,32.036,0,0,0,256,264Zm0,48a16,16,0,1,1,16-16A16.019,16.019,0,0,1,256,312Z"/><path d="M400,256V208a8,8,0,0,0-8-8H328a8,8,0,0,0-8,8v48a8,8,0,0,0,8,8h64A8,8,0,0,0,400,256Zm-16-8H336V216h48Z"/><path d="M480,232.118V186a50.057,50.057,0,0,0-50-50H240V112a8,8,0,0,0-8-8V86a14.015,14.015,0,0,0-14-14H184V64a8,8,0,0,0-8-8H112a8,8,0,0,0-8,8V80H92a20.023,20.023,0,0,0-20,20v37.006A50.085,50.085,0,0,0,32,186v14.4A20.032,20.032,0,0,0,16,220V372a20.032,20.032,0,0,0,16,19.6V406a50.057,50.057,0,0,0,50,50H430a50.057,50.057,0,0,0,50-50V359.882A18.022,18.022,0,0,0,496,342V250A18.022,18.022,0,0,0,480,232.118ZM184,88h32v16H184Zm-8,32h48v16H176ZM120,72h48v8H120Zm48,24v8a8,8,0,0,0-8,8v24h-8V96Zm-48,0h16v40H120Zm-32,4a4,4,0,0,1,4-4h12v40H88ZM48,186a34.038,34.038,0,0,1,34-34H430a34.038,34.038,0,0,1,34,34v46H449c-.337,0-.667.032-1,.051V192a24.028,24.028,0,0,0-24-24H88a24.028,24.028,0,0,0-24,24v8H48ZM432,347.863V400a8.009,8.009,0,0,1-8,8H88a8.009,8.009,0,0,1-8-8v-8h4a20.023,20.023,0,0,0,20-20V220a20.023,20.023,0,0,0-20-20H80v-8a8.009,8.009,0,0,1,8-8H424a8.009,8.009,0,0,1,8,8v52.137A17.882,17.882,0,0,0,431,250v92A17.882,17.882,0,0,0,432,347.863ZM32,248H48v24H32Zm0,40H48v16H32Zm0,32H48v24H32Zm4,56a4,4,0,0,1-4-4V360H56a8,8,0,0,0,8-8V240a8,8,0,0,0-8-8H32V220a4,4,0,0,1,4-4H84a4,4,0,0,1,4,4V372a4,4,0,0,1-4,4Zm428,30a34.038,34.038,0,0,1-34,34H82a34.038,34.038,0,0,1-34-34V392H64v8a24.028,24.028,0,0,0,24,24H424a24.028,24.028,0,0,0,24-24V359.949c.333.019.663.051,1,.051h15Zm16-134H464a8,8,0,0,0,0,16h16v16H464a8,8,0,0,0,0,16h16v22a2,2,0,0,1-2,2H449a2,2,0,0,1-2-2V250a2,2,0,0,1,2-2h29a2,2,0,0,1,2,2Z"/><path d="M144,232a24.028,24.028,0,0,0-24,24v80a24,24,0,0,0,48,0V256A24.028,24.028,0,0,0,144,232Zm8,104a8,8,0,0,1-16,0V256a8,8,0,0,1,16,0Z"/><rect x="352" y="224" width="16" height="16"/><path d="M400,280a8,8,0,0,0-8,8v8a8,8,0,0,0,16,0v-8A8,8,0,0,0,400,280Z"/><path d="M400,320a8,8,0,0,0-8,8v40a8,8,0,0,0,16,0V328A8,8,0,0,0,400,320Z"/></g></svg>
