<?xml version="1.0" encoding="UTF-8"?><svg id="Layer_1" xmlns="http://www.w3.org/2000/svg" viewBox="0 0 153.15 223.74"><g><path d="M76.57,36.23c-33.22,0-60.24,27.02-60.24,60.24s27.02,60.24,60.24,60.24,60.24-27.02,60.24-60.24-27.02-60.24-60.24-60.24Zm0,115.48c-30.46,0-55.24-24.78-55.24-55.24s24.78-55.24,55.24-55.24,55.24,24.78,55.24,55.24-24.78,55.24-55.24,55.24Z" style="stroke:#000; stroke-miterlimit:10;"/><path d="M122.7,36.04l-6.36-24.4c-1.71-6.56-7.64-11.14-14.42-11.14H51.22c-6.78,0-12.71,4.58-14.42,11.14l-6.36,24.4C12.26,49.95,.5,71.86,.5,96.47c0,41.95,34.13,76.07,76.07,76.07s76.07-34.13,76.07-76.07c0-24.61-11.76-46.52-29.95-60.44ZM41.64,12.9c1.14-4.36,5.08-7.4,9.58-7.4h50.69c4.5,0,8.44,3.04,9.58,7.4l4.9,18.79c-11.59-7.15-25.23-11.29-39.83-11.29s-28.24,4.14-39.83,11.29l4.9-18.79Zm34.93,154.65c-39.19,0-71.07-31.88-71.07-71.07S37.38,25.4,76.57,25.4s71.07,31.88,71.07,71.07-31.88,71.07-71.07,71.07Z" style="stroke:#000; stroke-miterlimit:10;"/><path d="M125.28,161.32c-1.33-.36-2.71,.42-3.07,1.76l-15.01,55.17H45.95l-15.01-55.17c-.36-1.33-1.74-2.11-3.07-1.76-1.33,.36-2.12,1.74-1.76,3.07l15.51,57.01c.3,1.09,1.28,1.84,2.41,1.84H109.11c1.13,0,2.12-.76,2.41-1.84l15.51-57.01c.36-1.33-.42-2.71-1.76-3.07Z" style="stroke:#000; stroke-miterlimit:10;"/><path d="M79.07,116.6v-4.4c0-1.38-1.12-2.5-2.5-2.5s-2.5,1.12-2.5,2.5v4.4c-6.27,1.18-11.04,6.69-11.04,13.3,0,7.47,6.07,13.54,13.54,13.54s13.54-6.07,13.54-13.54c0-6.61-4.77-12.12-11.04-13.3Zm-2.5,21.84c-4.71,0-8.54-3.83-8.54-8.54s3.75-8.45,8.39-8.53c.05,0,.1,.02,.15,.02s.1-.01,.15-.02c4.64,.08,8.38,3.88,8.38,8.53s-3.83,8.54-8.54,8.54Z" style="stroke:#000; stroke-miterlimit:10;"/><path d="M76.57,105.12c4.77,0,8.64-3.88,8.64-8.64s-3.88-8.64-8.64-8.64-8.64,3.87-8.64,8.64l-35.98,10.84c-1.32,.4-2.07,1.79-1.67,3.11,.32,1.08,1.32,1.78,2.39,1.78,.24,0,.48-.04,.72-.11l35.99-10.84c1.55,2.33,4.2,3.86,7.2,3.86Zm0-12.29c2.01,0,3.64,1.64,3.64,3.64s-1.63,3.64-3.64,3.64-3.64-1.63-3.64-3.64,1.63-3.64,3.64-3.64Z" style="stroke:#000; stroke-miterlimit:10;"/></g><path d="M76.57,62.29c-1.38,0-2.5-1.12-2.5-2.5v-10.13c0-1.38,1.12-2.5,2.5-2.5s2.5,1.12,2.5,2.5v10.13c0,1.38-1.12,2.5-2.5,2.5Z" style="stroke:#000; stroke-miterlimit:10;"/><path d="M123.38,98.97h-10.13c-1.38,0-2.5-1.12-2.5-2.5s1.12-2.5,2.5-2.5h10.13c1.38,0,2.5,1.12,2.5,2.5s-1.12,2.5-2.5,2.5Z" style="stroke:#000; stroke-miterlimit:10;"/><path d="M39.89,98.97h-10.13c-1.38,0-2.5-1.12-2.5-2.5s1.12-2.5,2.5-2.5h10.13c1.38,0,2.5,1.12,2.5,2.5s-1.12,2.5-2.5,2.5Z" style="stroke:#000; stroke-miterlimit:10;"/><path d="M102.51,73.03c-.64,0-1.28-.24-1.77-.73-.98-.98-.98-2.56,0-3.54l7.16-7.16c.98-.98,2.56-.98,3.54,0s.98,2.56,0,3.54l-7.16,7.16c-.49,.49-1.13,.73-1.77,.73Z" style="stroke:#000; stroke-miterlimit:10;"/><path d="M43.47,132.07c-.64,0-1.28-.24-1.77-.73-.98-.98-.98-2.56,0-3.54l7.16-7.16c.98-.98,2.56-.98,3.54,0s.98,2.56,0,3.54l-7.16,7.16c-.49,.49-1.13,.73-1.77,.73Z" style="stroke:#000; stroke-miterlimit:10;"/><path d="M109.67,132.07c-.64,0-1.28-.24-1.77-.73l-7.16-7.16c-.98-.98-.98-2.56,0-3.54s2.56-.98,3.54,0l7.16,7.16c.98,.98,.98,2.56,0,3.54-.49,.49-1.13,.73-1.77,.73Z" style="stroke:#000; stroke-miterlimit:10;"/><path d="M50.63,73.03c-.64,0-1.28-.24-1.77-.73l-7.16-7.16c-.98-.98-.98-2.56,0-3.54s2.56-.98,3.54,0l7.16,7.16c.98,.98,.98,2.56,0,3.54-.49,.49-1.13,.73-1.77,.73Z" style="stroke:#000; stroke-miterlimit:10;"/><path d="M62.58,195.71h-12.36c-1.38,0-2.5-1.12-2.5-2.5v-12.37c0-1.38,1.12-2.5,2.5-2.5h12.36c1.38,0,2.5,1.12,2.5,2.5v12.37c0,1.38-1.12,2.5-2.5,2.5Zm-9.86-5h7.36v-7.37h-7.36v7.37Z" style="stroke:#000; stroke-miterlimit:10;"/><path d="M50.21,208.08c-1.38,0-2.5-1.12-2.5-2.5v-12.37c0-1.38,1.12-2.5,2.5-2.5h12.36c1.38,0,2.5,1.12,2.5,2.5s-1.12,2.5-2.5,2.5h-9.86v9.87c0,1.38-1.12,2.5-2.5,2.5Z" style="stroke:#000; stroke-miterlimit:10;"/><path d="M82.75,195.71h-12.36c-1.38,0-2.5-1.12-2.5-2.5v-12.37c0-1.38,1.12-2.5,2.5-2.5h12.36c1.38,0,2.5,1.12,2.5,2.5s-1.12,2.5-2.5,2.5h-9.86v7.37h9.86c1.38,0,2.5,1.12,2.5,2.5s-1.12,2.5-2.5,2.5Z" style="stroke:#000; stroke-miterlimit:10;"/><path d="M82.75,208.08h-12.36c-1.38,0-2.5-1.12-2.5-2.5s1.12-2.5,2.5-2.5h9.86v-7.37h-9.86c-1.38,0-2.5-1.12-2.5-2.5s1.12-2.5,2.5-2.5h12.36c1.38,0,2.5,1.12,2.5,2.5v12.37c0,1.38-1.12,2.5-2.5,2.5Z" style="stroke:#000; stroke-miterlimit:10;"/><path d="M102.93,183.35h-12.37c-1.38,0-2.5-1.12-2.5-2.5s1.12-2.5,2.5-2.5h12.37c1.38,0,2.5,1.12,2.5,2.5s-1.12,2.5-2.5,2.5Z" style="stroke:#000; stroke-miterlimit:10;"/><path d="M102.93,208.08h-12.37c-1.38,0-2.5-1.12-2.5-2.5s1.12-2.5,2.5-2.5h12.37c1.38,0,2.5,1.12,2.5,2.5s-1.12,2.5-2.5,2.5Z" style="stroke:#000; stroke-miterlimit:10;"/><path d="M96.75,208.08c-1.38,0-2.5-1.12-2.5-2.5v-24.73c0-1.38,1.12-2.5,2.5-2.5s2.5,1.12,2.5,2.5v24.73c0,1.38-1.12,2.5-2.5,2.5Z" style="stroke:#000; stroke-miterlimit:10;"/></svg>