<svg id="Capa_1" enable-background="new 0 0 512 512" height="512" viewBox="0 0 512 512" width="512" xmlns="http://www.w3.org/2000/svg"><g><path d="m125.5 512h80.095l12.532-41.082h-85.283z"/><path d="m35.434 192.217 43.376 28.482 23.943-26.897-47.023-36.628z"/><path d="m304.994 512h80.097l-7.333-41.082h-84.945z"/><path d="m168.47 271.62-30.257 169.265h89.076l28.711-94.119 27.907 94.119h88.489l-30.215-169.261.014-63.363h-173.725z"/><path d="m476.566 192.217-18.881-32.599-46.567 36.274 22.072 24.807z"/><path d="m387.267 38.035-85.811-38.035v36.172c0 25.064-20.392 45.456-45.457 45.456-25.064 0-45.456-20.391-45.456-45.456v-36.172l-85.811 38.035-53.808 92.904 51.841 40.382 45.705-51.342v58.248h173.732l.013-59.771 48.895 54.951 51.381-40.023z"/><path d="m256 51.593c8.504 0 15.423-6.918 15.423-15.422v-36.171h-30.845v36.172c0 8.503 6.918 15.421 15.422 15.421z"/></g></svg>