<?xml version="1.0" encoding="UTF-8"?><svg id="Layer_1" xmlns="http://www.w3.org/2000/svg" viewBox="0 0 154.33 223.87"><path d="M77.17,18.53c-1.38,0-2.5-1.12-2.5-2.5V2.5c0-1.38,1.12-2.5,2.5-2.5s2.5,1.12,2.5,2.5v13.53c0,1.38-1.12,2.5-2.5,2.5Z" style="fill:#666;"/><path d="M32.93,88.02c-.42,0-.84-.11-1.23-.33-8.29-4.71-13.26-12.4-14.77-22.87-.2-1.37,.75-2.63,2.12-2.83,1.37-.19,2.63,.75,2.83,2.12,1.29,8.99,5.31,15.28,12.29,19.24,1.2,.68,1.62,2.21,.94,3.41-.46,.81-1.31,1.27-2.18,1.27Z" style="fill:#ccc;"/><path d="M121.4,87.97c-.87,0-1.72-.46-2.18-1.27-.68-1.2-.26-2.73,.94-3.41,6.97-3.96,10.99-10.25,12.29-19.24,.2-1.37,1.46-2.31,2.83-2.12,1.37,.2,2.31,1.46,2.12,2.83-1.51,10.47-6.48,18.17-14.77,22.87-.39,.22-.81,.33-1.23,.33Z" style="fill:#ccc;"/><path d="M12.86,107.37c-.36,0-.73-.08-1.07-.24-1.25-.59-1.78-2.09-1.18-3.33l24.42-51.21c.6-1.25,2.09-1.78,3.33-1.18,1.25,.59,1.78,2.09,1.18,3.33L15.12,105.94c-.43,.9-1.32,1.42-2.26,1.42Z" style="fill:#666;"/><path d="M141.47,107.37c-.93,0-1.83-.53-2.26-1.42l-24.42-51.21c-.59-1.25-.07-2.74,1.18-3.33,1.25-.6,2.74-.07,3.33,1.18l24.42,51.21c.59,1.25,.07,2.74-1.18,3.33-.35,.17-.71,.24-1.07,.24Z" style="fill:#666;"/><path d="M70.35,162.76c-.07,0-.13,0-.2,0-9.71-.77-18.5-7.41-26.88-20.3-.75-1.16-.42-2.71,.73-3.46,1.16-.75,2.71-.42,3.46,.73,7.48,11.51,15.03,17.41,23.08,18.04,1.38,.11,2.4,1.31,2.29,2.69-.1,1.31-1.2,2.3-2.49,2.3Z" style="fill:#ccc;"/><path d="M84.38,162.76c-1.29,0-2.39-.99-2.49-2.3-.11-1.38,.92-2.58,2.29-2.69,8.06-.64,15.61-6.54,23.09-18.04,.75-1.16,2.3-1.48,3.46-.73,1.16,.75,1.49,2.3,.73,3.46-8.38,12.9-17.18,19.54-26.88,20.3-.07,0-.13,0-.2,0Z" style="fill:#ccc;"/><path d="M78.17,41.82c-.34,0-.69-.07-1.01-.21l-32.8-14.46c-1.26-.56-1.84-2.03-1.28-3.3s2.03-1.84,3.3-1.28l31.77,14,30.17-13.98c1.25-.58,2.74-.03,3.32,1.22,.58,1.25,.04,2.74-1.22,3.32l-31.2,14.46c-.33,.15-.69,.23-1.05,.23Z" style="fill:#ccc;"/><path d="M78.17,111.64c-.34,0-.69-.07-1.01-.21l-32.8-14.46c-1.26-.56-1.84-2.03-1.28-3.3s2.03-1.83,3.3-1.28l31.77,14,30.17-13.98c1.26-.58,2.74-.04,3.32,1.22,.58,1.25,.04,2.74-1.22,3.32l-31.2,14.46c-.33,.15-.69,.23-1.05,.23Z" style="fill:#ccc;"/><path d="M70.35,211.87h-24.98c-1.38,0-2.5-1.12-2.5-2.5s1.12-2.5,2.5-2.5h24.98c1.38,0,2.5,1.12,2.5,2.5s-1.12,2.5-2.5,2.5Z" style="fill:#ccc;"/><path d="M109.36,211.87h-24.99c-1.38,0-2.5-1.12-2.5-2.5s1.12-2.5,2.5-2.5h24.99c1.38,0,2.5,1.12,2.5,2.5s-1.12,2.5-2.5,2.5Z" style="fill:#ccc;"/><path d="M77.17,84.51c-6.34,0-11.5-5.16-11.5-11.5,0-5.64,8.03-14.9,9.64-16.7,.47-.53,1.15-.83,1.86-.83h0c.71,0,1.39,.3,1.86,.83,1.61,1.8,9.63,11.06,9.63,16.7,0,6.34-5.16,11.5-11.5,11.5Zm0-22.67c-3.13,3.86-6.5,8.88-6.5,11.17,0,3.58,2.92,6.5,6.5,6.5s6.5-2.92,6.5-6.5c0-2.29-3.37-7.31-6.5-11.17Z" style="fill:#666;"/><g><path d="M154.09,98.98L116.91,20.67c-2.06-4.34-6.49-7.14-11.29-7.14h-10.39V2.5c0-1.38-1.12-2.5-2.5-2.5h-31.11c-1.38,0-2.5,1.12-2.5,2.5V13.53h-10.39c-4.8,0-9.23,2.8-11.29,7.14L.24,98.98c-.29,.6-.32,1.29-.1,1.92,.22,.63,.69,1.14,1.29,1.42,0,0,19.52,9.14,19.53,9.15,.58,.27,1.31,.31,1.92,.08,.62-.23,1.13-.7,1.41-1.3l15.76-34.25c.58-1.25,.03-2.74-1.23-3.32s-2.74-.03-3.32,1.23l-14.71,31.97-14.97-7.01L41.95,22.81c1.24-2.6,3.89-4.28,6.78-4.28h56.89c2.88,0,5.54,1.68,6.77,4.28l36.11,76.04-14.98,7.01-14.71-31.97c-.58-1.25-2.06-1.8-3.32-1.23s-1.8,2.06-1.23,3.32l15.76,34.25c.28,.61,.79,1.07,1.41,1.3,.28,.1,.57,.15,.86,.15,.36,0,.73-.08,1.06-.24l19.53-9.15c.6-.28,1.07-.79,1.29-1.42,.23-.63,.19-1.32-.09-1.92ZM64.11,13.53V5h26.11V13.53h-26.11Z"/><path d="M109.36,47.51c-1.38,0-2.5,1.12-2.5,2.5v86.19c0,.05,0,.1,0,.16v82.51h-19.98V126.45c0-5.6-4.27-10.16-9.51-10.16s-9.51,4.56-9.51,10.16v92.42h-19.98V50.01c0-1.38-1.12-2.5-2.5-2.5s-2.5,1.12-2.5,2.5V221.37c0,1.38,1.12,2.5,2.5,2.5h24.98c1.38,0,2.5-1.12,2.5-2.5V126.45c0-2.85,2.03-5.16,4.51-5.16s4.51,2.32,4.51,5.16v94.92c0,1.38,1.12,2.5,2.5,2.5h24.98c1.38,0,2.5-1.12,2.5-2.5v-84.85c0-.05,0-.1,0-.16V50.01c0-1.38-1.12-2.5-2.5-2.5Z"/><path d="M59.48,88.5c4.55,4.5,10.8,7.28,17.69,7.28,13.88,0,25.17-11.29,25.17-25.17s-11.29-25.17-25.17-25.17-25.17,11.29-25.17,25.17c0,6.89,2.78,13.14,7.28,17.69,.03,.04,.06,.08,.09,.11,.03,.04,.08,.06,.11,.09Zm17.69,2.28c-4.66,0-8.95-1.61-12.37-4.27l28.27-28.27c2.66,3.42,4.27,7.71,4.27,12.37,0,11.12-9.05,20.17-20.17,20.17Zm0-40.35c4.66,0,8.95,1.61,12.37,4.27l-28.27,28.27c-2.67-3.42-4.27-7.71-4.27-12.37,0-11.12,9.05-20.17,20.17-20.17Z"/></g></svg>