<svg id="Capa_1" enable-background="new 0 0 511.982 511.982" height="512" viewBox="0 0 511.982 511.982" width="512" xmlns="http://www.w3.org/2000/svg"><g><path d="m382.253 63.877c3.58 1.929 8.175.642 10.16-3.045l26.818-49.774c1.965-3.646.602-8.195-3.045-10.16-3.646-1.963-8.195-.601-10.16 3.045l-26.818 49.774c-1.965 3.647-.602 8.196 3.045 10.16zm128.806 31.894c-1.964-3.646-6.514-5.009-10.16-3.045l-49.775 26.818c-3.646 1.965-5.01 6.514-3.045 10.16 1.986 3.686 6.575 4.981 10.16 3.045l49.775-26.818c3.647-1.965 5.01-6.514 3.045-10.16zm-339.026 280.021c3.449 0 6.691-1.343 9.129-3.781l15.305-15.305c5.034-5.034 5.034-13.226 0-18.26l-22.957-22.956c-2.438-2.438-5.681-3.781-9.129-3.781-3.449 0-6.691 1.343-9.129 3.781l-15.305 15.305c-2.439 2.438-3.782 5.681-3.782 9.13 0 3.448 1.343 6.69 3.781 9.13l22.958 22.957c2.438 2.438 5.681 3.78 9.129 3.78zm-7.652-48.218 20.003 20.003-12.351 12.351-20.003-20.003zm250.562-230.559c2.928 2.929 7.677 2.928 10.606 0l38.296-38.297c2.929-2.93 2.929-7.678 0-10.607-2.929-2.928-7.678-2.928-10.606 0l-38.296 38.297c-2.929 2.929-2.929 7.677 0 10.607zm-87.115-60.67c-5.553-5.608-14.956-5.606-20.507-.001l-11.313 11.313c-5.51 5.442-5.629 14.617-.264 20.217l-57.409 57.4c-.342.341-1.078 1.17-1.57 2.23l-38.358 83.61-186.744 186.745c-15.475 15.265-15.563 41.108 0 56.521l45.914 45.915c15.583 15.582 40.938 15.582 56.521 0l94.09-94.09c2.929-2.93 2.929-7.678 0-10.607-2.929-2.928-7.678-2.928-10.606 0l-94.09 94.09c-9.734 9.734-25.573 9.736-35.308 0l-45.914-45.915c-9.681-9.586-9.649-25.752 0-35.307l182.394-182.394 81.222 81.222-63.404 63.404c-2.929 2.93-2.929 7.678 0 10.607 2.929 2.928 7.678 2.928 10.606 0l67.757-67.757 83.61-38.358c.717-.414 1.164-.528 2.232-1.572l57.408-57.398c5.685 5.381 14.651 5.285 20.206-.271l11.314-11.314c5.608-5.557 5.577-14.984 0-20.506zm-29.722 261.957-84.451-84.451 32.249-70.292 122.495 122.494zm155.94-93.313-100.661-100.661c-2.929-2.928-7.678-2.928-10.606 0-2.929 2.93-2.929 7.678 0 10.607l90.693 90.693-52.147 52.139-127.133-127.134 52.146-52.138 11.744 11.744c2.929 2.928 7.678 2.928 10.606 0 2.929-2.93 2.929-7.678 0-10.607l-21.721-21.72 10.606-10.607 147.079 147.079zm-335.58 152.633c-3.449 0-6.691 1.343-9.129 3.781l-15.305 15.305c-5.034 5.034-5.034 13.226 0 18.26l22.957 22.957c2.438 2.438 5.681 3.781 9.129 3.781 3.449 0 6.691-1.343 9.129-3.781l15.305-15.305c5.034-5.034 5.034-13.226 0-18.26l-22.957-22.956c-2.437-2.439-5.679-3.782-9.129-3.782zm7.653 48.219-20.003-20.003 12.351-12.351 20.003 20.003z"/></g></svg>