<svg height="496pt" viewBox="-112 0 496 496" width="496pt" xmlns="http://www.w3.org/2000/svg"><path d="m216.800781 158.886719 56.160157-8.023438-6.351563-95.238281c-1.519531-22.792969-16.496094-42.175781-38.167969-49.402344l-18.664062-6.222656h-41.296875v8c0 17.648438-14.351563 32-32 32-17.648438 0-32-14.351562-32-32v-8h-41.296875l-18.664063 6.214844c-21.664062 7.226562-36.640625 26.617187-38.167969 49.402344l-6.351562 95.253906 56.160156 8.023437c-.71875 19.425781-3.34375 38.792969-8.113281 57.867188-5.023437 20.070312-7.566406 40.742187-7.566406 61.4375 0 6.753906.273437 13.542969.808593 20.199219l15.808594 197.601562h62.832032l15.957031-223.449219c.050781-.613281 1.144531-.613281 1.183593 0l15.960938 223.449219h62.832031l15.816407-197.59375c.527343-6.652344.800781-13.453125.800781-20.207031 0-20.695313-2.542969-41.367188-7.632813-61.695313-4.710937-18.855468-7.328125-38.191406-8.046875-57.617187zm-1.144531-140.0625.320312.105469-10.480468 73.375c-4.015625-8.96875-9.191406-17.375-15.441406-25.074219 13.648437-12.351563 23-29.292969 25.601562-48.40625zm34.984375 37.855469 5.367187 80.449218-39.320312 5.613282c.234375-11.335938 1.007812-22.703126 2.617188-33.902344l11.960937-83.710938c11.101563 6.640625 18.488281 18.238282 19.375 31.550782zm-114.160156-.679688c23.742187 0 43.511719-17.328125 47.335937-40h16.113282c-3.960938 31.519531-30.875 56-63.449219 56-32.578125 0-59.488281-24.480469-63.449219-56h16.113281c3.824219 22.671875 23.589844 40 47.335938 40zm7.757812 56c.160157.65625.242188 1.320312.242188 1.96875v6.03125c0 4.40625-3.585938 8-8 8-4.417969 0-8-3.59375-8-8v-6.03125c0-.648438.085937-1.3125.230469-1.9375l6.03125-24.121094c.585937.019532 1.152343.089844 1.738281.089844.582031 0 1.152343-.070312 1.734375-.089844zm-76.773437-19.6875-10.480469-73.375.320313-.105469c2.605468 19.113281 11.960937 36.054688 25.597656 48.414063-6.246094 7.691406-11.421875 16.097656-15.4375 25.066406zm-45.144532-35.632812c.886719-13.3125 8.273438-24.917969 19.375-31.550782l11.960938 83.710938c1.609375 11.199218 2.382812 22.566406 2.617188 33.902344l-39.320313-5.613282zm193.398438 240.449218-14.621094 182.871094h-33.167968l-14.898438-208.59375c-.40625-5.75-3.792969-10.613281-8.542969-13.261719v-26.144531h-16v26.144531c-4.753906 2.648438-8.144531 7.519531-8.542969 13.261719l-14.914062 208.59375h-33.167969l-14.625-182.871094c-.503906-6.242187-.757812-12.601562-.757812-18.929687 0-19.382813 2.382812-38.75 7.152343-57.816407 5.871094-23.488281 8.847657-47.671874 8.847657-71.886718 0-3.734375-.257813-7.480469-.402344-11.230469l.289063.046875 2.425781-14.519531c2.847656-17.089844 10.078125-32.816407 20.976562-46.050781 7.046875 4.195312 14.757813 7.335937 22.972657 9.210937l-5.558594 22.222656c-.464844 1.914063-.703125 3.855469-.703125 5.792969v6.03125c0 13.230469 10.765625 24 24 24 13.230469 0 24-10.769531 24-24v-6.03125c0-1.9375-.242188-3.878906-.71875-5.824219l-5.554688-22.199219c8.21875-1.875 15.929688-5.015624 22.976563-9.210937 10.90625 13.234375 18.128906 28.960937 20.976562 46.058594l2.425782 14.519531.285156-.046875c-.136719 3.75-.390625 7.496094-.390625 11.230469 0 24.214844 2.976562 48.398437 8.910156 72.144531 4.707031 18.808594 7.089844 38.175781 7.089844 57.558594 0 6.328125-.257813 12.6875-.761719 18.929687zm0 0"/><path d="m128.480469 152h16v24h-16zm0 0"/><path d="m128.480469 192h16v24h-16zm0 0"/></svg>