<?xml version="1.0" encoding="UTF-8"?><svg id="Layer_1" xmlns="http://www.w3.org/2000/svg" viewBox="0 0 93.44 212.41"><g><path d="M63,211.91c-1.38,0-2.5-1.12-2.5-2.5s1.12-2.5,2.5-2.5c4.14,0,7.5-3.36,7.5-7.5v-11.87c0-1.38,1.12-2.5,2.5-2.5s2.5,1.12,2.5,2.5v11.87c0,6.89-5.61,12.5-12.5,12.5Z" style="fill:#ebe7f2;"/><path d="M73,78.53c-1.38,0-2.5-1.12-2.5-2.5,0-17.88-15.08-32.43-33.61-32.43-1.38,0-2.5-1.12-2.5-2.5s1.12-2.5,2.5-2.5c21.29,0,38.61,16.79,38.61,37.43,0,1.38-1.12,2.5-2.5,2.5Z" style="fill:#ebe7f2;"/><g><path d="M10.44,163.11c1.38,0,2.5-1.82,2.5-4.07v-55.96c0-2.25-1.12-4.07-2.5-4.07s-2.5,1.82-2.5,4.07v55.96c0,2.25,1.12,4.07,2.5,4.07Z" style="stroke:#000; stroke-miterlimit:10;"/><path d="M83,185.04c-1.38,0-2.5,1.12-2.5,2.5v11.87c0,4.14-3.36,7.5-7.5,7.5H20.44c-4.14,0-7.5-3.36-7.5-7.5v-11.87c0-1.38-1.12-2.5-2.5-2.5s-2.5,1.12-2.5,2.5v11.87c0,6.89,5.61,12.5,12.5,12.5h52.56c6.89,0,12.5-5.61,12.5-12.5v-11.87c0-1.38-1.12-2.5-2.5-2.5Z" style="stroke:#000; stroke-miterlimit:10;"/><path d="M83,98.65c-1.38,0-2.5,1.86-2.5,4.15v55.76c0,2.29,1.12,4.15,2.5,4.15s2.5-1.86,2.5-4.15v-55.76c0-2.29-1.12-4.15-2.5-4.15Z" style="stroke:#000; stroke-miterlimit:10;"/><path d="M10.44,78.53c1.38,0,2.5-1.12,2.5-2.5,0-18.63,15.15-33.78,33.78-33.78s33.78,15.15,33.78,33.78c0,1.38,1.12,2.5,2.5,2.5s2.5-1.12,2.5-2.5c0-21.38-17.4-38.78-38.78-38.78S7.94,54.65,7.94,76.03c0,1.38,1.12,2.5,2.5,2.5Z" style="stroke:#000; stroke-miterlimit:10;"/><path d="M18.72,33.06h12.5c1.38,0,2.5-1.12,2.5-2.5v-2h5.15v3.03c0,1.38,1.12,2.5,2.5,2.5s2.5-1.12,2.5-2.5V14.89h5.71V31.59c0,1.38,1.12,2.5,2.5,2.5s2.5-1.12,2.5-2.5V14.28c2.54-1.12,4.31-3.65,4.31-6.59,0-3.97-3.23-7.2-7.2-7.2h-10.11c-3.97,0-7.2,3.23-7.2,7.2,0,3.01,1.86,5.59,4.48,6.66v9.2h-5.15v-2c0-1.38-1.12-2.5-2.5-2.5h-12.5c-1.38,0-2.5,1.12-2.5,2.5v9c0,1.38,1.12,2.5,2.5,2.5ZM41.58,5.5h10.11c1.21,0,2.2,.99,2.2,2.2s-.99,2.2-2.2,2.2h-10.11c-1.21,0-2.2-.99-2.2-2.2s.99-2.2,2.2-2.2ZM21.22,24.06h7.5v4h-7.5v-4Z" style="stroke:#000; stroke-miterlimit:10;"/></g><path d="M90.94,101.55H2.5c-1.38,0-2.5-1.12-2.5-2.5v-21.97c0-1.38,1.12-2.5,2.5-2.5H90.94c1.38,0,2.5,1.12,2.5,2.5v21.97c0,1.38-1.12,2.5-2.5,2.5ZM5,96.55H88.44v-16.97H5v16.97Z"/><path d="M90.94,187.05H2.5C1.12,187.05,0,185.93,0,184.55v-21.97c0-1.38,1.12-2.5,2.5-2.5H90.94c1.38,0,2.5,1.12,2.5,2.5v21.97c0,1.38-1.12,2.5-2.5,2.5Zm-85.94-5H88.44v-16.97H5v16.97Z"/><path d="M73,150.98c-1.38,0-2.5-1.12-2.5-2.5v-33.6c0-1.38,1.12-2.5,2.5-2.5s2.5,1.12,2.5,2.5v33.6c0,1.38-1.12,2.5-2.5,2.5Z" style="fill:#ebe7f2;"/></g><polyline points="57.74 136.87 42.86 110.37 25.91 110.57 25.17 150.98 36.56 150.98 36.56 122.76 54.15 150.98 68.27 150.98 68.27 110.44 57.74 110.44 57.74 139.82" style="stroke:#000; stroke-miterlimit:10; stroke-width:2px;"/></svg>