<?xml version="1.0" encoding="iso-8859-1"?>
<!-- Generator: Adobe Illustrator 19.0.0, SVG Export Plug-In . SVG Version: 6.00 Build 0)  -->
<svg version="1.1" id="Capa_1" xmlns="http://www.w3.org/2000/svg" xmlns:xlink="http://www.w3.org/1999/xlink" x="0px" y="0px"
	 viewBox="0 0 511.999 511.999" style="enable-background:new 0 0 511.999 511.999;" xml:space="preserve">
<g>
	<g>
		<path d="M276,99.999c-5.52,0-10,4.48-10,10s4.48,10,10,10c5.52,0,10-4.48,10-10S281.52,99.999,276,99.999z"/>
	</g>
</g>
<g>
	<g>
		<path d="M336,20h-20c-5.569,0-10-4.551-10-10c0-5.522-4.477-10-10-10h-80c-5.523,0-10,4.478-10,10c0,5.499-4.496,10-10,10h-20
			C115.346,19.999,66,69.345,66,129.999c0,3.344,1.671,6.466,4.453,8.32l56.783,37.855l15.282,61.117
			c5.74,22.983,4.563,48.056-4.863,71.653C127.854,337.81,106,371.745,106,429.999v72c0,5.522,4.477,10,10,10h120
			c4.704,0,8.772-3.279,9.771-7.876L256,457.073l10.229,47.05c0.999,4.597,5.067,7.876,9.771,7.876h120c5.523,0,10-4.478,10-10v-72
			c0-58.289-21.776-91.96-31.653-121.05c-9.405-23.544-10.619-48.615-4.866-71.654l15.283-61.12l56.783-37.855
			c2.782-1.854,4.453-4.977,4.453-8.32C446,69.346,396.654,20,336,20z M224.268,19.999h63.461c0.882,2.474,2.089,4.802,3.559,6.942
			L256,39.395L220.708,26.94C222.18,24.801,223.387,22.473,224.268,19.999z M129.385,153.571l-43.234-28.823
			C88.88,77.557,128.137,39.999,176,39.999h10v31.485C158.393,91.597,138.359,120.754,129.385,153.571z M246,408.926l-18.06,83.073
			H126v-62c0-53.388,20.198-84.314,30.227-113.63c11.037-27.629,12.42-56.995,5.695-83.926l-15.7-62.789
			c5.085-27.804,19.206-53.267,39.778-72.331v92.676c0,35.202,26.123,64.406,60,69.274V408.926z M206,189.999
			c0-17.46,0-124.225,0-147.042l46.672,16.471c2.092,0.738,4.437,0.783,6.656,0L306,42.957c0,22.484,0,129.774,0,147.042
			c0,27.57-22.43,50-50,50S206,217.569,206,189.999z M386,429.999v62H284.06L266,408.926V259.273c33.877-4.869,60-34.072,60-69.274
			V97.324c20.572,19.064,34.694,44.527,39.778,72.331l-15.701,62.792c-6.736,26.974-5.325,56.335,5.698,83.927
			C365.879,345.912,386,376.54,386,429.999z M382.615,153.571C373.64,120.753,353.607,91.596,326,71.484V39.999h10
			c47.863,0,87.12,37.558,89.849,84.749L382.615,153.571z"/>
	</g>
</g>
<g>
	<g>
		<path d="M276,139.999c-5.523,0-10,4.478-10,10v40c0,5.514-4.486,10-10,10c-5.523,0-10,4.478-10,10c0,5.522,4.477,10,10,10
			c16.542,0,30-13.458,30-30v-40C286,144.477,281.523,139.999,276,139.999z"/>
	</g>
</g>
<g>
</g>
<g>
</g>
<g>
</g>
<g>
</g>
<g>
</g>
<g>
</g>
<g>
</g>
<g>
</g>
<g>
</g>
<g>
</g>
<g>
</g>
<g>
</g>
<g>
</g>
<g>
</g>
<g>
</g>
</svg>
