<?xml version="1.0" encoding="iso-8859-1"?>
<!-- Generator: Adobe Illustrator 19.0.0, SVG Export Plug-In . SVG Version: 6.00 Build 0)  -->
<svg version="1.1" id="Capa_1" xmlns="http://www.w3.org/2000/svg" xmlns:xlink="http://www.w3.org/1999/xlink" x="0px" y="0px"
	 viewBox="0 0 512 512" style="enable-background:new 0 0 512 512;" xml:space="preserve">
<g>
	<g>
		<g>
			<path d="M184.371,318.247h61.613c8.751,0,15.871,7.119,15.871,15.87c0,17.022,13.849,30.87,30.87,30.87h72.333
				c36.005,0,65.298-29.292,65.298-65.297v-95.801c0-36.006-29.293-65.298-65.298-65.298h-39.793v-28.242H105.091v28.242H65.298
				C29.292,138.591,0,167.883,0,203.889v95.801c0,36.005,29.292,65.297,65.298,65.297h72.333c17.022,0,30.871-13.849,30.871-30.87
				C168.501,325.366,175.62,318.247,184.371,318.247z M120.091,125.349h190.174v13.242H120.091V125.349z M153.501,334.117
				c0,8.751-7.12,15.87-15.871,15.87H65.298C37.563,349.987,15,327.423,15,299.69v-95.801c0-27.734,22.563-50.298,50.298-50.298
				h39.793h220.174h39.793c27.734,0,50.298,22.564,50.298,50.298v95.801c0,27.733-22.564,50.297-50.298,50.297h-72.333
				c-8.751,0-15.87-7.119-15.87-15.87c0-17.021-13.849-30.87-30.871-30.87h-61.613C167.349,303.247,153.501,317.095,153.501,334.117
				z"/>
			<path d="M245.984,281.706c24.296,0,45.802,17.196,51.137,40.889l1.317,5.853h66.619c15.857,0,28.757-12.9,28.757-28.757V203.89
				c0-15.857-12.9-28.757-28.757-28.757H65.298c-15.857,0-28.757,12.9-28.757,28.757v95.801c0,15.856,12.9,28.757,28.757,28.757
				h66.62l1.318-5.853c5.334-23.692,26.84-40.889,51.136-40.889H245.984z M141.986,281.728
				c-10.188,8.257-17.779,19.361-21.781,31.719H65.298c-7.586,0-13.757-6.171-13.757-13.757v-95.801
				c0-7.586,6.171-13.757,13.757-13.757h299.76c7.586,0,13.757,6.171,13.757,13.757v95.801c0,7.586-6.171,13.757-13.757,13.757
				H310.15c-4.002-12.357-11.593-23.462-21.781-31.719c-11.954-9.688-27.007-15.022-42.385-15.022h-61.613
				C168.993,266.706,153.94,272.04,141.986,281.728z"/>
			<rect x="279.91" y="199.15" width="16.365" height="15"/>
			<path d="M354.802,237.983h15v-27.135c0-6.453-5.25-11.703-11.702-11.703h-46.717v15h43.419V237.983z"/>
			
				<rect x="88.488" y="228.854" transform="matrix(-0.7071 -0.7071 0.7071 -0.7071 -22.0782 516.7725)" width="15" height="68.209"/>
			
				<rect x="137.275" y="230.854" transform="matrix(-0.7071 -0.7071 0.7071 -0.7071 71.7381 525.8415)" width="15" height="34.419"/>
			
				<rect x="284.584" y="230.836" transform="matrix(0.7071 0.7071 -0.7071 0.7071 260.9452 -133.8838)" width="15" height="34.419"/>
			<path d="M442.459,0.013v407.669c0,9.237-7.515,16.752-16.752,16.752H331.44c-9.18-15.771-26.259-26.402-45.785-26.402h-71.026
				c-29.197,0-52.951,23.753-52.951,52.95v8.054c0,29.197,23.753,52.951,52.951,52.951h71.026c15.817,0,30.027-6.98,39.738-18.012
				h128.119c32.251,0,58.488-26.237,58.488-58.488V0.013H442.459z M323.605,459.036c0,20.926-17.024,37.951-37.95,37.951h-71.026
				c-20.926,0-37.951-17.024-37.951-37.951v-8.054c0-20.926,17.024-37.95,37.951-37.95h71.026c20.926,0,37.95,17.024,37.95,37.95
				V459.036z M497,435.487c0,23.979-19.509,43.488-43.488,43.488H334.695c2.513-6.159,3.91-12.887,3.91-19.939v-8.054
				c0-3.967-0.452-7.828-1.284-11.548h88.385c17.508,0,31.752-14.244,31.752-31.752V111.228H497V435.487z M497,96.228h-39.541
				V66.994H497V96.228z M497,51.993h-39.541v-36.98H497V51.993z"/>
			<rect x="474" y="309.42" width="15" height="12.688"/>
			<path d="M417.298,455.975v15h36.214c19.568,0,35.488-15.92,35.488-35.488v-82.15h-15v82.15c0,11.297-9.191,20.488-20.488,20.488
				H417.298z"/>
			<rect x="205.22" y="435.29" width="90.38" height="15"/>
			<rect x="205.22" y="461.88" width="90.38" height="15"/>
			<path d="M362.924,103.818c18.518,0,33.582-15.064,33.582-33.582c0-18.518-15.064-33.582-33.582-33.582
				c-18.517,0-33.582,15.064-33.582,33.582C329.342,88.753,344.406,103.818,362.924,103.818z M362.924,51.654
				c10.246,0,18.582,8.336,18.582,18.582c0,10.246-8.336,18.582-18.582,18.582c-10.246,0-18.582-8.336-18.582-18.582
				C344.342,59.99,352.678,51.654,362.924,51.654z"/>
			<path d="M277.816,55.264c14.269,0,25.877-11.608,25.877-25.877c0-14.269-11.608-25.878-25.877-25.878
				c-14.27,0-25.878,11.608-25.878,25.878C251.938,43.656,263.547,55.264,277.816,55.264z M277.816,18.509
				c5.998,0,10.877,4.88,10.877,10.878c0,5.998-4.879,10.877-10.877,10.877s-10.878-4.879-10.878-10.877
				C266.938,23.389,271.818,18.509,277.816,18.509z"/>
		</g>
	</g>
</g>
<g>
</g>
<g>
</g>
<g>
</g>
<g>
</g>
<g>
</g>
<g>
</g>
<g>
</g>
<g>
</g>
<g>
</g>
<g>
</g>
<g>
</g>
<g>
</g>
<g>
</g>
<g>
</g>
<g>
</g>
</svg>
